<svg xmlns="http://www.w3.org/2000/svg" xmlns:xlink="http://www.w3.org/1999/xlink" width="256px" height="256px" viewBox="0 0 256 256" version="1.1">
    <title>Android</title>
<rect width="256" height="256" fill="rgb(64.313725%,77.647059%,22.352941%)" rx="60"/>

<g id="surface1">
<!-- <path style=" stroke:none;fill-rule:nonzero;fill:rgb(64.313725%,77.647059%,22.352941%);fill-opacity:1;" d="M 38.398438 0 L 217.601562 0 C 238.808594 0 256 17.191406 256 38.398438 L 256 217.601562 C 256 238.808594 238.808594 256 217.601562 256 L 38.398438 256 C 17.191406 256 0 238.808594 0 217.601562 L 0 38.398438 C 0 17.191406 17.191406 0 38.398438 0 Z M 38.398438 0 "/> -->
<path style="fill-rule:nonzero;fill:rgb(0%,0%,0%);fill-opacity:1;stroke-width:58;stroke-linecap:round;stroke-linejoin:miter;stroke:rgb(100%,100%,100%);stroke-opacity:1;stroke-miterlimit:4;" d="M 107 212 L 107 318 M 406 212 L 406 318 M 299 384 L 299 440 M 214 384 L 214 440 " transform="matrix(0.5,0,0,0.5,0,0)"/>
<path style="fill-rule:nonzero;fill:rgb(0%,0%,0%);fill-opacity:1;stroke-width:8;stroke-linecap:round;stroke-linejoin:miter;stroke:rgb(100%,100%,100%);stroke-opacity:1;stroke-miterlimit:4;" d="M 203 88 L 186 56 M 309 88 L 327 56 " transform="matrix(0.5,0,0,0.5,0,0)"/>
<path style=" stroke:none;fill-rule:nonzero;fill:rgb(100%,100%,100%);fill-opacity:1;" d="M 128.5 38 C 90.5 38 71 68 71 90.5 L 185.5 90.5 C 185.5 67 164.5 38.5 128.5 38 Z M 71 95.5 L 71 177.5 C 71 185.5 77.5 192 85 192 L 171 192 C 179 192 185.5 185.5 185.5 177.5 L 185.5 95.5 Z M 71 95.5 "/>
<path style=" stroke:none;fill-rule:nonzero;fill:rgb(64.313725%,77.647059%,22.352941%);fill-opacity:1;" d="M 106.5 65 C 106.5 67.484375 104.484375 69.5 102 69.5 C 99.515625 69.5 97.5 67.484375 97.5 65 C 97.5 62.515625 99.515625 60.5 102 60.5 C 104.484375 60.5 106.5 62.515625 106.5 65 Z M 106.5 65 "/>
<path style=" stroke:none;fill-rule:nonzero;fill:rgb(64.313725%,77.647059%,22.352941%);fill-opacity:1;" d="M 159 65 C 159 67.484375 156.984375 69.5 154.5 69.5 C 152.015625 69.5 150 67.484375 150 65 C 150 62.515625 152.015625 60.5 154.5 60.5 C 156.984375 60.5 159 62.515625 159 65 Z M 159 65 "/>
</g>
</svg>
