<svg width="256px" height="256px" viewBox="0 0 256 256" xmlns="http://www.w3.org/2000/svg"
    xmlns:svg="http://www.w3.org/2000/svg">
    <title>ApacheZookeeper</title>
    <rect width="256" height="256" fill="#242938" rx="60" id="rect1" />
    <defs id="defs29">
        <linearGradient id="linear0" gradientUnits="userSpaceOnUse" x1="131.029007" y1="233.936005" x2="143.5"
            y2="233.936005">
            <stop offset="0" style="stop-color:rgb(78.431373%,69.019608%,56.862745%);stop-opacity:1;" id="stop1" />
            <stop offset="0.199" style="stop-color:rgb(77.254902%,65.490196%,53.333333%);stop-opacity:1;" id="stop2" />
            <stop offset="0.529" style="stop-color:rgb(73.72549%,55.686275%,43.137255%);stop-opacity:1;" id="stop3" />
            <stop offset="0.948" style="stop-color:rgb(67.843137%,40.392157%,27.058824%);stop-opacity:1;" id="stop4" />
            <stop offset="0.994" style="stop-color:rgb(67.058824%,38.431373%,25.098039%);stop-opacity:1;" id="stop5" />
        </linearGradient>
        <linearGradient id="linear1" gradientUnits="userSpaceOnUse" x1="131.998001" y1="341.230988" x2="142.759995"
            y2="341.230988" gradientTransform="matrix(0.708455,0,0,0.708455,-37.593956,-22.315165)">
            <stop offset="0" style="stop-color:rgb(53.333333%,47.058824%,43.529412%);stop-opacity:1;" id="stop6" />
            <stop offset="0.105" style="stop-color:rgb(50.196078%,43.529412%,40%);stop-opacity:1;" id="stop7" />
            <stop offset="0.281" style="stop-color:rgb(41.960784%,34.117647%,29.803922%);stop-opacity:1;" id="stop8" />
            <stop offset="0.503" style="stop-color:rgb(28.627451%,18.823529%,13.72549%);stop-opacity:1;" id="stop9" />
            <stop offset="0.622" style="stop-color:rgb(20.392157%,9.411765%,3.921569%);stop-opacity:1;" id="stop10" />
            <stop offset="1" style="stop-color:rgb(24.313725%,13.72549%,8.627451%);stop-opacity:1;" id="stop11" />
        </linearGradient>
        <linearGradient id="linear2" gradientUnits="userSpaceOnUse" x1="277.187988" y1="161.440994" x2="284.604004"
            y2="161.440994">
            <stop offset="0" style="stop-color:rgb(97.254902%,98.431373%,60.784314%);stop-opacity:1;" id="stop12" />
            <stop offset="0.126" style="stop-color:rgb(96.078431%,97.254902%,57.254902%);stop-opacity:1;" id="stop13" />
            <stop offset="0.334" style="stop-color:rgb(93.72549%,93.72549%,47.058824%);stop-opacity:1;" id="stop14" />
            <stop offset="0.601" style="stop-color:rgb(89.019608%,88.235294%,30.980392%);stop-opacity:1;" id="stop15" />
            <stop offset="0.911" style="stop-color:rgb(83.137255%,80.784314%,8.627451%);stop-opacity:1;" id="stop16" />
            <stop offset="1" style="stop-color:rgb(81.176471%,78.431373%,1.568627%);stop-opacity:1;" id="stop17" />
        </linearGradient>
        <linearGradient id="linear3" gradientUnits="userSpaceOnUse" x1="276.024994" y1="182.382996" x2="283.440002"
            y2="182.382996">
            <stop offset="0" style="stop-color:rgb(97.254902%,98.431373%,60.784314%);stop-opacity:1;" id="stop18" />
            <stop offset="0.126" style="stop-color:rgb(96.078431%,97.254902%,57.254902%);stop-opacity:1;" id="stop19" />
            <stop offset="0.334" style="stop-color:rgb(93.72549%,93.72549%,47.058824%);stop-opacity:1;" id="stop20" />
            <stop offset="0.601" style="stop-color:rgb(89.019608%,88.235294%,30.980392%);stop-opacity:1;" id="stop21" />
            <stop offset="0.911" style="stop-color:rgb(83.137255%,80.784314%,8.627451%);stop-opacity:1;" id="stop22" />
            <stop offset="1" style="stop-color:rgb(81.176471%,78.431373%,1.568627%);stop-opacity:1;" id="stop23" />
        </linearGradient>
        <linearGradient id="linear4" gradientUnits="userSpaceOnUse" x1="274.859985" y1="203.324997" x2="282.278015"
            y2="203.324997">
            <stop offset="0" style="stop-color:rgb(97.254902%,98.431373%,60.784314%);stop-opacity:1;" id="stop24" />
            <stop offset="0.126" style="stop-color:rgb(96.078431%,97.254902%,57.254902%);stop-opacity:1;" id="stop25" />
            <stop offset="0.334" style="stop-color:rgb(93.72549%,93.72549%,47.058824%);stop-opacity:1;" id="stop26" />
            <stop offset="0.601" style="stop-color:rgb(89.019608%,88.235294%,30.980392%);stop-opacity:1;" id="stop27" />
            <stop offset="0.911" style="stop-color:rgb(83.137255%,80.784314%,8.627451%);stop-opacity:1;" id="stop28" />
            <stop offset="1" style="stop-color:rgb(81.176471%,78.431373%,1.568627%);stop-opacity:1;" id="stop29" />
        </linearGradient>
    </defs>
    <g id="surface1" transform="matrix(0.83847131,0,0,0.88549996,20.142516,15.988581)">
        <path
            style="fill:#331c07;fill-opacity:1;fill-rule:nonzero;stroke:#000000;stroke-width:0.5;stroke-linecap:butt;stroke-linejoin:miter;stroke-miterlimit:4;stroke-opacity:1"
            d="m 310.68936,339.81098 c 0,-2.83408 -4.90724,-5.13882 -10.96134,-5.13882 -6.04859,0 -10.95583,2.30474 -10.95583,5.13882 0,2.83958 4.90724,5.14433 10.95583,5.14433 6.0541,0 10.96134,-2.30475 10.96134,-5.14433 z m 0,0"
            transform="matrix(0.708455,0,0,0.708455,-37.593956,-22.315165)" id="path29" />
        <path
            style="fill:#f8c799;fill-opacity:1;fill-rule:nonzero;stroke:#000000;stroke-width:0.5;stroke-linecap:butt;stroke-linejoin:miter;stroke-miterlimit:10;stroke-opacity:1"
            d="m 217.7054,319.45419 c 0,0 4.36138,18.61444 4.94584,24.13922 0.57894,5.5303 11.63402,8.14933 12.79742,1.74786 1.1634,-6.40147 5.23807,-22.10464 5.23807,-22.10464 z m 69.51742,4.06915 c 0,0 5.81701,13.96634 5.81701,21.81793 0,7.85159 13.96083,9.01499 15.12423,3.77692 1.16341,-5.23806 2.91127,-25.88708 2.91127,-25.88708 z m 0,0"
            transform="matrix(0.708455,0,0,0.708455,-37.593956,-22.315165)" id="path30" />
        <path
            style="fill:#a15711;fill-opacity:1;fill-rule:nonzero;stroke:#000000;stroke-width:0.5;stroke-linecap:butt;stroke-linejoin:miter;stroke-miterlimit:10;stroke-opacity:1"
            d="m 234.77047,336.02854 c -2.32681,0.97042 -8.92126,1.74786 -11.44104,0.77744 -2.51979,-0.97042 0.19298,9.11424 0.97042,12.21848 0.77744,3.10424 8.92125,2.51979 8.92125,2.51979 z m 0,0"
            transform="matrix(0.708455,0,0,0.708455,-37.593956,-22.315165)" id="path31" />
        <path
            style="fill:#4c2e0c;fill-opacity:1;fill-rule:nonzero;stroke:#000000;stroke-width:0.5;stroke-linecap:butt;stroke-linejoin:miter;stroke-miterlimit:4;stroke-opacity:1"
            d="m 225.84921,344.029 c 0,-6.42353 -2.17793,-11.63403 -4.86864,-11.63403 -2.69072,0 -4.87416,5.2105 -4.87416,11.63403 0,6.42904 2.18344,11.63954 4.87416,11.63954 2.69071,0 4.86864,-5.2105 4.86864,-11.63954 z m 0,0"
            transform="matrix(0.708455,0,0,0.708455,-37.593956,-22.315165)" id="path32" />
        <path
            style="fill:#4c2e0c;fill-opacity:1;fill-rule:nonzero;stroke:#000000;stroke-width:0.5;stroke-linecap:butt;stroke-linejoin:miter;stroke-miterlimit:4;stroke-opacity:1"
            d="m 241.26567,345.26959 c 0,-6.30773 -2.2441,-11.41898 -5.01752,-11.41898 -2.7679,0 -5.01751,5.11125 -5.01751,11.41898 0,6.30223 2.24961,11.41348 5.01751,11.41348 2.77342,0 5.01752,-5.11125 5.01752,-11.41348 z m 0,0"
            transform="matrix(0.708455,0,0,0.708455,-37.593956,-22.315165)" id="path33" />
        <path
            style="fill:#9c5411;fill-opacity:1;fill-rule:nonzero;stroke:#000000;stroke-width:0.5;stroke-linecap:butt;stroke-linejoin:miter;stroke-miterlimit:10;stroke-opacity:1"
            d="m 202.14558,377.76767 -0.14336,-13.6686 c -0.14887,-7.55936 7.85159,-17.15881 24.13922,-16.72322 16.28763,0.43558 23.85251,9.45057 23.85251,18.17885 0,8.72827 -0.72782,15.70869 -1.60451,17.45103 -0.87117,1.74786 -42.59927,2.32681 -44.19826,0.72782 -1.59899,-1.59899 -2.03457,-5.96037 -2.03457,-5.96037 z m 0,0"
            transform="matrix(0.708455,0,0,0.708455,-37.593956,-22.315165)" id="path34" />
        <path
            style="fill:#4c2e0c;fill-opacity:1;fill-rule:nonzero;stroke:#000000;stroke-width:0.5;stroke-linecap:butt;stroke-linejoin:miter;stroke-miterlimit:10;stroke-opacity:1"
            d="m 202.14558,389.55056 c -2.76239,-0.72782 -3.78244,-3.63908 -3.92579,-6.39596 -0.14887,-2.76239 2.17793,-5.10022 3.92579,-5.38693 1.30676,1.74786 3.92579,2.47567 6.2526,2.90023 2.3268,0.43007 32.13968,0.72782 35.62988,0.43559 3.49021,-0.28672 4.36138,-2.32129 4.94584,-3.19247 2.47568,0.86566 3.50124,3.4847 3.63357,5.96037 0.13784,2.47017 -1.01453,4.79697 -3.49572,5.66814 -2.48671,0.87669 -15.56534,2.90024 -24.58032,2.76791 -9.01499,-0.13785 -22.39688,-2.76791 -22.39688,-2.76791 z m 0,0"
            transform="matrix(0.708455,0,0,0.708455,-37.593956,-22.315165)" id="path35" />
        <path
            style="fill:#9c5411;fill-opacity:1;fill-rule:nonzero;stroke:#000000;stroke-width:0.5;stroke-linecap:butt;stroke-linejoin:miter;stroke-miterlimit:10;stroke-opacity:1"
            d="m 310.63974,342.43001 c 0,0 -7.8571,4.65361 -17.90316,1.1634 -6.54483,-0.87117 -8.29821,-0.87117 -8.14382,2.32681 0.15438,3.20349 1.02004,11.92625 -2.03458,15.55981 -3.05462,3.63357 -6.25259,13.10068 -1.59898,17.45104 4.6536,4.35587 71.98758,3.9313 74.60662,3.20349 2.61903,-0.72782 4.21802,-5.38143 4.21802,-5.38143 0,0 0.87117,-9.9027 0.57894,-15.12423 -0.29223,-5.22704 -7.55936,-14.83751 -19.92671,-14.39641 -12.36184,0.43559 -17.44552,9.15835 -22.97582,10.32175 -4.65361,-4.36138 -6.40147,-9.45058 -6.40147,-10.47062 0,-1.02005 -0.43007,-4.65361 -0.43007,-4.65361 z m 0,0"
            transform="matrix(0.708455,0,0,0.708455,-37.593956,-22.315165)" id="path36" />
        <path
            style="fill:#4c2e0c;fill-opacity:1;fill-rule:nonzero;stroke:#000000;stroke-width:0.5;stroke-linecap:butt;stroke-linejoin:miter;stroke-miterlimit:10;stroke-opacity:1"
            d="m 295.58719,358.35373 c 4.36138,0 7.4987,-1.96289 7.85159,-6.47315 0.35287,-4.50473 -0.72782,-6.9749 -3.9258,-7.19545 -3.20349,-0.22055 -7.12928,-0.87117 -9.0205,-2.10625 -1.88571,-1.23508 -2.09523,-3.50123 -1.29573,-4.43857 0.79949,-0.93734 2.17793,-1.81954 2.17793,-1.81954 l -0.50175,-1.37844 c 0,0 -7.19545,2.76239 -6.53932,10.47062 0.65614,7.70823 4.50474,12.94078 11.27012,12.94078 z m 7.92326,-13.6686 c 2.39849,0.94286 2.91127,2.7624 2.54736,4.72529 -0.36391,1.9629 -1.1634,7.63655 2.97743,7.416 4.14634,-0.21503 5.23806,-8.2982 4.87416,-11.99793 -0.36391,-3.69421 -2.7624,-7.26713 -3.85412,-8.14381 l -0.21504,1.10275 c 0,0 0.82155,0.57894 0.84912,2.03457 0.0221,1.45563 -2.45362,4.21803 -7.17891,4.87416 z m 0,0"
            transform="matrix(0.708455,0,0,0.708455,-37.593956,-22.315165)" id="path37" />
        <path
            style="fill:none;stroke:#000000;stroke-width:0.5;stroke-linecap:butt;stroke-linejoin:miter;stroke-miterlimit:10;stroke-opacity:1"
            d="m 317.47128,357.55424 c -2.22756,4.8521 -4.36138,20.3623 -2.42054,24.62994"
            transform="matrix(0.708455,0,0,0.708455,-37.593956,-22.315165)" id="path38" />
        <path
            style="fill:#4c2e0c;fill-opacity:1;fill-rule:nonzero;stroke:#000000;stroke-width:0.5;stroke-linecap:butt;stroke-linejoin:miter;stroke-miterlimit:10;stroke-opacity:1"
            d="m 280.97022,378.93658 c 0,0 -3.34685,2.03458 -3.05462,5.23255 0.29223,3.19798 2.76239,3.9258 6.40147,4.80249 3.63357,0.87117 38.10005,1.89673 44.35265,2.17793 6.2526,0.2812 27.63494,-1.30125 31.2685,-2.76239 3.63908,-1.46666 6.83706,-7.8571 -0.14335,-11.63954 -2.7624,3.06013 -4.94584,3.63908 -9.45609,4.22354 -4.50474,0.58445 -25.59486,0.72781 -34.31762,0.43558 l -31.99632,-0.72781 c -2.18344,-0.14336 -3.05462,-1.74235 -3.05462,-1.74235 z m 0,0"
            transform="matrix(0.708455,0,0,0.708455,-37.593956,-22.315165)" id="path39" />
        <path
            style="fill:#f8c799;fill-opacity:1;fill-rule:nonzero;stroke:#000000;stroke-width:0.5;stroke-linecap:butt;stroke-linejoin:miter;stroke-miterlimit:10;stroke-opacity:1"
            d="m 265.55376,115.41217 c -1.02004,1.1634 -5.81701,6.69921 -3.50123,11.34179 2.31578,4.64259 15.55982,25.01591 15.55982,25.01591 0,0 29.23392,-14.832 28.36275,-21.81241 -0.87117,-6.98593 -6.83705,-15.27311 -6.83705,-15.27311 z m 71.89937,105.63252 c 0.97042,-0.97042 3.09873,-5.72328 -2.61903,-7.47114 -4.55436,-0.57894 -7.85159,1.55488 -8.82201,2.62455 -0.96491,1.06415 2.03457,6.78743 3.87617,6.98041 1.84711,0.19298 7.56487,-2.13382 7.56487,-2.13382 z m 0,0"
            transform="matrix(0.708455,0,0,0.708455,-37.593956,-22.315165)" id="path40" />
        <path
            style="fill:#f8c799;fill-opacity:1;fill-rule:nonzero;stroke:#000000;stroke-width:0.5;stroke-linecap:butt;stroke-linejoin:miter;stroke-miterlimit:10;stroke-opacity:1"
            d="m 341.41752,226.27724 c 0.87669,-1.25713 2.71828,-4.45511 -1.54937,-6.58893 -4.26213,-2.13383 -9.98541,0.0992 -11.44104,2.3268 -1.45563,2.22756 2.42605,7.1734 3.20349,7.1734 0.77193,0 9.78692,-2.90024 9.78692,-2.90024 z m 0,0"
            transform="matrix(0.708455,0,0,0.708455,-37.593956,-22.315165)" id="path41" />
        <path
            style="fill:#f8c799;fill-opacity:1;fill-rule:nonzero;stroke:#000000;stroke-width:0.5;stroke-linecap:butt;stroke-linejoin:miter;stroke-miterlimit:10;stroke-opacity:1"
            d="m 331.8677,202.81622 -5.37592,9.45609 c 0,0 3.005,3.92579 4.1684,8.86611 1.16341,4.94584 -0.77744,6.69922 0.87118,6.40147 1.64861,-0.29774 11.24806,-2.90575 13.10068,-1.74786 1.85262,1.16341 4.36138,5.91626 2.61352,9.11424 -1.74235,3.19798 -6.78192,9.79243 -13.86158,11.54029 -7.07966,1.74786 -15.60944,-1.45563 -18.80191,-5.91626 -3.19246,-4.46063 -8.23755,-18.8019 -8.43604,-21.3272 -0.19298,-2.53082 3.20349,-10.18391 3.20349,-10.18391 l 13.18339,-5.91075 z m 0,0"
            transform="matrix(0.708455,0,0,0.708455,-37.593956,-22.315165)" id="path42" />
        <path
            style="fill:#f8c799;fill-opacity:1;fill-rule:nonzero;stroke:#000000;stroke-width:0.5;stroke-linecap:butt;stroke-linejoin:miter;stroke-miterlimit:10;stroke-opacity:1"
            d="m 325.03615,211.54449 c 2.42054,1.35638 6.30223,4.36138 7.26713,9.5002 0.97042,5.13882 -1.06415,11.63402 -4.36138,14.34679"
            transform="matrix(0.708455,0,0,0.708455,-37.593956,-22.315165)" id="path43" />
        <path
            style="fill:#f8c799;fill-opacity:1;fill-rule:nonzero;stroke:#000000;stroke-width:0.5;stroke-linecap:butt;stroke-linejoin:miter;stroke-miterlimit:10;stroke-opacity:1"
            d="m 341.69872,234.42106 c 0,0 -2.3268,3.29723 -7.75785,2.51979 -5.43105,-0.77744 -5.03957,-7.55936 -2.42054,-9.40096 2.61352,-1.84159 6.78192,-3.29722 9.59945,-2.81201 2.81201,0.48521 4.16288,1.74235 4.16288,1.74235"
            transform="matrix(0.708455,0,0,0.708455,-37.593956,-22.315165)" id="path44" />
        <path
            style="fill:#f8c799;fill-opacity:1;fill-rule:nonzero;stroke:#000000;stroke-width:0.5;stroke-linecap:butt;stroke-linejoin:miter;stroke-miterlimit:10;stroke-opacity:1"
            d="m 334.34337,228.89628 2.61904,4.84659 c 0,0 -1.65413,1.35638 -3.58946,0.48521 -1.94084,-0.87117 -1.94084,-2.32681 -1.45563,-3.58394 0.48521,-1.26265 2.42605,-1.74786 2.42605,-1.74786 z m 0,0"
            transform="matrix(0.708455,0,0,0.708455,-37.593956,-22.315165)" id="path45" />
        <path
            style="fill:#6b9757;fill-opacity:1;fill-rule:nonzero;stroke:#000000;stroke-width:0.5;stroke-linecap:butt;stroke-linejoin:miter;stroke-miterlimit:10;stroke-opacity:1"
            d="m 314.46629,123.99157 c 0,0 10.76284,5.67366 12.49968,12.65407 5.23255,1.74235 11.39142,9.42852 10.80144,15.05255 5.62403,2.32681 8.11625,5.58544 8.11625,9.26862 3.10425,2.71277 7.74683,9.67664 2.1228,19.7613 -5.62403,10.07915 -8.92677,17.05405 -8.92677,17.05405 l -22.49612,-1.94636 -1.94085,-6.79846 10.47063,-19.39187 c 0,0 -4.65361,-7.55936 -10.08466,-7.75786 -1.35639,5.81701 -2.71277,14.15381 -2.71277,14.15381 l 0.57894,31.99632 -2.90574,1.74786 -0.58446,7.1734 7.17339,14.93125 2.51979,2.3268 -6.59445,10.27764 1.55488,2.90024 8.92125,21.91166 -0.19298,2.71277 5.23807,6.78743 -0.1985,2.90575 2.90024,7.17891 -5.62403,12.79742 -3.50124,6.98042 3.29723,10.07914 c 0,0 -9.10872,8.34231 -24.23847,8.14933 -15.12423,-0.19849 -25.40187,-7.95083 -25.40187,-7.95083 l -2.90575,-1.74235 c 0,0 3.29723,-19.00591 2.51979,-29.66952 -0.77744,-10.66911 -3.10425,-26.76376 -3.10425,-30.44695 0,-3.68319 -0.97042,-14.15381 -0.97042,-14.15381 l -1.55487,33.54568 c -0.19299,11.24806 -1.74235,26.56528 -3.68319,29.66952 -1.93533,3.09873 -4.06915,4.06915 -4.06915,4.06915 l 2.13382,3.6887 0.57894,4.45512 -2.3268,2.90023 -4.26765,-1.1634 c 0,0 -8.3368,9.6987 -23.46103,7.95084 -15.12423,-1.74235 -24.43144,-9.30722 -25.40187,-15.5102 -3.50123,-2.51978 -3.87617,-4.26764 -3.87617,-4.26764 l 9.8972,-11.44105 -5.62404,-3.29722 4.65361,-8.3368 c 0,0 3.29723,-8.14382 3.88169,-10.8621 0.57894,-2.71276 2.3268,-9.30722 2.3268,-9.30722 l -4.8521,0.19299 7.95083,-12.40044 -0.57894,-8.52978 14.54528,-30.83292 -0.58445,-5.03957 -1.95187,-2.71828 -1.58796,-10.75734 1.02004,-5.82252 c 0,0 5.03406,-6.10373 5.60198,-11.14881 0.56791,-5.03958 -2.41503,-10.08466 -2.41503,-10.08466 l -33.98127,22.30314 -4.86865,0.38596 -13.97185,6.20849 -3.30826,-1.3619 c 0,0 -1.1634,-1.93533 -1.54936,-5.03957 -0.39148,-3.09873 -0.006,-17.06507 1.15789,-19.0004 1.1634,-1.94084 3.88168,-1.94084 3.88168,-1.94084 0,0 4.45511,-0.77744 7.94532,-3.10425 3.49021,-2.3268 25.01591,-18.22847 30.25398,-22.29762 5.23255,-4.07467 23.46102,-19.77784 23.46102,-19.77784 0,0 6.20298,-4.85211 9.69319,-6.00448 3.4902,-1.14686 5.81701,-0.96491 5.81701,-0.96491 l 0.19298,16.6736 15.70869,17.7984 17.06507,-10.22802 13.57486,-12.60444 z m 0,0"
            transform="matrix(0.708455,0,0,0.708455,-37.593956,-22.315165)" id="path46" />
        <path
            style="fill:#6b9757;fill-opacity:1;fill-rule:nonzero;stroke:#000000;stroke-width:0.5;stroke-linecap:butt;stroke-linejoin:miter;stroke-miterlimit:10;stroke-opacity:1"
            d="m 262.93473,115.99111 -2.3268,1.45564 -10.03504,16.72321 10.9007,1.02005 -3.9258,7.56487 20.64901,10.90621 1.74235,-2.03458 -14.98087,-18.47108 c -3.49572,-4.36138 -4.49923,-14.1097 -0.57895,-16.72321 3.91477,-2.61904 -1.45563,-0.44111 -1.45563,-0.44111"
            transform="matrix(0.708455,0,0,0.708455,-37.593956,-22.315165)" id="path47" />
        <path
            style="fill:#6b9757;fill-opacity:1;fill-rule:nonzero;stroke:#000000;stroke-width:0.5;stroke-linecap:butt;stroke-linejoin:miter;stroke-miterlimit:10;stroke-opacity:1"
            d="m 272.24195,155.91621 31.19683,-5.19947 -3.67217,-13.29917 13.34329,1.69823 1.1634,-15.41646 -13.81747,-8.87163 -1.30124,-0.14336 c 0,0 3.34685,4.36138 3.50123,9.74281 0.15439,5.38142 -4.79697,9.45058 -8.86612,12.94078 L 272.264,155.9107 Z m 21.66906,10.68566 20.64901,-6.83154 2.18345,11.04956 -19.34226,12.36184 z m -22.29763,-10.32175 0.77744,45.17971 -3.49572,12.79743 -0.1985,12.40043 -0.58445,12.21297 2.71828,4.07467 7.36637,-1.74786 m 13.57487,-28.69359 -11.44104,-0.97042 0.77192,5.43105 11.44656,2.12831 z m 0,0"
            transform="matrix(0.708455,0,0,0.708455,-37.593956,-22.315165)" id="path48" />
        <path
            style="fill:#6b9757;fill-opacity:1;fill-rule:nonzero;stroke:#000000;stroke-width:0.5;stroke-linecap:butt;stroke-linejoin:miter;stroke-miterlimit:10;stroke-opacity:1"
            d="m 310.00566,209.79663 -10.07915,2.51979 1.35639,6.78743 8.14381,-2.13382 m -51.38819,-6.78744 8.72827,0.77744 0.38596,6.98042 -10.27764,-0.97042 z m -21.52571,-1.74234 12.60445,0.38596 -0.57895,7.17339 -11.44104,-1.74234 m 4.84659,-55.07139 -4.84659,8.72828 21.13423,16.48061 6.40147,-15.70869 z m 97.34535,43.48147 c 0,0 0,-6.25259 1.89673,-8.72276 -4.65361,-2.04009 -15.85204,-6.54482 -21.96128,-5.81701 -2.90024,3.50124 -8.0942,13.6686 -6.30223,19.9212 6.73781,-2.32681 26.37229,-5.37591 26.37229,-5.37591 z m -147.03531,-37.08 6.69922,9.74281 4.21802,10.9062 c 0,0 -2.61352,3.63357 -5.52478,4.94584 -2.90575,1.30676 -13.28264,5.62403 -13.28264,5.62403 l -3.29723,-1.36189 c 0,0 3.05462,-1.93533 3.50124,-12.99593 0.44661,-11.0661 -2.32681,-12.51071 -2.32681,-12.51071 l 6.54483,-2.47016 z m 98.75136,102.52828 c 0,0 4.21802,14.68864 10.32726,24.14473 3.04911,-2.04009 24.28809,-3.50123 29.42691,-3.34685"
            transform="matrix(0.708455,0,0,0.708455,-37.593956,-22.315165)" id="path49" />
        <path
            style="fill:none;stroke:#000000;stroke-width:0.5;stroke-linecap:butt;stroke-linejoin:miter;stroke-miterlimit:10;stroke-opacity:1"
            d="m 209.17562,293.56711 c 3.87617,1.01453 20.31267,3.34134 20.31267,3.34134 0,0 8.87163,2.18344 13.6686,0.14887 2.47016,-5.5303 9.89719,-31.12515 9.89719,-31.12515 0,0 -7.12377,-8.2982 -13.52524,-9.59945 -6.39596,-1.29573 -16.43099,-4.79696 -16.43099,-4.79696"
            transform="matrix(0.708455,0,0,0.708455,-37.593956,-22.315165)" id="path50" />
        <path
            style="fill:#6b9757;fill-opacity:1;fill-rule:nonzero;stroke:#000000;stroke-width:0.5;stroke-linecap:butt;stroke-linejoin:miter;stroke-miterlimit:10;stroke-opacity:1"
            d="m 220.0322,265.061 c 3.50124,-0.43559 20.79789,0 30.68405,7.12377"
            transform="matrix(0.708455,0,0,0.708455,-37.593956,-22.315165)" id="path51" />
        <path
            style="fill:none;stroke:#000000;stroke-width:0.5;stroke-linecap:butt;stroke-linejoin:miter;stroke-miterlimit:10;stroke-opacity:1"
            d="m 214.79965,296.86434 2.76239,9.64356" transform="matrix(0.708455,0,0,0.708455,-37.593956,-22.315165)"
            id="path52" />
        <path
            style="fill:#6b9757;fill-opacity:1;fill-rule:nonzero;stroke:#000000;stroke-width:0.5;stroke-linecap:butt;stroke-linejoin:miter;stroke-miterlimit:10;stroke-opacity:1"
            d="m 209.41822,312.47378 c 6.53932,4.65361 23.70364,13.96083 46.82833,3.63356"
            transform="matrix(0.708455,0,0,0.708455,-37.593956,-22.315165)" id="path53" />
        <path
            style="fill:none;stroke:#000000;stroke-width:0.5;stroke-linecap:butt;stroke-linejoin:miter;stroke-miterlimit:10;stroke-opacity:1"
            d="m 276.02438,319.30532 c 7.99495,3.19798 27.7783,4.07466 38.10557,-1.74235"
            transform="matrix(0.708455,0,0,0.708455,-37.593956,-22.315165)" id="path54" />
        <path
            style="fill:#6b9757;fill-opacity:1;fill-rule:nonzero;stroke:#000000;stroke-width:0.5;stroke-linecap:butt;stroke-linejoin:miter;stroke-miterlimit:10;stroke-opacity:1"
            d="m 310.05528,315.96398 c 10.32726,3.34134 25.30814,3.9258 27.05048,0.29775 1.74235,-3.62805 -15.46608,-7.55936 -15.46608,-7.55936"
            transform="matrix(0.708455,0,0,0.708455,-37.593956,-22.315165)" id="path55" />
        <path
            style="fill:#6b9757;fill-opacity:1;fill-rule:nonzero;stroke:#000000;stroke-width:0.5;stroke-linecap:butt;stroke-linejoin:miter;stroke-miterlimit:10;stroke-opacity:1"
            d="m 302.20369,309.41916 c 12.64856,1.89673 26.90161,-0.58446 26.90161,-4.94584 0,-4.36138 -19.48561,-3.78244 -19.48561,-3.78244 m 3.9258,-53.66538 c 4.21802,5.10023 7.416,9.90271 11.05508,11.05508 -8.72828,1.45564 -29.66952,5.81702 -32.8675,9.45058 -1.45563,-3.34685 -2.61903,-5.10022 -4.51025,-6.39596 3.78244,-5.10022 26.32267,-14.1097 26.32267,-14.1097 z m 0,0"
            transform="matrix(0.708455,0,0,0.708455,-37.593956,-22.315165)" id="path56" />
        <path
            style="fill:#f8c799;fill-opacity:1;fill-rule:nonzero;stroke:#000000;stroke-width:0.5;stroke-linecap:butt;stroke-linejoin:miter;stroke-miterlimit:10;stroke-opacity:1"
            d="m 183.09556,172.70009 c -5.23807,-0.58446 -16.00092,-2.7624 -19.92672,-12.94079 -2.47016,-5.10022 -6.54482,-5.96588 -8.43604,-7.27264 -2.47016,-2.18345 -5.96037,-3.78244 -10.90621,-3.05462 -4.94584,0.7223 -12.79742,-0.43559 -17.74326,-3.34685 -4.94584,-2.90575 -10.17839,-1.01453 -11.92625,1.45563 -1.74235,2.47568 -1.89674,5.96037 -0.14336,7.85159 l 2.90023,3.05462 c 0,0 -6.83705,1.02004 -7.42151,6.10924 -0.57895,5.0892 3.05462,7.56487 5.38142,8.5794 2.32681,1.02005 4.36138,1.1634 4.36138,1.1634 0,0 -2.61352,3.50124 -0.7223,6.83706 1.88571,3.33031 6.54483,4.79697 6.54483,4.79697 0,0 2.17793,3.05462 4.50474,3.50123 2.3268,0.44662 16.4365,1.1634 16.4365,1.1634 0,0 5.81701,-2.17793 9.15835,-2.47016 3.34685,-0.29223 11.19843,-0.43558 13.81747,0.72782 2.61903,1.1634 14.1097,1.45012 14.1097,1.45012 0,0 1.45012,-6.2526 1.29573,-9.59945 -0.14887,-3.34134 -1.30676,-8.00046 -1.30676,-8.00046 z m 0,0"
            transform="matrix(0.708455,0,0,0.708455,-37.593956,-22.315165)" id="path57" />
        <path style="fill:#42281e;fill-opacity:1;fill-rule:nonzero;stroke:none"
            d="m 77.214844,209.70312 c -5.632813,0.55079 -35.582032,-0.41015 -41.625,-3.98437 0.414062,20.60937 6.183594,38.87891 9.890625,42.86328 3.707031,3.98438 15.25,7.41797 27.199219,7.41797 11.953124,0 19.28125,-3.58984 16.210937,-8.38281 -9.066406,-14.14844 -11.675781,-37.91407 -11.675781,-37.91407 z m 0,0"
            id="path58" />
        <path
            style="fill:url(#linear0);fill-rule:nonzero;stroke:#000000;stroke-width:1;stroke-linecap:butt;stroke-linejoin:miter;stroke-miterlimit:10;stroke-opacity:1"
            d="m 143.50128,363.37125 v -258.8708 h -12.47211 l 0.31428,222.5131 c 0,11.05508 0.31428,19.19889 1.57142,23.85251 1.25162,4.6536 5.29321,10.76284 7.1734,11.63402 1.8857,0.87117 3.41301,0.87117 3.41301,0.87117 z m 0,0"
            transform="matrix(0.708455,0,0,0.708455,-37.593956,-22.315165)" id="path59" />
        <path style="fill:url(#linear1);fill-rule:nonzero;stroke:none"
            d="m 63.476562,212.89062 h -7.554687 c 0,0 0,11.25 0.960937,12.89844 l 6.664063,0.17969 z m 0,0"
            id="path60" />
        <path
            style="fill:#f8c799;fill-opacity:1;fill-rule:nonzero;stroke:#000000;stroke-width:0.5;stroke-linecap:butt;stroke-linejoin:miter;stroke-miterlimit:10;stroke-opacity:1"
            d="m 127.34598,163.93873 c 0,0 -3.20349,5.52478 -3.005,7.26713 0.19298,1.74786 6.20298,0.49072 6.58894,-1.74235 0.39147,-2.23307 -3.58394,-5.52478 -3.58394,-5.52478 z m 3.09873,25.79886 c 2.61903,0.14336 7.416,0.43559 9.16386,-1.89122 1.74786,-2.3268 5.96037,-4.51025 5.96037,-7.12377 0,-2.61903 -0.72782,-4.07467 -3.34134,-6.10924 -2.61903,-2.03458 -15.41646,2.90023 -16.14427,4.21802 -0.72782,1.31779 -1.74786,4.94584 -1.30676,5.96037 0.43558,1.02005 1.30676,2.90024 2.61352,3.78244 1.31227,0.87668 3.05462,1.1634 3.05462,1.1634 z m 0,0"
            transform="matrix(0.708455,0,0,0.708455,-37.593956,-22.315165)" id="path61" />
        <path
            style="fill:#f8c799;fill-opacity:1;fill-rule:nonzero;stroke:#000000;stroke-width:0.5;stroke-linecap:butt;stroke-linejoin:miter;stroke-miterlimit:10;stroke-opacity:1"
            d="m 137.99855,178.96371 3.50124,2.47568 c 0,0 3.50123,-2.76791 0.29223,-4.80248 -3.20901,-2.03458 -4.07467,1.02004 -4.07467,1.02004 z m 0,0"
            transform="matrix(0.708455,0,0,0.708455,-37.593956,-22.315165)" id="path62" />
        <path
            style="fill:#f8c799;fill-opacity:1;fill-rule:nonzero;stroke:#000000;stroke-width:0.5;stroke-linecap:butt;stroke-linejoin:miter;stroke-miterlimit:10;stroke-opacity:1"
            d="m 123.07833,185.26593 c 1.74235,0.48521 1.55488,1.64862 6.00999,0.48521 4.46063,-1.1634 9.5002,-5.03957 10.95584,-8.52978 1.45563,-3.4902 -6.69922,-9.20245 -10.07915,-8.43604 -3.38544,0.76641 -9.20246,3.58394 -10.71874,5.52478 -1.51077,1.94084 -1.79197,5.72328 -0.82155,7.1734 0.97042,1.45563 4.65361,3.78243 4.65361,3.78243 z m 15.80242,-27.05048 c -1.06415,-1.54936 -2.13382,-4.65361 -3.50123,-5.52478 -1.36741,-0.87118 -5.81701,-4.36138 -7.1734,-5.23807 -1.35638,-0.87117 -5.52478,-4.06915 -9.11423,-3.09873 -3.58946,0.96491 -6.88117,3.005 -6.40147,7.85159 0.48521,4.84659 3.58945,5.3318 5.23806,6.98041 1.64862,1.64861 3.97542,3.97542 5.33181,4.74734 1.35638,0.77744 5.23255,2.61904 8.14381,2.90024 2.91127,0.2812 5.71777,-1.54937 6.78743,-3.39096 1.06416,-1.84159 0.6782,-5.23807 0.6782,-5.23807 z m 0,0"
            transform="matrix(0.708455,0,0,0.708455,-37.593956,-22.315165)" id="path63" />
        <path
            style="fill:#f8c799;fill-opacity:1;fill-rule:nonzero;stroke:#000000;stroke-width:0.5;stroke-linecap:butt;stroke-linejoin:miter;stroke-miterlimit:10;stroke-opacity:1"
            d="m 133.16299,155.29867 -4.94584,8.14382 c 0,0 5.39797,2.00149 7.36638,-0.97042 2.71828,-4.06915 -2.42054,-7.1734 -2.42054,-7.1734 z m 0,0"
            transform="matrix(0.708455,0,0,0.708455,-37.593956,-22.315165)" id="path64" />
        <path
            style="fill:#f8c799;fill-opacity:1;fill-rule:nonzero;stroke:#000000;stroke-width:0.5;stroke-linecap:butt;stroke-linejoin:miter;stroke-miterlimit:10;stroke-opacity:1"
            d="m 146.01004,150.8987 c -4.3669,1.29573 -15.2731,11.34179 -17.45655,16.72322 -2.17793,5.38142 -1.45012,10.03503 2.90024,11.77738 4.35586,1.74786 10.76285,-2.17794 12.51071,-5.37591 1.74234,-3.2035 4.50473,-13.52524 4.50473,-13.52524 m -17.05404,8.2982 9.79243,4.94584 c 0,0 -1.45563,2.71276 -4.46063,3.10424 -3.005,0.38596 -6.39596,-2.04009 -6.4952,-4.07467 -0.0993,-2.03457 1.1634,-3.97541 1.1634,-3.97541 z m 14.93125,-0.87118 c 0.97042,1.74235 6.30222,6.78744 9.20245,7.07415 m -0.86565,13.1889 c 2.04008,-0.48521 3.39647,-1.64861 4.6536,-2.61903"
            transform="matrix(0.708455,0,0,0.708455,-37.593956,-22.315165)" id="path65" />
        <path
            style="fill:url(#linear2);fill-rule:nonzero;stroke:#000000;stroke-width:0.5;stroke-linecap:butt;stroke-linejoin:miter;stroke-miterlimit:4;stroke-opacity:1"
            d="m 284.60379,161.441 c 0,-2.04561 -1.65964,-3.71076 -3.70525,-3.71076 -2.05111,0 -3.71075,1.66515 -3.71075,3.71076 0,2.0456 1.65964,3.70524 3.71075,3.70524 2.04561,0 3.70525,-1.65964 3.70525,-3.70524 z m 0,0"
            transform="matrix(0.708455,0,0,0.708455,-37.593956,-22.315165)" id="path66" />
        <path
            style="fill:none;stroke:#000000;stroke-width:0.1;stroke-linecap:butt;stroke-linejoin:miter;stroke-miterlimit:4;stroke-opacity:1"
            d="m 283.77672,161.41894 c 0,-1.61001 -1.30124,-2.91126 -2.90575,-2.91126 -1.6045,0 -2.90574,1.30125 -2.90574,2.91126 0,1.60451 1.30124,2.90575 2.90574,2.90575 1.60451,0 2.90575,-1.30124 2.90575,-2.90575 z m 0,0"
            transform="matrix(0.708455,0,0,0.708455,-37.593956,-22.315165)" id="path67" />
        <path
            style="fill:url(#linear3);fill-rule:nonzero;stroke:#000000;stroke-width:0.5;stroke-linecap:butt;stroke-linejoin:miter;stroke-miterlimit:4;stroke-opacity:1"
            d="m 283.44038,182.38224 c 0,-2.0456 -1.65963,-3.70524 -3.70524,-3.70524 -2.05111,0 -3.71076,1.65964 -3.71076,3.70524 0,2.05112 1.65965,3.71076 3.71076,3.71076 2.04561,0 3.70524,-1.65964 3.70524,-3.71076 z m 0,0"
            transform="matrix(0.708455,0,0,0.708455,-37.593956,-22.315165)" id="path68" />
        <path
            style="fill:none;stroke:#000000;stroke-width:0.1;stroke-linecap:butt;stroke-linejoin:miter;stroke-miterlimit:4;stroke-opacity:1"
            d="m 282.61884,182.36018 c 0,-1.61001 -1.30676,-2.91126 -2.91127,-2.91126 -1.6045,0 -2.91126,1.30125 -2.91126,2.91126 0,1.60451 1.30676,2.90575 2.91126,2.90575 1.60451,0 2.91127,-1.30124 2.91127,-2.90575 z m 0,0"
            transform="matrix(0.708455,0,0,0.708455,-37.593956,-22.315165)" id="path69" />
        <path
            style="fill:url(#linear4);fill-rule:nonzero;stroke:#000000;stroke-width:0.5;stroke-linecap:butt;stroke-linejoin:miter;stroke-miterlimit:4;stroke-opacity:1"
            d="m 282.27698,203.32348 c 0,-2.0456 -1.65964,-3.70524 -3.70524,-3.70524 -2.05112,0 -3.71076,1.65964 -3.71076,3.70524 0,2.05112 1.65964,3.71076 3.71076,3.71076 2.0456,0 3.70524,-1.65964 3.70524,-3.71076 z m 0,0"
            transform="matrix(0.708455,0,0,0.708455,-37.593956,-22.315165)" id="path70" />
        <path
            style="fill:none;stroke:#000000;stroke-width:0.1;stroke-linecap:butt;stroke-linejoin:miter;stroke-miterlimit:4;stroke-opacity:1"
            d="m 281.45543,203.30143 c 0,-1.60451 -1.30124,-2.91127 -2.91126,-2.91127 -1.6045,0 -2.90575,1.30676 -2.90575,2.91127 0,1.6045 1.30125,2.91126 2.90575,2.91126 1.61002,0 2.91126,-1.30676 2.91126,-2.91126 z m 0,0"
            transform="matrix(0.708455,0,0,0.708455,-37.593956,-22.315165)" id="path71" />
        <path
            style="fill:#f8c799;fill-opacity:1;fill-rule:nonzero;stroke:#000000;stroke-width:0.5;stroke-linecap:butt;stroke-linejoin:miter;stroke-miterlimit:10;stroke-opacity:1"
            d="m 251.54331,77.45548 -3.20349,-0.876687 c 0,0 -1.74235,0.391477 -1.54937,1.26265 0.19299,0.876687 1.45564,1.940842 1.35639,3.501235 -0.0992,1.560392 -0.29774,4.554361 0.87669,6.495203 1.17442,1.940842 3.97541,4.846591 5.43104,5.62403 1.45012,0.77744 1.8416,-0.385963 1.8416,-0.385963 0,0 1.35638,13.955312 1.74235,15.416462 0.39147,1.45563 2.42605,5.03957 5.72327,7.85159 3.29171,2.81201 8.91574,9.20245 11.53478,11.14881 2.61903,1.95187 11.24806,3.58945 14.93125,-0.19298 3.68319,-3.78244 11.63402,-12.5052 12.50519,-13.76785 0.87669,-1.26265 3.39648,-4.26765 3.29723,-5.43105 -0.0937,-1.1634 -0.4797,-13.574864 -0.4797,-14.060074 0.57895,0.192981 1.83608,-0.485211 2.51979,-1.064155 0.67819,-0.584458 4.94032,-5.238068 4.84659,-7.272643 -0.0937,-2.034576 -1.35638,-7.658606 -0.87117,-8.044569 0.48521,-0.391476 1.1634,-1.940842 0.29774,-2.326804 -0.86015,-0.391477 -6.00999,3.390959 -6.00999,3.390959 0,0 -1.0421,-13.260581 -5.81702,-16.679109 -4.76939,-3.413015 -43.43736,-5.817012 -45.76416,-2.712768 -2.32129,3.104244 -3.2035,18.134741 -3.2035,18.134741 z m 0,0"
            transform="matrix(0.708455,0,0,0.708455,-37.593956,-22.315165)" id="path72" />
        <path style="fill:#000000;fill-opacity:1;fill-rule:nonzero;stroke:none"
            d="m 145.1875,40.59375 0.32422,3.363281 -0.80078,-1.75 -1.19141,-4.722656 -3.58203,-5.210937 -0.41797,-7.546876 v -1.441406 l 9.92188,-3.230468 -2.86719,4.324218 -2.19141,6.796875 -0.11328,3.160157 0.91797,1.65625 z m 0,0"
            id="path73" />
        <path
            style="fill:#141414;fill-opacity:1;fill-rule:nonzero;stroke:#000000;stroke-width:0.5;stroke-linecap:butt;stroke-linejoin:miter;stroke-miterlimit:10;stroke-opacity:1"
            d="m 309.32747,71.500625 c 10.03503,6.544827 -3.05462,4.653609 -13.81196,1.020044 -10.76285,-3.639078 -32.28855,-9.902704 -37.23439,-10.035034 -4.94584,-0.137844 32.72414,-3.060134 38.54115,-1.168916 5.81701,1.891218 12.5052,10.183906 12.5052,10.183906 z m 0,0"
            transform="matrix(0.708455,0,0,0.708455,-37.593956,-22.315165)" id="path74" />
        <path
            style="fill:#1c2638;fill-opacity:1;fill-rule:nonzero;stroke:#000000;stroke-width:0.5;stroke-linecap:butt;stroke-linejoin:miter;stroke-miterlimit:10;stroke-opacity:1"
            d="m 247.56789,61.261581 c -12.40043,-5.998965 -12.40043,-13.767846 0.77744,-22.104644 13.17236,-8.336797 37.22888,-8.72276 48.47694,-5.62403 11.24254,3.104244 28.69358,14.153809 26.56527,25.015907 -2.13382,8.336798 -11.83252,10.470621 -11.83252,10.470621 z m 0,0"
            transform="matrix(0.708455,0,0,0.708455,-37.593956,-22.315165)" id="path75" />
        <path
            style="fill:#02458a;fill-opacity:1;fill-rule:nonzero;stroke:#000000;stroke-width:0.5;stroke-linecap:butt;stroke-linejoin:miter;stroke-miterlimit:10;stroke-opacity:1"
            d="m 248.68167,65.380357 -1.45563,-6.539314 c 17.90316,-10.619492 50.90299,-10.911721 65.73499,7.123772 -0.43559,1.30676 -2.32129,4.510251 -3.63356,5.524782 -25.4515,-18.906666 -60.6458,-6.10924 -60.6458,-6.10924 z m 0,0"
            transform="matrix(0.708455,0,0,0.708455,-37.593956,-22.315165)" id="path76" />
        <path style="fill:#ffffff;fill-opacity:1;fill-rule:nonzero;stroke:none"
            d="m 157.23437,17.824219 4.73829,0.617187 -0.21094,1.238282 -8.44922,-0.722657 6.18359,-5.5625 -4.22656,-0.214843 0.10547,-1.34375 7.72656,0.917968 z m 12.41797,-3.96875 c 2.31641,1.347656 3.08985,3.503906 2.26563,5.359375 -0.82422,1.855468 -3.8125,2.007812 -5.10156,1.597656 -1.28516,-0.414062 -4.27344,-2.371094 -2.88282,-5.460938 0.92578,-1.804687 3.39844,-2.835937 5.71875,-1.496093 z m -4.21093,2.332031 c -0.85157,1.894531 0.98046,3.097656 1.77343,3.347656 0.78907,0.253906 2.6211,0.160156 3.12891,-0.976562 0.50391,-1.136719 0.0312,-2.464844 -1.39453,-3.289063 -1.42188,-0.820312 -2.9375,-0.1875 -3.50391,0.917969 z m 12.03125,-0.0078 c 2.13281,1.136718 3.15625,3.375 2.8164,5.5 -0.33594,2.121093 -2.74609,2.695312 -3.875,2.421874 -1.1289,-0.273437 -3.91797,-1.988281 -3.33984,-5.523437 0.42578,-2.082031 2.26562,-3.535156 4.39453,-2.398437 z m -3.01563,3.097656 c -0.35547,2.171875 1.35938,3.222656 2.05469,3.390625 0.69531,0.167969 2.17187,-0.1875 2.3789,-1.488281 0.20704,-1.300782 -0.42578,-2.675782 -1.72656,-3.371094 -1.30469,-0.699219 -2.43359,0.191406 -2.69922,1.46875 z m 0,0"
            id="path77" />
        <path style="fill:#000000;fill-opacity:1;fill-rule:nonzero;stroke:none"
            d="m 177.19922,29.742188 0.90625,4.808593 -1.27735,3.503907 0.23829,3.847656 v 1.980468 l 1.13671,-1.648437 0.46875,-5.769531 2.15625,-3.914063 0.1875,-2.265625 z m 0,0"
            id="path78" />
        <path
            style="fill:none;stroke:#000000;stroke-width:1;stroke-linecap:butt;stroke-linejoin:miter;stroke-miterlimit:10;stroke-opacity:1"
            d="m 300.69844,81.623879 c -0.97042,-0.584458 -3.39096,-2.900235 -4.55436,-2.900235 -1.16341,0 -4.3669,0.970421 -5.81702,1.064155 -1.45563,0.09925 -5.91625,1.841594 -6.30222,2.23307 m -9.98541,0.192982 c -0.97042,0 -3.88168,-0.970421 -4.46063,-1.257136 -0.58445,-0.292229 -3.50123,-0.192982 -3.50123,-0.192982 l -2.23307,-1.455631 -3.005,2.812015"
            transform="matrix(0.708455,0,0,0.708455,-37.593956,-22.315165)" id="path79" />
        <path
            style="fill:none;stroke:#000000;stroke-width:0.5;stroke-linecap:butt;stroke-linejoin:miter;stroke-miterlimit:10;stroke-opacity:1"
            d="m 275.78178,85.014838 c 0.67819,0.391477 2.22756,2.519787 2.13382,3.683189 -0.0937,1.163402 -1.74786,12.317733 -1.54936,12.604443 0.19298,0.29223 3.77692,0.87117 4.26213,0.48521 m 2.61903,-1.1634 c 0.67819,-0.0937 1.55488,-0.29774 2.23307,0.58446 M 273.64796,86.762699 c -1.6431,-3.501235 -8.3368,-3.501235 -10.85659,0.09373 m 23.3673,0.192981 c 0.77192,-4.262133 10.56435,-5.133306 12.69817,-0.871173"
            transform="matrix(0.708455,0,0,0.708455,-37.593956,-22.315165)" id="path80" />
        <path style="fill:#000000;fill-opacity:1;fill-rule:nonzero;stroke:none"
            d="m 154.69531,39.117188 c 0,-0.929688 -0.95312,-1.683594 -2.1289,-1.683594 -1.17579,0 -2.12891,0.753906 -2.12891,1.683594 0,0.929687 0.95312,1.683593 2.12891,1.683593 1.17578,0 2.1289,-0.753906 2.1289,-1.683593 z m 0,0"
            id="path81" />
        <path style="fill:#000000;fill-opacity:1;fill-rule:nonzero;stroke:none"
            d="m 171.58984,38.429688 c 0,-0.964844 -0.99609,-1.75 -2.23047,-1.75 -1.23437,0 -2.23046,0.785156 -2.23046,1.75 0,0.96875 0.99609,1.753906 2.23046,1.753906 1.23438,0 2.23047,-0.785156 2.23047,-1.753906 z m 0,0"
            id="path82" />
        <path
            style="fill:#d7d7d7;fill-opacity:1;fill-rule:nonzero;stroke:#000000;stroke-width:0.5;stroke-linecap:butt;stroke-linejoin:miter;stroke-miterlimit:10;stroke-opacity:1"
            d="m 269.86552,107.99617 c 4.65912,5.91074 18.5207,5.71776 21.69663,-0.97042 -1.06967,0.29774 -2.75137,0.9208 -2.75137,0.9208 0,0 -5.75636,0.2426 -7.01901,0.92079 -0.87117,0 -2.03457,0.19298 -2.03457,0.19298 0,0 -5.71777,-0.77744 -6.59445,-0.19298 -0.87118,0.58446 -3.29723,-0.87117 -3.29723,-0.87117 z m 0,0"
            transform="matrix(0.708455,0,0,0.708455,-37.593956,-22.315165)" id="path83" />
        <path
            style="fill:none;stroke:#000000;stroke-width:0.5;stroke-linecap:butt;stroke-linejoin:miter;stroke-miterlimit:10;stroke-opacity:1"
            d="m 288.298,112.64978 c -3.10424,3.68319 -11.04956,3.58394 -14.25305,0.77193"
            transform="matrix(0.708455,0,0,0.708455,-37.593956,-22.315165)" id="path84" />
        <path style="fill:#fafafa;fill-opacity:1;fill-rule:nonzero;stroke:none"
            d="m 167.16016,38.15625 2.54296,0.308594 -2.16406,0.960937 c -0.41015,-0.410156 -0.3789,-1.269531 -0.3789,-1.269531 z m -16.48438,0.824219 2.53906,0.308593 -2.16015,0.964844 c -0.41407,-0.414062 -0.37891,-1.273437 -0.37891,-1.273437 z m 0,0"
            id="path85" />
        <path
            style="fill:none;stroke:#000000;stroke-width:0.5;stroke-linecap:butt;stroke-linejoin:miter;stroke-miterlimit:10;stroke-opacity:1"
            d="m 309.9009,79.197827 c -0.65614,1.163402 -2.54736,3.567399 -2.70174,4.730802 -0.15439,1.157888 0.79949,4.14083 0.72781,4.725288 m 1.1634,-2.183447 c -0.14887,-0.799495 -0.65613,-2.982942 -1.45563,-3.418528 m -58.08189,-3.925794 c 0.72781,1.020045 4.43857,4.069151 4.58193,5.298719 0.14335,1.229567 -0.7995,3.126299 -0.50176,4.218022 0.30326,1.091724 1.02005,2.762392 1.02005,2.762392 m -2.39848,-3.854115 c -0.22055,-1.163403 0.0717,-3.69973 1.1634,-3.997473"
            transform="matrix(0.708455,0,0,0.708455,-37.593956,-22.315165)" id="path86" />
    </g>
</svg>