<svg xmlns="http://www.w3.org/2000/svg" xmlns:xlink="http://www.w3.org/1999/xlink" width="256px" height="256px" viewBox="0 0 256 256" version="1.1">
<rect width="256" height="256" fill="rgb(33.333333%,33.333333%,33.333333%)" rx="60"/>
<g id="surface1">
<!-- <path style=" stroke:none;fill-rule:nonzero;fill:rgb(33.333333%,33.333333%,33.333333%);fill-opacity:1;" d="M 38.398438 0 L 217.601562 0 C 238.808594 0 256 17.191406 256 38.398438 L 256 217.601562 C 256 238.808594 238.808594 256 217.601562 256 L 38.398438 256 C 17.191406 256 0 238.808594 0 217.601562 L 0 38.398438 C 0 17.191406 17.191406 0 38.398438 0 Z M 38.398438 0 "/> -->
<path style=" stroke:none;fill-rule:nonzero;fill:rgb(94.901961%,94.901961%,94.901961%);fill-opacity:1;" d="M 205 167 C 205 167 200 181.5 190 196.5 C 187.5 201 175.5 218 161 218 C 150.5 218 143.5 210.5 130 210.5 C 113.5 210.5 107 218 96.5 218 C 91 218.5 85.5 215.5 79.5 210 C 41 173.5 39 119.5 53.5 97.5 C 62.5 83 77.5 74 94 73.5 C 107 73.5 121 82 126.5 82 C 130.5 82 151.5 72 163.5 73 C 180 74.5 191.5 80.5 200 92 C 175.5 104 167 150.5 205 167 Z M 164.5 28 C 168.5 44 151 74.5 125 73 C 123.5 51.5 142 29.5 164.5 28 Z M 164.5 28 "/>
</g>
</svg>
