<svg width="256px" height="256px" viewBox="0 0 256 256" xmlns="http://www.w3.org/2000/svg"
    xmlns:svg="http://www.w3.org/2000/svg">
    <title>ArchLinux</title>
    <rect width="256" height="256" fill="#242938" rx="60" id="rect1" />
    <g id="surface1" transform="matrix(0.80088088,0,0,0.8644316,26.026897,7.590043)">
        <path style="fill:#1791cf;fill-opacity:1;fill-rule:evenodd;stroke:none"
            d="M 127.97656,-0.0234375 C 116.57422,27.914062 109.70313,46.191406 97.015625,73.304688 104.79688,81.550781 114.34375,91.152344 129.81641,102 113.14453,95.140625 101.81641,88.253906 93.273438,81.105469 77.03125,114.98438 51.59375,163.25781 -0.0351562,256.02344 40.578125,232.60156 72,218.16016 101.35156,212.64062 100.09375,207.22266 99.375,201.36719 99.433594,195.26172 l 0.04687,-1.30078 c 0.640616,-26 14.167966,-45.99219 30.187496,-44.63282 16.01954,1.35938 28.47266,23.54297 27.82812,49.54297 -0.0977,4.69532 -0.64453,9.375 -1.63672,13.96485 29,5.67187 60.1211,20.07812 100.14844,43.1875 l -21.67969,-40.10157 c -10.60156,-8.21484 -21.65234,-18.90625 -44.19921,-30.48046 15.5,4.02734 26.59765,8.67187 35.19921,13.86718 C 156.92969,71.949219 151.38281,55.027344 127.92969,-0.0234375 Z m 0,0"
            id="path1" />
    </g>
</svg>