<svg width="256px" height="256px" viewBox="0 0 256 256" xmlns="http://www.w3.org/2000/svg"
    xmlns:svg="http://www.w3.org/2000/svg">
    <rect width="256" height="256" fill="#f2f4ed" rx="60" id="rect1" />
    <g id="surface1" transform="matrix(0.76205705,0,0,0.75688738,27.216624,12.319879)">
        <path style="fill:#783d63;fill-opacity:1;fill-rule:nonzero;stroke:none"
            d="m 208.75391,58.082031 25.76953,-6.636719 0.1914,0.285157 0.65235,155.570311 -0.84375,0.84766 -5.3086,0.22656 -20.16015,-3.13672 -0.30078,-0.79297 V 58.082031 M 59.703125,218.95703 l 0.09766,0.004 68.027345,19.76562 0.17187,0.13281 0.29687,0.23438 -0.0977,59.21875 L 128,298.56641 59.703125,265.39453 v -46.4375"
            id="path1" />
        <path style="fill:#cfb0bf;fill-opacity:1;fill-rule:nonzero;stroke:none"
            d="M 208.75391,204.44531 128.11328,223.75 87.625,213.98047 59.703125,218.95703 128,238.85937 l 105.40625,-28.53125 1.11719,-2.17968 -25.76953,-3.70313"
            id="path2" />
        <path style="fill:#4f2642;fill-opacity:1;fill-rule:nonzero;stroke:none"
            d="m 196.29687,79.640625 -0.66015,-0.75 L 128.73437,59.457031 128,59.738281 127.32813,59.398438 22.050781,89.746094 l -0.574219,0.703125 0.84375,0.464843 24.078126,3.527344 0.847656,-0.289062 80.640626,-19.304688 40.48828,9.769532 27.92187,-4.976563"
            id="path3" />
        <path style="fill:#bf7a9c;fill-opacity:1;fill-rule:nonzero;stroke:none"
            d="m 47.246094,240.51562 -25.769532,6.22266 -0.04297,-0.15234 -1.015625,-154.99219 1.058593,-1.144531 25.769532,3.703125 V 240.51562"
            id="path4" />
        <path style="fill:#783d63;fill-opacity:1;fill-rule:nonzero;stroke:none"
            d="M 82.039062,180.39453 128,185.78516 l 0.34375,-0.51563 0.1875,-71.87109 L 128,112.8125 82.039062,118.20313 v 62.1914"
            id="path5" />
        <path style="fill:#bf7a9c;fill-opacity:1;fill-rule:nonzero;stroke:none"
            d="M 173.96094,180.39453 128,185.78516 V 112.8125 l 45.96094,5.39063 v 62.1914 M 196.29687,79.640625 128,59.738281 V 0.03125 l 68.29687,33.171875 v 46.4375"
            id="path6" />
        <path style="fill:#783d63;fill-opacity:1;fill-rule:nonzero;stroke:none"
            d="M 128,0.03125 0,61.8125 v 174.97266 l 21.476562,9.95312 V 90.449219 L 128,59.738281 V 0.03125"
            id="path7" />
        <path style="fill:#bf7a9c;fill-opacity:1;fill-rule:nonzero;stroke:none"
            d="M 234.52344,51.445312 V 208.14844 L 128,238.85937 v 59.70704 L 256,236.78516 V 61.8125 L 234.52344,51.445312"
            id="path8" />
    </g>
</svg>