<svg width="256px" height="256px" viewBox="0 0 256 256" xmlns="http://www.w3.org/2000/svg"
    xmlns:svg="http://www.w3.org/2000/svg">
    <title>AWSDynamoDB</title>
    <rect width="256" height="256" fill="#f2f4ed" rx="60" id="rect1" />
    <g id="surface1" transform="matrix(0.72250351,0,0,0.755251,34.861922,17.098353)">
        <path style="fill:#5194cf;fill-opacity:1;fill-rule:nonzero;stroke:none"
            d="m 165.25,287.50391 h 3.50781 l 57.25,-28.53516 0.95313,-1.34375 V 29.859375 L 226.00781,28.511719 168.75781,0 h -3.55078 l 0.043,287.50391"
            id="path1" />
        <path style="fill:#1e5997;fill-opacity:1;fill-rule:nonzero;stroke:none"
            d="m 90.75,287.50391 h -3.558594 l -57.199218,-28.53516 -1.160157,-1.99219 -0.589843,-225.957029 1.75,-2.507812 L 87.191406,0 h 3.601563 L 90.75,287.50391"
            id="path2" />
        <path style="fill:#2b70b8;fill-opacity:1;fill-rule:nonzero;stroke:none"
            d="M 87.292969,0 H 168.70312 V 287.50391 H 87.292969 Z m 0,0" id="path3" />
        <path style="fill:#19456e;fill-opacity:1;fill-rule:nonzero;stroke:none"
            d="m 255.97266,137.29297 -1.9336,-0.42969 -27.62109,-2.56641 -0.41016,0.20313 -57.30078,-2.28125 H 87.292969 L 29.992188,134.5 V 90.949219 l -0.05859,0.03125 0.05859,-0.128907 57.300781,-13.234374 h 81.414061 l 57.30078,13.234374 21.0625,11.160158 v -7.175782 l 8.90235,-0.96875 -0.92188,-1.792969 -28.1875,-20.089844 -0.85547,0.28125 -57.30078,-17.699219 H 87.292969 L 29.992188,72.265625 V 28.511719 L 0.0273438,63.503906 V 94.0625 l 0.2304682,-0.167969 8.671876,0.941407 v 7.324222 l -8.9023442,4.75 v 30.40625 l 0.2304682,-0.0234 8.671876,0.125 v 12.76562 l -7.480469,0.10938 -1.4218752,-0.13281 v 30.41796 l 8.9023442,4.76954 v 7.41015 l -8.53125,0.9375 -0.3710942,-0.27734 v 30.55469 l 29.9648442,34.99609 v -43.75 l 57.300781,17.69922 h 81.414061 l 57.46875,-17.75 0.76172,0.33203 27.81641,-19.79297 1.21875,-1.97266 -8.90235,-0.97656 v -7.26172 l -1.16797,-0.46093 -19.03906,10.22656 -0.6875,1.4375 -57.46875,13.15625 v 0.0156 H 87.292969 v -0.0156 L 29.992188,196.64062 v -43.71093 l 57.300781,2.27734 v 0.0547 h 81.414061 l 57.30078,-2.33203 1.30469,0.59765 26.77344,-2.29687 1.88672,-0.92188 -8.90235,-0.125 v -12.76562 l 8.90235,-0.125"
            id="path4" />
        <path style="fill:#2b70b8;fill-opacity:1;fill-rule:nonzero;stroke:none"
            d="m 226.00781,215.21875 v 43.75 l 29.96485,-34.99609 v -30.35547 l -29.79297,21.55078 -0.17188,0.0508 m 0,-18.48047 0.17188,-0.0391 29.79297,-15.97266 v -30.54297 l -29.96485,2.7461 v 43.80859 m 0.17188,-105.847655 -0.17188,-0.03906 V 134.5 l 29.96485,2.79297 V 106.76563 L 226.17969,90.890625 m 0,-18.457031 29.79297,21.433594 V 63.511719 l -29.96485,-35 v 43.753906 l 0.17188,0.05859 v 0.109375"
            id="path5" />
    </g>
</svg>