<svg width="256px" height="256px" viewBox="0 0 256 256"
    xmlns:sodipodi="http://sodipodi.sourceforge.net/DTD/sodipodi-0.dtd" xmlns="http://www.w3.org/2000/svg"
    xmlns:svg="http://www.w3.org/2000/svg">
    <title>AWSIAM</title>
    <rect width="256" height="256" fill="#242938" rx="60" id="rect1" />
    <g id="surface1" transform="matrix(0.3940678,0,0,0.45096831,75.552594,16.284054)">
        <path style="fill:#3a4728;fill-opacity:1;fill-rule:nonzero;stroke:none"
            d="m 21,165.75781 -21,6.85547 21.75,2.51953 -0.75,-9.375 M 19.953125,206.80859 128,213.71875 236.04687,206.80859 128,185.75391 19.953125,206.80859 M 234.5,175.13281 256,172.61328 234.5,166.88281 v 8.25"
            id="path1" />
        <path style="fill:#b5ca9c;fill-opacity:1;fill-rule:nonzero;stroke:none"
            d="m 157.38672,352.91797 56.60547,13.39453 -56.75391,17.11719 0.14844,-30.51172" id="path2" />
        <path style="fill:#4a612b;fill-opacity:1;fill-rule:nonzero;stroke:none"
            d="M 19.953125,92.234375 V 54.035156 L 128,0.0234375 128.48047,0.429688 128.23437,48.917969 128,49.019531 127.59375,50.136719 68.496094,73.992188 67.953125,158.01953 99.40625,152.73047 128,147.01172 V 490.00781 L 95.632812,473.83203 V 428.06641 L 67.277344,416.72656 V 202.07422 l -47.324219,4.73437 v -38.1914 L 0,172.61328 v -72.40234 l 19.953125,-7.976565"
            id="path3" />
        <path style="fill:#739c3d;fill-opacity:1;fill-rule:nonzero;stroke:none"
            d="m 99.40625,152.73437 -32.128906,6.42579 V 73.296875 L 99.40625,83.3125 v 69.42187 M 183.92578,27.980469 236.03125,54.035156 V 92.234375 L 256,100.21094 v 72.39453 l -19.96875,-3.98828 v 38.1914 l -25.44141,-2.53515 -21.8789,-2.19922 v 42.93359 h 47.33593 v 39.28125 l -22,1.97266 v 39.60937 l -53.6914,10.66797 v 45.76563 l 53.57031,-15.89453 0.12109,40.375 -53.6914,21.28125 v 45.76562 L 128,490.00781 V 147.01172 l 28.57031,5.70703 30.58594,4.03906 V 73.980469 L 128.81641,51.484375 128,49.019531 V 0.0234375 l 55.92578,27.9570315"
            id="path4" />
        <path style="fill:#3a4728;fill-opacity:1;fill-rule:nonzero;stroke:none"
            d="M 160.35547,61.957031 128,49.027344 67.277344,73.296875 99.40625,83.3125 160.35547,61.957031"
            id="path5" />
        <path style="fill:#3a4728;fill-opacity:1;fill-rule:nonzero;stroke:none"
            d="M 67.277344,73.296875 128,49.027344 l 12.77344,5.105468 19.58203,7.824219 28.35547,11.351563 -1.51563,1.542968 -28.8789,8.988282 L 156.57812,83.3125 128,73.296875 99.40625,83.3125 67.277344,73.296875"
            id="path6" />
        <path style="fill:#4a612b;fill-opacity:1;fill-rule:nonzero;stroke:none"
            d="m 156.57812,83.3125 32.13282,-10.003906 v 85.859376 l -32.13282,-6.44922 V 83.3125" id="path7" />
    </g>
</svg>