<svg width="250px" height="256px" viewBox="0 0 250 255" xmlns="http://www.w3.org/2000/svg"
    xmlns:svg="http://www.w3.org/2000/svg">
    <title>AWSLambda2</title>
    <g id="surface1">
        <rect width="256" height="256" fill="#f2f4ed" rx="60" id="rect1" />
        <path style="fill:#fa7d11;fill-opacity:1;fill-rule:nonzero;stroke:none;stroke-width:0.828385"
            d="m 134.3327,132.62686 c -0.75606,1.13012 -1.39554,2.0608 -2.00984,3.00145 -9.79089,15.15352 -19.57863,30.30703 -29.36007,45.46054 -9.104138,14.09319 -18.214579,28.17642 -27.337622,42.25633 -0.305572,0.44539 -0.778104,0.73457 -1.297891,0.7944 -12.878107,-0.11633 -25.753064,-0.26259 -38.62487,-0.43874 -0.141759,0 -0.28982,-0.0466 -0.57019,-0.093 0.103957,-0.28253 0.223666,-0.55842 0.362275,-0.82433 8.981282,-14.64496 17.962565,-29.28659 26.943848,-43.92159 7.966911,-12.97305 15.936973,-25.94278 23.913334,-38.90918 8.839522,-14.40897 17.672746,-28.82459 26.502816,-43.253503 1.3042,-2.12727 2.66194,-4.214653 3.89683,-6.38182 0.31817,-0.578354 0.41268,-1.263069 0.26776,-1.91455 -2.37841,-7.977279 -4.80723,-15.934618 -7.22975,-23.89528 -1.03643,-3.406965 -2.1201,-6.793986 -3.09353,-10.224218 -0.31187,-1.100199 -0.83165,-1.43591 -1.90272,-1.429262 -8.089777,0.03323 -16.132294,0.02327 -24.200012,0.02327 -1.531007,0 -1.537308,0 -1.537308,-1.592133 0,-10.430296 0,-20.860592 -0.02835,-31.290888 0,-1.16003 0.362277,-1.419292 1.401849,-1.419292 16.239394,0.02991 32.481941,0.02991 48.730771,0 0.77812,-0.106363 1.51211,0.415484 1.71373,1.216536 8.56544,22.658805 17.1309,45.307638 25.69635,67.949821 9.99566,26.404809 19.98817,52.816259 29.98066,79.227709 3.10298,8.19665 6.23115,16.38999 9.29946,24.60991 0.36543,1.00048 0.74661,1.18995 1.70742,0.88083 8.51505,-2.76878 17.049,-5.46111 25.55775,-8.23321 1.07107,-0.35233 1.45855,-0.11634 1.79248,1.00048 2.9045,9.59269 5.86256,19.16875 8.80486,28.75146 0.10082,0.33238 0.17642,0.6681 0.29613,1.12679 -0.61114,0.23599 -1.18133,0.50191 -1.76728,0.67142 -19.35181,6.4483 -38.69417,12.90325 -58.02393,19.35821 -0.92301,0.30579 -1.20024,-0.0233 -1.50896,-0.84095 -5.90351,-15.73519 -11.82278,-31.46372 -17.7578,-47.18562 -5.8027,-15.39615 -11.60857,-30.78898 -17.41758,-46.18513 -0.86946,-2.31342 -1.72631,-4.63348 -2.59578,-6.94689 -0.13861,-0.39554 -0.33077,-0.74122 -0.60484,-1.34949 z m 0,0"
            id="path1" />
    </g>
</svg>