<svg xmlns="http://www.w3.org/2000/svg" xmlns:xlink="http://www.w3.org/1999/xlink" width="256px" height="256px" viewBox="0 0 256 256" version="1.1">
    <title>AWSS3</title>
<defs>
<linearGradient id="linear0" gradientUnits="userSpaceOnUse" x1="0" y1="1" x2="1" y2="0" gradientTransform="matrix(256,0,0,256,0,0)">
<stop offset="0" style="stop-color:rgb(10.588235%,40%,5.882353%);stop-opacity:1;"/>
<stop offset="1" style="stop-color:rgb(42.352941%,68.235294%,24.313725%);stop-opacity:1;"/>
</linearGradient>
</defs>
<g id="surface1">
<rect x="0" y="0" width="256" height="256" style="fill:url(#linear0);stroke:none;" rx="60"/>
<path style=" stroke:none;fill-rule:evenodd;fill:rgb(100%,100%,100%);fill-opacity:1;" d="M 194.675781 137.257812 L 195.902344 128.605469 C 207.230469 135.390625 207.382812 138.195312 207.378906 138.269531 C 207.359375 138.289062 205.425781 139.902344 194.675781 137.257812 Z M 188.457031 135.53125 C 168.875 129.601562 141.601562 117.089844 130.558594 111.871094 C 130.558594 111.828125 130.574219 111.785156 130.574219 111.742188 C 130.566406 107.496094 127.125 104.054688 122.878906 104.050781 C 118.644531 104.050781 115.195312 107.5 115.195312 111.742188 C 115.195312 115.980469 118.644531 119.429688 122.878906 119.429688 C 124.742188 119.429688 126.433594 118.734375 127.765625 117.632812 C 140.753906 123.777344 167.8125 136.109375 187.542969 141.933594 L 179.742188 196.992188 C 179.722656 197.140625 179.710938 197.289062 179.710938 197.441406 C 179.710938 202.292969 158.25 211.195312 123.179688 211.195312 C 87.742188 211.195312 66.050781 202.292969 66.050781 197.441406 C 66.050781 197.296875 66.042969 197.152344 66.019531 197.007812 L 49.722656 77.945312 C 63.832031 87.65625 94.175781 92.792969 123.199219 92.792969 C 152.179688 92.792969 182.472656 87.671875 196.609375 77.992188 Z M 48 65.53125 C 48.230469 61.320312 72.429688 44.800781 123.199219 44.800781 C 173.964844 44.800781 198.167969 61.3125 198.398438 65.53125 L 198.398438 66.964844 C 195.617188 76.40625 164.257812 86.398438 123.199219 86.398438 C 82.074219 86.398438 50.699219 76.378906 48 66.921875 Z M 204.800781 65.601562 C 204.800781 54.511719 173.011719 38.398438 123.199219 38.398438 C 73.390625 38.398438 41.601562 54.511719 41.601562 65.601562 L 41.902344 68.011719 L 59.65625 197.691406 C 60.078125 212.191406 98.753906 217.601562 123.179688 217.601562 C 153.492188 217.601562 185.691406 210.628906 186.109375 197.695312 L 193.777344 143.628906 C 198.042969 144.648438 201.550781 145.171875 204.367188 145.171875 C 208.15625 145.171875 210.71875 144.242188 212.269531 142.398438 C 213.53125 140.9375 214.046875 138.976562 213.664062 137.085938 C 212.832031 132.660156 207.578125 127.886719 196.871094 121.777344 L 204.472656 68.136719 Z M 204.800781 65.601562 "/>
</g>
</svg>
