<svg width="256px" height="256px" viewBox="0 0 256 256" xmlns="http://www.w3.org/2000/svg"
    xmlns:svg="http://www.w3.org/2000/svg">
    <rect width="256" height="256" fill="#242938" rx="60" id="rect1" />
    <g id="surface1" transform="matrix(0.88157351,0,0,0.90957683,16.537358,13.227412)">
        <path style="fill:#f2f4ed;fill-opacity:1;fill-rule:nonzero;stroke:none"
            d="m 250.625,66.609375 c -3.68359,-0.855469 -7.35156,1.472656 -8.20313,5.15625 -0.0352,0.101563 -0.63671,2.445313 -2.16015,5.894531 -0.97266,-0.234375 -1.96094,-0.351562 -3,-0.351562 -1.52344,0 -2.9961,0.316406 -4.36719,0.785156 L 176.16406,21.398438 c 0.15235,-0.769532 0.26953,-1.558594 0.26953,-2.359376 0,-0.820312 -0.11718,-1.609374 -0.26953,-2.394531 4.35547,-2.09375 7.5,-2.964843 8.05469,-3.117187 3.68359,-0.835938 5.94531,-4.503906 5.14062,-8.203125 -0.83984,-3.683594 -4.52343,-5.992188 -8.20703,-5.15625 -0.19922,0.050781 -6.21093,1.539062 -14.24609,6.109375 -1.24219,-0.367188 -2.53125,-0.632813 -3.88672,-0.632813 -7.36719,0 -13.39453,5.992188 -13.39453,13.375 0,0.1875 0.0508,0.335938 0.0508,0.503907 -7.55078,7.6875 -14.85156,18.25 -19.74219,32.601562 -4.20312,2.257812 -7.09765,6.648438 -7.09765,11.753906 0,2.878906 0.9375,5.523438 2.46094,7.703125 -1.82422,12.339844 -2.09375,26.707031 0.0156,43.499999 l 1.625,13.91406 c 1.42187,15.47266 0.75391,29.01953 -1.12109,40.98828 -0.8711,0.15235 -1.67578,0.35157 -2.46094,0.63672 l -38.144532,-38.125 c 0.300781,-0.78906 0.484374,-1.57422 0.636718,-2.39453 8.488282,-1.25781 20.257814,-1.91015 29.652344,-1.82422 v -13.69921 c -12.55859,-0.13282 -23.875,1.14062 -34.242188,3.18359 -2.328124,-1.94141 -5.289062,-3.16406 -8.589843,-3.16406 -5.824219,0 -10.730469,3.76562 -12.574219,8.95703 -11.9375,4.23437 -22.035156,9.51172 -30.222656,14.93359 -0.519532,-0.0664 -1.054688,-0.14844 -1.589844,-0.14844 -6.816406,0 -12.375,5.08985 -13.226562,11.63672 -8.992188,8.1211 -13.582032,14.66797 -14.066407,15.48828 -1.640625,2.76172 -1.121093,6.16016 1.039063,8.33985 0.382812,0.36718 0.835937,0.73437 1.320312,1.05468 3.25,1.92579 7.46875,0.88672 9.429688,-2.34375 0.351562,-0.58593 2.910156,-4.55468 7.851562,-9.83203 1.390625,0.98828 2.964844,1.67578 4.671875,2.0625 L 92.945312,232.375 c 0,1.05469 0.152344,2.05859 0.371094,3.01172 -5.242187,4.9414 -9.210937,7.48437 -9.78125,7.85547 -3.246094,1.9414 -4.320312,6.14453 -2.394531,9.41015 0.300781,0.5 0.652344,0.95313 1.054687,1.33985 2.179688,2.17578 5.609376,2.67578 8.355469,1.03515 0.722657,-0.38281 5.761719,-3.58203 12.339849,-9.82812 1.08984,0.30078 2.23046,0.5039 3.41796,0.5039 7.39844,0 13.39454,-5.99609 13.39454,-13.39453 0,-1.97656 -0.45313,-3.83593 -1.20704,-5.54297 5.71094,-8.39062 11.17188,-18.85546 15.39063,-31.57812 4.4375,-2.17969 7.51562,-6.68359 7.51562,-11.99219 0,-2.86328 -0.91797,-5.50781 -2.46093,-7.68359 2.36328,-13.07813 3.26562,-27.96485 1.9414,-44.85938 0,0 -0.91797,-13.92968 -1.5039,-13.99609 -2.09375,-14.60156 -2.29688,-27.109375 -1.22266,-37.925781 l 39.07812,39.062501 c -7.80078,0.78906 -22.19921,0.92187 -31.91406,0.13672 l 6.51563,14.08203 c 12.05468,0.44922 22.63672,-0.50391 32.17968,-2.3125 2.26172,1.72656 5.0586,2.78125 8.08985,2.78125 5.6914,0 10.53125,-3.55078 12.47265,-8.53906 13.53125,-5.35938 23.74219,-12.625 31.36329,-19.9961 0.45312,0.0352 0.90234,0.13672 1.35546,0.13672 7.36719,0 13.37891,-5.996092 13.37891,-13.378905 0,-1.457031 -0.26953,-2.832031 -0.70312,-4.152344 4.11718,-6.714843 5.80859,-11.554687 5.85937,-11.738281 0.80469,-3.683594 -1.50781,-7.367188 -5.20703,-8.203125 z M 108.23438,219.07812 41.574219,152.4375 c 0.01953,-0.25 0.06641,-0.46875 0.06641,-0.71875 0,-1.08984 -0.164063,-2.14453 -0.398437,-3.14844 C 47.25,144.53516 54.5,140.58203 63.042969,137.26953 c 2.441406,2.52734 5.84375,4.11719 9.625,4.11719 0.136719,0 0.269531,-0.0508 0.386719,-0.0508 l 41.542972,41.57812 c 0,0.082 -0.0195,0.1836 -0.0195,0.26563 0,5.625 3.46875,10.41406 8.375,12.40625 -3.63672,9.5625 -7.98829,17.5664 -12.44141,24.04687 -0.72266,-0.23437 -1.49219,-0.4375 -2.27734,-0.55469 z M 149.39062,61.382812 c -0.38671,-2.074218 -1.28906,-3.949218 -2.52734,-5.558593 3.48047,-10.0625 8.23828,-17.796875 13.32813,-23.710938 0.92187,0.1875 1.875,0.320313 2.84375,0.320313 1.00781,0 1.96093,-0.117188 2.88281,-0.335938 l 58.01562,58.019532 c 0,0.183593 -0.0664,0.367187 -0.0664,0.570312 0,3.429688 1.33984,6.546875 3.48437,8.90625 -5.92969,5.03906 -13.61328,9.74609 -23.50781,13.22656 -1.97656,-3.69922 -5.62891,-6.3125 -9.92969,-6.92968 z m 0,0"
            id="path1" />
    </g>
</svg>