<svg width="256px" height="106px" viewBox="0 0 256 256" version="1.1" id="svg9" xmlns="http://www.w3.org/2000/svg"
  xmlns:svg="http://www.w3.org/2000/svg">
  <rect width="256" height="256" rx="60" fill="#F2F4ed" id="rect1" />
  <defs id="defs4">
    <clipPath id="clip1">
      <path d="M 2 27 L 213 27 L 213 53 L 2 53 Z M 2 27 " id="path1" />
    </clipPath>
    <clipPath id="clip2">
      <path
        d="M 244.25 84.769531 C 226.617188 84.769531 212.320312 70.46875 212.320312 52.832031 C 212.320312 35.195312 226.617188 20.894531 244.25 20.894531 C 246.15625 20.894531 248.019531 21.074219 249.835938 21.390625 L 249.835938 2.699219 L 51.710938 2.699219 L 51.710938 2.707031 C 24.382812 3.222656 2.382812 25.539062 2.382812 53 C 2.382812 80.457031 24.378906 102.777344 51.710938 103.289062 L 51.710938 103.296875 L 244.246094 103.296875 L 249.832031 84.269531 C 248.019531 84.589844 246.15625 84.769531 244.25 84.769531 Z M 244.25 84.769531 "
        id="path2" />
    </clipPath>
    <clipPath id="clip3">
      <path d="M 2 78 L 250 78 L 250 104 L 2 104 Z M 2 78 " id="path3" />
    </clipPath>
    <clipPath id="clip4">
      <path
        d="M 244.25 84.769531 C 226.617188 84.769531 212.320312 70.46875 212.320312 52.832031 C 212.320312 35.195312 226.617188 20.894531 244.25 20.894531 C 246.15625 20.894531 248.019531 21.074219 249.835938 21.390625 L 249.835938 2.699219 L 51.710938 2.699219 L 51.710938 2.707031 C 24.382812 3.222656 2.382812 25.539062 2.382812 53 C 2.382812 80.457031 24.378906 102.777344 51.710938 103.289062 L 51.710938 103.296875 L 244.246094 103.296875 L 249.832031 84.269531 C 248.019531 84.589844 246.15625 84.769531 244.25 84.769531 Z M 244.25 84.769531 "
        id="path4" />
    </clipPath>
  </defs>
  <g id="surface1" transform="matrix(0.94856811,0,0,0.88965061,4.6946868,85.208924)">
    <path style="fill:#b5de63;fill-opacity:1;fill-rule:nonzero;stroke:none"
      d="m 244.25,84.769531 c -17.63281,0 -31.92969,-14.300781 -31.92969,-31.9375 0,-17.636719 14.29688,-31.9375 31.92969,-31.9375 1.90625,0 3.76953,0.179688 5.58594,0.496094 L 244.25,2.699219 H 51.710938 v 0.00781 C 24.382812,3.222656 2.382812,25.539062 2.382812,53 c 0,27.457031 21.996094,49.77734 49.328126,50.28906 v 0.008 H 244.24609 l 5.58594,-19.027349 c -1.8125,0.320313 -3.67578,0.5 -5.58203,0.5 z m 0,0"
      id="path5" />
    <g clip-path="url(#clip1)" clip-rule="nonzero" id="g7">
      <g clip-path="url(#clip2)" clip-rule="nonzero" id="g6">
        <path style="fill:#a8cc51;fill-opacity:1;fill-rule:nonzero;stroke:none"
          d="M -11.445312,27.511719 H 212.0625 V 52.808594 H -11.445312 Z m 0,0" id="path6" />
      </g>
    </g>
    <g clip-path="url(#clip3)" clip-rule="nonzero" id="g9">
      <g clip-path="url(#clip4)" clip-rule="nonzero" id="g8">
        <path style="fill:#a8cc51;fill-opacity:1;fill-rule:nonzero;stroke:none"
          d="M -11.445312,78.007812 H 251.31641 V 113.82031 H -11.445312 Z m 0,0" id="path7" />
      </g>
    </g>
    <path
      style="fill:none;stroke:#dcf3a3;stroke-width:49;stroke-linecap:round;stroke-linejoin:round;stroke-miterlimit:10;stroke-opacity:1"
      d="m 493.53988,184.23174 c -43.9361,0 -79.56018,-33.6251 -79.56018,-77.5642 0,-43.939103 35.62408,-76.554103 79.56018,-76.554103"
      transform="matrix(0.494859,0,0,0.495003,0.0171993,0)" id="path9" />
  </g>
</svg>