<svg xmlns="http://www.w3.org/2000/svg" xmlns:xlink="http://www.w3.org/1999/xlink" width="256px" height="256px" viewBox="0 0 256 256" version="1.1">
<title>Competetive Programming</title>
<rect width="256" height="256" fill="#242938" rx="60" />
<g id="surface1">
<path style=" stroke:none;fill-rule:nonzero;fill:#f2f4ed;fill-opacity:1;" d="M 52.851562 20.578125 L 29.335938 21.234375 L 43.984375 39.660156 L 58 34.566406 Z M 203.148438 20.578125 L 198 34.570312 L 212 39.671875 L 226.648438 21.238281 Z M 63.949219 24.671875 L 69.5 39.933594 L 54.25 45.503906 L 185.351562 106.550781 L 195.050781 85.75 Z M 192.050781 24.671875 L 138.699219 49.519531 L 165.898438 62.199219 L 201.75 45.511719 L 186.5 39.941406 Z M 90.101562 72.148438 L 60.949219 85.75 L 70.648438 106.550781 L 117.300781 84.851562 Z M 210.648438 73.550781 L 186.050781 126.300781 L 192.550781 133.75 L 220.5 73.75 Z M 45.335938 73.601562 L 35.535156 73.800781 L 63.449219 133.699219 L 69.898438 126.300781 Z M 220.050781 95.949219 L 204.75 128.75 L 187.75 171.101562 L 159.851562 187.75 C 158.300781 191.398438 156.449219 194.75 154.25 197.75 C 147.851562 206.601562 138.5 212.5 128 212.5 C 117.5 212.5 108.148438 206.601562 101.75 197.75 C 99.550781 194.699219 97.648438 191.351562 96.101562 187.648438 L 68.550781 171.050781 L 54.601562 136.050781 L 36.035156 96.199219 L 21.285156 105.898438 L 44.035156 181.800781 L 84.648438 230.351562 L 84.648438 243.5 L 171.648438 243.5 L 171.648438 230.398438 L 211.949219 181.851562 L 234.75 105.898438 Z M 128 124.5 C 120.851562 124.5 114.148438 128.449219 109 135.550781 C 103.851562 142.601562 100.5 152.75 100.5 164 C 100.5 175.25 103.851562 185.398438 109 192.449219 C 114.148438 199.550781 120.851562 203.5 128 203.5 C 135.148438 203.5 141.851562 199.550781 147 192.449219 C 152.148438 185.398438 155.5 175.25 155.5 164 C 155.5 152.75 152.148438 142.601562 147 135.550781 C 141.851562 128.449219 135.148438 124.5 128 124.5 Z M 128 124.5 "/>
</g>
</svg>
