<svg width="256px" height="256px" viewBox="0 0 256 256" version="1.1" xmlns="http://www.w3.org/2000/svg"
    xmlns:svg="http://www.w3.org/2000/svg">
    <defs id="defs1" />
    <rect width="256" height="256" rx="60" fill="#242938" id="rect1" />
    <g id="surface1" transform="matrix(0.87536454,0,0,0.86956754,15.58138,15.581379)">
        <path style="fill:#eb2123;fill-opacity:1;fill-rule:nonzero;stroke:none"
            d="M 128.00781,0 C 57.320312,0.0078125 0.0195312,57.304688 0,127.99219 0.0195312,198.67187 57.3125,255.96484 127.99219,255.98437 198.67187,255.96484 255.96484,198.67187 255.98437,127.99219 255.96484,57.320312 198.67969,0.0273438 128.00781,0 Z m 86.42188,150.43359 c 0,7.73047 -4.44532,14.50782 -13.14844,16.05078 -15.07813,2.71094 -46.79688,4.25782 -73.27344,4.25782 -26.47265,0 -58.191404,-1.73828 -73.269529,-4.25782 -7.859375,-1.17578 -13.542969,-8.11718 -13.152343,-16.05078 v -49.89062 c 0,-7.726564 5.992187,-14.88672 13.152343,-16.050782 4.445313,-0.78125 14.886719,-1.734376 23.015625,-1.734376 3.09375,0 5.609375,2.328126 5.609375,5.992188 v 35.00391 l 44.855469,-0.97266 44.85156,0.97266 V 88.941406 c 0,-3.476562 2.51953,-5.992187 5.60938,-5.992187 8.11328,0 18.58984,0.78125 23.01953,1.734375 7.34765,1.164062 13.14844,8.339844 13.14844,16.050786 l -0.38282,49.89062 z m 0,0"
            id="path1" />
    </g>
</svg>