<svg width="256px" height="256px" viewBox="0 0 256 256" version="1.1" xmlns="http://www.w3.org/2000/svg"
    xmlns:svg="http://www.w3.org/2000/svg">
    <title>CouchDB</title>
    <defs id="defs1" />
    <rect width="256" height="256" rx="60" fill="#242938" id="rect1" />
    <g id="surface1" transform="matrix(0.88983051,0,0,0.9163492,15.186441,7.9951112)">
        <path style="fill:#e32326;fill-opacity:1;fill-rule:nonzero;stroke:none"
            d="m 207.83984,155.74609 c 0,10.47266 -5.76172,15.70703 -16.22656,16.23047 H 63.867188 c -10.472657,0 -16.226563,-5.19922 -16.226563,-16.23047 0,-10.46875 5.757813,-15.70312 16.226563,-16.22656 H 192.12891 c 10.47265,0.51953 15.70312,5.76172 15.70312,16.22656 z m -15.70312,24.08203 H 63.867188 c -10.472657,0 -16.226563,5.19922 -16.226563,16.22657 0,10.47265 5.757813,15.70703 16.226563,16.23047 H 192.12891 c 10.47265,0 16.22656,-5.19922 16.22656,-16.23047 -0.51953,-10.99219 -5.75781,-16.22657 -16.22656,-16.22657 z m 39.78906,-88.480464 c -10.47266,0 -16.23047,5.199219 -16.23047,15.703124 v 88.48047 c 0,10.47266 5.76172,15.70312 16.23047,16.23047 C 247.625,211.19922 256,195.53125 256,163.60156 V 123.8125 c 0,-21.46484 -8.375,-31.9375 -24.07813,-32.460938 z m -207.839842,0 C 8.375,91.878906 0,102.34766 0,123.8125 v 39.78906 c 0,31.9336 8.375,47.59766 24.078125,48.16016 10.472656,0 16.230469,-5.20313 16.230469,-16.23047 V 107.58594 C 39.789062,97.113281 34.546875,91.878906 24.078125,91.355469 Z M 231.92578,83.496094 c 0,-26.699219 -14.13672,-39.265625 -39.78906,-39.789063 H 63.867188 c -26.175782,0.519531 -39.789063,13.613281 -39.789063,39.789063 15.707031,0 24.082031,8.375 24.082031,24.078126 0,15.70703 8.375,24.08203 24.078125,24.08203 H 184.23828 c 15.70703,0 24.08203,-8.375 24.08203,-24.08203 -0.51953,-16.226564 8.375,-23.597658 23.60156,-24.078126 z m 0,0"
            id="path1" />
    </g>
</svg>