<svg width="256px" height="265px" viewBox="0 0 256 265" xmlns="http://www.w3.org/2000/svg"
  xmlns:svg="http://www.w3.org/2000/svg">
  <title>CSE</title>
  <rect width="256" height="256" rx="60" fill="#242938" id="rect1" />
  <defs id="defs9">
    <filter id="alpha" filterUnits="objectBoundingBox" x="0" y="0" width="1" height="1">
      <feColorMatrix type="matrix" in="SourceGraphic" values="0 0 0 0 1 0 0 0 0 1 0 0 0 0 1 0 0 0 1 0"
        id="feColorMatrix1" />
    </filter>
    <mask id="mask0">
      <g filter="url(#alpha)" id="g2">
        <rect x="0" y="0" width="256" height="265" style="fill:rgb(0%,0%,0%);fill-opacity:0.501961;stroke:none;"
          id="rect2" />
      </g>
    </mask>
    <clipPath id="clip1">
      <rect x="0" y="0" width="256" height="265" id="rect3" />
    </clipPath>
    <g id="csesurface5" clip-path="url(#clip1)">
      <path style=" stroke:none;fill-rule:nonzero;fill:rgb(49.803922%,49.411765%,49.411765%);fill-opacity:1;"
        d="M 114.714844 182.867188 C 127.066406 186.773438 164.03125 196.015625 169.910156 197.582031 C 171.628906 195.679688 173.101562 193.042969 173.101562 189.5625 L 173.101562 173.027344 L 116.429688 163.949219 L 116.429688 178.097656 C 116.429688 178.101562 116.605469 180.472656 114.714844 182.867188 Z M 114.714844 182.867188 "
        id="path3" />
    </g>
    <mask id="mask1">
      <g filter="url(#alpha)" id="g4">
        <rect x="0" y="0" width="256" height="265" style="fill:rgb(0%,0%,0%);fill-opacity:0.4;stroke:none;"
          id="rect4" />
      </g>
    </mask>
    <clipPath id="clip2">
      <rect x="0" y="0" width="256" height="265" id="rect5" />
    </clipPath>
    <g id="csesurface8" clip-path="url(#clip2)">
      <path style=" stroke:none;fill-rule:nonzero;fill:rgb(45.882353%,45.882353%,45.882353%);fill-opacity:1;"
        d="M 127.238281 63.261719 C 142.492188 54.84375 157.800781 46.535156 173.167969 38.324219 L 166.054688 36.914062 C 146.574219 46.789062 126.882812 56.277344 107.5625 66.453125 C 88.996094 76.238281 70.613281 86.367188 52.226562 96.476562 L 52.238281 105.496094 C 77.613281 92.121094 102.175781 77.089844 127.238281 63.261719 Z M 127.238281 63.261719 "
        id="path5" />
    </g>
    <mask id="mask2">
      <g filter="url(#alpha)" id="g6">
        <rect x="0" y="0" width="256" height="265" style="fill:rgb(0%,0%,0%);fill-opacity:0.4;stroke:none;"
          id="rect6" />
      </g>
    </mask>
    <clipPath id="clip3">
      <rect x="0" y="0" width="256" height="265" id="rect7" />
    </clipPath>
    <g id="csesurface11" clip-path="url(#clip3)">
      <path style=" stroke:none;fill-rule:nonzero;fill:rgb(45.882353%,45.882353%,45.882353%);fill-opacity:1;"
        d="M 203.777344 124.433594 C 214.972656 119.007812 226.179688 113.601562 237.351562 108.132812 L 237.371094 76.230469 C 216.625 87.042969 195.742188 97.601562 175.035156 108.492188 C 154.699219 119.191406 134.722656 130.410156 114.859375 141.949219 C 113.515625 142.726562 112.167969 143.5 110.824219 144.277344 L 147.285156 153.167969 C 166.054688 143.476562 184.765625 133.648438 203.777344 124.433594 Z M 203.777344 124.433594 "
        id="path7" />
    </g>
    <mask id="mask3">
      <g filter="url(#alpha)" id="g8">
        <rect x="0" y="0" width="256" height="265" style="fill:rgb(0%,0%,0%);fill-opacity:0.501961;stroke:none;"
          id="rect8" />
      </g>
    </mask>
    <clipPath id="clip4">
      <rect x="0" y="0" width="256" height="265" id="rect9" />
    </clipPath>
    <g id="csesurface14" clip-path="url(#clip4)">
      <path style=" stroke:none;fill-rule:nonzero;fill:rgb(49.803922%,49.411765%,49.411765%);fill-opacity:1;"
        d="M 224.113281 240.441406 C 224.113281 240.441406 220.265625 231.882812 205.058594 234.859375 C 189.847656 237.832031 174.632812 245.640625 175.550781 253.917969 C 176.464844 262.199219 188.511719 260.917969 197.515625 258.351562 C 206.523438 255.789062 229.25 249.894531 224.113281 240.441406 Z M 195.667969 254.007812 C 189.449219 255.777344 181.132812 256.664062 180.5 250.945312 C 179.867188 245.226562 190.375 239.835938 200.878906 237.78125 C 211.382812 235.726562 214.042969 241.636719 214.042969 241.636719 C 217.585938 248.167969 201.890625 252.234375 195.667969 254.007812 Z M 195.667969 254.007812 "
        id="path9" />
    </g>
  </defs>
  <g id="csesurface1" transform="matrix(0.87880685,0,0,0.84836648,8.8522295,13.924439)">
    <path style="fill:#c2c2c2;fill-opacity:1;fill-rule:nonzero;stroke:none"
      d="m 116.42969,163.94922 v 14.14844 c 0,0 0.55078,6.78906 -9.34766,8.98828 -9.89453,2.19922 -24.031249,6.33593 -24.031249,6.33593 l 55.054689,16.80079 26.4414,-8.72266 c 0,0 8.55469,-3.53516 8.55469,-11.9375 v -16.53516 z m 0,0"
      id="path10" />
    <path style="fill:#a1a1a1;fill-opacity:1;fill-rule:nonzero;stroke:none"
      d="m 138.10547,210.94922 c -0.0703,0 -0.14063,-0.008 -0.21094,-0.0312 L 82.839844,194.11328 c -0.308594,-0.0898 -0.515625,-0.37891 -0.515625,-0.69531 0.0039,-0.32422 0.214843,-0.60156 0.523437,-0.69531 0.140625,-0.0391 14.273438,-4.16797 24.078124,-6.34375 9.11328,-2.02735 8.79688,-7.97266 8.77735,-8.22657 v -14.20312 c 0,-0.21485 0.0937,-0.41406 0.2539,-0.55469 0.16016,-0.13672 0.375,-0.19141 0.58594,-0.16406 l 56.67578,9.08203 c 0.34766,0.0547 0.60937,0.35547 0.60937,0.71484 v 16.53516 c 0,8.78516 -8.63671,12.45312 -9.0039,12.60547 l -26.49219,8.74609 c -0.0703,0.0273 -0.14844,0.0352 -0.22656,0.0352 z m -52.503908,-17.50781 52.496098,16.02343 26.22265,-8.65234 c 0.0312,-0.0156 8.0586,-3.44531 8.0586,-11.24609 v -15.91797 l -55.22657,-8.84766 v 13.30078 c 0.004,0.0156 0.48438,7.38281 -9.91015,9.69141 -7.36719,1.63672 -17.199221,4.38281 -21.640628,5.64844 z m 0,0"
      id="path11" />
    <use xlink:href="#csesurface5" mask="url(#mask0)" id="use11" />
    <path style="fill:#a1a1a1;fill-opacity:1;fill-rule:nonzero;stroke:none"
      d="M 236.25391,35.140625 77.84375,4.929688 c 0,0 -5.082031,-1.035157 -9.765625,1.59375 l -10.679687,6.015624 4.449218,4.699219 c -0.453125,2.363281 -0.683594,4.910157 -0.683594,7.472657 V 130.87109 c 0,0 -2.054687,7.75 4.789063,10.99219 6.765625,3.20703 158.578125,49.875 162.128905,50.96484 l 5.88672,6.22657 11.80469,-6.57813 c 0.45703,-0.21094 0.88672,-0.45703 1.30078,-0.72265 2.5039,-1.60938 4.2539,-4.25 4.35937,-8.48829 V 51.03125 c 0,0 0.34375,-14.09375 -15.17968,-15.890625 z m 0,0"
      id="path12" />
    <path style="fill:#7f7f7f;fill-opacity:1;fill-rule:nonzero;stroke:none"
      d="m 233.96484,199.78125 c -0.19531,0 -0.38672,-0.0781 -0.52734,-0.22656 l -5.75781,-6.08985 C 221.53906,191.58203 72.375,145.71484 65.636719,142.51953 58.773438,139.26953 60.214844,131.75 60.433594,130.78906 V 24.710938 c 0,-2.507813 0.210937,-4.941407 0.628906,-7.242188 l -4.191406,-4.429688 c -0.15625,-0.160156 -0.226563,-0.382812 -0.191406,-0.605468 0.03516,-0.21875 0.167968,-0.414063 0.359374,-0.523438 L 67.722656,5.890625 C 72.730469,3.085938 77.890625,4.195312 77.988281,4.21875 L 236.39062,34.429688 c 15.94141,1.84375 15.77344,16.46875 15.76563,16.617187 V 183.26562 c -0.0977,4.10547 -1.67969,7.16016 -4.69141,9.09766 -0.4414,0.28516 -0.90234,0.54688 -1.38672,0.77344 l -11.76171,6.55078 c -0.10938,0.0625 -0.23047,0.0937 -0.35157,0.0937 z M 58.5625,12.714844 l 3.808594,4.023437 c 0.160156,0.171875 0.230468,0.410157 0.1875,0.636719 -0.445313,2.316406 -0.671875,4.785156 -0.671875,7.335938 V 130.87109 c 0,0.0625 -0.01172,0.125 -0.02344,0.1875 -0.07813,0.29297 -1.808593,7.21094 4.398438,10.15235 6.75,3.20312 160.476563,50.44922 162.031253,50.92968 0.11719,0.0312 0.22656,0.10157 0.3125,0.19141 l 5.5,5.82031 11.3164,-6.30468 c 0.46875,-0.22266 0.8711,-0.44922 1.26172,-0.69922 2.61719,-1.6875 3.9336,-4.26953 4.02735,-7.89844 V 51.03125 c 0.008,-0.5625 0.12109,-13.472656 -14.53907,-15.171875 L 77.707031,5.640625 c -0.03906,-0.011719 -4.789062,-1 -9.273437,1.515625 z m 0,0"
      id="path13" />
    <path style="fill:#a1a1a1;fill-opacity:1;fill-rule:nonzero;stroke:none"
      d="M 236.25391,35.140625 77.84375,4.929688 c 0,0 -5.082031,-1.035157 -9.765625,1.59375 l -10.679687,6.015624 4.449218,4.699219 c -0.453125,2.363281 -0.683594,4.910157 -0.683594,7.472657 V 130.87109 c 0,0 -2.054687,7.75 4.789063,10.99219 6.765625,3.20703 158.578125,49.875 162.128905,50.96484 l 5.88672,6.22657 11.80469,-6.57813 c 0.45703,-0.21094 0.88672,-0.45703 1.30078,-0.72265 2.5039,-1.60938 4.2539,-4.25 4.35937,-8.48829 V 51.03125 c 0,0 0.34375,-14.09375 -15.17968,-15.890625 z m 0,0"
      id="path14" />
    <path style="fill:#7f7f7f;fill-opacity:1;fill-rule:nonzero;stroke:none"
      d="m 233.96484,199.78125 c -0.19531,0 -0.38672,-0.0781 -0.52734,-0.22656 l -5.75781,-6.08985 C 221.53906,191.58203 72.375,145.71484 65.636719,142.51953 58.773438,139.26953 60.214844,131.75 60.433594,130.78906 V 24.710938 c 0,-2.507813 0.210937,-4.941407 0.628906,-7.242188 l -4.191406,-4.429688 c -0.15625,-0.160156 -0.226563,-0.382812 -0.191406,-0.605468 0.03516,-0.21875 0.167968,-0.414063 0.359374,-0.523438 L 67.722656,5.890625 C 72.730469,3.085938 77.890625,4.195312 77.988281,4.21875 L 236.39062,34.429688 c 15.94141,1.84375 15.77344,16.46875 15.76563,16.617187 V 183.26562 c -0.0977,4.10547 -1.67969,7.16016 -4.69141,9.09766 -0.4414,0.28516 -0.90234,0.54688 -1.38672,0.77344 l -11.76171,6.55078 c -0.10938,0.0625 -0.23047,0.0937 -0.35157,0.0937 z M 58.5625,12.714844 l 3.808594,4.023437 c 0.160156,0.171875 0.230468,0.410157 0.1875,0.636719 -0.445313,2.316406 -0.671875,4.785156 -0.671875,7.335938 V 130.87109 c 0,0.0625 -0.01172,0.125 -0.02344,0.1875 -0.07813,0.29297 -1.808593,7.21094 4.398438,10.15235 6.75,3.20312 160.476563,50.44922 162.031253,50.92968 0.11719,0.0312 0.22656,0.10157 0.3125,0.19141 l 5.5,5.82031 11.3164,-6.30468 c 0.46875,-0.22266 0.8711,-0.44922 1.26172,-0.69922 2.61719,-1.6875 3.9336,-4.26953 4.02735,-7.89844 V 51.03125 c 0.008,-0.5625 0.12109,-13.472656 -14.53907,-15.171875 L 77.707031,5.640625 c -0.03906,-0.011719 -4.789062,-1 -9.273437,1.515625 z m 0,0"
      id="path15" />
    <path style="fill:#def0f3;fill-opacity:1;fill-rule:nonzero;stroke:none"
      d="M 49.578125,31.1875 49.75,147.42969 c 0,0 -0.820312,6.05078 9.316406,9.67578 7.128906,2.55078 157.511714,42.22656 157.511714,42.22656 0,0 22.89454,6.08984 23.27344,-9.58984 l 0.0859,-129.199221 c 0,0 1.96094,-16.164063 -13.94922,-17.449219 L 66.261719,11.402344 c 0,0 -5.648438,-1.152344 -10.519531,2.050781 C 51.375,16.324219 49.578125,23.730469 49.578125,31.1875 Z m 0,0"
      id="path16" />
    <path style="fill:#a1a1a1;fill-opacity:1;fill-rule:nonzero;stroke:none"
      d="m 225.91406,201.21875 c -0.004,0 -0.004,0 0,0 -5,0 -9.33984,-1.14063 -9.52344,-1.19141 C 210.25,198.41016 65.898438,160.32031 58.820312,157.78906 48.253906,154.00781 48.996094,147.60547 49.03125,147.33203 L 48.855469,31.1875 c 0,-4.230469 0.632812,-14.488281 6.488281,-18.335938 5.101562,-3.363281 10.960938,-2.179687 11.066406,-2.160156 L 226.13281,42.382812 c 4.75781,0.378907 8.4961,2.148438 11.02344,5.246094 4.375,5.351563 3.54297,12.691406 3.50391,13 l -0.082,129.113284 c -0.18359,7.51562 -5.2539,11.47656 -14.66406,11.47656 z M 63.765625,11.925781 c -1.996094,0 -4.941406,0.371094 -7.625,2.136719 -3.65625,2.398438 -5.835937,8.800781 -5.835937,17.121094 l 0.171874,116.242186 c -0.03125,0.32031 -0.558593,5.63281 8.832032,8.99219 7.019531,2.51562 155.949216,41.8164 157.453126,42.21094 0.043,0.0117 4.35156,1.13671 9.14844,1.13671 0,0 0,0 0.004,0 8.60547,0 13.05078,-3.3789 13.21094,-10.04296 L 239.211,60.542969 c 0.0156,-0.160157 0.79687,-7.140625 -3.1875,-12.007813 -2.26953,-2.773437 -5.66407,-4.359375 -10.09375,-4.714844 L 66.121094,12.113281 c -0.01172,-0.0039 -0.949219,-0.1875 -2.355469,-0.1875 z m 0,0"
      id="path17" />
    <path style="fill:#4f4f4f;fill-opacity:1;fill-rule:nonzero;stroke:none"
      d="m 237.375,65.351562 c 0,0 1.91406,-15.730468 -13.57031,-16.976562 L 68.375,17.535156 c 0,0 -5.496094,-1.121094 -10.242188,1.996094 -4.246093,2.789062 -5.992187,9.996094 -5.992187,17.253906 l 0.136719,93.218754 185.027346,45.11328 z m 0,0"
      id="path18" />
    <path style="fill:#4f4f4f;fill-opacity:1;fill-rule:nonzero;stroke:none"
      d="m 237.30469,175.84375 c -0.0547,0 -0.11328,-0.008 -0.17188,-0.0234 L 52.105469,130.70703 c -0.324219,-0.0781 -0.550781,-0.37109 -0.550781,-0.70312 L 51.414062,36.789062 c 0,-4.125 0.617188,-14.113281 6.320313,-17.863281 4.980469,-3.273437 10.683594,-2.125 10.785156,-2.101562 L 223.94922,47.660156 c 4.63672,0.371094 8.27734,2.09375 10.73828,5.109375 4.26172,5.21875 3.45312,12.367188 3.41406,12.667969 l -0.0664,109.67578 c 0,0.22266 -0.10157,0.4375 -0.27735,0.57422 -0.13281,0.10547 -0.29297,0.15625 -0.45312,0.15625 z M 53.003906,129.43359 236.58203,174.19141 236.65234,65.351562 c 0.0117,-0.152343 0.77344,-6.941406 -3.09375,-11.671874 -2.20703,-2.695313 -5.50781,-4.238282 -9.8125,-4.585938 L 68.230469,18.246094 c -0.02734,-0.0078 -5.253907,-1.027344 -9.699219,1.894531 -3.546875,2.328125 -5.664062,8.554687 -5.664062,16.648437 z m 0,0"
      id="path19" />
    <use xlink:href="#csesurface8" mask="url(#mask1)" id="use19" />
    <use xlink:href="#csesurface11" mask="url(#mask2)" id="use20" />
    <path style="fill:#b8c2c2;fill-opacity:1;fill-rule:nonzero;stroke:none"
      d="M 50.386719,198.03125 4.566406,211.96094 v 3.77734 l 138.925784,38.17969 46.18359,-20.15235 v -3.77734 z m 0,0"
      id="path20" />
    <path style="fill:#a1a1a1;fill-opacity:1;fill-rule:nonzero;stroke:none"
      d="m 143.49219,254.64453 c -0.0664,0 -0.12891,-0.008 -0.19141,-0.0273 L 4.371094,216.4375 c -0.3125,-0.0859 -0.53125,-0.375 -0.53125,-0.69922 v -3.77734 c 0,-0.32032 0.207031,-0.60157 0.515625,-0.69532 l 45.820312,-13.92968 c 0.117188,-0.0352 0.25,-0.043 0.371094,-0.0117 l 139.289065,31.95312 c 0.33203,0.0781 0.5664,0.3711 0.5664,0.70703 v 3.78125 c 0,0.28907 -0.17187,0.54688 -0.4375,0.66407 l -46.18359,20.15625 c -0.0937,0.0391 -0.19141,0.0586 -0.28906,0.0586 z M 5.289062,215.18359 143.4375,253.15625 188.94922,233.29297 v -2.72656 L 50.414062,198.78125 5.292969,212.5 v 2.68359 z m 0,0"
      id="path21" />
    <path style="fill:#def0f3;fill-opacity:1;fill-rule:nonzero;stroke:none"
      d="m 50.386719,194.25391 -45.820313,17.70703 138.925784,38.18359 46.18359,-20.15625 z m 0,0" id="path22" />
    <path style="fill:#a1a1a1;fill-opacity:1;fill-rule:nonzero;stroke:none"
      d="m 143.49219,250.86719 c -0.0664,0 -0.12891,-0.008 -0.19141,-0.0234 L 4.371094,212.66016 c -0.300782,-0.0859 -0.515625,-0.34766 -0.53125,-0.66407 -0.015625,-0.3125 0.171875,-0.59765 0.464844,-0.71093 L 50.125,193.57812 c 0.140625,-0.0547 0.296875,-0.0625 0.441406,-0.0273 l 139.292964,35.73047 c 0.29688,0.082 0.51954,0.33594 0.54297,0.64453 0.0234,0.30859 -0.14843,0.59766 -0.43359,0.72266 l -46.18359,20.15625 c -0.0977,0.043 -0.19532,0.0625 -0.29297,0.0625 z M 6.878906,211.84375 143.4375,249.375 187.45703,230.16406 50.429688,195.01562 Z m 0,0"
      id="path23" />
    <path style="fill:#def0f3;fill-opacity:1;fill-rule:nonzero;stroke:none"
      d="m 143.1875,226.80078 9.75,-3.47266 -15.70313,-4.01953 -9.35937,3.33203 z m 0,0" id="path24" />
    <path style="fill:#a1a1a1;fill-opacity:1;fill-rule:nonzero;stroke:none"
      d="m 143.1875,227.52344 c -0.0625,0 -0.125,-0.008 -0.1875,-0.0273 l -15.3125,-4.15625 c -0.30859,-0.0859 -0.52344,-0.35547 -0.53516,-0.67187 -0.0117,-0.31641 0.1836,-0.60938 0.48047,-0.71485 l 9.35938,-3.32812 c 0.13672,-0.0469 0.28515,-0.0547 0.42187,-0.0234 l 15.70703,4.02344 c 0.3086,0.0781 0.53125,0.34766 0.54297,0.66797 0.0156,0.32031 -0.17969,0.60937 -0.48047,0.71875 l -9.75,3.46875 c -0.082,0.0312 -0.16406,0.043 -0.24609,0.043 z m -12.89063,-4.97657 12.86329,3.49219 7.29687,-2.59765 -13.1875,-3.375 z m 0,0"
      id="path25" />
    <path style="fill:#def0f3;fill-opacity:1;fill-rule:nonzero;stroke:none"
      d="m 66.617188,206.00781 7.792968,-2.77734 -15.703125,-4.01563 -7.402343,2.63282 z m 0,0" id="path26" />
    <path style="fill:#a1a1a1;fill-opacity:1;fill-rule:nonzero;stroke:none"
      d="m 66.617188,206.73047 c -0.0625,0 -0.125,-0.008 -0.1875,-0.0234 l -15.316407,-4.16016 c -0.304687,-0.082 -0.523437,-0.35546 -0.53125,-0.67187 -0.01172,-0.31641 0.179688,-0.60547 0.480469,-0.71094 l 7.402344,-2.63281 c 0.136718,-0.0508 0.285156,-0.0547 0.421875,-0.0195 l 15.703125,4.01953 c 0.308594,0.0781 0.53125,0.35156 0.546875,0.66797 0.01172,0.32031 -0.183594,0.60937 -0.484375,0.71875 l -7.792969,2.76953 c -0.07422,0.0312 -0.160156,0.043 -0.242187,0.043 z m -12.886719,-4.97656 12.859375,3.49218 5.339844,-1.90234 -13.1875,-3.37109 z m 0,0"
      id="path27" />
    <path style="fill:#def0f3;fill-opacity:1;fill-rule:nonzero;stroke:none"
      d="m 81.933594,210.16406 8.1875,-2.91015 -15.710938,-4.02344 -7.792968,2.77734 z m 0,0" id="path28" />
    <path style="fill:#a1a1a1;fill-opacity:1;fill-rule:nonzero;stroke:none"
      d="m 81.933594,210.89062 c -0.0625,0 -0.125,-0.008 -0.191406,-0.0234 l -15.3125,-4.16016 c -0.308594,-0.082 -0.523438,-0.35547 -0.535157,-0.67187 -0.01172,-0.32032 0.183594,-0.60547 0.480469,-0.71485 l 7.792969,-2.77344 c 0.136719,-0.0469 0.285156,-0.0508 0.421875,-0.0156 l 15.707031,4.01953 c 0.3125,0.0781 0.53125,0.34766 0.546875,0.66797 0.01563,0.31641 -0.179688,0.60937 -0.480469,0.71484 l -8.1875,2.91407 c -0.07813,0.0273 -0.164062,0.043 -0.242187,0.043 z m -12.890625,-4.97656 12.859375,3.49219 5.734375,-2.03906 -13.191407,-3.375 z m 0,0"
      id="path29" />
    <path style="fill:#def0f3;fill-opacity:1;fill-rule:nonzero;stroke:none"
      d="m 158.50391,230.95703 10.14062,-3.60937 -15.70703,-4.01954 -9.75,3.47266 z m 0,0" id="path30" />
    <path style="fill:#a1a1a1;fill-opacity:1;fill-rule:nonzero;stroke:none"
      d="m 158.50391,231.68359 c -0.0664,0 -0.12891,-0.008 -0.19141,-0.0273 L 143,227.49609 c -0.30859,-0.082 -0.52734,-0.35156 -0.53516,-0.66797 -0.0117,-0.32031 0.1836,-0.60546 0.48047,-0.71484 l 9.75391,-3.46875 c 0.13672,-0.0469 0.28515,-0.0547 0.42187,-0.0195 l 15.70703,4.01953 c 0.3086,0.082 0.53125,0.35156 0.54297,0.66797 0.0156,0.32031 -0.17968,0.60937 -0.48047,0.71875 L 158.75,231.64062 c -0.0859,0.0273 -0.16406,0.043 -0.24609,0.043 z m -12.89063,-4.97656 12.85938,3.49219 7.6875,-2.73828 -13.1875,-3.375 z m 0,0"
      id="path31" />
    <path style="fill:#def0f3;fill-opacity:1;fill-rule:nonzero;stroke:none"
      d="m 97.246094,214.32031 8.574216,-3.04687 -15.699216,-4.01953 -8.1875,2.91015 z m 0,0" id="path32" />
    <path style="fill:#a1a1a1;fill-opacity:1;fill-rule:nonzero;stroke:none"
      d="m 97.246094,215.04687 c -0.0625,0 -0.125,-0.008 -0.1875,-0.0273 l -15.316406,-4.15234 c -0.304688,-0.0859 -0.523438,-0.35547 -0.53125,-0.67188 -0.01563,-0.3164 0.179687,-0.60937 0.476562,-0.71484 l 8.1875,-2.91016 c 0.136719,-0.0508 0.28125,-0.0547 0.421875,-0.0195 l 15.707035,4.01953 c 0.30859,0.0781 0.53125,0.35156 0.54297,0.67188 0.0156,0.3164 -0.17969,0.60937 -0.48047,0.71484 l -8.578129,3.04688 c -0.07813,0.0312 -0.160156,0.043 -0.242187,0.043 z m -12.886719,-4.97265 12.859375,3.48828 6.12109,-2.17188 -13.18359,-3.3789 z m 0,0"
      id="path33" />
    <path style="fill:#def0f3;fill-opacity:1;fill-rule:nonzero;stroke:none"
      d="m 112.55859,218.48047 8.96875,-3.1875 -15.70703,-4.01953 -8.574216,3.04687 z m 0,0" id="path34" />
    <path style="fill:#a1a1a1;fill-opacity:1;fill-rule:nonzero;stroke:none"
      d="m 112.55859,219.20703 c -0.0664,0 -0.1289,-0.008 -0.1914,-0.0273 l -15.312502,-4.16016 c -0.304688,-0.082 -0.523438,-0.35547 -0.535157,-0.67187 -0.01172,-0.31641 0.183594,-0.60547 0.484375,-0.71094 l 8.574224,-3.04688 c 0.13671,-0.0508 0.28515,-0.0547 0.42187,-0.0195 l 15.70703,4.01953 c 0.3086,0.0781 0.53125,0.34766 0.54688,0.66797 0.0117,0.31641 -0.1836,0.60938 -0.48438,0.71485 l -8.96875,3.1914 c -0.0781,0.0312 -0.16015,0.043 -0.24219,0.043 z m -12.886715,-4.97656 12.859375,3.49219 6.51563,-2.31641 -13.19141,-3.375 z m 0,0"
      id="path35" />
    <path style="fill:#def0f3;fill-opacity:1;fill-rule:nonzero;stroke:none"
      d="m 127.875,222.64062 9.35937,-3.33203 -15.70703,-4.01562 -8.96875,3.1875 z m 0,0" id="path36" />
    <path style="fill:#a1a1a1;fill-opacity:1;fill-rule:nonzero;stroke:none"
      d="m 127.875,223.36328 c -0.0625,0 -0.12891,-0.008 -0.1875,-0.0234 l -15.31641,-4.16015 c -0.30468,-0.082 -0.52343,-0.35547 -0.53515,-0.67188 -0.0117,-0.3164 0.18359,-0.60547 0.48047,-0.71094 l 8.97265,-3.1914 c 0.13282,-0.0469 0.28125,-0.0547 0.42188,-0.0195 l 15.70312,4.01562 c 0.3125,0.082 0.53125,0.35547 0.54297,0.67188 0.0156,0.32031 -0.17969,0.60937 -0.48047,0.71875 l -9.35937,3.32812 c -0.0781,0.0312 -0.16016,0.043 -0.24219,0.043 z m -12.89062,-4.97266 12.85937,3.48829 6.90625,-2.45704 -13.1875,-3.37109 z m 0,0"
      id="path37" />
    <path style="fill:#def0f3;fill-opacity:1;fill-rule:nonzero;stroke:none"
      d="m 66.617188,206.00781 -13.40625,4.76563 15.3125,4.16015 13.410156,-4.76953 z m 0,0" id="path38" />
    <path style="fill:#a1a1a1;fill-opacity:1;fill-rule:nonzero;stroke:none"
      d="m 68.523438,215.66016 c -0.0625,0 -0.125,-0.008 -0.1875,-0.0273 l -15.3125,-4.15625 c -0.304688,-0.0859 -0.523438,-0.35937 -0.535157,-0.67187 -0.01172,-0.32032 0.183594,-0.60547 0.480469,-0.71485 l 13.410156,-4.76953 c 0.136719,-0.0508 0.289063,-0.0547 0.429688,-0.0156 L 82.125,209.46484 c 0.304688,0.082 0.523438,0.35547 0.53125,0.67188 0.01563,0.3164 -0.179688,0.60547 -0.480469,0.71094 l -13.40625,4.76562 c -0.07813,0.0352 -0.160156,0.0469 -0.246093,0.0469 z m -12.886719,-4.97657 12.859375,3.49219 11.011718,-3.91797 -12.859374,-3.49219 z m 0,0"
      id="path39" />
    <path style="fill:#def0f3;fill-opacity:1;fill-rule:nonzero;stroke:none"
      d="m 51.304688,201.84766 -13.40625,4.76953 15.3125,4.15625 13.40625,-4.76563 z m 0,0" id="path40" />
    <path style="fill:#a1a1a1;fill-opacity:1;fill-rule:nonzero;stroke:none"
      d="m 53.210938,211.5 c -0.0625,0 -0.125,-0.008 -0.1875,-0.0234 l -15.3125,-4.16015 c -0.308594,-0.0781 -0.523438,-0.35547 -0.535157,-0.66797 -0.01172,-0.32032 0.183594,-0.60547 0.480469,-0.71485 L 51.0625,201.1641 c 0.140625,-0.0547 0.292969,-0.0586 0.433594,-0.0195 l 15.3125,4.16016 c 0.308594,0.082 0.523437,0.35547 0.539062,0.67187 0.0078,0.31641 -0.183594,0.60547 -0.484375,0.71094 l -13.402343,4.76953 c -0.08594,0.0312 -0.167969,0.043 -0.25,0.043 z m -12.886719,-4.97656 12.859375,3.49218 11.007812,-3.91406 -12.859375,-3.49609 z m 0,0"
      id="path41" />
    <path style="fill:#def0f3;fill-opacity:1;fill-rule:nonzero;stroke:none"
      d="m 129.78125,231.57031 15.3125,4.15625 13.41016,-4.76953 -15.31641,-4.15625 z m 0,0" id="path42" />
    <path style="fill:#a1a1a1;fill-opacity:1;fill-rule:nonzero;stroke:none"
      d="m 145.09375,236.45312 c -0.0664,0 -0.12891,-0.008 -0.19141,-0.0234 l -15.3125,-4.16016 c -0.30468,-0.0859 -0.52343,-0.35547 -0.53515,-0.67187 -0.0117,-0.32032 0.18359,-0.60938 0.48437,-0.71485 l 13.40625,-4.76953 c 0.14063,-0.0508 0.29297,-0.0547 0.4336,-0.0195 l 15.3125,4.16406 c 0.30859,0.0781 0.52343,0.35547 0.53515,0.66797 0.0117,0.32031 -0.18359,0.60938 -0.48047,0.71484 l -13.40625,4.76954 c -0.082,0.0273 -0.16406,0.043 -0.24609,0.043 z m -12.88672,-4.98046 12.85938,3.49609 11.01171,-3.91797 -12.86328,-3.49219 z m 0,0"
      id="path43" />
    <path style="fill:#def0f3;fill-opacity:1;fill-rule:nonzero;stroke:none"
      d="m 81.933594,210.16406 -13.410156,4.76953 15.3125,4.16016 13.410156,-4.77344 z m 0,0" id="path44" />
    <path style="fill:#a1a1a1;fill-opacity:1;fill-rule:nonzero;stroke:none"
      d="m 83.835938,219.81641 c -0.0625,0 -0.125,-0.004 -0.1875,-0.0234 l -15.3125,-4.16016 c -0.304688,-0.082 -0.523438,-0.35547 -0.535157,-0.67187 -0.01172,-0.31641 0.183594,-0.60547 0.484375,-0.71094 l 13.40625,-4.76953 c 0.140625,-0.0508 0.292969,-0.0586 0.433594,-0.0195 l 15.3125,4.15625 c 0.304688,0.0859 0.523438,0.35937 0.535156,0.67187 0.01172,0.32031 -0.183594,0.60547 -0.484375,0.71094 l -13.40625,4.77344 c -0.08203,0.0312 -0.164062,0.043 -0.246093,0.043 z m -12.886719,-4.97657 12.859375,3.49219 11.011718,-3.91797 -12.859374,-3.49219 z m 0,0"
      id="path45" />
    <path style="fill:#def0f3;fill-opacity:1;fill-rule:nonzero;stroke:none"
      d="m 97.246094,214.32031 -13.410156,4.77344 15.316406,4.15625 13.406246,-4.76953 z m 0,0" id="path46" />
    <path style="fill:#a1a1a1;fill-opacity:1;fill-rule:nonzero;stroke:none"
      d="m 99.152344,223.97656 c -0.0625,0 -0.125,-0.008 -0.1875,-0.0234 l -15.316406,-4.16015 c -0.304688,-0.082 -0.523438,-0.35547 -0.535157,-0.67188 -0.01172,-0.32031 0.183594,-0.60547 0.480469,-0.71484 l 13.410156,-4.76953 c 0.140625,-0.0508 0.289063,-0.0547 0.433594,-0.0195 l 15.3125,4.16406 c 0.30859,0.0781 0.52344,0.35547 0.53516,0.67187 0.0117,0.31641 -0.17969,0.60547 -0.48047,0.71094 l -13.410159,4.77344 c -0.07813,0.0234 -0.160156,0.0391 -0.242187,0.0391 z m -12.890625,-4.98047 12.863281,3.4961 11.01172,-3.91797 -12.859376,-3.49219 z m 0,0"
      id="path47" />
    <path style="fill:#def0f3;fill-opacity:1;fill-rule:nonzero;stroke:none"
      d="m 112.55859,218.48047 -13.406246,4.76953 15.316406,4.16016 13.40625,-4.76954 z m 0,0" id="path48" />
    <path style="fill:#a1a1a1;fill-opacity:1;fill-rule:nonzero;stroke:none"
      d="m 114.46875,228.13672 c -0.0664,0 -0.12891,-0.0117 -0.19141,-0.0273 l -15.312496,-4.15625 c -0.304688,-0.0859 -0.523438,-0.35937 -0.535156,-0.67578 -0.01172,-0.3164 0.183593,-0.60156 0.480468,-0.71093 l 13.406254,-4.76954 c 0.14062,-0.0469 0.29297,-0.0547 0.43359,-0.0156 l 15.3125,4.15625 c 0.30859,0.082 0.52344,0.35547 0.53516,0.67187 0.0117,0.31641 -0.1836,0.60547 -0.48047,0.71094 l -13.40625,4.76953 c -0.082,0.0312 -0.16406,0.0469 -0.24219,0.0469 z m -12.89062,-4.97656 12.85937,3.49218 11.01172,-3.92187 -12.86328,-3.48828 z m 0,0"
      id="path49" />
    <path style="fill:#def0f3;fill-opacity:1;fill-rule:nonzero;stroke:none"
      d="m 127.875,222.64062 -13.40625,4.76954 15.3125,4.16015 13.40625,-4.76953 z m 0,0" id="path50" />
    <path style="fill:#a1a1a1;fill-opacity:1;fill-rule:nonzero;stroke:none"
      d="m 129.78125,232.29297 c -0.0625,0 -0.12891,-0.008 -0.19141,-0.0234 l -15.3164,-4.16016 c -0.30078,-0.082 -0.51953,-0.35937 -0.53125,-0.67187 -0.0156,-0.32031 0.18359,-0.60938 0.48047,-0.71094 l 13.40625,-4.77344 c 0.14062,-0.0469 0.29297,-0.0547 0.43359,-0.0156 l 15.3125,4.15625 c 0.30859,0.0859 0.52344,0.35937 0.53516,0.67578 0.0117,0.31641 -0.1836,0.60156 -0.48047,0.71094 L 130.02344,232.25 c -0.0781,0.0312 -0.16016,0.043 -0.24219,0.043 z m -12.88672,-4.97656 12.85547,3.49218 11.01172,-3.91406 -12.85547,-3.49609 z m 0,0"
      id="path51" />
    <path style="fill:#def0f3;fill-opacity:1;fill-rule:nonzero;stroke:none"
      d="m 129.78125,231.57031 -9.25,3.28906 15.26953,4.17188 9.29297,-3.30469 z m 0,0" id="path52" />
    <path style="fill:#a1a1a1;fill-opacity:1;fill-rule:nonzero;stroke:none"
      d="m 135.80078,239.75781 c -0.0625,0 -0.125,-0.0117 -0.1875,-0.0273 l -15.27344,-4.17188 c -0.30859,-0.0859 -0.52343,-0.35547 -0.53515,-0.67578 -0.0117,-0.3125 0.18359,-0.60156 0.48047,-0.70703 l 9.25,-3.29297 c 0.14453,-0.0508 0.29296,-0.0547 0.4375,-0.0156 l 15.3125,4.16015 c 0.30468,0.082 0.52343,0.35157 0.53125,0.66797 0.0156,0.32031 -0.17969,0.60547 -0.48047,0.71485 l -9.28907,3.30468 c -0.0781,0.0312 -0.16015,0.043 -0.24609,0.043 z m -12.85156,-4.98828 12.82422,3.50391 6.89453,-2.45313 -12.85938,-3.49219 z m 0,0"
      id="path53" />
    <path style="fill:#def0f3;fill-opacity:1;fill-rule:nonzero;stroke:none"
      d="m 135.80078,239.03125 14.65625,4.00391 8.65234,-3.5 -14.01562,-3.8086 z m 0,0" id="path54" />
    <path style="fill:#a1a1a1;fill-opacity:1;fill-rule:nonzero;stroke:none"
      d="m 150.45703,243.75781 c -0.0664,0 -0.12891,-0.0117 -0.19141,-0.0273 l -14.65234,-4 c -0.30859,-0.0859 -0.52344,-0.35547 -0.53516,-0.67188 -0.0117,-0.3164 0.1836,-0.60156 0.48047,-0.71093 l 9.29297,-3.30469 c 0.14063,-0.0508 0.29297,-0.0586 0.4336,-0.0156 l 14.01171,3.80469 c 0.30079,0.082 0.51563,0.34766 0.53516,0.65625 0.0195,0.3125 -0.16406,0.59766 -0.45312,0.71484 l -8.65235,3.5 c -0.0859,0.0391 -0.17969,0.0547 -0.26953,0.0547 z m -12.23437,-4.8164 12.1875,3.32812 6.42968,-2.60156 -11.71484,-3.1836 z m 0,0"
      id="path55" />
    <path style="fill:#def0f3;fill-opacity:1;fill-rule:nonzero;stroke:none"
      d="m 58.707031,199.21484 -7.769531,-1.98828 -6.960938,2.62891 7.328126,1.99219 z m 0,0" id="path56" />
    <path style="fill:#a1a1a1;fill-opacity:1;fill-rule:nonzero;stroke:none"
      d="m 51.304688,202.57031 c -0.06641,0 -0.125,-0.008 -0.191407,-0.0234 l -7.324219,-1.98828 c -0.304687,-0.0859 -0.519531,-0.35547 -0.535156,-0.66797 -0.01563,-0.3164 0.171875,-0.60156 0.464844,-0.71484 l 6.960938,-2.62891 c 0.140624,-0.0547 0.292968,-0.0664 0.4375,-0.0273 l 7.773437,1.98828 c 0.308594,0.082 0.527344,0.35156 0.542969,0.67188 0.01563,0.32031 -0.179688,0.60937 -0.484375,0.71484 l -7.398438,2.63281 c -0.08203,0.0312 -0.164062,0.043 -0.246093,0.043 z m -4.976563,-2.82812 4.949219,1.34765 4.945312,-1.76172 -5.242187,-1.34375 z m 0,0"
      id="path57" />
    <path style="fill:#def0f3;fill-opacity:1;fill-rule:nonzero;stroke:none"
      d="m 99.152344,223.25 -9.171875,3.26562 15.273441,4.16797 9.21484,-3.27343 z m 0,0" id="path58" />
    <path style="fill:#a1a1a1;fill-opacity:1;fill-rule:nonzero;stroke:none"
      d="m 105.25391,231.41016 c -0.0664,0 -0.12891,-0.0117 -0.19141,-0.0273 l -15.269531,-4.17187 c -0.308594,-0.082 -0.523438,-0.35547 -0.535157,-0.67188 -0.01172,-0.3164 0.183594,-0.60547 0.480469,-0.71094 l 9.171875,-3.26171 c 0.136719,-0.0508 0.289063,-0.0547 0.433594,-0.0156 l 15.3125,4.15625 c 0.30469,0.082 0.52344,0.35547 0.53516,0.67188 0.008,0.3164 -0.1836,0.60937 -0.48438,0.71093 l -9.21094,3.28125 c -0.0781,0.0273 -0.16015,0.0391 -0.24218,0.0391 z m -12.851566,-4.98438 12.824216,3.5 6.81641,-2.42578 -12.859376,-3.48828 z m 0,0"
      id="path59" />
    <path style="fill:#def0f3;fill-opacity:1;fill-rule:nonzero;stroke:none"
      d="m 168.64453,227.34766 -10.14062,3.60937 13.03906,3.54297 9.70312,-3.92578 z m 0,0" id="path60" />
    <path style="fill:#a1a1a1;fill-opacity:1;fill-rule:nonzero;stroke:none"
      d="m 171.54297,235.22656 c -0.0625,0 -0.125,-0.0117 -0.1875,-0.0273 l -13.04297,-3.54297 c -0.30859,-0.082 -0.52344,-0.35547 -0.53516,-0.67188 -0.0117,-0.3164 0.1836,-0.60156 0.48047,-0.71093 l 10.14453,-3.61328 c 0.13672,-0.043 0.28125,-0.0508 0.42188,-0.0156 l 12.60156,3.22656 c 0.30078,0.0742 0.52344,0.33985 0.54297,0.65235 0.0195,0.3125 -0.16016,0.60547 -0.45313,0.72265 l -9.69921,3.92188 c -0.0859,0.0391 -0.17969,0.0586 -0.27344,0.0586 z m -10.61719,-4.36328 10.57422,2.875 7.42578,-3.00781 -10.24609,-2.625 z m 0,0"
      id="path61" />
    <path style="fill:#def0f3;fill-opacity:1;fill-rule:nonzero;stroke:none"
      d="m 145.09375,235.72656 14.01562,3.8086 12.4336,-5.03516 -13.03906,-3.54297 z m 0,0" id="path62" />
    <path style="fill:#a1a1a1;fill-opacity:1;fill-rule:nonzero;stroke:none"
      d="m 159.10937,240.25781 c -0.0664,0 -0.1289,-0.008 -0.1914,-0.0273 l -14.01172,-3.80469 c -0.30469,-0.0859 -0.52344,-0.35937 -0.53516,-0.67187 -0.0117,-0.32032 0.1836,-0.60547 0.48047,-0.71485 l 13.41016,-4.76562 c 0.13672,-0.0547 0.28906,-0.0586 0.42969,-0.0195 l 13.04687,3.53906 c 0.30078,0.0859 0.51563,0.34765 0.53516,0.65625 0.0156,0.3125 -0.16407,0.60156 -0.45313,0.71875 l -12.4375,5.03125 c -0.0898,0.043 -0.18359,0.0586 -0.27344,0.0586 z m -11.58984,-4.62109 11.54297,3.13281 10.21484,-4.13672 -10.74609,-2.91406 z m 0,0"
      id="path63" />
    <path style="fill:#def0f3;fill-opacity:1;fill-rule:nonzero;stroke:none"
      d="m 114.46875,227.41016 -9.21484,3.27343 15.27734,4.17578 9.25,-3.28906 z m 0,0" id="path64" />
    <path style="fill:#a1a1a1;fill-opacity:1;fill-rule:nonzero;stroke:none"
      d="m 120.53125,235.58594 c -0.0664,0 -0.12891,-0.0117 -0.19141,-0.0273 l -15.27734,-4.17578 c -0.30469,-0.0859 -0.52344,-0.35547 -0.53516,-0.67187 -0.0117,-0.31641 0.1836,-0.60157 0.48438,-0.71094 l 9.21094,-3.27734 c 0.14453,-0.0508 0.29297,-0.0547 0.43359,-0.0195 l 15.31641,4.16016 c 0.30468,0.0859 0.51953,0.35938 0.53125,0.67578 0.0117,0.31641 -0.1836,0.59766 -0.48047,0.70703 l -9.25,3.29297 c -0.0781,0.0312 -0.16016,0.0469 -0.24219,0.0469 z m -12.85937,-4.99219 12.82812,3.50391 6.85547,-2.44141 -12.85938,-3.49219 z m 0,0"
      id="path65" />
    <path style="fill:#def0f3;fill-opacity:1;fill-rule:nonzero;stroke:none"
      d="m 37.898438,206.61719 -9.011719,3.20703 15.269531,4.17187 9.054688,-3.22265 z m 0,0" id="path66" />
    <path style="fill:#a1a1a1;fill-opacity:1;fill-rule:nonzero;stroke:none"
      d="m 44.15625,214.72266 c -0.0625,0 -0.128906,-0.0117 -0.191406,-0.0273 l -15.273438,-4.17578 c -0.304687,-0.082 -0.519531,-0.35156 -0.53125,-0.67187 -0.01172,-0.3125 0.183594,-0.60547 0.484375,-0.71094 l 9.011719,-3.20313 c 0.140625,-0.0508 0.289062,-0.0547 0.433594,-0.0195 l 15.3125,4.15625 c 0.308594,0.0859 0.523437,0.35547 0.535156,0.67188 0.01172,0.32031 -0.183594,0.60547 -0.480469,0.71484 l -9.058593,3.21875 c -0.07813,0.0312 -0.15625,0.0469 -0.242188,0.0469 z m -12.851562,-4.98829 12.824218,3.50391 6.660156,-2.37109 -12.859374,-3.49219 z m 0,0"
      id="path67" />
    <path style="fill:#def0f3;fill-opacity:1;fill-rule:nonzero;stroke:none"
      d="m 31.03125,204.75 -8.6875,3.28516 6.542969,1.78906 9.011719,-3.20703 z m 0,0" id="path68" />
    <path style="fill:#a1a1a1;fill-opacity:1;fill-rule:nonzero;stroke:none"
      d="m 28.886719,210.55078 c -0.06641,0 -0.128907,-0.0117 -0.195313,-0.0312 l -6.539062,-1.78516 c -0.304688,-0.082 -0.519532,-0.35156 -0.53125,-0.66406 -0.01563,-0.3125 0.171875,-0.60156 0.464844,-0.71484 l 8.6875,-3.28125 c 0.148437,-0.0547 0.300781,-0.0625 0.449218,-0.0234 l 6.863282,1.86719 c 0.304687,0.082 0.527343,0.35547 0.535156,0.67187 0.01172,0.31641 -0.183594,0.60547 -0.480469,0.71094 L 29.125,210.50391 c -0.07813,0.0312 -0.160156,0.0469 -0.238281,0.0469 z m -4.195313,-2.625 4.164063,1.14063 6.617187,-2.35547 -4.402344,-1.19922 z m 0,0"
      id="path69" />
    <path style="fill:#def0f3;fill-opacity:1;fill-rule:nonzero;stroke:none"
      d="m 51.304688,201.84766 -7.328126,-1.99219 -12.945312,4.89453 6.867188,1.86719 z m 0,0" id="path70" />
    <path style="fill:#a1a1a1;fill-opacity:1;fill-rule:nonzero;stroke:none"
      d="m 37.898438,207.34375 c -0.0625,0 -0.128907,-0.008 -0.1875,-0.0273 l -6.867188,-1.86329 c -0.304688,-0.0859 -0.519531,-0.35156 -0.535156,-0.66406 -0.01172,-0.3164 0.175781,-0.60156 0.46875,-0.71484 l 12.941406,-4.89844 c 0.148438,-0.0547 0.300781,-0.0625 0.449219,-0.0195 l 7.328125,1.98828 c 0.304687,0.0859 0.523437,0.35938 0.53125,0.67188 0.01563,0.32031 -0.179688,0.60937 -0.476563,0.71484 l -13.410156,4.76953 c -0.07422,0.0312 -0.160156,0.043 -0.242187,0.043 z m -4.515626,-2.70313 4.488282,1.21875 11.011718,-3.91796 -4.867187,-1.32032 z m 0,0"
      id="path71" />
    <path style="fill:#def0f3;fill-opacity:1;fill-rule:nonzero;stroke:none"
      d="m 68.523438,214.93359 -9.089844,3.23438 15.273437,4.17578 9.128907,-3.25 z m 0,0" id="path72" />
    <path style="fill:#a1a1a1;fill-opacity:1;fill-rule:nonzero;stroke:none"
      d="m 74.707031,223.06641 c -0.06641,0 -0.128906,-0.0117 -0.191406,-0.0273 l -15.269531,-4.17187 c -0.308594,-0.082 -0.523438,-0.35547 -0.535156,-0.67188 -0.01172,-0.3164 0.183593,-0.60547 0.480468,-0.71094 l 9.09375,-3.23437 c 0.140625,-0.0547 0.289063,-0.0547 0.433594,-0.0195 l 15.308594,4.16015 c 0.308594,0.082 0.523437,0.35547 0.535156,0.67188 0.01172,0.31641 -0.179688,0.60156 -0.480469,0.71094 l -9.132812,3.25 c -0.08203,0.0273 -0.160157,0.043 -0.242188,0.043 z m -12.855469,-4.98829 12.824219,3.50391 6.738281,-2.39453 -12.859374,-3.49609 z m 0,0"
      id="path73" />
    <path style="fill:#def0f3;fill-opacity:1;fill-rule:nonzero;stroke:none"
      d="m 53.210938,210.77344 -9.054688,3.22265 15.277344,4.17188 9.089844,-3.23438 z m 0,0" id="path74" />
    <path style="fill:#a1a1a1;fill-opacity:1;fill-rule:nonzero;stroke:none"
      d="m 59.433594,218.89844 c -0.06641,0 -0.128906,-0.0117 -0.191406,-0.0312 L 43.96875,214.69531 c -0.308594,-0.0859 -0.523438,-0.35547 -0.535156,-0.67187 -0.01172,-0.31641 0.183594,-0.60938 0.480468,-0.71094 l 9.054688,-3.22266 c 0.140625,-0.0469 0.289062,-0.0508 0.433594,-0.0156 l 15.3125,4.16015 c 0.304687,0.082 0.523437,0.35547 0.535156,0.67188 0.01172,0.31641 -0.183594,0.60547 -0.484375,0.71094 l -9.089844,3.23828 c -0.07813,0.0273 -0.160156,0.043 -0.242187,0.043 z m -12.859375,-4.99219 12.828125,3.50781 6.699218,-2.38672 -12.859374,-3.48828 z m 0,0"
      id="path75" />
    <path style="fill:#def0f3;fill-opacity:1;fill-rule:nonzero;stroke:none"
      d="m 83.835938,219.09375 -9.128907,3.25 15.273438,4.17187 9.171875,-3.26562 z m 0,0" id="path76" />
    <path style="fill:#a1a1a1;fill-opacity:1;fill-rule:nonzero;stroke:none"
      d="m 89.980469,227.23828 c -0.0625,0 -0.128907,-0.0117 -0.1875,-0.0273 L 74.515625,223.0391 c -0.308594,-0.082 -0.523437,-0.35547 -0.535156,-0.67187 -0.01172,-0.31641 0.183593,-0.60547 0.484375,-0.71094 l 9.128906,-3.25 c 0.140625,-0.0508 0.292969,-0.0508 0.433594,-0.0156 l 15.316406,4.16016 c 0.304688,0.082 0.523438,0.35547 0.53125,0.67188 0.01563,0.3164 -0.183594,0.60546 -0.480469,0.71093 l -9.171875,3.26172 c -0.07813,0.0312 -0.15625,0.043 -0.242187,0.043 z M 77.125,222.25 l 12.828125,3.50391 6.773437,-2.41016 -12.859374,-3.49219 z m 0,0"
      id="path77" />
    <path style="fill:#def0f3;fill-opacity:1;fill-rule:nonzero;stroke:none"
      d="m 224.11328,240.44141 c 0,0 -3.84766,-8.5586 -19.05469,-5.58204 -15.21093,2.97266 -30.42578,10.78125 -29.50781,19.0586 0.91406,8.28125 12.96094,7 21.96484,4.43359 9.00782,-2.5625 31.73438,-8.45703 26.59766,-17.91015 z m 0,0"
      id="path78" />
    <path style="fill:#a1a1a1;fill-opacity:1;fill-rule:nonzero;stroke:none"
      d="m 185.53516,261.01562 c -8.21094,0 -10.35547,-3.8125 -10.70704,-7.01562 -0.98437,-8.88281 14.76954,-16.85938 30.08985,-19.85547 2.17578,-0.42187 4.2539,-0.64062 6.17187,-0.64062 10.58203,0 13.56641,6.37109 13.6875,6.64062 0.95313,1.74609 1.07422,3.54297 0.33985,5.28516 -2.82422,6.6875 -17.96485,10.96093 -26.10157,13.25 l -1.30078,0.37109 c -3.15234,0.89844 -7.82422,1.96484 -12.17968,1.96484 z m 25.55468,-26.05859 c -1.82812,0 -3.80859,0.20703 -5.89453,0.61328 -14.89062,2.91406 -29.78125,10.53906 -28.92578,18.27344 0.42188,3.80078 3.53906,5.72656 9.26172,5.72656 0.004,0 0.004,0 0.004,0 4.1914,0 8.71875,-1.03906 11.78125,-1.91406 l 1.30468,-0.37109 c 7.33594,-2.06641 22.60547,-6.375 25.15625,-12.41797 0.5625,-1.33203 0.46094,-2.66797 -0.30078,-4.07813 -0.13281,-0.28125 -2.79297,-5.83203 -12.38672,-5.83203 z m 0,0"
      id="path79" />
    <use xlink:href="#csesurface14" mask="url(#mask3)" id="use79" />
  </g>
</svg>