<svg xmlns="http://www.w3.org/2000/svg" xmlns:xlink="http://www.w3.org/1999/xlink" width="256px" height="256px" viewBox="0 0 256 256" version="1.1">
    <title>DBMS</title>
<rect width="256" height="256" fill="#f2f4ed" rx="60" id="rect1" />
<g id="surface1">
<path style=" stroke:none;fill-rule:nonzero;fill:#242938;fill-opacity:1;" d="M 128 42.914062 C 85.867188 42.914062 51.699219 54.328125 51.699219 68.480469 L 51.699219 89.421875 C 51.699219 103.644531 85.867188 114.988281 128 114.988281 C 170.132812 114.988281 204.265625 103.574219 204.265625 89.421875 L 204.265625 68.480469 C 204.300781 54.328125 170.132812 42.914062 128 42.914062 Z M 128 42.914062 "/>
<path style=" stroke:none;fill-rule:nonzero;fill:#242938;fill-opacity:1;" d="M 128 127.21875 C 87.75 127.21875 54.613281 116.800781 51.699219 103.539062 C 51.699219 104.179688 51.699219 138.203125 51.699219 138.203125 C 51.699219 152.425781 85.867188 163.734375 128 163.734375 C 170.132812 163.734375 204.265625 152.320312 204.265625 138.203125 C 204.265625 138.203125 204.265625 104.179688 204.265625 103.539062 C 201.351562 116.800781 168.25 127.21875 128 127.21875 Z M 128 127.21875 "/>
<path style=" stroke:none;fill-rule:nonzero;fill:#242938;fill-opacity:1;" d="M 204.230469 152.890625 C 201.316406 166.117188 168.25 176.570312 128.035156 176.570312 C 87.820312 176.570312 54.648438 166.117188 51.734375 152.890625 L 51.734375 187.554688 C 51.734375 201.777344 85.902344 213.085938 128.035156 213.085938 C 170.167969 213.085938 204.300781 201.671875 204.300781 187.554688 Z M 204.230469 152.890625 "/>
</g>
</svg>
