<svg width="256px" height="256px" viewBox="0 0 256 256" xmlns="http://www.w3.org/2000/svg"
    xmlns:svg="http://www.w3.org/2000/svg">
    <rect width="256" height="256" fill="#242938" rx="60" id="rect1" />
    <g id="surface1" transform="matrix(0.96003322,0,0,0.89941433,2.1920668,17.166882)">
        <path style="fill:#d7054f;fill-opacity:1;fill-rule:nonzero;stroke:none"
            d="m 150.69531,135.10937 c -4.23437,0.10157 0.80469,2.21875 6.35156,3.02344 1.51563,-1.21094 2.92188,-2.41797 4.13282,-3.52734 -3.42578,0.80469 -6.95313,0.80469 -10.48438,0.5039 m 22.78516,-5.64843 c 2.51953,-3.52735 4.33594,-7.25781 5.04297,-11.19141 -0.60547,2.82422 -2.11719,5.24219 -3.53125,7.76563 -7.96485,4.9375 -0.70313,-2.92578 0,-5.94922 -8.57032,10.6875 -1.20703,6.35156 -1.51172,9.375 m 8.37109,-21.87891 c 0.50391,-7.664061 -1.51562,-5.24219 -2.21875,-2.32031 0.80469,0.50391 1.41016,5.44531 2.21875,2.32031 M 134.66016,3.328125 c 2.21875,0.40625 4.9414,0.703125 4.53906,1.210937 2.41797,-0.503906 3.02344,-1.011718 -4.53906,-1.210937 m 4.53906,1.308594 -1.61328,0.304687 1.51172,-0.101562 0.10156,-0.203125 m 70.48047,105.871091 c 0.30078,6.85547 -2.01953,10.1836 -4.03516,16.03125 l -3.62891,1.8125 c -3.02734,5.84766 0.30079,3.73047 -1.8164,8.3711 -4.63672,4.13281 -14.21485,13.00781 -17.24219,13.8125 -2.21484,0 1.51563,-2.6211 2.01953,-3.62891 -6.2539,4.33594 -5.04297,6.45312 -14.62109,9.07422 l -0.30078,-0.60547 c -23.59375,11.09375 -56.46485,-10.89063 -55.96094,-40.9375 -0.20312,1.91797 -0.70703,1.41406 -1.21094,2.21875 -1.20703,-15.42578 7.16016,-30.953125 21.27735,-37.304688 13.8125,-6.855468 29.94531,-4.035156 39.82421,5.140626 -5.44531,-7.058594 -16.23046,-14.617188 -29.03906,-13.914063 -12.5,0.203125 -24.29687,8.167969 -28.1289,16.839844 -6.45313,4.03125 -7.16016,15.628911 -9.98438,17.746091 -3.73047,27.625 7.0586,39.625 25.41016,53.64063 2.92187,1.91406 0.80468,2.21484 1.20703,3.73047 -6.04688,-2.82422 -11.69531,-7.16016 -16.23047,-12.40235 2.41797,3.52735 5.03906,7.0586 8.46875,9.77735 -5.74609,-1.91407 -13.41016,-13.91407 -15.62891,-14.41797 9.88282,17.74609 40.23047,31.15625 56.0586,24.5039 -7.35938,0.30078 -16.63672,0.0977 -24.90235,-2.92578 -3.42968,-1.8164 -8.16797,-5.44531 -7.36328,-6.14844 21.67969,8.0625 43.96094,6.14844 62.71485,-8.875 4.74218,-3.73046 9.98437,-9.98437 11.49609,-10.08593 -2.21875,3.42968 0.40625,1.61328 -1.3125,4.64062 4.74219,-7.66406 -2.01563,-3.125 4.94141,-13.21094 l 2.62109,3.53125 c -1.00781,-6.35156 7.86719,-14.11718 6.95703,-24.09765 2.01563,-3.02734 2.21875,3.32812 0.10156,10.38281 3.02344,-7.86328 0.80469,-9.07422 1.51172,-15.625 0.8086,2.21485 1.91797,4.53516 2.52344,6.75391 -1.91797,-7.5625 2.01562,-12.80469 2.92187,-17.140628 -1.00781,-0.40625 -3.02343,3.328128 -3.42578,-5.648437 0.0977,-3.929687 1.10938,-2.015625 1.51172,-3.023437 -0.80469,-0.40625 -2.72265,-3.429688 -3.92969,-9.171876 0.90625,-1.3125 2.31641,3.527344 3.52735,3.628907 -0.80469,-4.539063 -2.11719,-7.964844 -2.11719,-11.496094 -3.52734,-7.359375 -1.21094,1.007813 -4.13281,-3.125 -3.73047,-11.695313 3.125,-2.722656 3.52734,-7.964844 5.64844,8.167969 8.875,20.972657 10.38672,26.214844 C 232.56641,80.15625 230.75,73.90625 228.42969,67.957031 230.14453,68.664062 225.71094,54.75 230.64844,63.925781 225.30078,44.261719 207.76172,25.8125 191.62891,17.242188 c 2.01562,1.8125 4.43359,4.03125 3.52734,4.433593 -8.0625,-4.738281 -6.65234,-5.140625 -7.76172,-7.15625 -6.55469,-2.621093 -6.95703,0.199219 -11.29297,0 C 163.80078,7.964844 161.37891,8.671875 150.08594,4.535156 l 0.5039,2.417969 c -8.16406,-2.71875 -9.47656,1.007813 -18.34765,0 -0.50782,-0.402344 2.82031,-1.511719 5.64453,-1.914063 -7.86328,1.007813 -7.5625,-1.515624 -15.22656,0.300782 C 124.57813,4.03125 126.59375,3.125 128.60937,2.015625 122.15625,2.417969 113.18359,5.746094 116.00781,2.71875 105.51953,7.457031 86.867188,14.011719 76.382812,23.792969 l -0.304687,-2.21875 c -4.835937,5.75 -20.867187,17.242187 -22.179687,24.707031 l -1.308594,0.300781 c -2.519532,4.234375 -4.132813,8.972657 -6.050782,13.410157 -3.226562,5.546874 -4.738281,2.117187 -4.335937,3.023437 -6.453125,13.007813 -9.578125,24 -12.402344,32.972656 1.917969,2.921875 0,17.640629 0.808594,29.441409 -3.226563,58.27734 40.835937,114.84375 89.128905,127.85156 7.0586,2.51953 17.54688,2.41797 26.51953,2.72266 -10.58594,-3.02735 -11.89844,-1.61329 -22.18359,-5.14454 -7.35938,-3.52734 -9.07422,-7.46093 -14.31641,-11.99609 l 2.11719,3.62891 c -10.28516,-3.62891 -5.94922,-4.53907 -14.316406,-7.16016 l 2.21875,-2.92187 c -3.328125,-0.30469 -8.875,-5.64844 -10.386719,-8.57032 l -3.628906,0.0977 c -4.335938,-5.44141 -6.757813,-9.27344 -6.554688,-12.30078 l -1.613281,1.8164 C 76.285156,211.13281 61.460938,193.1875 69.125,197.32031 c -1.410156,-1.30859 -3.328125,-2.11719 -5.34375,-5.84765 l 1.515625,-1.8125 c -3.730469,-4.74219 -6.757813,-10.89063 -6.554687,-12.90625 2.015624,2.62109 3.328124,3.125 4.738281,3.6289 -9.375,-23.1914 -9.878907,-1.3125 -16.9375,-23.59375 l 1.515625,-0.10156 c -1.109375,-1.71484 -1.816406,-3.62891 -2.722656,-5.44531 l 0.605468,-6.45313 C 39.183594,137.02734 44.023438,111.82031 45.03125,97.90625 45.738281,92.257812 50.679688,86.3125 54.410156,76.832031 l -2.320312,-0.40625 c 4.335937,-7.660156 25.003906,-30.648437 34.484375,-29.441406 4.636719,-5.847656 -0.910157,0 -1.816407,-1.511719 10.183594,-10.488281 13.308594,-7.460937 20.164068,-9.277344 7.36328,-4.335937 -6.351568,1.714844 -2.82032,-1.714843 12.80469,-3.226563 9.07422,-7.460938 25.71094,-9.074219 1.71094,1.007812 -4.03516,1.515625 -5.54687,2.824219 10.58203,-5.242188 33.67187,-4.03125 48.59374,2.925781 17.34375,8.0625 36.80079,32.0625 37.60938,54.648438 l 0.91016,0.199218 c -0.40625,8.976563 1.41015,19.359374 -1.81641,28.839844 l 2.11719,-4.33594 m -105.16406,30.44922 -0.60547,2.92188 c 2.82422,3.83203 5.04297,7.86718 8.57031,10.78906 -2.62109,-4.94141 -4.53516,-6.95313 -7.96484,-13.71094 m 6.55468,-0.30469 c -1.51562,-1.61328 -2.32031,-3.6289 -3.32812,-5.54297 0.90625,3.42579 2.82422,6.35157 4.63672,9.375 l -1.3086,-3.83203 m 116.45313,-25.30468 -0.60547,1.61328 c -1.10938,8.0625 -3.62891,16.1289 -7.35938,23.59375 4.13282,-7.86719 6.85547,-16.4375 7.96485,-25.20703 M 135.46875,1.3125 C 138.29297,0.300781 142.52734,0.707031 145.55078,0 141.62109,0.300781 137.6875,0.503906 133.75391,1.007812 L 135.46875,1.3125 M 34.945312,54.75 c 0.707032,6.152344 -4.636718,8.46875 1.210938,4.4375 3.027344,-6.855469 -1.308594,-1.816406 -1.210938,-4.4375 m -6.753906,28.332031 c 1.3125,-4.035156 1.613282,-6.554687 2.117188,-8.875 -3.730469,4.636719 -1.714844,5.644531 -2.117188,8.875 M 477.76562,205.46484 c -0.89453,0.0234 0.17188,0.47266 1.34375,0.64063 l 0.875,-0.7461 c -0.72656,0.17188 -1.47265,0.17188 -2.21875,0.10547 m 4.82032,-1.1914 c 0.53515,-0.75 0.91797,-1.53907 1.07031,-2.3711 -0.12891,0.59766 -0.44922,1.10938 -0.75,1.64453 -1.68359,1.04297 -0.14844,-0.62109 0,-1.25781 -1.8125,2.26172 -0.25391,1.34375 -0.32031,1.98438 m 1.77343,-4.63282 c 0.10547,-1.62109 -0.32031,-1.10937 -0.46875,-0.48828 0.16797,0.10547 0.29688,1.15235 0.46875,0.48828 M 474.375,177.58203 c 0.46875,0.0859 1.04297,0.15234 0.96094,0.25781 0.51172,-0.10547 0.63672,-0.21484 -0.96094,-0.25781"
            id="path1" />
    </g>
</svg>