<svg width="256px" height="256px" viewBox="0 0 256 256" version="1.1" xmlns="http://www.w3.org/2000/svg"
    xmlns:svg="http://www.w3.org/2000/svg">
    <title>Dgraph</title>
    <rect width="256" height="256" rx="60" fill="#f2f4ed" id="rect1" />
    <defs id="defs2">
        <radialGradient id="radial0" gradientUnits="userSpaceOnUse" cx="29.431999" cy="35" fx="29.431999" fy="35"
            r="32.335999" gradientTransform="matrix(3.65709,0,0,3.65709,20.364525,4e-6)">
            <stop offset="0" style="stop-color:rgb(97.254902%,52.54902%,12.156863%);stop-opacity:1;" id="stop1" />
            <stop offset="1" style="stop-color:rgb(100%,9.411765%,0%);stop-opacity:1;" id="stop2" />
        </radialGradient>
    </defs>
    <g id="surface1" transform="matrix(0.93375294,0,0,0.91038288,7.5495432,9.9208571)">
        <path style="fill:url(#radial0);fill-rule:nonzero;stroke:none"
            d="M 194.19141,46.089844 C 196.70312,41.511719 198.01562,36.375 198.01172,31.15625 198.01562,13.976562 184.03906,0 166.86328,0 152.26172,0 139.97266,10.097656 136.61719,23.675781 133.75,23.445312 130.875,23.332031 128,23.332031 c -59.445312,0 -107.636719,48.191407 -107.636719,107.636719 0,29.24609 11.667969,55.75391 30.597657,75.15625 -4.074219,5.39062 -6.273438,11.96094 -6.265626,18.71484 0,17.1836 13.976563,31.16016 31.160157,31.16016 13.203125,0 24.519531,-8.26172 29.042971,-19.88672 7.4414,1.625 15.17187,2.49609 23.10156,2.49609 59.44531,0 107.63672,-48.19531 107.63672,-107.63671 0,-34.492191 -16.21875,-65.179691 -41.44531,-84.882816 z m -27.33594,4.191406 c -1.66797,0 -3.28516,-0.214844 -4.82813,-0.613281 l -12.89843,37.511719 18.8789,-3.082032 -26.58203,43.335934 22.12109,-5.3789 -74.542964,88.91797 c 7.136719,6.78125 7.960938,17.86718 1.910156,25.6289 -6.054687,7.76172 -17.011718,9.66406 -25.324218,4.39453 -8.3125,-5.26953 -11.269532,-15.99218 -6.832032,-24.77734 4.4375,-8.78516 14.816407,-12.76953 23.992188,-9.21094 l 21.11719,-46.05859 -20.605471,5.57812 33.511721,-47.95703 -20.597659,4.98047 58.398439,-77.746092 c -6.16016,-5.167969 -8.4336,-13.632813 -5.6875,-21.1875 2.75,-7.554688 9.92578,-12.589844 17.96484,-12.59375 10.5586,0.0039 19.11719,8.566406 19.1211,19.125 0.004,10.5625 -8.55469,19.125 -19.11719,19.132812 z m 0,0"
            id="path2" />
    </g>
</svg>