<svg width="256px" height="256px" viewBox="0 0 256 256" version="1.1" id="svg32" xmlns="http://www.w3.org/2000/svg"
    xmlns:svg="http://www.w3.org/2000/svg">
    <title>DragonflyDB</title>
    <rect width="256" height="256" rx="60" fill="#242938" id="rect1" />
    <defs id="defs16">
        <linearGradient id="linear0" gradientUnits="userSpaceOnUse" x1="300.001" y1="0" x2="300.001" y2="146.667"
            gradientTransform="scale(0.841667,0.842105)">
            <stop offset="0" style="stop-color:rgb(35.294118%,24.313725%,87.843137%);stop-opacity:1;" id="stop1" />
            <stop offset="1" style="stop-color:rgb(24.313725%,45.490196%,87.843137%);stop-opacity:1;" id="stop2" />
        </linearGradient>
        <linearGradient id="linear1" gradientUnits="userSpaceOnUse" x1="300.001" y1="0" x2="300.001" y2="146.667"
            gradientTransform="scale(0.841667,0.842105)">
            <stop offset="0" style="stop-color:rgb(35.294118%,24.313725%,87.843137%);stop-opacity:1;" id="stop3" />
            <stop offset="1" style="stop-color:rgb(24.313725%,45.490196%,87.843137%);stop-opacity:1;" id="stop4" />
        </linearGradient>
        <linearGradient id="linear2" gradientUnits="userSpaceOnUse" x1="300.001" y1="0" x2="300.001" y2="146.667"
            gradientTransform="scale(0.841667,0.842105)">
            <stop offset="0" style="stop-color:rgb(35.294118%,24.313725%,87.843137%);stop-opacity:1;" id="stop5" />
            <stop offset="1" style="stop-color:rgb(24.313725%,45.490196%,87.843137%);stop-opacity:1;" id="stop6" />
        </linearGradient>
        <linearGradient id="linear3" gradientUnits="userSpaceOnUse" x1="300.001" y1="0" x2="300.001" y2="146.667"
            gradientTransform="scale(0.841667,0.842105)">
            <stop offset="0" style="stop-color:rgb(35.294118%,24.313725%,87.843137%);stop-opacity:1;" id="stop7" />
            <stop offset="1" style="stop-color:rgb(24.313725%,45.490196%,87.843137%);stop-opacity:1;" id="stop8" />
        </linearGradient>
        <linearGradient id="linear4" gradientUnits="userSpaceOnUse" x1="300.001" y1="0" x2="300.001" y2="146.667"
            gradientTransform="scale(0.841667,0.842105)">
            <stop offset="0" style="stop-color:rgb(35.294118%,24.313725%,87.843137%);stop-opacity:1;" id="stop9" />
            <stop offset="1" style="stop-color:rgb(24.313725%,45.490196%,87.843137%);stop-opacity:1;" id="stop10" />
        </linearGradient>
        <linearGradient id="linear5" gradientUnits="userSpaceOnUse" x1="300.001" y1="0" x2="300.001" y2="146.667"
            gradientTransform="scale(0.841667,0.842105)">
            <stop offset="0" style="stop-color:rgb(35.294118%,24.313725%,87.843137%);stop-opacity:1;" id="stop11" />
            <stop offset="1" style="stop-color:rgb(24.313725%,45.490196%,87.843137%);stop-opacity:1;" id="stop12" />
        </linearGradient>
        <linearGradient id="linear6" gradientUnits="userSpaceOnUse" x1="300.001" y1="0" x2="300.001" y2="146.667"
            gradientTransform="scale(0.841667,0.842105)">
            <stop offset="0" style="stop-color:rgb(35.294118%,24.313725%,87.843137%);stop-opacity:1;" id="stop13" />
            <stop offset="1" style="stop-color:rgb(24.313725%,45.490196%,87.843137%);stop-opacity:1;" id="stop14" />
        </linearGradient>
        <linearGradient id="linear7" gradientUnits="userSpaceOnUse" x1="300.001" y1="0" x2="300.001" y2="146.667"
            gradientTransform="scale(0.841667,0.842105)">
            <stop offset="0" style="stop-color:rgb(35.294118%,24.313725%,87.843137%);stop-opacity:1;" id="stop15" />
            <stop offset="1" style="stop-color:rgb(24.313725%,45.490196%,87.843137%);stop-opacity:1;" id="stop16" />
        </linearGradient>
    </defs>
    <g id="surface1" transform="matrix(1.2491701,0,0,1.4230421,-187.94901,37.678217)">
        <path style="fill:url(#linear0);fill-rule:nonzero;stroke:none"
            d="m 246.92187,101.49219 1.3711,19.21094 c 0,0 0.69922,2.80468 4.20703,2.80468 3.50781,0 4.21094,-2.80468 4.21094,-2.80468 l 1.37109,-19.21094 c -0.0508,0.0195 -0.10547,0.0391 -0.15625,0.0625 -1.24219,0.49609 -3.00391,0.90234 -5.42578,0.90234 -2.41797,0 -4.17969,-0.40625 -5.42578,-0.90234 -0.0508,-0.0234 -0.10156,-0.043 -0.15235,-0.0625 z m 0,0"
            id="path16" />
        <path style="fill:url(#linear1);fill-rule:nonzero;stroke:none"
            d="m 244.14453,66.644531 2.74609,31.601563 c 0,0 1.40235,1.402344 5.60938,1.402344 4.21094,0 5.61328,-1.402344 5.61328,-1.402344 l 2.74609,-31.601563 c -1.72265,1.003907 -4.51953,2.128907 -8.35937,2.128907 -3.83984,0 -6.63672,-1.125 -8.35547,-2.128907 z m 0,0"
            id="path17" />
        <path style="fill:url(#linear2);fill-rule:nonzero;stroke:none"
            d="m 243.01172,35.597656 c -0.45313,0.320313 -0.8086,0.769532 -1.01172,1.3125 l -2.82813,7.542969 c -0.45312,1.207031 -0.47656,2.527344 -0.0703,3.75 l 4.5625,13.699219 c 0.27735,0.824218 0.73828,1.585937 1.46875,2.058594 1.28125,0.828124 3.73828,2.003906 7.36719,2.003906 3.62891,0 6.08594,-1.175782 7.36719,-2.003906 0.73047,-0.472657 1.19531,-1.234376 1.46875,-2.058594 l 4.5625,-13.699219 c 0.41015,-1.222656 0.38281,-2.542969 -0.0664,-3.75 l -2.82812,-7.542969 c -0.20313,-0.542968 -0.5625,-0.992187 -1.01172,-1.3125 -2.5,2.296875 -5.83203,3.699219 -9.49219,3.699219 -3.66016,0 -6.99219,-1.402344 -9.48828,-3.699219 z m 0,0"
            id="path18" />
        <path style="fill:url(#linear3);fill-rule:nonzero;stroke:none"
            d="m 241.27734,25.261719 c 0,-1.679688 -0.99609,-3.332031 -2.47656,-4.125 -3.53516,-1.890625 -5.9375,-5.617188 -5.9375,-9.910157 C 232.86328,5.027344 237.88672,0 244.08594,0 c 1.08203,0 2.1289,0.152344 3.11718,0.441406 3.24219,0.933594 7.35157,0.933594 10.59375,0 C 258.78906,0.152344 259.83594,0 260.91797,0 c 6.19922,0 11.22265,5.027344 11.22265,11.226562 0,4.292969 -2.40625,8.019532 -5.9414,9.910157 -1.48047,0.792969 -2.47656,2.445312 -2.47656,4.125 0,6.203125 -5.02344,11.230469 -11.22266,11.230469 -6.19531,0 -11.22266,-5.027344 -11.22266,-11.230469 z m 0,0"
            id="path19" />
        <path style="fill:url(#linear4);fill-rule:nonzero;stroke:none"
            d="m 180.96094,42.105469 h 55.82812 c -2.52344,4.210937 -0.69531,6.898437 0.28125,9.824219 l -52.41797,15.019531 c -3.34375,0.941406 -6.92578,-0.269531 -9.01562,-3.054688 l -3.29688,-4.398437 c -1.91406,-2.554688 -2.21875,-5.964844 -0.79297,-8.820313 l 1.95704,-3.914062 c 1.41406,-2.832031 4.29296,-4.628907 7.45703,-4.65625 z m 0,0"
            id="path20" />
        <path style="fill:url(#linear5);fill-rule:nonzero;stroke:none"
            d="m 237.77344,39.296875 -63.82813,-1.496094 c -3.5625,-0.148437 -6.67969,-2.203125 -7.73047,-5.613281 l -3.12109,-10.085938 c -0.24609,-0.808593 -0.36719,-1.636718 -0.37109,-2.453124 -0.008,-2.574219 1.17187,-5.070313 3.28125,-6.695313 l 6.4414,-4.960937 c 2.41016,-1.859376 5.64063,-2.265626 8.44141,-1.070313 7.21094,2.972656 50.46484,21.671875 57.90234,24.886719 0.63672,0.277344 0.95313,0.96875 0.78516,1.644531 -0.1211,0.476563 -0.26563,1.054687 -0.39844,1.632813 -0.39844,1.691406 -1.40234,4.210937 -1.40234,4.210937 z m 0,0"
            id="path21" />
        <path style="fill:url(#linear6);fill-rule:nonzero;stroke:none"
            d="m 324.04297,42.105469 h -55.83203 c 2.52734,4.210937 0.69531,6.898437 -0.28125,9.824219 l 52.41797,15.019531 c 3.34765,0.941406 6.92968,-0.269531 9.01562,-3.054688 l 3.29688,-4.398437 c 1.91406,-2.554688 2.22265,-5.964844 0.79687,-8.820313 L 331.5,46.761719 c -1.41406,-2.832031 -4.29688,-4.628907 -7.45703,-4.65625 z m 0,0"
            id="path22" />
        <path style="fill:url(#linear7);fill-rule:nonzero;stroke:none"
            d="m 267.23047,39.296875 63.82422,-1.496094 c 3.5625,-0.148437 6.68359,-2.203125 7.73047,-5.613281 l 3.12109,-10.085938 c 0.25,-0.808593 0.37109,-1.636718 0.37109,-2.453124 0.008,-2.574219 -1.16797,-5.070313 -3.28125,-6.695313 l -6.4375,-4.960937 c -2.41406,-1.859376 -5.64453,-2.265626 -8.44531,-1.070313 -7.20703,2.972656 -50.46484,21.671875 -57.89844,24.886719 -0.64062,0.277344 -0.95703,0.96875 -0.78515,1.644531 0.12109,0.476563 0.26172,1.054687 0.39843,1.632813 0.39454,1.691406 1.40235,4.210937 1.40235,4.210937 z m 0,0"
            id="path23" />
        <path style="fill:url(#linear8);fill-rule:nonzero;stroke:none"
            d="m 391.86328,148.625 c -0.82031,2.39062 -1.23437,4.94141 -1.23437,7.66016 v 9.38281 H 381.125 v 10.625 h 9.50391 v 54.34375 h 12.83984 v -54.34375 h 12.09766 v -10.625 h -12.09766 v -8.89063 c 0,-1.89453 0.45312,-3.33593 1.35937,-4.32422 0.98438,-0.98437 2.46875,-1.48046 4.44141,-1.48046 h 6.29688 l 2.80468,-9.01563 c -0.82031,-0.33203 -1.76953,-0.61719 -2.83984,-0.86328 -1.07031,-0.25 -2.22266,-0.41406 -3.45703,-0.49609 -1.14844,-0.16407 -2.30078,-0.2461 -3.45313,-0.2461 -4.03515,0 -9.96484,0.78125 -12.1875,2.34375 -2.14062,1.56641 -3.66406,3.54297 -4.57031,5.92969 z m 0,0"
            id="path24" />
        <path style="fill:url(#linear9);fill-rule:evenodd;stroke:none"
            d="m 55.054688,226.19141 c -6.171876,2.96093 -13.617188,4.44531 -22.34375,4.44531 H 0 v -84.72656 h 32.710938 c 8.726562,0 16.171874,1.52343 22.34375,4.5664 6.171874,2.96485 10.90625,7.57813 14.199218,13.83594 3.371094,6.17578 5.058594,14.16016 5.058594,23.96094 0,9.71484 -1.6875,17.70312 -5.058594,23.96093 -3.292968,6.25782 -8.027344,10.91016 -14.199218,13.95704 z M 44.191406,159.49609 c -3.371094,-1.15234 -7.242187,-1.73047 -11.601562,-1.73047 H 13.824219 v 61.01172 h 18.765625 c 4.359375,0 8.230468,-0.57422 11.601562,-1.72656 3.457032,-1.15234 6.339844,-2.92187 8.644532,-5.3125 2.386718,-2.38672 4.152343,-5.39062 5.304687,-9.01562 1.234375,-3.70704 1.851563,-8.07032 1.851563,-13.08985 v -2.59375 c 0,-5.10547 -0.617188,-9.47265 -1.851563,-13.09375 -1.152344,-3.70703 -2.917969,-6.7539 -5.304687,-9.14062 -2.304688,-2.38672 -5.1875,-4.15625 -8.644532,-5.3086 z m 0,0"
            id="path25" />
        <path style="fill:url(#linear10);fill-rule:nonzero;stroke:none"
            d="m 95.0625,188.02344 c -0.574219,2.30859 -0.863281,4.90234 -0.863281,7.78125 v 34.83203 H 81.359375 v -64.96875 h 10.617187 l 1.113282,10.5 h 0.738281 c 0.742187,-2.0586 1.6875,-3.99219 2.839844,-5.80469 1.234375,-1.8125 2.796875,-3.29297 4.691411,-4.44531 1.97265,-1.15235 4.36328,-1.73047 7.16015,-1.73047 1.31641,0 2.46875,0.125 3.45703,0.37109 1.07032,0.2461 1.89063,0.45313 2.46875,0.61719 v 12.10547 H 110.125 c -2.63672,0 -4.98047,0.41016 -7.03906,1.23437 -1.97266,0.82422 -3.660159,2.0586 -5.058596,3.70313 -1.316406,1.56641 -2.304688,3.5 -2.964844,5.80469 z m 0,0"
            id="path26" />
        <path style="fill:url(#linear11);fill-rule:evenodd;stroke:none"
            d="m 132.35547,231.375 c 2.38672,0.49609 4.60937,0.74219 6.66797,0.74219 3.375,0 6.41797,-0.41016 9.13672,-1.23438 2.71484,-0.74219 5.10156,-1.8125 7.15625,-3.21094 2.14062,-1.48046 3.95312,-3.17187 5.43359,-5.0625 h 0.74219 v 9.50782 l 11.72265,-0.0117 0.004,-47.91016 c 0,-4.19922 -0.94922,-7.78125 -2.83984,-10.74609 -1.89454,-2.96094 -4.73438,-5.22656 -8.51954,-6.78906 -3.70312,-1.64844 -8.35156,-2.47266 -13.94921,-2.47266 -5.1836,0 -9.75,0.69922 -13.70313,2.10156 -3.94922,1.39844 -7.03515,3.45703 -9.25781,6.17578 -2.13672,2.63282 -3.20703,5.88672 -3.20703,9.75391 v 1.48437 c 0,0.41016 0.0391,0.82422 0.12109,1.23438 h 12.34375 v -1.85156 c 0,-1.48438 0.37109,-2.83985 1.11328,-4.07813 0.82422,-1.3164 2.17969,-2.38672 4.07422,-3.21094 1.97266,-0.90625 4.69141,-1.35546 8.14453,-1.35546 3.45703,0 6.09375,0.44921 7.90235,1.35546 1.89453,0.90625 3.16796,2.1836 3.82812,3.82813 0.73828,1.64844 1.10938,3.54297 1.10938,5.68359 v 6.42188 c -6.08985,0 -11.72657,0.32812 -16.91016,0.98828 -5.10547,0.66016 -9.50781,1.8125 -13.21094,3.45703 -3.70312,1.64844 -6.58203,3.91016 -8.64062,6.79297 -2.0586,2.88281 -3.08594,6.54687 -3.08594,10.99219 0,3.78906 0.66016,6.875 1.97656,9.26562 1.31641,2.30469 3.00391,4.11719 5.0586,5.4336 2.14062,1.3164 4.40625,2.22265 6.78906,2.71484 z m 17.28515,-10.98828 c -2.14062,0.73828 -4.48437,1.10937 -7.03515,1.10937 -2.22266,0 -4.15625,-0.32812 -5.80469,-0.98828 -1.64453,-0.66015 -2.87891,-1.60547 -3.70312,-2.83984 -0.82422,-1.31641 -1.23438,-2.92188 -1.23438,-4.81641 0,-3.1289 1.19141,-5.55859 3.58203,-7.28906 2.38281,-1.80859 5.71875,-3.04688 9.9961,-3.70313 4.28125,-0.66015 9.25781,-0.98828 14.9375,-0.98828 v 4.32032 c 0,2.39062 -0.45313,4.61328 -1.35938,6.67187 -0.90234,1.97656 -2.13672,3.70313 -3.70312,5.1875 -1.5625,1.39844 -3.45313,2.51172 -5.67579,3.33594 z m 0,0"
            id="path27" />
        <path style="fill:url(#linear12);fill-rule:evenodd;stroke:none"
            d="m 195.72656,253.11328 c -2.96094,0 -5.76172,-0.61719 -8.39453,-1.85156 -2.55078,-1.23438 -4.60547,-3.00391 -6.17187,-5.3125 -1.5625,-2.30469 -2.34375,-5.10547 -2.34375,-8.39844 0,-3.62109 0.98828,-6.54297 2.96093,-8.76953 2.0586,-2.30469 4.44532,-4.03125 7.16016,-5.18359 -1.97656,-0.90625 -3.57813,-2.22657 -4.8125,-3.95313 -1.15234,-1.73047 -1.73047,-3.70703 -1.73047,-5.92969 0,-3.04687 1.11328,-5.51562 3.33594,-7.41015 2.21875,-1.89453 4.8125,-3.12891 7.77734,-3.70703 -2.88281,-1.89063 -5.14453,-4.28125 -6.79297,-7.16016 -1.5625,-2.88281 -2.34375,-6.13672 -2.34375,-9.75781 0,-4.36328 1.02735,-8.11328 3.08594,-11.23828 2.05859,-3.21485 5.10156,-5.72657 9.13281,-7.53516 4.11719,-1.8125 9.09766,-2.71875 14.9375,-2.71875 h 35.35938 l -2.80469,7.96094 h -10.17187 c 1.42578,1.59375 2.52343,3.38672 3.29687,5.3789 1.06641,2.46875 1.60156,5.1875 1.60156,8.15235 0,4.28125 -0.98828,8.02734 -2.96093,11.23828 -1.97657,3.21094 -4.98047,5.72265 -9.01172,7.53515 -3.94922,1.8086 -8.84766,2.71485 -14.69141,2.71485 h -10.12109 c -1.97657,0 -3.58203,0.41406 -4.8125,1.23437 -1.15235,0.82422 -1.73047,2.0586 -1.73047,3.70703 0,1.39844 0.57812,2.55079 1.73047,3.45704 1.14843,0.90625 2.67187,1.35937 4.5664,1.35937 h 27.40235 c 4.77343,0 8.72656,1.60547 11.85156,4.81641 3.12891,3.1289 4.69141,7.16406 4.69141,12.10547 0,3.62109 -0.94532,6.875 -2.83985,9.75781 -1.80859,2.96484 -4.40234,5.26953 -7.77734,6.91406 -3.29297,1.73047 -7.11719,2.59375 -11.48047,2.59375 z M 194,241.38281 c 1.5625,1.48047 3.53906,2.22266 5.92578,2.22266 h 23.57813 c 1.72656,0 3.28906,-0.33203 4.6914,-0.98828 1.39844,-0.66016 2.50781,-1.60547 3.33203,-2.84375 0.82422,-1.15235 1.23438,-2.46875 1.23438,-3.94922 0,-2.47266 -0.78125,-4.40625 -2.34766,-5.80469 -1.48047,-1.40234 -3.33203,-2.10156 -5.55469,-2.10156 h -24.93359 c -2.30469,0 -4.23828,0.78125 -5.80469,2.34765 -1.5625,1.48047 -2.34375,3.33594 -2.34375,5.5586 0,2.30469 0.74219,4.15625 2.22266,5.55859 z m 17.65234,-43.47656 c 4.85547,0 8.47657,-1.07031 10.86328,-3.21094 2.38672,-2.22265 3.57813,-5.23047 3.57813,-9.01562 0,-3.8711 -1.19141,-6.83594 -3.57813,-8.89453 -2.38671,-2.14063 -6.00781,-3.21094 -10.86328,-3.21094 -4.85547,0 -8.47656,1.07031 -10.86328,3.21094 -2.38672,2.05859 -3.57812,5.02343 -3.57812,8.89453 0,2.46875 0.49218,4.65234 1.48047,6.54687 1.07031,1.8086 2.67187,3.21094 4.8125,4.19531 2.22265,0.99219 4.9375,1.48438 8.14843,1.48438 z m 0,0"
            id="path28" />
        <path style="fill:url(#linear13);fill-rule:evenodd;stroke:none"
            d="m 262.24219,228.53516 c 4.6914,2.38671 10.41015,3.58203 17.15625,3.58203 6.91406,0 12.67578,-1.19532 17.28125,-3.58203 4.60937,-2.46875 8.0664,-6.21485 10.37109,-11.23829 2.38672,-5.02343 3.58203,-11.40234 3.58203,-19.14453 0,-7.82031 -1.19531,-14.20312 -3.58203,-19.14453 -2.30469,-5.01953 -5.76172,-8.72656 -10.37109,-11.11328 -4.60547,-2.47266 -10.36719,-3.70703 -17.28125,-3.70703 -6.7461,0 -12.46485,1.23437 -17.15625,3.70703 -4.60938,2.38672 -8.10938,6.09375 -10.49219,11.11328 -2.30469,4.94141 -3.45703,11.32422 -3.45703,19.14453 0,7.74219 1.15234,14.1211 3.45703,19.14453 2.38281,5.02344 5.88281,8.76954 10.49219,11.23829 z m 27.28125,-9.38672 c -2.63282,1.5664 -6.00782,2.34765 -10.125,2.34765 -4.03125,0 -7.36328,-0.78125 -9.9961,-2.34765 -2.63672,-1.64453 -4.60937,-4.11719 -5.92578,-7.41016 -1.23437,-3.29297 -1.85156,-7.44922 -1.85156,-12.47266 v -2.22265 c 0,-5.02344 0.61719,-9.1836 1.85156,-12.47656 1.31641,-3.29297 3.28906,-5.72266 5.92578,-7.28516 2.63282,-1.64844 5.96485,-2.47266 9.9961,-2.47266 4.11718,0 7.49218,0.82422 10.125,2.47266 2.63281,1.5625 4.5664,3.99219 5.80078,7.28516 1.3164,3.29296 1.97656,7.45312 1.97656,12.47656 v 2.22265 c 0,5.02344 -0.66016,9.17969 -1.97656,12.47266 -1.23438,3.29297 -3.16797,5.76563 -5.80078,7.41016 z m 0,0"
            id="path29" />
        <path style="fill:url(#linear14);fill-rule:nonzero;stroke:none"
            d="m 334.89453,183.57812 c -1.48437,2.55469 -2.22266,5.5586 -2.22266,9.01563 v 38.04297 h -12.83984 v -64.96875 h 10.61719 l 1.10937,9.26562 h 0.86719 c 1.5625,-2.38672 3.41406,-4.36328 5.55469,-5.92968 2.14062,-1.5625 4.48437,-2.75782 7.03515,-3.58204 2.63282,-0.82421 5.51563,-1.23437 8.64063,-1.23437 4.11328,0 7.73828,0.74219 10.86328,2.22266 3.12891,1.40234 5.55469,3.70703 7.28516,6.91796 1.80859,3.21094 2.71484,7.53516 2.71484,12.96875 v 44.33985 h -12.83984 v -42.36328 c 0,-2.47266 -0.32813,-4.53125 -0.98438,-6.17578 -0.57812,-1.64844 -1.4414,-2.96485 -2.59375,-3.95313 -1.15234,-0.98828 -2.51172,-1.6875 -4.07422,-2.10156 -1.5625,-0.41016 -3.29297,-0.61719 -5.18359,-0.61719 -2.96484,0 -5.67969,0.74219 -8.14844,2.22656 -2.38672,1.39844 -4.32031,3.375 -5.80078,5.92578 z m 0,0"
            id="path30" />
        <path style="fill:url(#linear15);fill-rule:nonzero;stroke:none"
            d="m 505,165.55078 -29.625,87.88281 h -13.08984 c 0,0 6.29687,-20.61718 7.28515,-23.33203 l -26.04687,-64.55078 h 13.45703 l 12.58984,29.55078 c 0.57813,1.48438 1.19531,3.33594 1.85156,5.5586 0.74219,2.22265 1.44141,4.48828 2.10157,6.79296 0.73828,2.3086 1.35547,4.36329 1.85156,6.17579 h 0.61719 c 0.41015,-1.23438 0.82031,-2.63282 1.23437,-4.19922 0.49219,-1.64453 0.98438,-3.33203 1.48047,-5.0625 0.49219,-1.73047 0.98828,-3.375 1.48047,-4.94141 0.49609,-1.64453 0.90625,-3.04687 1.23437,-4.19922 l 10.49219,-29.67578 z m 0,0"
            id="path31" />
        <path style="fill:url(#linear16);fill-rule:nonzero;stroke:none"
            d="m 423.96094,141.33984 v 89.29688 h 12.83984 v -89.29688 z m 0,0" id="path32" />
    </g>
</svg>