<svg xmlns="http://www.w3.org/2000/svg" xmlns:xlink="http://www.w3.org/1999/xlink" width="256px" height="256px" viewBox="0 0 256 256" version="1.1">
    <title>English</title>
<rect width="256" height="256" fill="#242938" rx="60" />
<g id="surface1">
<path style="fill:none;stroke-width:4;stroke-linecap:round;stroke-linejoin:round;stroke:#f2f4ed;stroke-opacity:1;stroke-miterlimit:4;" d="M 12.999756 30.999756 L 12.999756 17.000244 L 21 17.000244 " transform="matrix(5.333333,0,0,5.333333,0,0)"/>
<path style="fill:none;stroke-width:4;stroke-linecap:round;stroke-linejoin:round;stroke:#f2f4ed;stroke-opacity:1;stroke-miterlimit:4;" d="M 12.999756 24 L 20.499756 24 " transform="matrix(5.333333,0,0,5.333333,0,0)"/>
<path style="fill:none;stroke-width:4;stroke-linecap:round;stroke-linejoin:round;stroke:#f2f4ed;stroke-opacity:1;stroke-miterlimit:4;" d="M 12.999756 30.999756 L 20.499756 30.999756 " transform="matrix(5.333333,0,0,5.333333,0,0)"/>
<path style="fill:none;stroke-width:4;stroke-linecap:round;stroke-linejoin:round;stroke:#f2f4ed;stroke-opacity:1;stroke-miterlimit:4;" d="M 26.000244 30.999756 L 26.000244 18.999756 " transform="matrix(5.333333,0,0,5.333333,0,0)"/>
<path style="fill:none;stroke-width:4;stroke-linecap:round;stroke-linejoin:round;stroke:#f2f4ed;stroke-opacity:1;stroke-miterlimit:4;" d="M 26.000244 30.999756 L 26.000244 24.500244 C 26.000244 22.014404 28.014404 20.000244 30.500244 20.000244 C 32.985352 20.000244 35.000244 22.014404 35.000244 24.500244 L 35.000244 30.999756 " transform="matrix(5.333333,0,0,5.333333,0,0)"/>
<path style="fill:none;stroke-width:4;stroke-linecap:round;stroke-linejoin:round;stroke:#f2f4ed;stroke-opacity:1;stroke-miterlimit:4;" d="M 9 6 L 39 6 C 40.656738 6 42 7.343262 42 9 L 42 39 C 42 40.656738 40.656738 42 39 42 L 9 42 C 7.343262 42 6 40.656738 6 39 L 6 9 C 6 7.343262 7.343262 6 9 6 Z M 9 6 " transform="matrix(5.333333,0,0,5.333333,0,0)"/>
</g>
</svg>
