<svg width="256px" height="256px" viewBox="0 0 256 256" version="1.1" xmlns="http://www.w3.org/2000/svg"
    xmlns:svg="http://www.w3.org/2000/svg">
    <title>Environmental Studies</title>
    <rect width="256" height="256" fill="#f2f4ed" rx="60" id="rect1" />
    <g id="surface1" transform="matrix(0.85486863,0,0,0.85263284,18.865215,21.781672)">
        <path style="fill:#242938;fill-opacity:1;fill-rule:nonzero;stroke:none"
            d="m 246.93359,89.390625 c -0.16015,-0.761719 -0.625,-1.425781 -1.28515,-1.84375 C 244.99219,87.132812 244.19141,87 243.43359,87.179688 146.26172,107 153,191.37109 153.33594,194.92578 v 43.71875 c 0.17578,1.51172 1.45703,2.65625 2.98047,2.65625 1.52343,0 2.80468,-1.14453 2.98046,-2.65625 v -41 c 33.73438,-0.56641 58.56641,-10.5 73.67969,-29.72266 24.95703,-31.77343 14.41797,-76.636714 13.95703,-78.531245 z m -18.64843,74.835935 c -13.54688,17.22656 -35.91407,26.38281 -66.38672,27.38281 17.85547,-26.54296 48.25781,-50.26562 48.58203,-50.5 0.97656,-0.60156 1.52344,-1.70703 1.41015,-2.85156 -0.11328,-1.14062 -0.87109,-2.11719 -1.94531,-2.51562 -1.07812,-0.39844 -2.28515,-0.14453 -3.11719,0.64843 -1.30468,1 -29.34765,22.89844 -47.79687,48.90625 0.61328,-21.72265 9.69531,-75.42187 82.68359,-91.648432 1.83203,10.156252 6.32422,45.437502 -13.42968,70.578122 z m 0,0"
            id="path1" />
        <path style="fill:#242938;fill-opacity:1;fill-rule:nonzero;stroke:none"
            d="m 140.25391,164.25391 c 0.92578,-14.4336 3.4414,-123.289066 -126.648441,-149.804691 -1.578125,-0.355469 -3.144531,0.636719 -3.5,2.210937 -0.644531,2.664063 -15.425781,65.585938 19.523437,110.066404 21.386719,27.19922 56.714844,41.15235 104.906254,41.65235 v 70.26562 c -0.13282,1.14844 0.40234,2.26953 1.38281,2.88281 0.97656,0.61719 2.21875,0.61719 3.19531,0 0.97656,-0.61328 1.51563,-1.73437 1.38281,-2.88281 V 165.5 c 0,-0.30078 -0.0469,-0.59766 -0.13281,-0.88672 -0.004,-0.0547 -0.0781,-0.27344 -0.10937,-0.35937 z M 34.355469,123.07031 C 5.230469,86.039062 12.90625,33.570312 15.320312,20.898438 117.55469,43.039062 132.85937,116.39844 134.46484,149.21094 123.92188,124.80469 98.441406,78 51.386719,57.101562 c -1.460938,-0.46875 -3.039063,0.234376 -3.660157,1.636719 -0.621093,1.398438 -0.08984,3.042969 1.234376,3.8125 C 102.30469,86.246094 127.5,146.69922 133.29687,162.44922 87.675781,161.73437 54.378906,148.5 34.355469,123.07031 Z m 0,0"
            id="path2" />
    </g>
</svg>