<svg width="256px" height="268px" viewBox="0 0 256 268" xmlns="http://www.w3.org/2000/svg"
    xmlns:svg="http://www.w3.org/2000/svg">
    <rect width="256" height="256" rx="60" fill="#F2F4ED" id="rect1" />
    <defs id="defs24">
        <linearGradient id="gentoo1" gradientUnits="userSpaceOnUse" x1="783.9" y1="-313.5" x2="1100" y2="1341"
            gradientTransform="matrix(0.532222,0,0,0.532128,-457.2246,-445.45644)">
            <stop offset="0" style="stop-color:rgb(100%,100%,100%);stop-opacity:1;" id="stop1" />
            <stop offset="0.3421" style="stop-color:rgb(100%,100%,100%);stop-opacity:1;" id="stop2" />
            <stop offset="0.52" style="stop-color:rgb(74.509804%,74.117647%,95.294118%);stop-opacity:1;" id="stop3" />
            <stop offset="0.7541" style="stop-color:rgb(56.078431%,50.980392%,97.647059%);stop-opacity:1;" id="stop4" />
            <stop offset="0.8711" style="stop-color:rgb(62.352941%,60%,78.039216%);stop-opacity:1;" id="stop5" />
            <stop offset="1" style="stop-color:rgb(32.156863%,29.803922%,46.27451%);stop-opacity:1;" id="stop6" />
        </linearGradient>
        <linearGradient id="gentoo2" gradientUnits="userSpaceOnUse" x1="464" y1="697.4" x2="368.6" y2="269.7"
            gradientTransform="matrix(0.532222,0,0,0.532128,-80.36679,-173.28372)">
            <stop offset="0" style="stop-color:rgb(100%,100%,100%);stop-opacity:1;" id="stop7" />
            <stop offset="0.3421" style="stop-color:rgb(100%,100%,100%);stop-opacity:1;" id="stop8" />
            <stop offset="0.52" style="stop-color:rgb(74.509804%,74.117647%,95.294118%);stop-opacity:1;" id="stop9" />
            <stop offset="0.7541" style="stop-color:rgb(56.078431%,50.980392%,97.647059%);stop-opacity:1;"
                id="stop10" />
            <stop offset="0.8711" style="stop-color:rgb(62.352941%,60%,78.039216%);stop-opacity:1;" id="stop11" />
            <stop offset="1" style="stop-color:rgb(32.156863%,29.803922%,46.27451%);stop-opacity:1;" id="stop12" />
        </linearGradient>
        <radialGradient id="gentooradial1" gradientUnits="userSpaceOnUse" cx="49.53" cy="320.1" fx="49.53" fy="320.1"
            r="31.95" gradientTransform="matrix(1.414239,0,0,1.084045,37.005983,-287.45258)">
            <stop offset="0" style="stop-color:rgb(100%,100%,100%);stop-opacity:1;" id="stop13" />
            <stop offset="0.3421" style="stop-color:rgb(100%,100%,100%);stop-opacity:1;" id="stop14" />
            <stop offset="0.52" style="stop-color:rgb(74.509804%,74.117647%,95.294118%);stop-opacity:1;" id="stop15" />
            <stop offset="0.7541" style="stop-color:rgb(56.078431%,50.980392%,97.647059%);stop-opacity:1;"
                id="stop16" />
            <stop offset="0.8711" style="stop-color:rgb(62.352941%,60%,78.039216%);stop-opacity:1;" id="stop17" />
            <stop offset="1" style="stop-color:rgb(32.156863%,29.803922%,46.27451%);stop-opacity:1;" id="stop18" />
        </radialGradient>
        <radialGradient id="gentooradial2" gradientUnits="userSpaceOnUse" cx="332.7" cy="590.6" fx="332.7" fy="590.6"
            r="218" gradientTransform="matrix(-0.0284138,1.80244,-1.537721,-0.024206,921.73338,-514.71486)">
            <stop offset="0" style="stop-color:rgb(100%,100%,100%);stop-opacity:1;" id="stop19" />
            <stop offset="0.3421" style="stop-color:rgb(100%,100%,100%);stop-opacity:1;" id="stop20" />
            <stop offset="0.52" style="stop-color:rgb(74.509804%,74.117647%,95.294118%);stop-opacity:1;" id="stop21" />
            <stop offset="0.7541" style="stop-color:rgb(56.078431%,50.980392%,97.647059%);stop-opacity:1;"
                id="stop22" />
            <stop offset="0.8711" style="stop-color:rgb(62.352941%,60%,78.039216%);stop-opacity:1;" id="stop23" />
            <stop offset="1" style="stop-color:rgb(32.156863%,29.803922%,46.27451%);stop-opacity:1;" id="stop24" />
        </radialGradient>
    </defs>
    <g id="surface1" transform="matrix(0.77603839,0,0,0.79157277,28.275473,22.321949)">
        <path style="fill:url(#gentoo1);fill-rule:evenodd;stroke:none"
            d="M 0.03125,213.53125 C 0.0585938,202.23437 9.664062,186.46484 23.3125,172.13672 32.433594,162.55859 41.695312,154.15234 61.886719,136.94141 47.921875,129.28125 26.199219,120.03516 15.292969,107.92578 11.257812,103.44922 3.949219,93.296875 5.367188,79.738281 8.253906,52.097656 42.371094,10.179688 90.855469,1.273438 c 16.136721,-2.949219 34.660161,-0.820313 49.910151,6.03125 47.84375,21.5 106.31641,74.9375 113.54297,101.003902 2.53516,9.17969 2.04688,23.81641 -2.32031,31.97266 -5.41406,10.10937 -24.15625,30.63672 -49.78125,51.83594 -40.22656,33.23828 -96.58984,68.91406 -138.710936,74.9375 -13.601563,1.9375 -27.5,-0.0859 -37.25,-5.58594 C 10.992188,252.86328 5.925781,241.37109 4.144531,237.92578 -0.585938,228.76953 0,217.16016 0.0078125,213.52344 Z M 113.23047,86.628906 c 0.51953,-6.40625 25.63672,-0.02734 24.05078,5.046875 -1.67578,5.351563 -24.64844,2.304688 -24.05078,-5.046875 z m 0,0"
            id="path24" />
        <path style="fill:url(#gentoo2);fill-rule:evenodd;stroke:none"
            d="m 75.46875,126.37891 c -13.214844,11.15625 -22.003906,18.67968 -33.023438,28.75 -26.539062,24.25 -44.574218,42.71093 -35.273437,67.92578 10.722656,29.10547 34.230469,27.6289 61.785156,22.21875 C 139.99219,231.26172 256.80469,141.47266 250.86719,108.34766 246.04687,81.519531 180.77734,28.164062 142.18359,9.191406 130.11719,3.261719 116.20703,0.199219 102.25391,0.851562 49.117188,3.359375 7.640625,51.699219 9.75,77.9375 c 2.0625,25.49609 66.515625,47.70703 65.742188,48.48438 z M 67.496094,37.375 c -15.980469,17.78125 -5.761719,52.179688 20.746094,70.93359 31.019532,21.94532 81.230472,25.91407 91.253902,8.9961 C 198.14453,85.742188 177.78516,52.347656 147.39453,37.464844 117.36328,22.753906 77.480469,26.273438 67.496094,37.359375 Z m 0,0"
            id="path25" />
        <path style="fill:url(#gentooradial1);fill-rule:evenodd;stroke:none"
            d="m 122.02344,107.57813 c 22.4414,3.12109 41.78515,-5.86719 44.78906,-28.019536 C 169.11719,62.679688 143.28125,44.238281 127.75,39.984375 114.77734,36.433594 86.617188,41 84.726562,65.527344 82.75,91.023438 108.92188,105.76172 122.00781,107.57813 Z M 111.03516,65.171875 C 96.285156,88.015625 132.44922,95.039062 137.98437,90.875 161.85547,72.914062 117.53125,55.109375 111.03516,65.171875 Z m 0,0"
            id="path26" />
        <path style="fill:url(#gentooradial2);fill-rule:evenodd;stroke:none"
            d="m 97.972656,6.90625 c -26.085937,2.746094 -31.085937,6.101562 -54.726562,23.980469 -7.921875,5.992187 -22.5,20.570312 -26.238282,37.867187 -1.421874,6.585938 0.257813,12.273438 5.003907,16.261719 15.191406,12.773437 40.625,23.128905 61.484375,33.148435 6.109375,2.9336 2.0625,8.25782 -7.789063,16.78125 -24.863281,21.52344 -58.472656,47.70703 -60.835937,67.66797 -1.105469,9.40625 2.113281,22.1875 13.535156,28.73047 13.339844,7.64062 41.03125,2.65625 59.546875,-4.23047 27.023435,-10.0625 62.515625,-32.26172 90.695315,-54.07422 29.30468,-22.69531 56.53515,-51.53515 57.91406,-56.22265 1.65234,-5.77344 1.48828,-11.10547 -1.70703,-17.238285 -5.01563,-9.625 -11.71875,-16.78125 -18.92188,-24.789063 C 196.61719,54.421875 176.17578,36.53125 151.69922,22.824219 134.03516,12.921875 118.5,4.742188 97.960938,6.90625 Z m 38.324214,45.640625 c 18.84766,9.109375 38.19922,33.042969 -0.16796,46.800781 C 125.69531,103.09375 92.585938,90.152344 93.617188,72.488281 95.09375,46.394531 113.28516,41.414062 136.29687,52.539062 Z m 0,0"
            id="path27" />
    </g>
</svg>