<svg xmlns="http://www.w3.org/2000/svg" xmlns:xlink="http://www.w3.org/1999/xlink" width="256px" height="256px"
    viewBox="0 0 256 256" version="1.1">
    <rect width="256" height="256" fill="#ffff" rx="60" />
    <g id="surface1">
        <path style=" stroke:none;fill-rule:nonzero;fill:rgb(98.431373%,66.27451%,9.803922%);fill-opacity:1;"
            d="M 45.28125 62.207031 C 45.28125 62.207031 49.675781 79.101562 50.3125 84.773438 C 50.949219 90.386719 39.03125 102.945312 39.03125 109.191406 C 39.03125 115.441406 41.519531 126.726562 55.289062 132.398438 C 69.0625 138.011719 70.972656 152.417969 70.972656 161.214844 C 70.972656 170.011719 65.9375 186.90625 65.9375 186.90625 C 65.9375 186.90625 62.8125 228.859375 79.710938 236.382812 C 96.605469 243.90625 92.84375 243.90625 96.605469 243.90625 C 100.367188 243.90625 127.914062 255.1875 144.230469 250.792969 C 160.492188 246.394531 164.890625 241.417969 164.890625 241.417969 C 164.890625 241.417969 181.148438 242.691406 186.183594 228.28125 C 191.21875 213.871094 194.34375 183.839844 192.433594 170.011719 C 190.582031 156.238281 188.035156 138.066406 199.320312 131.820312 C 210.601562 125.570312 222.523438 118.046875 220.613281 111.796875 C 218.761719 105.546875 208.691406 96.75 208.691406 96.75 C 208.691406 96.75 206.203125 81.070312 208.058594 77.308594 C 209.910156 73.546875 221.191406 64.171875 214.941406 57.289062 C 208.75 50.34375 197.46875 50.34375 197.46875 50.34375 L 183.058594 51.617188 C 183.058594 51.617188 158.640625 29.683594 126.695312 30.957031 C 94.753906 32.230469 74.734375 51.617188 74.734375 51.617188 C 74.734375 51.617188 64.085938 47.855469 54.710938 51.617188 C 45.28125 55.320312 43.429688 51.558594 45.28125 62.207031 Z M 45.28125 62.207031 " />
        <path style=" stroke:none;fill-rule:nonzero;fill:rgb(90.588235%,52.941176%,14.117647%);fill-opacity:1;"
            d="M 102.507812 155.484375 L 80.984375 187.890625 C 79.59375 189.972656 90.066406 190.089844 90.066406 190.089844 Z M 108.410156 116.136719 L 102.625 130.429688 C 100.425781 135.8125 91.917969 138.472656 91.917969 138.472656 C 91.917969 138.472656 96.316406 133.84375 96.316406 122.214844 C 96.316406 117.292969 102.625 115.386719 102.625 115.386719 Z M 108.410156 116.136719 " />
        <path style=" stroke:none;fill-rule:nonzero;fill:rgb(27.45098%,18.823529%,7.843137%);fill-opacity:1;"
            d="M 107.023438 112.78125 L 99.269531 112.261719 C 99.269531 112.261719 101.234375 115.789062 102.566406 120.304688 C 104.011719 125.453125 101.234375 132.917969 101.234375 132.917969 C 101.234375 132.917969 111.59375 121.171875 107.023438 112.78125 Z M 107.023438 112.78125 " />
        <path style=" stroke:none;fill-rule:nonzero;fill:rgb(90.588235%,52.941176%,14.117647%);fill-opacity:1;"
            d="M 104.648438 121.460938 C 104.648438 121.460938 97.011719 130.605469 82.777344 125.453125 C 68.542969 120.359375 67.09375 102.132812 67.09375 96.984375 C 67.09375 91.890625 94.0625 102.074219 97.765625 104.273438 C 101.351562 106.472656 108.296875 115.210938 104.648438 121.460938 Z M 50.949219 24.015625 C 50.949219 24.015625 64.085938 21.46875 72.824219 28.414062 C 81.5625 35.296875 84.109375 40.796875 84.109375 40.796875 L 69.351562 52.484375 C 69.351562 52.484375 62.234375 49.1875 60.035156 39.695312 C 57.835938 30.207031 59.339844 25.808594 50.949219 24.015625 Z M 65.765625 123.484375 C 65.765625 123.484375 42.734375 115.558594 47.074219 107.515625 C 51.472656 99.472656 47.941406 95.132812 47.941406 95.132812 C 47.941406 95.132812 35.09375 104.738281 38.394531 114.921875 C 40.417969 121.171875 43.773438 125.742188 62.351562 134.421875 C 71.261719 150.972656 64.203125 180.714844 64.605469 180.890625 C 65.300781 181.121094 77.105469 175.042969 76.296875 147.210938 C 76.0625 138.648438 75.371094 127.015625 65.765625 123.484375 Z M 95.96875 38.25 L 73.054688 49.996094 L 78.261719 52.601562 L 77.511719 53.875 L 82.835938 56.304688 L 103.898438 71.871094 C 101.234375 63.652344 93.425781 50.75 93.425781 50.75 C 93.425781 50.75 91.226562 44.847656 95.96875 38.25 Z M 95.96875 38.25 " />
        <path style=" stroke:none;fill-rule:nonzero;fill:rgb(90.588235%,52.941176%,14.117647%);fill-opacity:1;"
            d="M 128.085938 238.40625 C 98.402344 238.40625 88.332031 223.304688 88.332031 223.304688 L 92.960938 234.589844 C 94.695312 239.507812 113.445312 254.667969 128.027344 254.667969 M 91.574219 213.121094 C 91.574219 213.121094 94.292969 229.84375 105.230469 229.84375 C 114.546875 229.84375 117.265625 215.722656 117.265625 212.832031 Z M 73.34375 187.949219 C 74.328125 185.285156 77.742188 174.464844 78.84375 164.628906 C 80.171875 152.824219 79.652344 135.578125 79.652344 135.578125 C 79.652344 135.578125 76.757812 146.863281 74.15625 148.714844 C 71.609375 150.507812 66.863281 162.949219 66.863281 162.949219 L 63.101562 187.601562 C 66.457031 188.238281 69.292969 186.269531 73.34375 187.949219 Z M 46.898438 114.75 C 46.898438 114.75 53.089844 112.550781 54.941406 99.066406 C 56.796875 85.582031 52.746094 73.894531 52.746094 73.894531 C 52.746094 73.894531 53.089844 92.46875 50.949219 96.171875 C 48.75 99.820312 46.957031 100.917969 44.410156 105.664062 C 41.808594 110.410156 45.453125 113.300781 46.898438 114.75 Z M 46.898438 114.75 " />
        <path style=" stroke:none;fill-rule:nonzero;fill:rgb(99.215686%,75.686275%,40.784314%);fill-opacity:1;"
            d="M 54.308594 27.195312 L 53.035156 26.386719 C 49.332031 26.503906 54.308594 27.195312 54.308594 27.195312 Z M 54.308594 27.195312 " />
        <path style=" stroke:none;fill-rule:nonzero;fill:rgb(98.431373%,66.27451%,9.803922%);fill-opacity:1;"
            d="M 101.003906 34.257812 C 101.003906 34.257812 95.160156 33.273438 92.265625 28.933594 C 89.375 24.535156 81.097656 15.796875 67.90625 15.683594 C 54.710938 15.566406 41.691406 19.210938 41.691406 19.210938 L 53.089844 26.386719 C 54.308594 26.328125 56.390625 26.386719 59.863281 26.503906 C 74.15625 26.964844 76.355469 41.085938 76.355469 41.085938 L 126.695312 34.140625 " />
        <path style=" stroke:none;fill-rule:nonzero;fill:rgb(100%,100%,100%);fill-opacity:1;"
            d="M 105.867188 112.316406 C 105.867188 112.316406 99.039062 119.144531 88.621094 116.945312 C 78.148438 114.75 71.839844 110.117188 71.378906 102.132812 C 70.914062 94.089844 73.574219 90.964844 73.574219 90.964844 C 73.574219 90.964844 85.265625 94.609375 90.820312 99.472656 C 96.375 104.273438 100.542969 112.085938 105.867188 112.316406 Z M 105.867188 112.316406 " />
        <path style=" stroke:none;fill-rule:nonzero;fill:rgb(78.823529%,78.823529%,78.823529%);fill-opacity:1;"
            d="M 97.648438 109.886719 C 97.648438 109.886719 91.746094 112.605469 85.148438 110.410156 C 76.527344 107.515625 75.949219 98.546875 75.949219 98.546875 C 75.949219 98.546875 70.625 114.113281 85.496094 117.121094 C 97.417969 119.492188 104.476562 112.605469 104.476562 112.605469 Z M 97.648438 109.886719 " />
        <path style=" stroke:none;fill-rule:nonzero;fill:rgb(27.45098%,18.823529%,7.843137%);fill-opacity:1;"
            d="M 101.816406 30.957031 C 101.179688 17.589844 112.113281 7 115.933594 6.539062 C 116.164062 8.796875 115.703125 17.589844 119.523438 20.3125 C 120.621094 13.136719 124.324219 5.207031 139.082031 0 C 135.898438 8.390625 138.675781 15.390625 139.949219 18.632812 C 150.015625 9.488281 156.789062 10.996094 156.789062 10.996094 C 156.789062 10.996094 149.785156 23.03125 152.503906 30.957031 C 132.308594 29.394531 101.929688 33.097656 101.816406 30.957031 Z M 101.816406 30.957031 " />
        <path style=" stroke:none;fill-rule:nonzero;fill:rgb(27.45098%,18.823529%,7.843137%);fill-opacity:1;"
            d="M 59.050781 51.269531 C 54.25 47.277344 57.835938 43.574219 57.429688 39 C 57.199219 36.570312 57.027344 34.316406 56.214844 33.042969 C 51.761719 26.039062 41.34375 23.898438 41.230469 23.898438 L 36.308594 22.914062 L 39.550781 19.097656 C 39.957031 18.632812 53.324219 5.902344 73.980469 12.558594 C 88.449219 17.242188 99.09375 32.984375 99.5 33.679688 L 92.265625 37.09375 C 92.210938 36.976562 83.703125 22.105469 71.320312 18.113281 C 61.308594 14.871094 52.050781 17.9375 48.113281 19.964844 C 52.339844 21.640625 57.835938 24.707031 61.136719 29.917969 C 62.699219 32.40625 62.988281 35.472656 63.21875 38.480469 C 63.566406 42.472656 63.855469 46.234375 66.804688 48.664062 Z M 59.050781 51.269531 " />
        <path style=" stroke:none;fill-rule:nonzero;fill:rgb(27.45098%,18.823529%,7.843137%);fill-opacity:1;"
            d="M 46.148438 109.65625 C 46.148438 109.65625 52.222656 102.132812 54.015625 87.492188 C 54.710938 81.707031 53.496094 70.363281 51.472656 65.96875 C 51.820312 76.730469 49.097656 87.492188 49.097656 87.492188 C 49.097656 87.492188 47.246094 107.457031 46.148438 109.65625 Z M 46.148438 109.65625 " />
        <path style=" stroke:none;fill-rule:nonzero;fill:rgb(27.45098%,18.823529%,7.843137%);fill-opacity:1;"
            d="M 78.148438 43.6875 C 78.148438 43.6875 76.179688 35.183594 70.796875 30.902344 C 63.21875 24.824219 53.902344 28.066406 53.84375 28.121094 L 52.511719 23.957031 C 52.976562 23.78125 63.566406 20.484375 73.34375 27.3125 C 83.183594 34.199219 84.339844 40.507812 84.453125 41.199219 Z M 78.148438 43.6875 " />
        <path style=" stroke:none;fill-rule:nonzero;fill:rgb(27.45098%,18.823529%,7.843137%);fill-opacity:1;"
            d="M 65.242188 104.214844 C 65.242188 104.214844 62.0625 99.644531 62.640625 94.667969 C 62.929688 92.179688 64.085938 89.632812 66.113281 88.765625 C 69.929688 87.089844 71.609375 91.429688 71.609375 91.429688 C 71.609375 91.429688 66.226562 92.703125 65.242188 104.214844 Z M 65.242188 104.214844 " />
        <path style=" stroke:none;fill-rule:nonzero;fill:rgb(27.45098%,18.823529%,7.843137%);fill-opacity:1;"
            d="M 100.195312 111.160156 C 100.308594 111.390625 100.367188 111.566406 100.367188 111.566406 C 100.367188 111.566406 90.414062 119.03125 80.289062 111.449219 C 74.847656 107.398438 75.371094 97.386719 77.046875 93.105469 C 81.386719 94.089844 85.089844 95.882812 88.160156 97.910156 C 84.28125 94.4375 80.867188 91.890625 80.867188 91.832031 L 76.46875 90.558594 L 67.90625 87.609375 C 67.789062 88.246094 64.664062 102.945312 73.691406 112.953125 C 77.683594 117.410156 96.492188 127.304688 105.402344 110.351562 Z M 100.195312 111.160156 " />
        <path style=" stroke:none;fill-rule:nonzero;fill:rgb(98.431373%,66.27451%,9.803922%);fill-opacity:1;"
            d="M 126.695312 100.511719 L 126.351562 95.363281 L 88.910156 75.632812 L 73.34375 63.132812 L 55.40625 81.9375 L 113.273438 109.308594 L 123.746094 112.492188 " />
        <path style=" stroke:none;fill-rule:nonzero;fill:rgb(90.588235%,52.941176%,14.117647%);fill-opacity:1;"
            d="M 100.832031 95.074219 C 95.160156 87.03125 85.84375 83.558594 78.4375 82.980469 C 65.765625 81.996094 59.746094 86.453125 59.746094 86.453125 C 59.746094 86.453125 80.519531 87.320312 86.480469 95.191406 C 97.648438 109.828125 113.910156 110.988281 116.511719 107.804688 C 113.503906 107.976562 110.207031 106.472656 106.675781 103.117188 C 104.417969 101.035156 102.625 97.621094 100.832031 95.074219 Z M 100.832031 95.074219 " />
        <path style=" stroke:none;fill-rule:nonzero;fill:rgb(27.45098%,18.823529%,7.843137%);fill-opacity:1;"
            d="M 99.269531 112.261719 C 104.882812 120.765625 118.941406 115.90625 118.710938 106.9375 C 118.710938 106.9375 109.28125 112.144531 100.945312 102.539062 C 96.085938 96.925781 80.519531 81.53125 59.398438 86.625 C 73.980469 89.867188 93.308594 103.175781 99.269531 112.261719 Z M 99.269531 112.261719 " />
        <path style=" stroke:none;fill-rule:nonzero;fill:rgb(27.45098%,18.823529%,7.843137%);fill-opacity:1;"
            d="M 57.429688 136.273438 C 58.761719 137.027344 63.507812 141.945312 63.507812 149.292969 C 63.507812 152.996094 63.160156 171.515625 61.308594 182.796875 C 64.027344 184.59375 65.9375 184.941406 68.714844 186.792969 C 70.105469 173.714844 71.089844 154.734375 70.625 147.039062 C 70.105469 138.300781 65.417969 132.457031 61.078125 129.96875 L 56.851562 127.652344 C 49.445312 123.660156 41.75 119.492188 41.75 112.375 C 41.75 106.820312 43.890625 105.085938 46.207031 103.234375 L 46.4375 103.058594 C 47.941406 101.84375 49.675781 100.457031 50.660156 98.140625 C 53.4375 91.890625 53.902344 76.035156 50.660156 71.984375 C 49.039062 69.960938 44.757812 63.246094 45.972656 58.675781 C 46.4375 56.941406 47.535156 55.667969 49.332031 54.742188 C 51.183594 53.757812 53.726562 53.292969 56.851562 53.292969 C 62.988281 53.292969 69.816406 55.144531 73.285156 56.304688 C 85.84375 60.296875 101.003906 71.753906 105.34375 75.167969 C 105.460938 75.285156 105.519531 75.339844 105.574219 75.339844 L 108.355469 77.25 L 106.617188 74.359375 C 106.5 74.183594 95.507812 56.070312 75.832031 49.476562 C 72.015625 48.203125 64.492188 46.003906 57.085938 46.003906 C 52.6875 46.003906 48.925781 46.753906 45.972656 48.261719 C 42.386719 50.113281 39.957031 53.0625 38.914062 56.765625 C 36.425781 65.851562 44.527344 76.035156 44.816406 76.324219 C 45.742188 78.003906 46.148438 90.214844 44.007812 95.132812 C 43.71875 95.824219 42.90625 96.460938 41.867188 97.332031 C 41.519531 97.621094 41.171875 97.851562 40.765625 98.140625 C 37.699219 100.457031 33.070312 103.984375 33.070312 112.027344 C 33.070312 123.082031 44.296875 129.097656 53.265625 133.902344 C 54.710938 134.828125 56.160156 135.578125 57.429688 136.273438 Z M 57.429688 136.273438 " />
        <path style=" stroke:none;fill-rule:nonzero;fill:rgb(27.45098%,18.823529%,7.843137%);fill-opacity:1;"
            d="M 59.050781 51.269531 C 54.25 47.277344 57.835938 43.574219 57.429688 39 C 57.199219 36.570312 57.027344 34.316406 56.214844 33.042969 C 51.761719 26.039062 41.34375 23.898438 41.230469 23.898438 L 36.308594 22.914062 L 39.550781 19.097656 C 39.957031 18.632812 53.324219 5.902344 73.980469 12.558594 C 88.449219 17.242188 99.09375 32.984375 99.5 33.679688 L 92.265625 37.09375 C 92.210938 36.976562 83.703125 22.105469 71.320312 18.113281 C 61.308594 14.871094 52.050781 17.9375 48.113281 19.964844 C 52.339844 21.640625 57.835938 24.707031 61.136719 29.917969 C 62.699219 32.40625 62.988281 35.472656 63.21875 38.480469 C 63.566406 42.472656 63.855469 46.234375 66.804688 48.664062 Z M 59.050781 51.269531 " />
        <path style=" stroke:none;fill-rule:nonzero;fill:rgb(27.45098%,18.823529%,7.843137%);fill-opacity:1;"
            d="M 58.878906 52.136719 L 58.589844 51.90625 C 55 48.953125 55.636719 46.003906 56.273438 43.167969 C 56.5625 41.835938 56.851562 40.507812 56.738281 39.117188 C 56.5625 36.804688 56.332031 34.605469 55.636719 33.503906 C 51.414062 26.851562 41.230469 24.707031 41.113281 24.707031 L 34.980469 23.492188 L 39.03125 18.75 C 39.089844 18.632812 47.652344 10.011719 62.175781 10.011719 C 66.113281 10.011719 70.160156 10.648438 74.210938 11.976562 C 89.316406 16.839844 100.019531 33.214844 100.136719 33.390625 L 100.597656 34.082031 L 92.035156 38.132812 L 91.6875 37.613281 C 90.761719 36.050781 82.660156 22.625 71.144531 18.921875 C 68.308594 17.996094 65.359375 17.535156 62.292969 17.535156 C 56.796875 17.535156 52.339844 19.039062 49.96875 20.023438 C 53.960938 21.816406 58.761719 24.824219 61.773438 29.628906 C 63.449219 32.230469 63.679688 35.472656 63.96875 38.539062 C 64.316406 42.359375 64.605469 46.003906 67.269531 48.261719 L 68.308594 49.128906 Z M 58.878906 52.136719 " />
        <path style=" stroke:none;fill-rule:nonzero;fill:rgb(27.45098%,18.823529%,7.843137%);fill-opacity:1;"
            d="M 78.148438 43.6875 C 78.148438 43.6875 76.179688 35.183594 70.796875 30.902344 C 63.21875 24.824219 53.902344 28.066406 53.84375 28.121094 L 52.511719 23.957031 C 52.976562 23.78125 63.566406 20.484375 73.34375 27.3125 C 83.183594 34.199219 84.339844 40.507812 84.453125 41.199219 Z M 78.148438 43.6875 " />
        <path style=" stroke:none;fill-rule:nonzero;fill:rgb(27.45098%,18.823529%,7.843137%);fill-opacity:1;"
            d="M 77.625 44.671875 L 77.453125 43.863281 C 77.453125 43.804688 75.542969 35.585938 70.394531 31.480469 C 67.441406 29.164062 63.914062 27.949219 59.863281 27.949219 C 56.679688 27.949219 54.363281 28.703125 54.074219 28.816406 L 53.382812 29.046875 L 51.585938 23.492188 L 52.28125 23.261719 C 52.570312 23.144531 55.40625 22.277344 59.398438 22.277344 C 64.664062 22.277344 69.640625 23.839844 73.75 26.734375 C 83.820312 33.792969 85.089844 40.390625 85.148438 41.085938 L 85.265625 41.664062 Z M 59.863281 26.503906 C 64.203125 26.503906 68.136719 27.832031 71.320312 30.320312 C 75.890625 33.96875 78.03125 40.390625 78.726562 42.707031 L 83.703125 40.738281 C 83.238281 39 81.273438 33.734375 72.996094 27.890625 C 69.0625 25.113281 64.492188 23.726562 59.457031 23.726562 C 56.679688 23.726562 54.539062 24.1875 53.496094 24.417969 L 54.363281 27.195312 C 55.347656 26.90625 57.375 26.503906 59.863281 26.503906 Z M 104.765625 225.851562 C 102.625 225.851562 100.425781 225.039062 98.863281 223.769531 C 97.707031 222.785156 93.769531 219.136719 92.035156 214.683594 C 91.398438 213.003906 91.515625 211.671875 92.5 210.746094 C 93.136719 210.113281 94.523438 209.300781 97.242188 209.300781 L 111.941406 209.300781 C 114.023438 209.300781 115.527344 209.765625 116.398438 210.632812 C 117.496094 211.789062 117.148438 213.179688 116.859375 213.988281 C 116.339844 215.320312 114.082031 219.660156 110.320312 223.652344 C 108.933594 225.039062 106.964844 225.851562 104.765625 225.851562 Z M 97.300781 246.394531 C 69.582031 244.253906 59.863281 218.097656 59.863281 212.65625 L 67.09375 212.65625 C 67.152344 215.03125 74.503906 237.425781 97.878906 239.21875 Z M 97.300781 246.394531 " />
        <path style=" stroke:none;fill-rule:nonzero;fill:rgb(100%,100%,100%);fill-opacity:1;"
            d="M 89.546875 199.464844 C 89.140625 196.976562 89.085938 194.601562 89.605469 192.230469 C 87.523438 190.667969 83.703125 190.089844 80.867188 189.164062 C 78.550781 187.71875 66.691406 190.667969 58.066406 180.253906 C 47.304688 167.234375 49.5625 159.421875 49.5625 159.421875 C 46.785156 162.488281 44.121094 161.332031 39.898438 175.625 C 35.675781 189.917969 41.867188 199.925781 53.4375 209.9375 C 58.878906 214.683594 66.632812 216.648438 73.230469 217.34375 C 71.03125 215.089844 77.046875 214.914062 81.15625 213.351562 C 80.808594 209.996094 81.386719 206.753906 83.875 204.152344 C 85.378906 202.589844 87.347656 201.605469 89.316406 200.851562 C 89.429688 200.621094 89.546875 200.332031 89.605469 200.101562 C 89.664062 199.984375 89.605469 199.753906 89.546875 199.464844 Z M 89.546875 199.464844 " />
        <path style=" stroke:none;fill-rule:nonzero;fill:rgb(78.823529%,78.823529%,78.823529%);fill-opacity:1;"
            d="M 81.15625 213.351562 C 80.925781 212.65625 80.75 211.90625 80.578125 211.210938 C 80.40625 210.402344 79.421875 208.203125 80.636719 210.746094 C 80.347656 210.113281 80.113281 209.417969 80 208.722656 C 61.308594 208.722656 44.992188 195.875 48.171875 168.851562 C 45.742188 165.613281 42.269531 175.390625 42.269531 175.390625 C 42.269531 175.390625 32.894531 202.589844 57.085938 213.121094 C 65.128906 216.648438 72.246094 219.136719 73.921875 218.15625 C 77.394531 218.847656 80.578125 216.417969 81.792969 214.796875 C 81.5625 214.335938 81.332031 213.871094 81.15625 213.351562 Z M 81.15625 213.351562 " />
        <path style=" stroke:none;fill-rule:nonzero;fill:rgb(27.45098%,18.823529%,7.843137%);fill-opacity:1;"
            d="M 89.199219 195.585938 C 89.199219 193.332031 89.722656 191.074219 90.820312 188.875 C 90.878906 188.699219 90.992188 188.585938 91.050781 188.410156 C 83.875 188.355469 75.542969 187.660156 68.484375 184.824219 C 60.730469 181.699219 51.007812 171.109375 49.332031 158.609375 C 49.332031 158.609375 34.691406 169.894531 39.03125 194.023438 C 43.082031 216.707031 62.003906 224.058594 83.644531 225.332031 C 83.644531 225.15625 81.214844 220.121094 81.964844 217.054688 C 69.699219 217.921875 55.925781 213.179688 49.332031 202.300781 C 43.253906 192.289062 44.992188 175.277344 47.480469 172.789062 C 53.554688 192 75.484375 195.875 89.199219 195.585938 Z M 89.199219 195.585938 " />
        <path style=" stroke:none;fill-rule:nonzero;fill:rgb(27.45098%,18.823529%,7.843137%);fill-opacity:1;"
            d="M 91.457031 181.816406 C 87.578125 193.214844 79.59375 202.472656 79.59375 202.472656 C 79.59375 202.472656 90.53125 201.953125 91.109375 200.042969 C 91.574219 198.597656 101.003906 176.550781 104.59375 150.683594 C 101.234375 156.296875 91.804688 180.832031 91.457031 181.816406 Z M 91.457031 181.816406 " />
        <path style=" stroke:none;fill-rule:nonzero;fill:rgb(90.588235%,52.941176%,14.117647%);fill-opacity:1;"
            d="M 153.429688 155.484375 L 174.957031 187.890625 C 176.347656 189.972656 165.871094 190.089844 165.871094 190.089844 Z M 147.527344 116.136719 L 153.316406 130.429688 C 155.515625 135.8125 164.019531 138.472656 164.019531 138.472656 C 164.019531 138.472656 159.621094 133.84375 159.621094 122.214844 C 159.621094 117.292969 153.316406 115.386719 153.316406 115.386719 Z M 147.527344 116.136719 " />
        <path style=" stroke:none;fill-rule:nonzero;fill:rgb(90.588235%,52.941176%,14.117647%);fill-opacity:1;"
            d="M 151.289062 121.460938 C 151.289062 121.460938 158.929688 130.605469 173.164062 125.453125 C 187.398438 120.359375 188.84375 102.132812 188.84375 96.984375 C 188.84375 91.890625 161.878906 102.074219 158.175781 104.273438 C 154.589844 106.472656 147.644531 115.210938 151.289062 121.460938 Z M 151.289062 121.460938 " />
        <path style=" stroke:none;fill-rule:nonzero;fill:rgb(27.45098%,18.823529%,7.843137%);fill-opacity:1;"
            d="M 148.917969 112.78125 L 156.671875 112.261719 C 156.671875 112.261719 154.703125 115.789062 153.375 120.304688 C 151.925781 125.453125 154.703125 132.917969 154.703125 132.917969 C 154.703125 132.917969 144.402344 121.171875 148.917969 112.78125 Z M 148.917969 112.78125 " />
        <path style=" stroke:none;fill-rule:nonzero;fill:rgb(90.588235%,52.941176%,14.117647%);fill-opacity:1;"
            d="M 205.046875 24.015625 C 205.046875 24.015625 191.914062 21.46875 183.175781 28.414062 C 174.4375 35.355469 171.890625 40.796875 171.890625 40.796875 L 186.644531 52.484375 C 186.644531 52.484375 193.765625 49.1875 195.960938 39.695312 C 198.105469 30.207031 196.65625 25.808594 205.046875 24.015625 Z M 190.234375 123.484375 C 190.234375 123.484375 213.265625 115.558594 208.925781 107.515625 C 204.527344 99.472656 208.058594 95.132812 208.058594 95.132812 C 208.058594 95.132812 220.902344 104.738281 217.664062 114.921875 C 215.636719 121.171875 212.28125 125.742188 193.707031 134.421875 C 184.792969 150.972656 191.855469 180.714844 191.449219 180.890625 C 190.753906 181.121094 178.949219 175.042969 179.761719 147.210938 C 179.875 138.648438 180.570312 127.015625 190.234375 123.484375 Z M 160.027344 38.25 L 182.941406 49.996094 L 177.734375 52.601562 L 178.488281 53.875 L 173.164062 56.304688 L 152.101562 71.871094 C 154.761719 63.652344 162.574219 50.75 162.574219 50.75 C 162.574219 50.75 164.773438 44.847656 160.027344 38.25 Z M 127.914062 238.40625 C 157.597656 238.40625 167.667969 223.304688 167.667969 223.304688 L 163.035156 234.589844 C 161.300781 239.507812 142.550781 254.667969 127.96875 254.667969 " />
        <path style=" stroke:none;fill-rule:nonzero;fill:rgb(90.588235%,52.941176%,14.117647%);fill-opacity:1;"
            d="M 164.425781 213.121094 C 164.425781 213.121094 161.707031 229.84375 150.769531 229.84375 C 141.453125 229.84375 138.734375 215.722656 138.734375 212.832031 Z M 182.652344 187.949219 C 181.667969 185.285156 178.253906 174.464844 177.15625 164.628906 C 175.824219 152.824219 176.347656 135.578125 176.347656 135.578125 C 176.347656 135.578125 179.238281 146.863281 181.84375 148.714844 C 184.390625 150.507812 189.132812 162.949219 189.132812 162.949219 L 192.894531 187.601562 C 189.480469 188.238281 186.703125 186.269531 182.652344 187.949219 Z M 209.039062 114.75 C 209.039062 114.75 202.847656 112.550781 200.996094 99.066406 C 199.203125 85.582031 203.195312 73.894531 203.195312 73.894531 C 203.195312 73.894531 202.847656 92.46875 204.988281 96.171875 C 207.1875 99.820312 208.984375 100.917969 211.527344 105.664062 C 214.132812 110.410156 210.488281 113.300781 209.039062 114.75 Z M 209.039062 114.75 " />
        <path style=" stroke:none;fill-rule:nonzero;fill:rgb(99.215686%,75.686275%,40.784314%);fill-opacity:1;"
            d="M 201.632812 27.195312 L 202.90625 26.386719 C 206.667969 26.503906 201.632812 27.195312 201.632812 27.195312 Z M 201.632812 27.195312 " />
        <path style=" stroke:none;fill-rule:nonzero;fill:rgb(98.431373%,66.27451%,9.803922%);fill-opacity:1;"
            d="M 154.9375 34.257812 C 154.9375 34.257812 160.78125 33.273438 163.671875 28.933594 C 166.566406 24.535156 174.839844 15.796875 188.035156 15.683594 C 201.230469 15.566406 214.25 19.210938 214.25 19.210938 L 202.847656 26.386719 C 201.632812 26.328125 199.550781 26.386719 196.078125 26.503906 C 181.84375 26.964844 179.644531 41.085938 179.644531 41.085938 L 129.300781 34.140625 " />
        <path style=" stroke:none;fill-rule:nonzero;fill:rgb(100%,100%,100%);fill-opacity:1;"
            d="M 150.074219 112.316406 C 150.074219 112.316406 156.902344 119.144531 167.320312 116.945312 C 177.792969 114.75 184.101562 110.117188 184.5625 102.132812 C 185.027344 94.089844 182.363281 90.964844 182.363281 90.964844 C 182.363281 90.964844 170.675781 94.609375 165.121094 99.472656 C 159.566406 104.273438 155.457031 112.085938 150.074219 112.316406 Z M 150.074219 112.316406 " />
        <path style=" stroke:none;fill-rule:nonzero;fill:rgb(78.823529%,78.823529%,78.823529%);fill-opacity:1;"
            d="M 158.351562 109.886719 C 158.351562 109.886719 164.253906 112.605469 170.847656 110.410156 C 179.472656 107.515625 180.050781 98.546875 180.050781 98.546875 C 180.050781 98.546875 185.375 114.113281 170.5 117.121094 C 158.582031 119.492188 151.523438 112.605469 151.523438 112.605469 Z M 158.351562 109.886719 " />
        <path style=" stroke:none;fill-rule:nonzero;fill:rgb(27.45098%,18.823529%,7.843137%);fill-opacity:1;"
            d="M 196.945312 51.269531 C 201.75 47.277344 198.160156 43.574219 198.566406 39 C 198.796875 36.570312 198.972656 34.316406 199.78125 33.042969 C 204.238281 26.039062 214.652344 23.898438 214.769531 23.898438 L 219.6875 22.914062 L 216.449219 19.097656 C 216.042969 18.632812 202.675781 5.902344 182.015625 12.558594 C 167.550781 17.242188 156.902344 32.984375 156.5 33.679688 L 163.730469 37.09375 C 163.847656 36.976562 172.296875 22.105469 184.679688 18.113281 C 194.691406 14.871094 203.949219 17.9375 207.882812 19.964844 C 203.660156 21.640625 198.160156 24.707031 194.863281 29.917969 C 193.300781 32.40625 193.011719 35.472656 192.78125 38.480469 C 192.433594 42.472656 192.144531 46.234375 189.191406 48.664062 Z M 196.945312 51.269531 " />
        <path style=" stroke:none;fill-rule:nonzero;fill:rgb(27.45098%,18.823529%,7.843137%);fill-opacity:1;"
            d="M 209.792969 109.65625 C 209.792969 109.65625 203.714844 102.132812 201.921875 87.492188 C 201.230469 81.707031 202.445312 70.363281 204.46875 65.96875 C 204.121094 76.730469 206.839844 87.492188 206.839844 87.492188 C 206.839844 87.492188 208.691406 107.457031 209.792969 109.65625 Z M 209.792969 109.65625 " />
        <path style=" stroke:none;fill-rule:nonzero;fill:rgb(27.45098%,18.823529%,7.843137%);fill-opacity:1;"
            d="M 177.792969 43.6875 C 177.792969 43.6875 179.761719 35.183594 185.140625 30.902344 C 192.722656 24.824219 202.039062 28.066406 202.097656 28.121094 L 203.425781 23.957031 C 202.964844 23.78125 192.375 20.484375 182.59375 27.3125 C 172.757812 34.199219 171.601562 40.507812 171.484375 41.199219 Z M 177.792969 43.6875 " />
        <path style=" stroke:none;fill-rule:nonzero;fill:rgb(27.45098%,18.823529%,7.843137%);fill-opacity:1;"
            d="M 190.753906 104.214844 C 190.753906 104.214844 193.9375 99.644531 193.359375 94.667969 C 193.070312 92.179688 191.914062 89.632812 189.886719 88.765625 C 186.066406 87.089844 184.390625 91.429688 184.390625 91.429688 C 184.390625 91.429688 189.714844 92.703125 190.753906 104.214844 Z M 190.753906 104.214844 " />
        <path style=" stroke:none;fill-rule:nonzero;fill:rgb(27.45098%,18.823529%,7.843137%);fill-opacity:1;"
            d="M 155.804688 111.160156 C 155.6875 111.390625 155.628906 111.566406 155.628906 111.566406 C 155.628906 111.566406 165.582031 119.03125 175.710938 111.449219 C 181.148438 107.398438 180.628906 97.386719 178.949219 93.105469 C 174.609375 94.089844 170.90625 95.882812 167.839844 97.910156 C 171.71875 94.4375 175.132812 91.890625 175.132812 91.832031 L 179.527344 90.558594 L 188.09375 87.609375 C 188.207031 88.246094 191.332031 102.945312 182.304688 112.953125 C 178.3125 117.410156 159.507812 127.304688 150.597656 110.351562 Z M 155.804688 111.160156 " />
        <path style=" stroke:none;fill-rule:nonzero;fill:rgb(98.431373%,66.27451%,9.803922%);fill-opacity:1;"
            d="M 137.285156 106.9375 L 141.625 109.65625 L 179.585938 90.90625 L 198.855469 85.640625 L 194.167969 60.066406 L 138.039062 90.90625 L 129.300781 97.503906 " />
        <path style=" stroke:none;fill-rule:nonzero;fill:rgb(90.588235%,52.941176%,14.117647%);fill-opacity:1;"
            d="M 155.167969 95.074219 C 160.839844 87.03125 170.15625 83.558594 177.5625 82.980469 C 190.234375 81.996094 196.253906 86.453125 196.253906 86.453125 C 196.253906 86.453125 175.476562 87.320312 169.519531 95.191406 C 158.351562 109.828125 142.089844 110.988281 139.542969 107.804688 C 142.550781 107.976562 145.851562 106.472656 149.378906 103.117188 C 151.578125 101.035156 153.375 97.621094 155.167969 95.074219 Z M 155.167969 95.074219 " />
        <path style=" stroke:none;fill-rule:nonzero;fill:rgb(27.45098%,18.823529%,7.843137%);fill-opacity:1;"
            d="M 156.730469 112.261719 C 151.117188 120.765625 137.054688 115.90625 137.285156 106.9375 C 137.285156 106.9375 146.71875 112.144531 155.050781 102.539062 C 159.914062 96.925781 175.476562 81.53125 196.597656 86.625 C 182.015625 89.867188 162.691406 103.175781 156.730469 112.261719 Z M 156.730469 112.261719 " />
        <path style=" stroke:none;fill-rule:nonzero;fill:rgb(27.45098%,18.823529%,7.843137%);fill-opacity:1;"
            d="M 198.566406 136.273438 C 197.234375 137.027344 192.492188 141.945312 192.492188 149.292969 C 192.492188 152.996094 192.839844 171.515625 194.691406 182.796875 C 191.96875 184.59375 190.058594 184.941406 187.28125 186.792969 C 185.894531 173.714844 184.910156 154.734375 185.375 147.039062 C 185.894531 138.300781 190.582031 132.457031 194.921875 129.96875 L 199.144531 127.652344 C 206.550781 123.660156 214.25 119.492188 214.25 112.375 C 214.25 106.820312 212.105469 105.085938 209.792969 103.234375 L 209.5625 103.058594 C 208.058594 101.84375 206.320312 100.457031 205.335938 98.140625 C 202.558594 91.890625 202.097656 76.035156 205.335938 71.984375 C 206.957031 69.960938 211.238281 63.246094 210.023438 58.675781 C 209.5625 56.941406 208.460938 55.667969 206.667969 54.742188 C 204.816406 53.757812 202.269531 53.292969 199.144531 53.292969 C 193.011719 53.292969 186.183594 55.144531 182.710938 56.304688 C 170.15625 60.296875 154.992188 71.753906 150.652344 75.167969 C 150.539062 75.285156 150.480469 75.339844 150.421875 75.339844 L 147.644531 77.25 L 149.378906 74.359375 C 149.496094 74.183594 160.492188 56.070312 180.164062 49.476562 C 183.984375 48.203125 191.507812 46.003906 198.914062 46.003906 C 203.3125 46.003906 207.015625 46.753906 210.023438 48.261719 C 213.613281 50.113281 216.042969 53.0625 217.082031 56.765625 C 219.570312 65.851562 211.472656 76.035156 211.179688 76.324219 C 210.253906 78.003906 209.851562 90.214844 211.992188 95.132812 C 212.28125 95.824219 213.089844 96.460938 214.132812 97.332031 C 214.480469 97.621094 214.828125 97.851562 215.230469 98.140625 C 218.300781 100.457031 222.929688 103.984375 222.929688 112.027344 C 222.929688 123.082031 211.703125 129.097656 202.734375 133.902344 C 201.230469 134.828125 199.839844 135.578125 198.566406 136.273438 Z M 198.566406 136.273438 " />
        <path style=" stroke:none;fill-rule:nonzero;fill:rgb(27.45098%,18.823529%,7.843137%);fill-opacity:1;"
            d="M 185.199219 49.996094 C 183.40625 46.988281 178.835938 41.144531 168.359375 36.050781 C 156.613281 30.320312 143.074219 27.429688 128.027344 27.429688 L 127.96875 27.429688 C 112.925781 27.429688 99.328125 30.320312 87.636719 36.050781 C 77.105469 41.199219 72.59375 46.988281 70.796875 49.996094 L 70.046875 51.039062 L 79.015625 53.0625 L 79.304688 52.714844 L 79.476562 52.367188 C 79.59375 51.789062 80.808594 48.550781 90.878906 43.6875 C 101.582031 38.480469 114.082031 35.820312 128.027344 35.820312 C 141.972656 35.820312 154.472656 38.480469 165.179688 43.6875 C 175.1875 48.609375 176.402344 51.789062 176.578125 52.367188 L 176.695312 52.65625 L 176.984375 53.003906 L 186.011719 50.980469 Z M 185.199219 49.996094 " />
        <path style=" stroke:none;fill-rule:nonzero;fill:rgb(27.45098%,18.823529%,7.843137%);fill-opacity:1;"
            d="M 196.945312 51.269531 C 201.75 47.277344 198.160156 43.574219 198.566406 39 C 198.796875 36.570312 198.972656 34.316406 199.78125 33.042969 C 204.238281 26.039062 214.652344 23.898438 214.769531 23.898438 L 219.6875 22.914062 L 216.449219 19.097656 C 216.042969 18.632812 202.675781 5.902344 182.015625 12.558594 C 167.550781 17.242188 156.902344 32.984375 156.5 33.679688 L 163.730469 37.09375 C 163.847656 36.976562 172.296875 22.105469 184.679688 18.113281 C 194.691406 14.871094 203.949219 17.9375 207.882812 19.964844 C 203.660156 21.640625 198.160156 24.707031 194.863281 29.917969 C 193.300781 32.40625 193.011719 35.472656 192.78125 38.480469 C 192.433594 42.472656 192.144531 46.234375 189.191406 48.664062 Z M 196.945312 51.269531 " />
        <path style=" stroke:none;fill-rule:nonzero;fill:rgb(27.45098%,18.823529%,7.843137%);fill-opacity:1;"
            d="M 187.6875 49.011719 L 188.730469 48.144531 C 191.449219 45.886719 191.738281 42.300781 192.027344 38.421875 C 192.316406 35.355469 192.546875 32.117188 194.226562 29.511719 C 197.292969 24.707031 202.097656 21.699219 206.03125 19.90625 C 203.660156 18.921875 199.203125 17.417969 193.707031 17.417969 C 190.640625 17.417969 187.6875 17.878906 184.851562 18.804688 C 173.335938 22.511719 165.234375 35.933594 164.308594 37.496094 L 163.960938 38.019531 L 155.398438 33.96875 L 155.863281 33.273438 C 155.976562 33.097656 166.742188 16.722656 181.785156 11.863281 C 185.835938 10.53125 189.886719 9.894531 193.820312 9.894531 C 208.347656 9.894531 216.910156 18.515625 216.96875 18.632812 L 221.019531 23.378906 L 214.886719 24.652344 C 214.769531 24.652344 204.585938 26.792969 200.359375 33.445312 C 199.667969 34.546875 199.492188 36.746094 199.261719 39.058594 C 199.144531 40.449219 199.433594 41.777344 199.722656 43.109375 C 200.359375 45.945312 200.996094 48.839844 197.410156 51.847656 L 197.121094 52.078125 Z M 187.6875 49.011719 " />
        <path style=" stroke:none;fill-rule:nonzero;fill:rgb(27.45098%,18.823529%,7.843137%);fill-opacity:1;"
            d="M 177.792969 43.6875 C 177.792969 43.6875 179.761719 35.183594 185.140625 30.902344 C 192.722656 24.824219 202.039062 28.066406 202.097656 28.121094 L 203.425781 23.957031 C 202.964844 23.78125 192.375 20.484375 182.59375 27.3125 C 172.757812 34.199219 171.601562 40.507812 171.484375 41.199219 Z M 177.792969 43.6875 " />
        <path style=" stroke:none;fill-rule:nonzero;fill:rgb(27.45098%,18.823529%,7.843137%);fill-opacity:1;"
            d="M 170.675781 41.664062 L 170.734375 41.085938 C 170.847656 40.390625 172.0625 33.792969 182.132812 26.734375 C 186.300781 23.839844 191.277344 22.277344 196.484375 22.277344 C 200.476562 22.277344 203.3125 23.144531 203.601562 23.261719 L 204.296875 23.492188 L 202.5 29.046875 L 201.808594 28.816406 C 201.519531 28.703125 199.203125 27.949219 196.019531 27.949219 C 191.96875 27.949219 188.441406 29.164062 185.488281 31.480469 C 180.339844 35.585938 178.429688 43.804688 178.429688 43.863281 L 178.253906 44.671875 Z M 201.632812 27.195312 L 202.558594 24.417969 C 201.519531 24.128906 199.375 23.726562 196.597656 23.726562 C 191.566406 23.726562 186.992188 25.113281 183.058594 27.890625 C 174.785156 33.734375 172.816406 38.945312 172.351562 40.738281 L 177.328125 42.707031 C 177.964844 40.390625 180.109375 33.96875 184.738281 30.320312 C 187.917969 27.832031 191.855469 26.503906 196.195312 26.503906 C 198.625 26.503906 200.59375 26.90625 201.632812 27.195312 Z M 145.675781 223.59375 C 141.914062 219.601562 139.71875 215.261719 139.136719 213.929688 C 138.847656 213.179688 138.5 211.730469 139.601562 210.574219 C 140.46875 209.707031 141.972656 209.242188 144.058594 209.242188 L 158.753906 209.242188 C 161.472656 209.242188 162.863281 210.054688 163.5 210.691406 C 164.425781 211.617188 164.597656 212.945312 163.960938 214.625 C 162.226562 219.082031 158.292969 222.667969 157.132812 223.710938 C 155.628906 225.039062 153.429688 225.792969 151.230469 225.792969 C 148.976562 225.851562 147.007812 225.039062 145.675781 223.59375 Z M 145.675781 223.59375 " />
        <path style=" stroke:none;fill-rule:nonzero;fill:rgb(90.588235%,52.941176%,14.117647%);fill-opacity:1;"
            d="M 127.96875 85.003906 C 122.992188 85.003906 116.570312 84.890625 111.710938 81.359375 C 111.710938 81.359375 118.074219 92.46875 127.96875 92.46875 L 127.96875 91.082031 L 127.96875 92.46875 C 137.867188 92.46875 144.230469 81.359375 144.230469 81.359375 C 139.425781 84.832031 132.945312 85.003906 127.96875 85.003906 Z M 127.96875 85.003906 " />
        <path style=" stroke:none;fill-rule:nonzero;fill:rgb(27.45098%,18.823529%,7.843137%);fill-opacity:1;"
            d="M 141.625 84.949219 C 136.648438 87.957031 132.195312 88.996094 127.96875 89.113281 C 123.746094 88.996094 119.289062 87.957031 114.3125 84.949219 C 114.3125 84.949219 121.546875 93.800781 127.914062 93.859375 L 128.027344 93.859375 C 134.394531 93.800781 141.625 84.949219 141.625 84.949219 Z M 158.640625 246.394531 L 158.058594 239.160156 C 181.4375 237.367188 188.789062 214.972656 188.84375 212.601562 L 196.078125 212.601562 C 196.078125 218.097656 186.355469 244.253906 158.640625 246.394531 Z M 158.640625 246.394531 " />
        <path style=" stroke:none;fill-rule:nonzero;fill:rgb(100%,100%,100%);fill-opacity:1;"
            d="M 166.449219 199.464844 C 166.914062 196.976562 166.914062 194.601562 166.394531 192.230469 C 168.476562 190.667969 172.296875 190.089844 175.132812 189.164062 C 177.445312 187.71875 189.308594 190.667969 197.929688 180.253906 C 208.691406 167.234375 206.4375 159.421875 206.4375 159.421875 C 209.214844 162.488281 211.875 161.332031 216.101562 175.625 C 220.324219 189.917969 214.132812 199.925781 202.558594 209.9375 C 197.121094 214.683594 189.367188 216.648438 182.769531 217.34375 C 184.96875 215.089844 178.949219 214.914062 174.839844 213.351562 C 175.1875 209.996094 174.609375 206.753906 172.121094 204.152344 C 170.617188 202.589844 168.648438 201.605469 166.683594 200.851562 C 166.566406 200.621094 166.449219 200.332031 166.394531 200.101562 C 166.335938 199.984375 166.394531 199.753906 166.449219 199.464844 Z M 166.449219 199.464844 " />
        <path style=" stroke:none;fill-rule:nonzero;fill:rgb(78.823529%,78.823529%,78.823529%);fill-opacity:1;"
            d="M 174.785156 213.351562 C 175.015625 212.65625 175.1875 211.90625 175.363281 211.210938 C 175.535156 210.402344 176.519531 208.203125 175.304688 210.746094 C 175.59375 210.113281 175.824219 209.417969 175.941406 208.722656 C 194.632812 208.722656 210.949219 195.875 207.765625 168.851562 C 210.199219 165.613281 213.667969 175.390625 213.667969 175.390625 C 213.667969 175.390625 223.042969 202.589844 198.855469 213.121094 C 190.8125 216.648438 183.695312 219.136719 182.015625 218.15625 C 178.488281 218.847656 175.363281 216.417969 174.148438 214.796875 C 174.4375 214.335938 174.609375 213.871094 174.785156 213.351562 Z M 174.785156 213.351562 " />
        <path style=" stroke:none;fill-rule:nonzero;fill:rgb(27.45098%,18.823529%,7.843137%);fill-opacity:1;"
            d="M 166.742188 195.585938 C 166.742188 193.332031 166.21875 191.074219 165.121094 188.875 C 165.0625 188.699219 164.945312 188.585938 164.890625 188.410156 C 172.0625 188.355469 180.398438 187.660156 187.457031 184.824219 C 195.210938 181.699219 204.933594 171.109375 206.609375 158.609375 C 206.609375 158.609375 221.25 169.894531 216.910156 194.023438 C 212.859375 216.707031 193.878906 224.058594 172.296875 225.332031 C 172.296875 225.15625 174.726562 220.121094 173.972656 217.054688 C 186.242188 217.921875 200.011719 213.179688 206.609375 202.300781 C 212.6875 192.289062 210.949219 175.277344 208.460938 172.789062 C 202.386719 192 180.511719 195.875 166.742188 195.585938 Z M 166.742188 195.585938 " />
        <path style=" stroke:none;fill-rule:nonzero;fill:rgb(27.45098%,18.823529%,7.843137%);fill-opacity:1;"
            d="M 175.476562 201.257812 C 172.875 198.480469 168.128906 195.125 157.191406 195.125 L 98.746094 195.125 C 87.8125 195.125 83.066406 198.480469 80.460938 201.257812 C 76.699219 205.308594 76.121094 210.980469 78.726562 218.039062 C 85.671875 236.84375 95.390625 256 127.96875 256 L 128.085938 256 C 160.664062 256 170.386719 236.84375 177.328125 218.039062 C 179.875 210.980469 179.296875 205.308594 175.476562 201.257812 Z M 170.445312 216.707031 C 167.144531 226.140625 158.292969 249.054688 127.96875 249.054688 C 97.707031 248.996094 88.792969 226.140625 85.496094 216.707031 C 83.644531 211.441406 83.820312 207.566406 85.902344 205.191406 C 87.347656 203.574219 90.648438 201.605469 98.226562 201.605469 L 157.597656 201.605469 C 165.179688 201.605469 168.476562 203.574219 169.921875 205.191406 C 172.121094 207.625 172.238281 211.5 170.445312 216.707031 Z M 170.445312 216.707031 " />
        <path style=" stroke:none;fill-rule:nonzero;fill:rgb(27.45098%,18.823529%,7.843137%);fill-opacity:1;"
            d="M 164.484375 181.816406 C 168.359375 193.214844 176.347656 202.472656 176.347656 202.472656 C 176.347656 202.472656 165.410156 201.953125 164.832031 200.042969 C 164.367188 198.597656 154.9375 176.550781 151.347656 150.683594 C 154.703125 156.296875 164.195312 180.832031 164.484375 181.816406 Z M 164.484375 181.816406 " />
    </g>
</svg>