<svg width="256px" height="256px" viewBox="0 0 256 256" xmlns="http://www.w3.org/2000/svg"
   xmlns:svg="http://www.w3.org/2000/svg">
    <title>GruntJS</title>
   <rect width="256" height="256" fill="#F4F2ED" rx="60" id="rect1" />
   <g id="surface1" transform="matrix(0.92507351,0,0,0.94443165,7.4567668,3.5563741)">
      <path style="fill:#faa817;fill-opacity:1;fill-rule:nonzero;stroke:none"
         d="m 45.28125,62.207031 c 0,0 4.394531,16.894531 5.03125,22.566407 0.636719,5.613281 -11.28125,18.171872 -11.28125,24.417972 0,6.25 2.488281,17.53515 16.257812,23.20703 13.773438,5.61328 15.683594,20.01953 15.683594,28.8164 0,8.79688 -5.035156,25.69141 -5.035156,25.69141 0,0 -3.125,41.95312 13.773438,49.47656 16.894531,7.52344 13.132812,7.52344 16.894531,7.52344 3.761721,0 31.308591,11.28125 47.625001,6.88672 16.26172,-4.39844 20.66015,-9.375 20.66015,-9.375 0,0 16.25782,1.27344 21.29297,-13.13672 5.03516,-14.41016 8.16016,-44.44141 6.25,-58.26953 -1.85156,-13.77344 -4.39843,-31.94531 6.88672,-38.19141 11.28125,-6.25 23.20313,-13.77343 21.29297,-20.02343 -1.85156,-6.25 -11.92187,-15.04688 -11.92187,-15.04688 0,0 -2.48829,-15.679688 -0.63282,-19.441406 1.85157,-3.761719 13.13282,-13.136719 6.88282,-20.019532 C 208.75,50.34375 197.46875,50.34375 197.46875,50.34375 l -14.41016,1.273438 c 0,0 -24.41797,-21.933594 -56.36328,-20.660157 -31.941404,1.273438 -51.960935,20.660157 -51.960935,20.660157 0,0 -10.648437,-3.761719 -20.023437,0 -9.429688,3.703124 -11.28125,-0.05859 -9.429688,10.589843 z m 0,0"
         id="path1" />
      <path style="fill:#e68523;fill-opacity:1;fill-rule:nonzero;stroke:none"
         d="m 102.50781,155.48437 -21.523435,32.40625 c -1.390625,2.08204 9.082031,2.19922 9.082031,2.19922 z m 5.90235,-39.34765 -5.78516,14.29297 c -2.19922,5.38281 -10.707031,8.04297 -10.707031,8.04297 0,0 4.398437,-4.62891 4.398437,-16.25782 0,-4.92187 6.308594,-6.82812 6.308594,-6.82812 z m 0,0"
         id="path2" />
      <path style="fill:#452e11;fill-opacity:1;fill-rule:nonzero;stroke:none"
         d="m 107.02344,112.78125 -7.753909,-0.51953 c 0,0 1.964849,3.52734 3.296879,8.04297 1.44531,5.14844 -1.33203,12.61328 -1.33203,12.61328 0,0 10.35937,-11.74609 5.78906,-20.13672 z m 0,0"
         id="path3" />
      <path style="fill:#e68523;fill-opacity:1;fill-rule:nonzero;stroke:none"
         d="m 104.64844,121.46094 c 0,0 -7.636721,9.14453 -21.871096,3.99219 C 68.542969,120.35938 67.09375,102.13281 67.09375,96.984375 c 0,-5.09375 26.96875,5.089845 30.671875,7.289065 3.585935,2.19922 10.531255,10.9375 6.882815,17.1875 z M 50.949219,24.015625 c 0,0 13.136719,-2.546875 21.875,4.398437 8.738281,6.882813 11.285156,12.382813 11.285156,12.382813 l -14.757813,11.6875 c 0,0 -7.117187,-3.296875 -9.316406,-12.789063 -2.199218,-9.488281 -0.695312,-13.886718 -9.085937,-15.679687 z m 14.816406,99.468755 c 0,0 -23.03125,-7.92579 -18.691406,-15.96875 4.398437,-8.042974 0.867187,-12.382818 0.867187,-12.382818 0,0 -12.847656,9.605468 -9.546875,19.789068 2.023438,6.25 5.378907,10.82031 23.957031,19.49999 8.910157,16.55079 1.851563,46.29297 2.253907,46.46875 0.695312,0.23047 12.5,-5.84765 11.691406,-33.67968 -0.234375,-8.5625 -0.925781,-20.19531 -10.53125,-23.72656 z M 95.96875,38.25 73.054688,49.996094 l 5.207031,2.605468 -0.75,1.273438 5.324219,2.429688 21.062502,15.566406 C 101.23438,63.652344 93.425781,50.75 93.425781,50.75 c 0,0 -2.199219,-5.902344 2.542969,-12.5 z m 0,0"
         id="path4" />
      <path style="fill:#e68523;fill-opacity:1;fill-rule:nonzero;stroke:none"
         d="m 128.08594,238.40625 c -29.683596,0 -39.753909,-15.10156 -39.753909,-15.10156 l 4.628907,11.28515 c 1.734374,4.91797 20.484372,20.07813 35.066402,20.07813 M 91.574219,213.12109 c 0,0 2.71875,16.72266 13.656251,16.72266 9.31641,0 12.03516,-14.12109 12.03516,-17.01172 z M 73.34375,187.94922 c 0.984375,-2.66406 4.398438,-13.48438 5.5,-23.32031 1.328125,-11.80469 0.808594,-29.05079 0.808594,-29.05079 0,0 -2.894532,11.28516 -5.496094,13.13672 -2.546875,1.79297 -7.292969,14.23438 -7.292969,14.23438 l -3.761719,24.65234 c 3.355469,0.63672 6.191407,-1.33203 10.242188,0.34766 z M 46.898438,114.75 c 0,0 6.191406,-2.19922 8.042968,-15.683594 1.855469,-13.484375 -2.195312,-25.171875 -2.195312,-25.171875 0,0 0.34375,18.574219 -1.796875,22.277344 -2.199219,3.648437 -3.992188,4.746095 -6.539063,9.492185 -2.601562,4.7461 1.042969,7.63672 2.488282,9.08594 z m 0,0"
         id="path5" />
      <path style="fill:#fdbf66;fill-opacity:1;fill-rule:nonzero;stroke:none"
         d="m 54.308594,27.195312 -1.273438,-0.808593 c -3.703125,0.117187 1.273438,0.808593 1.273438,0.808593 z m 0,0"
         id="path6" />
      <path style="fill:#faa817;fill-opacity:1;fill-rule:nonzero;stroke:none"
         d="m 101.00391,34.257812 c 0,0 -5.843754,-0.984374 -8.738285,-5.324218 C 89.375,24.535156 81.097656,15.796875 67.90625,15.683594 54.710938,15.566406 41.691406,19.210938 41.691406,19.210938 l 11.398438,7.175781 c 1.21875,-0.05859 3.300781,0 6.773437,0.117187 14.292969,0.460938 16.492188,14.582032 16.492188,14.582032 l 50.339841,-6.945313"
         id="path7" />
      <path style="fill:#ffffff;fill-opacity:1;fill-rule:nonzero;stroke:none"
         d="m 105.86719,112.31641 c 0,0 -6.828128,6.82812 -17.246096,4.6289 -10.472656,-2.19531 -16.78125,-6.82812 -17.242188,-14.8125 -0.464844,-8.042966 2.195313,-11.167966 2.195313,-11.167966 0,0 11.691406,3.644531 17.246093,8.507812 5.554688,4.800784 9.722658,12.613284 15.046878,12.843754 z m 0,0"
         id="path8" />
      <path style="fill:#c7c7c7;fill-opacity:1;fill-rule:nonzero;stroke:none"
         d="m 97.648438,109.88672 c 0,0 -5.902344,2.71875 -12.5,0.52344 -8.621094,-2.89453 -9.199219,-11.863285 -9.199219,-11.863285 0,0 -5.324219,15.566405 9.546875,18.574215 11.921875,2.3711 18.980466,-4.51562 18.980466,-4.51562 z m 0,0"
         id="path9" />
      <path style="fill:#452e11;fill-opacity:1;fill-rule:nonzero;stroke:none"
         d="M 101.81641,30.957031 C 101.17969,17.589844 112.11328,7 115.93359,6.539062 116.16406,8.796875 115.70313,17.589844 119.52344,20.3125 120.62109,13.136719 124.32422,5.207031 139.08203,0 c -3.18359,8.390625 -0.40625,15.390625 0.86719,18.632812 10.0664,-9.144531 16.83984,-7.636718 16.83984,-7.636718 0,0 -7.0039,12.035156 -4.28515,19.960937 -20.19532,-1.5625 -50.57422,2.140625 -50.6875,0 z m 0,0"
         id="path10" />
      <path style="fill:#452e11;fill-opacity:1;fill-rule:nonzero;stroke:none"
         d="M 59.050781,51.269531 C 54.25,47.277344 57.835938,43.574219 57.429688,39 57.199219,36.570312 57.027344,34.316406 56.214844,33.042969 51.761719,26.039062 41.34375,23.898438 41.230469,23.898438 l -4.921875,-0.984376 3.242187,-3.816406 C 39.957031,18.632812 53.324219,5.902344 73.980469,12.558594 88.449219,17.242188 99.09375,32.984375 99.5,33.679688 L 92.265625,37.09375 C 92.210938,36.976562 83.703125,22.105469 71.320312,18.113281 61.308594,14.871094 52.050781,17.9375 48.113281,19.964844 c 4.226563,1.675781 9.722657,4.742187 13.023438,9.953125 1.5625,2.488281 1.851562,5.554687 2.082031,8.5625 0.347656,3.992187 0.636719,7.753906 3.585938,10.183593 z m 0,0"
         id="path11" />
      <path style="fill:#452e11;fill-opacity:1;fill-rule:nonzero;stroke:none"
         d="m 46.148438,109.65625 c 0,0 6.074218,-7.52344 7.867187,-22.164062 0.695313,-5.785157 -0.519531,-17.128907 -2.542969,-21.523438 0.347656,10.761719 -2.375,21.523438 -2.375,21.523438 0,0 -1.851562,19.964842 -2.949218,22.164062 z m 0,0"
         id="path12" />
      <path style="fill:#452e11;fill-opacity:1;fill-rule:nonzero;stroke:none"
         d="m 78.148438,43.6875 c 0,0 -1.96875,-8.503906 -7.351563,-12.785156 C 63.21875,24.824219 53.902344,28.066406 53.84375,28.121094 l -1.332031,-4.164063 c 0.464843,-0.175781 11.054687,-3.472656 20.832031,3.355469 9.839844,6.886719 10.996094,13.195312 11.109375,13.886719 z m 0,0"
         id="path13" />
      <path style="fill:#452e11;fill-opacity:1;fill-rule:nonzero;stroke:none"
         d="m 65.242188,104.21484 c 0,0 -3.179688,-4.570309 -2.601563,-9.546871 0.289063,-2.488281 1.445313,-5.035157 3.472656,-5.902344 3.816407,-1.675781 5.496094,2.664063 5.496094,2.664063 0,0 -5.382813,1.273437 -6.367187,12.785152 z m 0,0"
         id="path14" />
      <path style="fill:#452e11;fill-opacity:1;fill-rule:nonzero;stroke:none"
         d="m 100.19531,111.16016 c 0.11328,0.23047 0.17188,0.40625 0.17188,0.40625 0,0 -9.953128,7.46484 -20.078128,-0.11719 -5.441406,-4.05078 -4.917968,-14.062501 -3.242187,-18.343751 4.339844,0.984375 8.042969,2.777343 11.113281,4.804687 C 84.28125,94.4375 80.867188,91.890625 80.867188,91.832031 l -4.398438,-1.273437 -8.5625,-2.949219 c -0.117188,0.636719 -3.242188,15.335935 5.785156,25.343755 3.992188,4.45703 22.800782,14.35156 31.710934,-2.60157 z m 0,0"
         id="path15" />
      <path style="fill:#faa817;fill-opacity:1;fill-rule:nonzero;stroke:none"
         d="m 126.69531,100.51172 -0.34375,-5.148439 -37.441404,-19.730469 -15.566406,-12.5 -17.9375,18.804688 57.86719,27.37109 10.47265,3.1836"
         id="path16" />
      <path style="fill:#e68523;fill-opacity:1;fill-rule:nonzero;stroke:none"
         d="M 100.83203,95.074219 C 95.160156,87.03125 85.84375,83.558594 78.4375,82.980469 65.765625,81.996094 59.746094,86.453125 59.746094,86.453125 c 0,0 20.773437,0.867187 26.734375,8.738281 11.167969,14.636724 27.429691,15.796874 30.031251,12.613284 -3.00781,0.17187 -6.30469,-1.33203 -9.83594,-4.6875 -2.25781,-2.08203 -4.05078,-5.496096 -5.84375,-8.042971 z m 0,0"
         id="path17" />
      <path style="fill:#452e11;fill-opacity:1;fill-rule:nonzero;stroke:none"
         d="m 99.269531,112.26172 c 5.613279,8.50391 19.671879,3.64453 19.441409,-5.32422 0,0 -9.42969,5.20703 -17.76563,-4.39844 C 96.085938,96.925781 80.519531,81.53125 59.398438,86.625 c 14.582031,3.242188 33.910156,16.55078 39.871093,25.63672 z m 0,0"
         id="path18" />
      <path style="fill:#452e11;fill-opacity:1;fill-rule:nonzero;stroke:none"
         d="m 57.429688,136.27344 c 1.332031,0.7539 6.078124,5.67187 6.078124,13.01953 0,3.70312 -0.347656,22.22265 -2.199218,33.5039 2.71875,1.79688 4.628906,2.14454 7.40625,3.9961 1.390625,-13.07813 2.375,-32.0586 1.910156,-39.75391 -0.519531,-8.73828 -5.207031,-14.58203 -9.546875,-17.07031 l -4.226563,-2.31641 C 49.445312,123.66016 41.75,119.49219 41.75,112.375 c 0,-5.55469 2.140625,-7.28906 4.457031,-9.14062 l 0.230469,-0.17579 c 1.503906,-1.21484 3.238281,-2.60156 4.222656,-4.917965 2.777344,-6.25 3.242188,-22.105469 0,-26.15625 -1.621094,-2.023437 -5.902344,-8.738281 -4.6875,-13.308594 0.464844,-1.734375 1.5625,-3.007812 3.359375,-3.933593 1.851563,-0.984376 4.394531,-1.449219 7.519531,-1.449219 6.136719,0 12.964844,1.851562 16.433594,3.011719 12.558594,3.992187 27.718754,15.449218 32.058594,18.863281 0.11719,0.117187 0.17578,0.171875 0.23047,0.171875 L 108.35547,77.25 106.61719,74.359375 C 106.5,74.183594 95.507812,56.070312 75.832031,49.476562 72.015625,48.203125 64.492188,46.003906 57.085938,46.003906 c -4.398438,0 -8.160157,0.75 -11.113282,2.257813 -3.585937,1.851562 -6.015625,4.800781 -7.058594,8.503906 -2.488281,9.085937 5.613282,19.269531 5.902344,19.558594 0.925782,1.679687 1.332032,13.890625 -0.808594,18.808593 -0.289062,0.691407 -1.101562,1.328126 -2.140624,2.199219 -0.347657,0.289063 -0.695313,0.519531 -1.101563,0.808594 -3.066406,2.316405 -7.695313,5.843755 -7.695313,13.886715 0,11.05469 11.226563,17.07032 20.195313,21.875 1.445313,0.92578 2.894531,1.67578 4.164063,2.3711 z m 0,0"
         id="path19" />
      <path style="fill:#452e11;fill-opacity:1;fill-rule:nonzero;stroke:none"
         d="M 59.050781,51.269531 C 54.25,47.277344 57.835938,43.574219 57.429688,39 57.199219,36.570312 57.027344,34.316406 56.214844,33.042969 51.761719,26.039062 41.34375,23.898438 41.230469,23.898438 l -4.921875,-0.984376 3.242187,-3.816406 C 39.957031,18.632812 53.324219,5.902344 73.980469,12.558594 88.449219,17.242188 99.09375,32.984375 99.5,33.679688 L 92.265625,37.09375 C 92.210938,36.976562 83.703125,22.105469 71.320312,18.113281 61.308594,14.871094 52.050781,17.9375 48.113281,19.964844 c 4.226563,1.675781 9.722657,4.742187 13.023438,9.953125 1.5625,2.488281 1.851562,5.554687 2.082031,8.5625 0.347656,3.992187 0.636719,7.753906 3.585938,10.183593 z m 0,0"
         id="path20" />
      <path style="fill:#452e11;fill-opacity:1;fill-rule:nonzero;stroke:none"
         d="M 58.878906,52.136719 58.589844,51.90625 C 55,48.953125 55.636719,46.003906 56.273438,43.167969 56.5625,41.835938 56.851562,40.507812 56.738281,39.117188 56.5625,36.804688 56.332031,34.605469 55.636719,33.503906 51.414062,26.851562 41.230469,24.707031 41.113281,24.707031 L 34.980469,23.492188 39.03125,18.75 c 0.05859,-0.117188 8.621094,-8.738281 23.144531,-8.738281 3.9375,0 7.984375,0.636719 12.035157,1.964843 15.105468,4.863282 25.808592,21.238282 25.925782,21.414063 l 0.46094,0.691406 -8.562504,4.050781 L 91.6875,37.613281 C 90.761719,36.050781 82.660156,22.625 71.144531,18.921875 c -2.835937,-0.925781 -5.785156,-1.386719 -8.851562,-1.386719 -5.496094,0 -9.953125,1.503906 -12.324219,2.488282 3.992188,1.792968 8.792969,4.800781 11.804688,9.605468 1.675781,2.601563 1.90625,5.84375 2.195312,8.910156 0.347656,3.820313 0.636719,7.464844 3.300781,9.722657 l 1.039063,0.867187 z m 0,0"
         id="path21" />
      <path style="fill:#452e11;fill-opacity:1;fill-rule:nonzero;stroke:none"
         d="m 78.148438,43.6875 c 0,0 -1.96875,-8.503906 -7.351563,-12.785156 C 63.21875,24.824219 53.902344,28.066406 53.84375,28.121094 l -1.332031,-4.164063 c 0.464843,-0.175781 11.054687,-3.472656 20.832031,3.355469 9.839844,6.886719 10.996094,13.195312 11.109375,13.886719 z m 0,0"
         id="path22" />
      <path style="fill:#452e11;fill-opacity:1;fill-rule:nonzero;stroke:none"
         d="m 77.625,44.671875 -0.171875,-0.808594 c 0,-0.05859 -1.910156,-8.277343 -7.058594,-12.382812 -2.953125,-2.316407 -6.480469,-3.53125 -10.53125,-3.53125 -3.183593,0 -5.5,0.753906 -5.789062,0.867187 l -0.691407,0.230469 -1.796874,-5.554687 0.695312,-0.230469 c 0.289062,-0.117188 3.125,-0.984375 7.117188,-0.984375 5.265624,0 10.242187,1.5625 14.351562,4.457031 10.070312,7.058594 11.339844,13.65625 11.398438,14.351563 l 0.117187,0.578124 z M 59.863281,26.503906 c 4.339844,0 8.273438,1.328125 11.457031,3.816406 4.570313,3.648438 6.710938,10.070313 7.40625,12.386719 l 4.976563,-1.96875 C 83.238281,39 81.273438,33.734375 72.996094,27.890625 69.0625,25.113281 64.492188,23.726562 59.457031,23.726562 c -2.777343,0 -4.917969,0.460938 -5.960937,0.691407 l 0.867187,2.777343 c 0.984375,-0.289062 3.011719,-0.691406 5.5,-0.691406 z M 104.76563,225.85156 c -2.14063,0 -4.33985,-0.8125 -5.902349,-2.08203 -1.15625,-0.98437 -5.09375,-4.63281 -6.828125,-9.08594 -0.636718,-1.67968 -0.519531,-3.01172 0.464844,-3.9375 0.636719,-0.63281 2.023438,-1.44531 4.742188,-1.44531 h 14.699222 c 2.08203,0 3.58593,0.46484 4.45703,1.33203 1.09765,1.15625 0.75,2.54688 0.46094,3.35547 -0.51954,1.33203 -2.77735,5.67188 -6.53907,9.66406 -1.38672,1.38672 -3.35547,2.19922 -5.55468,2.19922 z m -7.464849,20.54297 c -27.71875,-2.14062 -37.4375,-28.29687 -37.4375,-33.73828 h 7.230469 c 0.05859,2.375 7.410156,24.76953 30.785156,26.5625 z m 0,0"
         id="path23" />
      <path style="fill:#ffffff;fill-opacity:1;fill-rule:nonzero;stroke:none"
         d="m 89.546875,199.46484 c -0.40625,-2.48828 -0.460937,-4.86328 0.05859,-7.23437 -2.082031,-1.5625 -5.902344,-2.14063 -8.738281,-3.06641 -2.316407,-1.44531 -14.175782,1.50391 -22.800782,-8.91015 C 47.304688,167.23437 49.5625,159.42187 49.5625,159.42187 c -2.777344,3.06641 -5.441406,1.91016 -9.664062,16.20313 -4.222657,14.29297 1.96875,24.30078 13.539062,34.3125 5.441406,4.74609 13.195312,6.71094 19.792969,7.40625 -2.199219,-2.25391 3.816406,-2.42969 7.925781,-3.99219 -0.347656,-3.35547 0.230469,-6.59765 2.71875,-9.19922 1.503906,-1.5625 3.472656,-2.54687 5.441406,-3.30078 0.113282,-0.23047 0.230469,-0.51953 0.289063,-0.75 0.05859,-0.11719 0,-0.34765 -0.05859,-0.63672 z m 0,0"
         id="path24" />
      <path style="fill:#c7c7c7;fill-opacity:1;fill-rule:nonzero;stroke:none"
         d="m 81.15625,213.35156 c -0.230469,-0.69531 -0.40625,-1.44531 -0.578125,-2.14062 -0.171875,-0.8086 -1.15625,-3.00782 0.05859,-0.46485 -0.289063,-0.63281 -0.523438,-1.32812 -0.636719,-2.02343 -18.691406,0 -35.007812,-12.84766 -31.828125,-39.8711 -2.429687,-3.23828 -5.902344,6.53906 -5.902344,6.53906 0,0 -9.375,27.19922 14.816407,37.73047 8.042968,3.52735 15.160156,6.01563 16.835937,5.03516 3.472656,0.69141 6.65625,-1.73828 7.871094,-3.35938 -0.230469,-0.46093 -0.460938,-0.92578 -0.636719,-1.44531 z m 0,0"
         id="path25" />
      <path style="fill:#452e11;fill-opacity:1;fill-rule:nonzero;stroke:none"
         d="m 89.199219,195.58594 c 0,-2.25391 0.523437,-4.51172 1.621093,-6.71094 0.05859,-0.17578 0.171876,-0.28906 0.230469,-0.46484 -7.175781,-0.0547 -15.507812,-0.75 -22.566406,-3.58594 -7.753906,-3.125 -17.476563,-13.71485 -19.152344,-26.21485 0,0 -14.640625,11.28516 -10.300781,35.41407 4.050781,22.68359 22.972656,30.03515 44.613281,31.30859 0,-0.17578 -2.429687,-5.21094 -1.679687,-8.27734 -12.265625,0.86718 -26.039063,-3.875 -32.632813,-14.75391 C 43.253906,192.28906 44.992188,175.27734 47.480469,172.78906 53.554688,192 75.484375,195.875 89.199219,195.58594 Z m 0,0"
         id="path26" />
      <path style="fill:#452e11;fill-opacity:1;fill-rule:nonzero;stroke:none"
         d="m 91.457031,181.81641 c -3.878906,11.39843 -11.863281,20.65625 -11.863281,20.65625 0,0 10.9375,-0.51954 11.515625,-2.42969 0.464844,-1.44531 9.894535,-23.49219 13.484375,-49.35938 -3.35937,5.61328 -12.789062,30.14844 -13.136719,31.13282 z m 0,0"
         id="path27" />
      <path style="fill:#e68523;fill-opacity:1;fill-rule:nonzero;stroke:none"
         d="m 153.42969,155.48437 21.52734,32.40625 c 1.39063,2.08204 -9.08594,2.19922 -9.08594,2.19922 z m -5.90235,-39.34765 5.78907,14.29297 c 2.19921,5.38281 10.70312,8.04297 10.70312,8.04297 0,0 -4.39844,-4.62891 -4.39844,-16.25782 0,-4.92187 -6.30468,-6.82812 -6.30468,-6.82812 z m 0,0"
         id="path28" />
      <path style="fill:#e68523;fill-opacity:1;fill-rule:nonzero;stroke:none"
         d="m 151.28906,121.46094 c 0,0 7.64063,9.14453 21.875,3.99219 14.23438,-5.09375 15.67969,-23.32032 15.67969,-28.468755 0,-5.09375 -26.96484,5.089845 -30.66797,7.289065 -3.58594,2.19922 -10.53125,10.9375 -6.88672,17.1875 z m 0,0"
         id="path29" />
      <path style="fill:#452e11;fill-opacity:1;fill-rule:nonzero;stroke:none"
         d="m 148.91797,112.78125 7.7539,-0.51953 c 0,0 -1.96875,3.52734 -3.29687,8.04297 -1.44922,5.14844 1.32812,12.61328 1.32812,12.61328 0,0 -10.30078,-11.74609 -5.78515,-20.13672 z m 0,0"
         id="path30" />
      <path style="fill:#e68523;fill-opacity:1;fill-rule:nonzero;stroke:none"
         d="m 205.04687,24.015625 c 0,0 -13.13281,-2.546875 -21.87109,4.398437 -8.73828,6.941407 -11.28516,12.382813 -11.28516,12.382813 l 14.75391,11.6875 c 0,0 7.12109,-3.296875 9.31641,-12.789063 2.14453,-9.488281 0.69531,-13.886718 9.08593,-15.679687 z m -14.8125,99.468755 c 0,0 23.03125,-7.92579 18.69141,-15.96875 -4.39844,-8.042974 -0.86719,-12.382818 -0.86719,-12.382818 0,0 12.84375,9.605468 9.60547,19.789068 -2.02734,6.25 -5.38281,10.82031 -23.95703,19.49999 -8.91406,16.55079 -1.85156,46.29297 -2.25781,46.46875 -0.69531,0.23047 -12.5,-5.84765 -11.6875,-33.67968 0.11328,-8.5625 0.80859,-20.19531 10.47265,-23.72656 z M 160.02734,38.25 l 22.91407,11.746094 -5.20704,2.605468 0.75391,1.273438 -5.32422,2.429688 -21.0625,15.566406 C 154.76172,63.652344 162.57422,50.75 162.57422,50.75 c 0,0 2.19922,-5.902344 -2.54688,-12.5 z m -32.11328,200.15625 c 29.6836,0 39.75391,-15.10156 39.75391,-15.10156 l -4.63281,11.28515 c -1.73438,4.91797 -20.48438,20.07813 -35.06641,20.07813"
         id="path31" />
      <path style="fill:#e68523;fill-opacity:1;fill-rule:nonzero;stroke:none"
         d="m 164.42578,213.12109 c 0,0 -2.71875,16.72266 -13.65625,16.72266 -9.31641,0 -12.03516,-14.12109 -12.03516,-17.01172 z m 18.22656,-25.17187 c -0.98437,-2.66406 -4.39843,-13.48438 -5.49609,-23.32031 -1.33203,-11.80469 -0.80859,-29.05079 -0.80859,-29.05079 0,0 2.89062,11.28516 5.49609,13.13672 2.54687,1.79297 7.28906,14.23438 7.28906,14.23438 l 3.76172,24.65234 c -3.41406,0.63672 -6.19141,-1.33203 -10.24219,0.34766 z M 209.03906,114.75 c 0,0 -6.1914,-2.19922 -8.04297,-15.683594 -1.79297,-13.484375 2.19922,-25.171875 2.19922,-25.171875 0,0 -0.34765,18.574219 1.79297,22.277344 2.19922,3.648437 3.99609,4.746095 6.53906,9.492185 2.60547,4.7461 -1.03906,7.63672 -2.48828,9.08594 z m 0,0"
         id="path32" />
      <path style="fill:#fdbf66;fill-opacity:1;fill-rule:nonzero;stroke:none"
         d="m 201.63281,27.195312 1.27344,-0.808593 c 3.76172,0.117187 -1.27344,0.808593 -1.27344,0.808593 z m 0,0"
         id="path33" />
      <path style="fill:#faa817;fill-opacity:1;fill-rule:nonzero;stroke:none"
         d="m 154.9375,34.257812 c 0,0 5.84375,-0.984374 8.73437,-5.324218 2.89454,-4.398438 11.16797,-13.136719 24.36329,-13.25 13.19531,-0.117188 26.21484,3.527344 26.21484,3.527344 l -11.40234,7.175781 c -1.21485,-0.05859 -3.29688,0 -6.76954,0.117187 -14.23437,0.460938 -16.43359,14.582032 -16.43359,14.582032 l -50.34375,-6.945313"
         id="path34" />
      <path style="fill:#ffffff;fill-opacity:1;fill-rule:nonzero;stroke:none"
         d="m 150.07422,112.31641 c 0,0 6.82812,6.82812 17.24609,4.6289 10.47266,-2.19531 16.78125,-6.82812 17.24219,-14.8125 0.46484,-8.042966 -2.19922,-11.167966 -2.19922,-11.167966 0,0 -11.6875,3.644531 -17.24219,8.507812 -5.55468,4.800784 -9.66406,12.613284 -15.04687,12.843754 z m 0,0"
         id="path35" />
      <path style="fill:#c7c7c7;fill-opacity:1;fill-rule:nonzero;stroke:none"
         d="m 158.35156,109.88672 c 0,0 5.90235,2.71875 12.4961,0.52344 8.625,-2.89453 9.20312,-11.863285 9.20312,-11.863285 0,0 5.32422,15.566405 -9.55078,18.574215 -11.91797,2.3711 -18.97656,-4.51562 -18.97656,-4.51562 z m 0,0"
         id="path36" />
      <path style="fill:#452e11;fill-opacity:1;fill-rule:nonzero;stroke:none"
         d="M 196.94531,51.269531 C 201.75,47.277344 198.16016,43.574219 198.56641,39 c 0.23046,-2.429688 0.40625,-4.683594 1.21484,-5.957031 4.45703,-7.003907 14.87109,-9.144531 14.98828,-9.144531 l 4.91797,-0.984376 -3.23828,-3.816406 C 216.04297,18.632812 202.67578,5.902344 182.01562,12.558594 167.55078,17.242188 156.90234,32.984375 156.5,33.679688 l 7.23047,3.414062 c 0.11719,-0.117188 8.5664,-14.988281 20.94922,-18.980469 10.01172,-3.242187 19.26953,-0.175781 23.20312,1.851563 -4.22265,1.675781 -9.72265,4.742187 -13.01953,9.953125 -1.5625,2.488281 -1.85156,5.554687 -2.08203,8.5625 -0.34766,3.992187 -0.63672,7.753906 -3.58984,10.183593 z m 0,0"
         id="path37" />
      <path style="fill:#452e11;fill-opacity:1;fill-rule:nonzero;stroke:none"
         d="m 209.79297,109.65625 c 0,0 -6.07813,-7.52344 -7.8711,-22.164062 -0.6914,-5.785157 0.52344,-17.128907 2.54688,-21.523438 -0.34766,10.761719 2.37109,21.523438 2.37109,21.523438 0,0 1.85157,19.964842 2.95313,22.164062 z m 0,0"
         id="path38" />
      <path style="fill:#452e11;fill-opacity:1;fill-rule:nonzero;stroke:none"
         d="m 177.79297,43.6875 c 0,0 1.96875,-8.503906 7.34765,-12.785156 7.58204,-6.078125 16.89844,-2.835938 16.95704,-2.78125 l 1.32812,-4.164063 C 202.96484,23.78125 192.375,20.484375 182.59375,27.3125 c -9.83594,6.886719 -10.99219,13.195312 -11.10938,13.886719 z m 0,0"
         id="path39" />
      <path style="fill:#452e11;fill-opacity:1;fill-rule:nonzero;stroke:none"
         d="m 190.75391,104.21484 c 0,0 3.18359,-4.570309 2.60546,-9.546871 -0.28906,-2.488281 -1.44531,-5.035157 -3.47265,-5.902344 -3.82031,-1.675781 -5.4961,2.664063 -5.4961,2.664063 0,0 5.32422,1.273437 6.36329,12.785152 z m 0,0"
         id="path40" />
      <path style="fill:#452e11;fill-opacity:1;fill-rule:nonzero;stroke:none"
         d="m 155.80469,111.16016 c -0.11719,0.23047 -0.17578,0.40625 -0.17578,0.40625 0,0 9.95312,7.46484 20.08203,-0.11719 5.4375,-4.05078 4.91797,-14.062501 3.23828,-18.343751 -4.33985,0.984375 -8.04297,2.777343 -11.10938,4.804687 3.87891,-3.472656 7.29297,-6.019531 7.29297,-6.078125 l 4.39453,-1.273437 8.56641,-2.949219 c 0.11328,0.636719 3.23828,15.335935 -5.78906,25.343755 -3.99219,4.45703 -22.79688,14.35156 -31.70703,-2.60157 z m 0,0"
         id="path41" />
      <path style="fill:#faa817;fill-opacity:1;fill-rule:nonzero;stroke:none"
         d="m 137.28516,106.9375 4.33984,2.71875 37.96094,-18.75 19.26953,-5.265625 -4.6875,-25.574219 -56.12891,30.839844 -8.73828,6.597656"
         id="path42" />
      <path style="fill:#e68523;fill-opacity:1;fill-rule:nonzero;stroke:none"
         d="m 155.16797,95.074219 c 5.67187,-8.042969 14.98828,-11.515625 22.39453,-12.09375 12.67187,-0.984375 18.69141,3.472656 18.69141,3.472656 0,0 -20.77735,0.867187 -26.73438,8.738281 -11.16797,14.636724 -27.42969,15.796874 -29.97656,12.613284 3.00781,0.17187 6.30859,-1.33203 9.83594,-4.6875 2.19921,-2.08203 3.99609,-5.496096 5.78906,-8.042971 z m 0,0"
         id="path43" />
      <path style="fill:#452e11;fill-opacity:1;fill-rule:nonzero;stroke:none"
         d="m 156.73047,112.26172 c -5.61328,8.50391 -19.67578,3.64453 -19.44531,-5.32422 0,0 9.43359,5.20703 17.76562,-4.39844 4.86328,-5.613279 20.42578,-21.00781 41.54688,-15.91406 -14.58204,3.242188 -33.90625,16.55078 -39.86719,25.63672 z m 0,0"
         id="path44" />
      <path style="fill:#452e11;fill-opacity:1;fill-rule:nonzero;stroke:none"
         d="m 198.56641,136.27344 c -1.33204,0.7539 -6.07422,5.67187 -6.07422,13.01953 0,3.70312 0.34765,22.22265 2.19922,33.5039 -2.72266,1.79688 -4.63282,2.14454 -7.41016,3.9961 -1.38672,-13.07813 -2.37109,-32.0586 -1.90625,-39.75391 0.51953,-8.73828 5.20703,-14.58203 9.54687,-17.07031 l 4.22266,-2.31641 c 7.40625,-3.99218 15.10547,-8.16015 15.10547,-15.27734 0,-5.55469 -2.14453,-7.28906 -4.45703,-9.14062 l -0.23047,-0.17579 c -1.50391,-1.21484 -3.24219,-2.60156 -4.22656,-4.917965 -2.77735,-6.25 -3.23828,-22.105469 0,-26.15625 1.62109,-2.023437 5.90234,-8.738281 4.6875,-13.308594 -0.46094,-1.734375 -1.5625,-3.007812 -3.35547,-3.933593 -1.85156,-0.984376 -4.39844,-1.449219 -7.52344,-1.449219 -6.13281,0 -12.96094,1.851562 -16.43359,3.011719 -12.55469,3.992187 -27.71875,15.449218 -32.0586,18.863281 -0.11328,0.117187 -0.17187,0.171875 -0.23047,0.171875 l -2.77734,1.910156 1.73438,-2.890625 c 0.11718,-0.175781 11.11328,-18.289063 30.78515,-24.882813 3.82031,-1.273437 11.34375,-3.472656 18.75,-3.472656 4.39844,0 8.10156,0.75 11.10938,2.257813 3.58984,1.851562 6.01953,4.800781 7.05859,8.503906 2.48828,9.085937 -5.60937,19.269531 -5.90234,19.558594 -0.92578,1.679687 -1.32813,13.890625 0.8125,18.808593 0.28906,0.691407 1.09765,1.328126 2.14062,2.199219 0.34766,0.289063 0.69531,0.519531 1.09766,0.808594 3.07031,2.316405 7.69922,5.843755 7.69922,13.886715 0,11.05469 -11.22657,17.07032 -20.19532,21.875 -1.5039,0.92578 -2.89453,1.67578 -4.16796,2.3711 z m 0,0"
         id="path45" />
      <path style="fill:#452e11;fill-opacity:1;fill-rule:nonzero;stroke:none"
         d="m 185.19922,49.996094 c -1.79297,-3.007813 -6.36328,-8.851563 -16.83985,-13.945313 -11.74609,-5.730469 -25.28515,-8.621093 -40.33203,-8.621093 h -0.0586 c -15.04297,0 -28.640625,2.890624 -40.332031,8.621093 -10.53125,5.148438 -15.042969,10.9375 -16.839844,13.945313 l -0.75,1.042968 8.96875,2.023438 0.289063,-0.347656 0.171874,-0.347656 c 0.117188,-0.578126 1.332032,-3.816407 11.402344,-8.679688 10.703124,-5.207031 23.203124,-7.867188 37.148434,-7.867188 13.94532,0 26.44532,2.660157 37.15235,7.867188 10.00781,4.921875 11.22265,8.101562 11.39843,8.679688 l 0.11719,0.289062 0.28906,0.347656 9.02735,-2.023437 z m 0,0"
         id="path46" />
      <path style="fill:#452e11;fill-opacity:1;fill-rule:nonzero;stroke:none"
         d="M 196.94531,51.269531 C 201.75,47.277344 198.16016,43.574219 198.56641,39 c 0.23046,-2.429688 0.40625,-4.683594 1.21484,-5.957031 4.45703,-7.003907 14.87109,-9.144531 14.98828,-9.144531 l 4.91797,-0.984376 -3.23828,-3.816406 C 216.04297,18.632812 202.67578,5.902344 182.01562,12.558594 167.55078,17.242188 156.90234,32.984375 156.5,33.679688 l 7.23047,3.414062 c 0.11719,-0.117188 8.5664,-14.988281 20.94922,-18.980469 10.01172,-3.242187 19.26953,-0.175781 23.20312,1.851563 -4.22265,1.675781 -9.72265,4.742187 -13.01953,9.953125 -1.5625,2.488281 -1.85156,5.554687 -2.08203,8.5625 -0.34766,3.992187 -0.63672,7.753906 -3.58984,10.183593 z m 0,0"
         id="path47" />
      <path style="fill:#452e11;fill-opacity:1;fill-rule:nonzero;stroke:none"
         d="m 187.6875,49.011719 1.04297,-0.867188 c 2.71875,-2.257812 3.00781,-5.84375 3.29687,-9.722656 0.28907,-3.066406 0.51953,-6.304687 2.19922,-8.910156 3.06641,-4.804688 7.8711,-7.8125 11.80469,-9.605469 -2.37109,-0.984375 -6.82813,-2.488281 -12.32422,-2.488281 -3.06641,0 -6.01953,0.460937 -8.85547,1.386719 -11.51562,3.707031 -19.61719,17.128906 -20.54297,18.691406 l -0.34765,0.523437 -8.5625,-4.050781 0.46484,-0.695312 c 0.11328,-0.175782 10.87891,-16.550782 25.92188,-21.410157 4.05078,-1.332031 8.10156,-1.96875 12.03515,-1.96875 14.52735,0 23.08985,8.621094 23.14844,8.738281 l 4.05078,4.746094 -6.13281,1.273438 c -0.11719,0 -10.30078,2.140625 -14.52735,8.792968 -0.6914,1.101563 -0.86718,3.300782 -1.09765,5.613282 -0.11719,1.390625 0.17187,2.71875 0.46094,4.050781 0.63671,2.835937 1.27343,5.730469 -2.3125,8.738281 l -0.28907,0.230469 z m 0,0"
         id="path48" />
      <path style="fill:#452e11;fill-opacity:1;fill-rule:nonzero;stroke:none"
         d="m 177.79297,43.6875 c 0,0 1.96875,-8.503906 7.34765,-12.785156 7.58204,-6.078125 16.89844,-2.835938 16.95704,-2.78125 l 1.32812,-4.164063 C 202.96484,23.78125 192.375,20.484375 182.59375,27.3125 c -9.83594,6.886719 -10.99219,13.195312 -11.10938,13.886719 z m 0,0"
         id="path49" />
      <path style="fill:#452e11;fill-opacity:1;fill-rule:nonzero;stroke:none"
         d="m 170.67578,41.664062 0.0586,-0.578124 c 0.11329,-0.695313 1.32813,-7.292969 11.39844,-14.351563 4.16797,-2.894531 9.14453,-4.457031 14.35156,-4.457031 3.99219,0 6.82813,0.867187 7.11719,0.984375 l 0.69531,0.230469 -1.79687,5.554687 -0.69141,-0.230469 c -0.28906,-0.113281 -2.60547,-0.867187 -5.78906,-0.867187 -4.05078,0 -7.57812,1.214843 -10.53125,3.53125 -5.14844,4.105469 -7.05859,12.324219 -7.05859,12.382812 l -0.17578,0.808594 z m 30.95703,-14.46875 0.92578,-2.777343 c -1.03906,-0.289063 -3.18359,-0.691407 -5.96093,-0.691407 -5.03125,0 -9.60547,1.386719 -13.53907,4.164063 -8.27343,5.84375 -10.24218,11.054687 -10.70703,12.847656 l 4.97656,1.96875 c 0.63672,-2.316406 2.78125,-8.738281 7.41016,-12.386719 3.17969,-2.488281 7.11719,-3.816406 11.45703,-3.816406 2.42969,0 4.39844,0.402344 5.4375,0.691406 z M 145.67578,223.59375 c -3.76172,-3.99219 -5.95703,-8.33203 -6.53906,-9.66406 -0.28906,-0.75 -0.63672,-2.19922 0.46484,-3.35547 0.86719,-0.86719 2.3711,-1.33203 4.45703,-1.33203 h 14.69532 c 2.71875,0 4.10937,0.8125 4.74609,1.44922 0.92578,0.92578 1.09766,2.2539 0.46094,3.93359 -1.73438,4.45703 -5.66797,8.04297 -6.82813,9.08594 -1.5039,1.32812 -3.70312,2.08203 -5.90234,2.08203 -2.25391,0.0586 -4.22266,-0.75391 -5.55469,-2.19922 z m 0,0"
         id="path50" />
      <path style="fill:#e68523;fill-opacity:1;fill-rule:nonzero;stroke:none"
         d="m 127.96875,85.003906 c -4.97656,0 -11.39844,-0.113281 -16.25781,-3.644531 0,0 6.36328,11.109375 16.25781,11.109375 v -1.386719 1.386719 c 9.89844,0 16.26172,-11.109375 16.26172,-11.109375 -4.80469,3.472656 -11.28516,3.644531 -16.26172,3.644531 z m 0,0"
         id="path51" />
      <path style="fill:#452e11;fill-opacity:1;fill-rule:nonzero;stroke:none"
         d="m 141.625,84.949219 c -4.97656,3.007812 -9.42969,4.046875 -13.65625,4.164062 -4.22266,-0.117187 -8.67969,-1.15625 -13.65625,-4.164062 0,0 7.23438,8.851562 13.60156,8.910156 h 0.11328 c 6.36719,-0.05859 13.59766,-8.910156 13.59766,-8.910156 z m 17.01562,161.445311 -0.58203,-7.23437 c 23.37891,-1.79297 30.73047,-24.1875 30.78516,-26.5586 h 7.23437 c 0,5.4961 -9.72265,31.65235 -37.4375,33.79297 z m 0,0"
         id="path52" />
      <path style="fill:#ffffff;fill-opacity:1;fill-rule:nonzero;stroke:none"
         d="m 166.44922,199.46484 c 0.46484,-2.48828 0.46484,-4.86328 -0.0547,-7.23437 2.08203,-1.5625 5.90234,-2.14063 8.73828,-3.06641 2.3125,-1.44531 14.17578,1.50391 22.79688,-8.91015 10.76172,-13.01954 8.50781,-20.83204 8.50781,-20.83204 2.77734,3.06641 5.4375,1.91016 9.66406,16.20313 4.22266,14.29297 -1.96875,24.30078 -13.54297,34.3125 -5.4375,4.74609 -13.1914,6.71094 -19.78906,7.40625 2.19922,-2.25391 -3.82031,-2.42969 -7.92969,-3.99219 0.34766,-3.35547 -0.23047,-6.59765 -2.71875,-9.19922 -1.5039,-1.5625 -3.47265,-2.54687 -5.4375,-3.30078 -0.11718,-0.23047 -0.23437,-0.51953 -0.28906,-0.75 -0.0586,-0.11719 0,-0.34765 0.0547,-0.63672 z m 0,0"
         id="path53" />
      <path style="fill:#c7c7c7;fill-opacity:1;fill-rule:nonzero;stroke:none"
         d="m 174.78516,213.35156 c 0.23046,-0.69531 0.40234,-1.44531 0.57812,-2.14062 0.17188,-0.8086 1.15625,-3.00782 -0.0586,-0.46485 0.28906,-0.63281 0.51953,-1.32812 0.63672,-2.02343 18.6914,0 35.00781,-12.84766 31.82421,-39.8711 2.4336,-3.23828 5.90235,6.53906 5.90235,6.53906 0,0 9.375,27.19922 -14.8125,37.73047 -8.04297,3.52735 -15.16016,6.01563 -16.83985,5.03516 -3.52734,0.69141 -6.65234,-1.73828 -7.86718,-3.35938 0.28906,-0.46093 0.46093,-0.92578 0.63672,-1.44531 z m 0,0"
         id="path54" />
      <path style="fill:#452e11;fill-opacity:1;fill-rule:nonzero;stroke:none"
         d="m 166.74219,195.58594 c 0,-2.25391 -0.52344,-4.51172 -1.6211,-6.71094 -0.0586,-0.17578 -0.17578,-0.28906 -0.23047,-0.46484 7.17188,-0.0547 15.50782,-0.75 22.56641,-3.58594 7.75391,-3.125 17.47656,-13.71485 19.15234,-26.21485 0,0 14.64063,11.28516 10.30079,35.41407 -4.05079,22.68359 -23.03125,30.03515 -44.61329,31.30859 0,-0.17578 2.42969,-5.21094 1.67579,-8.27734 12.26953,0.86718 26.03906,-3.875 32.63671,-14.75391 6.07813,-10.01172 4.33985,-27.02344 1.85157,-29.51172 C 202.38672,192 180.51172,195.875 166.74219,195.58594 Z m 0,0"
         id="path55" />
      <path style="fill:#452e11;fill-opacity:1;fill-rule:nonzero;stroke:none"
         d="M 175.47656,201.25781 C 172.875,198.48047 168.12891,195.125 157.19141,195.125 H 98.746094 c -10.933594,0 -15.679688,3.35547 -18.285156,6.13281 -3.761719,4.05078 -4.339844,9.72266 -1.734376,16.78125 C 85.671875,236.84375 95.390625,256 127.96875,256 h 0.11719 c 32.57812,0 42.30078,-19.15625 49.24218,-37.96094 2.54688,-7.05859 1.96875,-12.73047 -1.85156,-16.78125 z m -5.03125,15.44922 c -3.30078,9.43359 -12.15234,32.34766 -42.47656,32.34766 -30.261719,-0.0586 -39.175781,-22.91407 -42.472656,-32.34766 -1.851563,-5.26562 -1.675782,-9.14062 0.40625,-11.51562 1.445312,-1.61719 4.746094,-3.58594 12.324218,-3.58594 h 59.371098 c 7.58203,0 10.8789,1.96875 12.32421,3.58594 2.19922,2.43359 2.31641,6.30859 0.52344,11.51562 z m 0,0"
         id="path56" />
      <path style="fill:#452e11;fill-opacity:1;fill-rule:nonzero;stroke:none"
         d="m 164.48437,181.81641 c 3.875,11.39843 11.86329,20.65625 11.86329,20.65625 0,0 -10.9375,-0.51954 -11.51563,-2.42969 -0.46484,-1.44531 -9.89453,-23.49219 -13.48437,-49.35938 3.35546,5.61328 12.84765,30.14844 13.13671,31.13282 z m 0,0"
         id="path57" />
   </g>
</svg>