<svg width="256px" height="256px" viewBox="0 0 256 256" xmlns="http://www.w3.org/2000/svg"
  xmlns:svg="http://www.w3.org/2000/svg">
  <rect width="256" height="256" rx="60" fill="#242938" id="rect1" />
  <defs id="defs2">
    <radialGradient id="radial0" gradientUnits="userSpaceOnUse" cx="152.679993" cy="13.47" fx="152.679993" fy="13.47"
      r="144.589996" gradientTransform="matrix(1.092521,0,0,1.108546,-36.165353,23.353536)">
      <stop offset="0" style="stop-color:rgb(18.431373%,20%,96.470588%);stop-opacity:1;" id="stop1" />
      <stop offset="1" style="stop-color:rgb(40%,38.823529%,71.372549%);stop-opacity:1;" id="stop2" />
    </radialGradient>
  </defs>
  <g id="surface1" transform="matrix(0.9175904,0,0,0.86601149,10.526497,56.587417)">
    <path style="fill:#07029c;fill-opacity:1;fill-rule:nonzero;stroke:none"
      d="m 227.76172,52.261719 c 7.26953,1.132812 3.97265,20.253906 -6.21485,39.476562 l -15.83984,-6.867187 c 4.46875,-14.648438 17.38281,-33.347656 22.05469,-32.609375 z m -45.65235,-2.359375 c 0.25782,-0.9375 3.75,-16.8125 3.75,-16.8125 l -25.85546,35.355468 c 0,0 -0.375,3.402344 -1.625,12.40625 -0.98438,7.050782 -0.81641,13.351563 1.01562,18.136719 6.61328,17.289059 20.875,9.785159 29.73047,-0.558593 0,0 -15.18359,53.945312 -9.96094,63.148432 1.78125,3.13282 10.27735,4.08594 12.38281,0.32422 l 4.42579,-7.82031 -6.89063,-6.5 c 0,0 6.58984,-29.02734 10.5625,-46.34765 4.64063,10.99218 22.98828,10.44921 34.13672,-6.308599 5.16406,-7.761719 10.76172,-18.324219 10.76172,-18.324219 l -3.39063,-49.066406 -29.87109,28.417969 8.10937,-44.320313 -4.48828,-0.847656 c -9.11718,19.953125 -17.75781,49.695313 -20.44531,65.699219 L 168.96875,93.636719 C 170.24609,84.339844 178.47266,63.5 182.10937,49.902344 Z m -7.25781,-35.753906 c 0,0 -2.64844,16.3125 -2.91015,18.023437 -0.94532,5.878906 4.82812,7.03125 10.30468,5.964844 4.01563,-0.78125 6.8086,-4.515625 7.4336,-7.984375 0.33203,-1.800782 4.41015,-18.714844 4.41015,-18.714844 z M 90.292969,89.320312 c 0,0 3.066406,11.863278 3.289062,12.816408 0.53125,2.24219 3.046875,4.67969 4.964844,7.00781 6.679685,8.12891 23.144535,-5.0664 40.660155,-6.16406 1.50781,-0.0977 2.23438,-1.29688 2.29688,-2.75 l 0.53906,-12.828126 -31.39844,9.617187 49.58203,-48.535156 c 1.06641,-1.105469 1.73047,-2.539063 1.88281,-4.070313 0.44532,-3.898437 2.19141,-17.601562 2.19141,-17.601562 l -54.53906,2.386719 c 0,0 1.75781,16.1875 1.84375,17.15625 0.19531,2.015625 2.80859,4.488281 5.99219,4.214843 L 137.1875,48.886719 Z M 47.964844,75.125 C 55.207031,62.847656 65.636719,50.835938 71.167969,54.238281 L 38.683594,98.652344 c 0.02344,-5.546875 3.75,-14.132813 9.28125,-23.527344 z M 20.394531,146.32812 6.542969,144.15625 c 0,0 9.722656,9.05078 10.734375,9.78906 3.792968,2.7461 10.09375,4.35938 15.617187,4.32813 C 48.453125,158.1875 56.125,153.83203 61.851562,146.53516 69.875,136.33594 70.5,112.62891 77.324219,92.039062 81.128906,80.597656 85.566406,69.375 90.609375,58.425781 91.371094,56.785156 91.59375,55.335938 91.320312,54.109375 90.515625,50.519531 87.84375,37.476562 87.84375,37.476562 L 53.519531,33.800781 23.886719,93.671875 c 0,0 1.386719,3.539063 9.007812,13.718755 1.859375,2.49218 4.605469,4.20703 8.339844,4.94531 9.375,1.86328 17.15625,-11.45313 24.589844,-20.484378 C 54.90625,128.01562 44.691406,151.26562 20.402344,146.34766 Z m 0,0"
      id="path2" />
    <path style="fill:url(#radial0);fill-rule:nonzero;stroke:none"
      d="m 235.13281,35.632812 c 7.89453,-0.757812 5.42188,22.183594 -5.5625,42.929688 -5.26562,9.941406 -18.4414,13.046875 -21.83203,-0.542969 4.80859,-15.796875 18.57813,-41.546875 27.39453,-42.386719 z m -49.27344,-2.542968 c 0.27735,-1.011719 0.61719,-7.261719 -8.62109,-4.25 -3.19141,1.039062 -6.55859,2.523437 -8.01953,6.226562 -7.55469,19.007813 -12.375,39.226563 -7.87891,51 7.14063,18.656254 22.53516,10.542969 32.08985,-0.613281 0,0 -14.59766,60.515625 -10.7461,68.148435 1.90235,3.76172 12.64844,4.56641 13.77735,-0.76562 0.375,-1.80078 -2.76563,-4.37891 -2.27735,-7.73438 2.77344,-19.00781 6.3086,-37.89453 10.59766,-56.617185 7.32031,17.343755 46.32031,8.082031 46.32031,-43.710937 0,-13.410157 -6.78906,-21.910157 -14.42578,-21.910157 -6.91797,0 -11.65234,5.683594 -19.33203,16.742188 l 7.875,-26.246094 c 0.59375,-1.984375 0.71094,-4.09375 -2.42188,-5.613281 -3.33203,-1.625 -7.13281,0.546875 -8.14062,3.691406 -5.5,17.042969 -11.45703,33.285156 -15.47266,50.335938 -7.77343,11.050781 -19.23047,32.15625 -27.08984,23.21875 -3.42578,-3.890626 8.9375,-33.820313 13.76562,-51.902344 z m 7.21094,-26.4375 c 3.04688,3.832031 -0.48047,12.453125 -7.0625,13.738281 -5.91015,1.152344 -12.14062,-0.09375 -11.13281,-6.4375 C 176.15234,6 189.96094,2.757812 193.07031,6.652344 Z M 147.47656,31.125 c -18.80078,18.414062 -37.15625,31.285156 -56.50781,55.378906 -2.5,3.117188 1.765625,6.9375 4.710938,10.515625 7.207032,8.777349 24.972652,-5.46875 43.878902,-6.652343 3.375,-0.214844 3.10938,-5.539063 0.42969,-7.726563 -5.04297,-4.121094 -20.57422,0.554687 -31.2539,1.285156 l 53.51171,-52.371093 c 3.74219,-3.660157 3.35938,-13.636719 -8.98828,-13.308594 -14.94922,0.402344 -29.34375,4.472656 -41.73828,8.585937 -4.10937,1.363281 -0.3789,7.417969 4.71485,6.980469 z M 41.097656,60.316406 C 48.90625,47.058594 60.164062,34.113281 66.140625,37.777344 73.761719,42.457031 63.769531,58.367188 57.363281,68.6875 46.019531,86.949219 39.042969,94.726562 33.820312,91.652344 27.800781,88.117188 32.363281,75.144531 41.097656,60.316406 Z M 11.34375,137.16016 C 7.320312,131.87891 2.183594,138 5.351562,142.73828 8.375,147.26562 17.277344,150.08203 24.828125,150.03906 41.621094,149.93359 49.898438,145.24609 56.082031,137.375 64.734375,126.35938 65.414062,100.78125 72.777344,78.5625 76.882812,66.210938 81.671875,54.101562 87.117188,42.285156 90.351562,35.296875 84.558594,31.484375 72.5625,33.699219 61.5,23.394531 52.320312,23.566406 41.953125,36.917969 20.34375,64.753906 13.269531,96.375 33.820312,100.45313 c 10.121094,2.01171 18.519532,-12.363286 26.539063,-22.105474 -5.5625,26.484374 -10.804687,53.031254 -14.554687,56.664064 -7.617188,7.36719 -28.902344,9.4375 -34.460938,2.14844 z m 0,0"
      id="path3" />
  </g>
</svg>