<svg xmlns="http://www.w3.org/2000/svg" xmlns:xlink="http://www.w3.org/1999/xlink" width="256px" height="256px" viewBox="0 0 256 256" version="1.1">
    <title>Hindi</title>
<rect width="256" height="256" fill="#242938" rx="60" id="rect1" />
<g id="surface1">
<path style=" stroke:none;fill-rule:nonzero;fill:#f2f4ed;fill-opacity:1;" d="M 213.566406 32 L 160.234375 32 C 154.34375 32 149.566406 36.777344 149.566406 42.667969 C 149.566406 48.558594 154.34375 53.332031 160.234375 53.332031 L 176.234375 53.332031 L 176.234375 117.332031 L 123.433594 117.332031 C 130.492188 108.152344 134.335938 96.910156 134.375 85.332031 C 134.375 61.195312 118.160156 40.066406 94.84375 33.816406 C 71.53125 27.570312 46.925781 37.761719 34.855469 58.667969 C 32.925781 61.96875 32.910156 66.046875 34.816406 69.363281 C 36.722656 72.675781 40.253906 74.71875 44.078125 74.710938 C 47.902344 74.707031 51.425781 72.652344 53.324219 69.332031 C 61.085938 55.882812 77.386719 49.949219 91.980469 55.257812 C 106.578125 60.566406 115.25 75.589844 112.554688 90.886719 C 109.859375 106.179688 96.574219 117.332031 81.042969 117.332031 C 75.152344 117.332031 70.375 122.109375 70.375 128 C 70.375 133.890625 75.152344 138.667969 81.042969 138.667969 C 96.570312 138.667969 109.855469 149.820312 112.550781 165.113281 C 115.246094 180.40625 106.570312 195.425781 91.976562 200.738281 C 77.386719 206.046875 61.085938 200.113281 53.324219 186.667969 C 50.367188 181.585938 43.859375 179.855469 38.769531 182.792969 C 33.683594 185.734375 31.929688 192.234375 34.855469 197.332031 C 46.921875 218.238281 71.527344 228.429688 94.84375 222.183594 C 118.160156 215.933594 134.375 194.804688 134.375 170.667969 C 134.335938 159.089844 130.492188 147.847656 123.433594 138.667969 L 176.234375 138.667969 L 176.234375 213.332031 C 176.234375 219.222656 181.011719 224 186.902344 224 C 192.792969 224 197.566406 219.222656 197.566406 213.332031 L 197.566406 53.332031 L 213.566406 53.332031 C 219.460938 53.332031 224.234375 48.558594 224.234375 42.667969 C 224.234375 36.777344 219.460938 32 213.566406 32 Z M 213.566406 32 "/>
</g>
</svg>
