<svg width="256px" height="256px" viewBox="0 0 256 256" xmlns="http://www.w3.org/2000/svg"
    xmlns:svg="http://www.w3.org/2000/svg">
    <title>Homebrew</title>
    <rect width="256" height="256" fill="#242938" rx="60" id="rect1" />
    <g id="surface1" transform="matrix(0.87254931,0,0,0.91559043,16.970592,11.10786)">
        <path style="fill:#cfd1d1;fill-opacity:1;fill-rule:nonzero;stroke:none"
            d="m 171.53516,84.855469 c 0.69921,-18.285157 -3.91797,-25.664063 -7.38282,-30.941407 -3.51953,-4.925781 -11.95703,-12.660156 -22.32422,-12.984374 -9.80468,-0.304688 -12.16406,5.113281 -21.21093,5.441406 -1.48047,-16.472656 10.94922,-25.511719 10.94922,-25.511719 0,0 -3.39844,-4.804687 -6.21094,-5.976563 -3.23828,2.875 -10.99609,11.136719 -12.65234,22.226563 -1.75,-16.335937 -9.91407,-26.78125 -28.019536,-34.0625 -5.144532,17.988281 11.835937,34.792969 22.867186,41.429687 -5.84765,-1.964843 -10.921874,-4.558593 -17.73828,-3.21875 -11.910156,2.34375 -21.730469,9.546876 -27.324219,25.347657 -5.59375,15.800781 1.976563,34.238281 3.621094,39.503911 1.648437,5.26953 13.828125,27.65234 23.375,30.94531 9.542969,3.29297 9.546875,1.80859 14.652345,-0.16407 5.10156,-1.97265 12.83594,-5.59765 24.19922,-1.48046 11.35156,4.11328 12.83203,5.10156 19.91015,0.49218 7.08203,-4.60547 16.29688,-18.92578 18.4336,-23.04296 2.14062,-4.11329 3.29297,-6.25391 3.95312,-8.39454 0.82422,-6.261715 0.26953,-3.21875 0.90235,-19.609371"
            id="path1" />
        <path style="fill:#fdfdfd;fill-opacity:1;fill-rule:nonzero;stroke:none"
            d="m 172.21484,110.16016 v 8.9414 c 0,2.09375 1.69922,3.79297 3.79297,3.79297 h 14.07031 c 4.52344,0 8.86329,1.80078 12.06641,5 3.19922,3.20313 5,7.54297 5,12.06641 l -0.004,41.23828 c 0,0.45703 0,0.91797 0,1.37109 v 9.28906 c 0,0.42579 0,0.84766 0,1.26563 v 4.88281 c 0,0.39063 0,0.78125 0,1.16406 v 2.26172 c 0,4.53907 -1.80468,8.88672 -5.01953,12.08985 -3.21484,3.19922 -7.57031,4.99218 -12.10937,4.97656 -4.75391,0.0117 -9.75391,0.004 -13.92578,-0.0547 -1.01953,-0.0195 -2.00391,0.36719 -2.73438,1.08203 -0.72656,0.71485 -1.13672,1.69141 -1.13672,2.70703 V 226.75 c 0,0.18359 0,0.36719 0,0.55078 v 2.24219 c 0,0.1914 0,0.3789 0,0.5664 l -0.004,1.125 c 0,3.17579 -0.004,6.1836 -0.0117,7.9961 0,1.12109 -0.5,2.1875 -1.36719,2.90625 -4.34375,3.28125 -19.53125,10.55859 -53.49609,10.55859 -33.265628,0 -49.105471,-5.43359 -54.050784,-8.29687 -1.089844,-0.69141 -1.75,-1.89844 -1.753906,-3.1875 -0.01563,-7.375 -0.07031,-33.63282 -0.128906,-60.72657 l -0.0078,-3.69531 c -0.06641,-31.44922 -0.132812,-62.92578 -0.140625,-66.32422 v -0.30468 z m 16.82032,27.92968 h -12.08204 c -1.17187,0 -2.30078,0.4375 -3.16796,1.21485 l -0.17969,0.17187 c -0.83203,0.83203 -1.32031,1.9375 -1.38281,3.10547 l -0.008,0.25 V 198 c 0,1.17187 0.4375,2.30078 1.21485,3.16797 l 0.17578,0.18359 c 0.82812,0.82813 1.93359,1.32031 3.09765,1.37891 l 0.25,0.008 h 12.08204 c 1.17187,0 2.30078,-0.43359 3.16796,-1.21484 l 0.1836,-0.17188 c 0.82812,-0.83203 1.32031,-1.9375 1.3789,-3.10156 l 0.008,-0.25 v -55.16797 c 0,-1.17578 -0.4336,-2.30078 -1.21485,-3.17187 l -0.17187,-0.1836 c -0.83203,-0.82812 -1.9375,-1.32031 -3.10156,-1.38281 z m 0,0"
            id="path2" />
        <path style="fill:#faae3f;fill-opacity:1;fill-rule:nonzero;stroke:none"
            d="m 72.191406,109.0625 v 117.55859 c 0,1.35547 0.722656,2.60938 1.898438,3.28516 4.800781,2.28906 18.71875,7.74609 43.128906,7.74609 24.56641,0 38.07422,-6.63281 42.59766,-9.36718 1.07812,-0.69532 1.73046,-1.89454 1.73046,-3.17579 0.008,-15.58984 0.008,-116.04687 0.008,-116.04687 z m 0,0"
            id="path3" />
        <path style="fill:#ffd994;fill-opacity:1;fill-rule:nonzero;stroke:none"
            d="m 85.328125,123.71484 c 2.800781,0 5.089844,2.1875 5.25,4.94922 l 0.0078,0.3086 v 90.84765 c 0,2.90625 -2.351563,5.26172 -5.257813,5.26172 -2.800781,0 -5.089844,-2.19141 -5.25,-4.94922 l -0.01172,-0.3125 v -90.84765 c 0,-2.90235 2.355469,-5.25782 5.261719,-5.25782"
            id="path4" />
        <path style="fill:#fdfdfd;fill-opacity:1;fill-rule:nonzero;stroke:none"
            d="m 135.82031,133.1875 c 0,-1.89844 -1.11719,-4.16406 -2.94922,-5.30078 -2.98437,-1.80078 -5.3164,-4.57031 -6.58203,-7.86719 -24.26562,0.81641 -46.410154,-3.44531 -57.57031,-6.45312 -2.863281,-0.8125 -5.765625,-1.48828 -8.695312,-2.01953 -6.675782,-1.32422 -11.75,-7.19141 -11.75,-14.238286 0,-7.761719 6.15625,-14.066406 13.847656,-14.34375 1.484375,-8.207032 8.648437,-14.4375 17.285156,-14.4375 9.710938,0 17.582031,7.871094 17.582031,17.582031 0,2.042969 -0.367187,4 -1.007812,5.824219 l 0.05078,0.0078 c 2.167969,-6.78125 8.519531,-11.695312 16.019531,-11.695312 7.45313,0 13.76953,4.855468 15.97656,11.574218 -0.0664,-0.605468 -0.0977,-1.222656 -0.0977,-1.84375 0,-10.101562 8.1875,-18.285156 18.28515,-18.285156 8.17578,0 15.09375,5.363282 17.4336,12.761719 l 1.59375,-0.414063 c 2.08593,-1.175781 4.48437,-1.855468 7.04687,-1.855468 7.9336,0 14.36719,6.433594 14.36328,14.367187 0,7.269531 -5.39453,13.273441 -12.39843,14.234381 -1.58594,0.22265 -3.14063,0.6289 -4.63672,1.20312 -4.16407,1.57031 -8.42188,2.8711 -12.72266,3.94531 -0.21484,2.11719 -0.84375,4.11329 -1.80859,5.90625 -1.7461,3.27344 -2.52735,6.97266 -2.25782,10.67188 0,0.22265 0.008,1.39844 0.008,1.625 0,4.69531 -3.8086,7.55469 -8.51172,7.55469 -4.69531,0 -8.50391,-3.80469 -8.50391,-8.50391"
            id="path5" />
        <path style="fill:#000000;fill-opacity:1;fill-rule:nonzero;stroke:none"
            d="m 132.40234,112.43359 0.10157,0.3086 -0.0352,-0.3086 z m 0,0" id="path6" />
        <path style="fill:#000000;fill-opacity:1;fill-rule:nonzero;stroke:none"
            d="m 83.191406,0 2.339844,0.9375 c 15.02734,6.042969 23.77344,14.34375 27.56641,26.582031 C 115.5,22.199219 119.14453,17.472656 123.375,13.605469 l 1.53906,-1.367188 1.31641,0.546875 c 0.56641,0.238282 1.13672,0.5625 1.70703,0.972656 0.89062,0.632813 1.79687,1.457032 2.71094,2.425782 0.69531,0.734375 1.35547,1.519531 1.96875,2.296875 l 0.33593,0.4375 0.37891,0.503906 1.38281,1.957031 -1.8125,1.316406 -0.25,0.191407 -0.33984,0.28125 -0.41797,0.371093 -0.49609,0.453126 c -1.19532,1.136718 -2.39844,2.496093 -3.52344,4.058593 -3.14062,4.378907 -5.02734,9.441407 -5.10937,15.1875 v 0.667969 l 0.49218,-0.08203 c 1.69141,-0.308594 3.28125,-0.898438 5.60938,-1.960938 l 1.32812,-0.609375 c 4.5,-2.035156 7.19141,-2.734375 11.70313,-2.59375 9.57812,0.300782 18.79297,6.507813 24.14843,14.007813 0.1211,0.183593 0.24219,0.363281 0.35938,0.550781 l 0.6875,1.089844 0.65625,1.085937 c 4.09375,6.953125 6.06641,13.699219 6.13672,24.601563 8.4414,0.800781 15.04297,7.90625 15.03906,16.554687 0,8.343748 -6.17578,15.363278 -14.35547,16.480468 -0.0273,0.008 -0.0547,0.0117 -0.0859,0.0195 v 6.05078 c 0,0.83985 0.6836,1.52344 1.52344,1.52344 h 14.07031 c 5.12891,0 10.04688,2.03516 13.67188,5.66406 3.62891,3.62891 5.66406,8.54688 5.66406,13.67188 l -0.004,61.47265 c 0,5.14063 -2.04297,10.07032 -5.6875,13.69532 -3.64063,3.6289 -8.57422,5.66015 -13.70313,5.64062 -0.72266,0 -1.43359,0.004 -2.12891,0.004 H 183.75 l -5.02734,-0.0273 -2.6836,-0.0312 c -0.41015,-0.008 -0.80469,0.14844 -1.09765,0.4336 -0.29297,0.28906 -0.45704,0.67968 -0.45704,1.08593 l -0.004,12.4336 -0.0117,4.5625 c 0,1.79687 -0.80078,3.5 -2.26563,4.71484 -2.07031,1.5625 -4.8125,3.03906 -8.21484,4.37891 l -1.16016,0.4375 c -1.77343,0.65234 -3.71484,1.26953 -5.8125,1.83984 l -1.42578,0.375 -1.47265,0.35938 c -1.49219,0.35156 -3.0586,0.6875 -4.69532,0.99609 l -1.66015,0.30078 -1.70703,0.28516 c -1.44532,0.23047 -2.9336,0.44531 -4.47266,0.64062 l -1.87109,0.22266 -1.91407,0.21094 -1.96093,0.1875 -2.00782,0.17187 -2.05468,0.14844 -2.09766,0.12891 c -0.35156,0.0195 -0.70703,0.0391 -1.06641,0.0586 l -2.16406,0.0977 -2.21093,0.0781 c -0.7461,0.0234 -1.4961,0.043 -2.25391,0.0586 l -2.30078,0.0312 c -0.77344,0.008 -1.55469,0.0117 -2.34375,0.0117 h -1.19922 c -0.79688,-0.004 -1.58594,-0.0117 -2.36719,-0.0195 l -2.32422,-0.0391 -2.27734,-0.0547 c -0.75391,-0.0195 -1.49609,-0.043 -2.23438,-0.0703 l -2.1875,-0.0898 c -0.36328,-0.0156 -0.72265,-0.0312 -1.07812,-0.0508 l -2.12109,-0.11718 -2.07813,-0.12891 -2.027344,-0.14844 c -0.335937,-0.0234 -0.667968,-0.0508 -1,-0.0781 L 94.480469,254 c -0.320313,-0.0312 -0.644531,-0.0625 -0.960938,-0.0937 l -1.890625,-0.19141 -1.84375,-0.20703 c -0.304687,-0.0352 -0.605468,-0.0703 -0.90625,-0.10937 l -1.773437,-0.22657 -1.722657,-0.24218 -1.675781,-0.25391 c -0.828125,-0.12891 -1.636719,-0.26172 -2.425781,-0.40234 l -1.554688,-0.28516 c -0.257812,-0.0469 -0.507812,-0.0977 -0.761718,-0.14844 l -1.480469,-0.30078 -1.433594,-0.3125 -1.382812,-0.32422 -1.332031,-0.33593 c -1.308594,-0.33985 -2.539063,-0.69141 -3.695313,-1.0586 l -1.128906,-0.375 c -0.550781,-0.1875 -1.082031,-0.3789 -1.597657,-0.57422 l -1,-0.39062 c -1.460937,-0.59375 -2.742187,-1.21485 -3.847656,-1.85156 -1.742187,-1.11329 -2.796875,-3.03516 -2.804687,-5.10157 L 58.988281,113.62891 C 51.464844,111.85156 46,105.14453 46,97.308594 c 0,-7.640625 5.171875,-14.085938 12.234375,-16.019532 -0.08594,-2.324218 -0.03516,-4.617187 0.207031,-6.878906 0.320313,-2.996094 0.949219,-5.851562 1.90625,-8.5625 C 65.847656,50.3125 75.636719,41.734375 89.375,39.03125 91.828125,38.546875 94.070312,38.492188 96.429688,38.8125 94.648438,37.144531 92.9375,35.359375 91.382812,33.511719 83.128906,23.691406 79.5,12.914062 82.5,2.421875 Z m 86.750004,114.28516 -1.08985,0.40234 c -0.23047,0.0859 -0.47656,0.15234 -0.70703,0.23438 -2.13281,0.75 -4.31641,1.43359 -6.54297,2.07031 -1.375,0.39062 -1.375,0.39062 -2.68359,0.76562 l -0.10547,0.51953 c -0.30859,1.39063 -0.78125,2.73047 -1.40234,4 l -0.60157,1.17969 c -0.10937,0.22656 -0.1875,0.46485 -0.28515,0.69922 -1.1211,2.57422 -1.63282,5.39844 -1.42578,8.35547 l 0.004,0.33203 0.004,1.28906 c 0,5.86719 -4.6875,9.83203 -10.78125,9.83203 -3.09375,0 -5.87891,-1.3125 -7.84375,-3.40234 -1.4336,-1.52734 -2.42188,-3.46484 -2.77735,-5.625 -0.0937,-0.57031 -0.15625,-1.15234 -0.15625,-1.75 0,-1.21875 -0.79687,-2.69922 -1.85156,-3.35547 -2.91406,-1.76172 -5.26953,-4.3164 -6.79687,-7.35156 l -0.0742,-0.14844 -1.49219,0.0312 c -17.22265,0.29297 -34.753905,-1.8125 -49.14453,-5.10547 -1.671875,-0.38281 -3.316406,-0.77734 -4.898438,-1.1914 l -1.1875,-0.31641 c -0.03516,-0.008 -0.07031,-0.0156 -0.105468,-0.0273 -1.476563,-0.41407 -2.964844,-0.78907 -4.464844,-1.13282 l 0.273438,126.61328 c 0,0.51954 0.265624,1.00391 0.621093,1.23047 0.65625,0.38282 1.398438,0.75782 2.21875,1.125 l 0.847657,0.36328 c 0.871093,0.36329 1.824218,0.71875 2.855468,1.0625 l 1.058594,0.33985 c 0.539062,0.16797 1.101562,0.33203 1.683594,0.49609 l 1.183594,0.32031 1.238281,0.3125 1.285156,0.3086 1.339844,0.29297 c 0.226562,0.0469 0.457031,0.0977 0.6875,0.14453 l 1.414062,0.28125 c 0.480469,0.0898 0.96875,0.18359 1.464844,0.26953 l 1.511719,0.26172 c 0.511718,0.0859 1.03125,0.16797 1.5625,0.25 l 1.609375,0.23437 1.65625,0.22657 c 0.28125,0.0391 0.5625,0.0742 0.847656,0.10937 l 1.730469,0.21094 1.777344,0.19531 1.824218,0.17578 c 0.308594,0.0312 0.621094,0.0586 0.929688,0.0898 l 1.898437,0.16015 1.941407,0.14844 1.988282,0.12891 2.03516,0.11718 2.07812,0.10157 c 0.35156,0.0156 0.70313,0.0312 1.05859,0.0469 l 2.14844,0.0781 c 0.35938,0.0117 0.72266,0.0195 1.08985,0.0312 l 2.21484,0.0547 c 0.37109,0.004 0.74609,0.0117 1.125,0.0195 l 2.28125,0.0234 c 0.76562,0.008 1.53906,0.0117 2.32422,0.0117 l 1.13672,-0.004 c 1.89062,-0.008 3.73437,-0.0391 5.53125,-0.0937 l 2.13281,-0.0742 c 0.35156,-0.0117 0.70312,-0.0273 1.05078,-0.043 l 2.06641,-0.10547 2.01953,-0.1211 c 0.33203,-0.0234 0.66406,-0.043 0.99218,-0.0703 l 1.95704,-0.14844 c 0.3164,-0.0273 0.63671,-0.0547 0.95703,-0.082 l 1.88281,-0.17578 c 0.30859,-0.0352 0.61719,-0.0664 0.92578,-0.0977 l 1.8125,-0.19922 c 0.29688,-0.0391 0.59375,-0.0742 0.89063,-0.10938 l 1.74218,-0.22656 1.69922,-0.24609 1.65235,-0.25391 c 0.54296,-0.0898 1.07812,-0.17969 1.60546,-0.27344 l 1.5586,-0.28515 c 0.50781,-0.0977 1.01562,-0.19922 1.50781,-0.30079 l 1.46484,-0.3125 1.41407,-0.32421 c 0.92968,-0.22266 1.82422,-0.45313 2.6875,-0.6836 l 1.27343,-0.36328 c 0.20704,-0.0586 0.41407,-0.125 0.61719,-0.18359 l 1.19922,-0.375 1.15234,-0.38672 c 3.94532,-1.36328 6.9961,-2.89453 9.11719,-4.5 0.34375,-0.28516 0.54297,-0.71094 0.54297,-1.16797 l 0.0156,-16.98438 c 0,-1.6289 0.66015,-3.1914 1.82421,-4.32812 1.16407,-1.14063 2.73438,-1.76563 4.35157,-1.73047 l 2.66015,0.0273 3.94141,0.0234 5.17578,0.008 2.12891,-0.008 c 3.92968,0.0156 7.70703,-1.53515 10.49609,-4.3125 2.78516,-2.77734 4.35156,-6.54687 4.35156,-10.48047 v -61.47265 c 0,-3.92188 -1.55859,-7.6875 -4.33203,-10.46094 -2.77734,-2.77344 -6.53906,-4.33203 -10.46094,-4.33203 h -14.07031 c -3.34765,0 -6.0664,-2.71484 -6.0664,-6.06641 z m 19.09375,21.53515 c 1.85937,0 3.64062,0.73828 4.95703,2.05469 1.3164,1.3125 2.05468,3.09766 2.05468,4.95703 V 198 c 0,1.85937 -0.73828,3.64062 -2.05859,4.95703 -1.3125,1.3125 -3.09375,2.05078 -4.95312,2.05078 h -12.07813 c -1.85937,0 -3.64453,-0.73828 -4.96094,-2.05078 -1.3125,-1.31641 -2.05468,-3.09766 -2.05468,-4.95703 v -55.16797 c 0,-1.85937 0.74218,-3.64453 2.05859,-4.96094 1.3125,-1.3125 3.09766,-2.05078 4.95703,-2.05078 z m 0,4.54297 h -12.07813 c -0.65625,0 -1.28516,0.25781 -1.74609,0.71875 -0.46485,0.46484 -0.72657,1.09375 -0.72657,1.75 V 198 c 0,0.65625 0.26172,1.28125 0.72266,1.74219 0.46484,0.46484 1.09375,0.72656 1.75,0.72656 h 12.07813 c 0.65234,0 1.28125,-0.26172 1.74218,-0.72266 0.46485,-0.46484 0.72657,-1.08984 0.72657,-1.74609 v -55.16797 c 0,-0.65625 -0.26172,-1.28516 -0.72266,-1.75 -0.46484,-0.46094 -1.09375,-0.71875 -1.74609,-0.71875 z M 79.40625,70.796875 c -7.429688,0 -13.742188,5.335937 -15.050781,12.570313 l -0.324219,1.800781 -0.949219,0.03516 -0.878906,0.03125 c -1.265625,0.04297 -2.476563,0.289063 -3.613281,0.691406 -4.695313,1.664063 -8.046875,6.136719 -8.046875,11.382813 0,5.343742 3.503906,9.980462 8.4375,11.609372 0.472656,0.15625 0.953125,0.29687 1.449219,0.39453 1.636718,0.29688 3.261718,0.64844 4.878906,1.03125 1.34375,0.31641 2.679687,0.65625 4.003906,1.03125 0.566406,0.15234 1.175781,0.29297 1.761719,0.44531 0.808593,0.20313 1.601562,0.41407 2.429687,0.61328 15.140625,3.62891 34.250004,5.9375 52.707034,5.31641 l 1.61328,-0.0547 0.58203,1.50782 c 1.08203,2.8164 3.07422,5.1914 5.66016,6.7539 2.43359,1.51172 4.02343,4.46484 4.02343,7.23047 l 0.008,0.33203 c 0.0586,1.10547 0.42578,2.125 0.98828,3.00781 1.10937,1.73438 3.02734,2.89453 5.23828,2.89453 3.73828,0 6.23828,-2.11718 6.23828,-5.28906 l -0.004,-1.30078 0.004,-0.15234 c -0.0391,-0.54297 -0.0547,-1.08203 -0.0547,-1.6211 0.004,-3.57812 0.88281,-7.11718 2.57813,-10.29687 l 0.26562,-0.52344 c 0.6875,-1.41797 1.125,-2.94922 1.28125,-4.53515 l 0.16016,-1.58985 1.55078,-0.38281 c 1.58203,-0.39844 3.11719,-0.84766 4.64844,-1.29688 1.34375,-0.39453 2.67578,-0.80078 3.98828,-1.23046 1.29687,-0.42188 2.57031,-0.86329 3.82031,-1.33204 l 0.71094,-0.26562 c 0.53906,-0.18359 1.08594,-0.33203 1.63281,-0.47656 0.92188,-0.25 1.85156,-0.46094 2.80078,-0.59375 l 0.40235,-0.0625 c 0.0469,-0.008 0.0937,-0.0195 0.13671,-0.0312 5.67969,-1.03907 9.89844,-6.01172 9.89844,-11.890625 0.004,-6.160156 -4.60937,-11.234375 -10.5664,-11.988281 -0.5,-0.0625 -1.00782,-0.105469 -1.52735,-0.105469 -1.03515,0 -2.04687,0.132813 -3.02734,0.386719 -1.01172,0.261719 -1.98438,0.65625 -2.90235,1.171875 l -0.25781,0.144531 -3.96875,1.035156 -0.64844,-2.054687 c -2.08984,-6.601563 -8.23828,-11.179687 -15.26953,-11.179687 -8.84375,0 -16.01562,7.167968 -16.01562,16.015624 0,0.542969 0.0312,1.078126 0.0859,1.609376 l 1.70703,16.304688 0.47656,4.54296 h -0.0664 l -1.49218,-4.54296 -5.04297,-15.363282 c -1.94531,-5.925782 -7.48828,-10.011719 -13.81641,-10.011719 -6.375,0 -11.94531,4.140625 -13.855468,10.117187 L 97.597656,94.5 l -4.65625,-0.761719 0.894532,-2.554687 c 0.582031,-1.65625 0.882812,-3.355469 0.882812,-5.074219 0,-8.457031 -6.859375,-15.3125 -15.3125,-15.3125 z m 46.23438,-53.085937 -0.5586,0.542968 c -5.07422,5.066406 -9.82422,13.546875 -10.11328,18.773438 -0.28906,5.222656 0.5625,11.707031 0.5625,11.707031 l -3.20312,-0.613281 c -1.38282,-0.261719 -2.62891,-0.574219 -4.06641,-1.023438 l -0.99219,-0.316406 c -0.17578,-0.05469 -0.34765,-0.117188 -0.52734,-0.175781 l -0.1875,-0.06641 -0.9375,-0.324218 -3.73828,-1.335938 -1.02735,-0.347656 c -4.175779,-1.367188 -7.136716,-1.726562 -10.597654,-1.042969 -12.152344,2.390625 -20.652344,9.839844 -25.625,23.875 -0.835937,2.363281 -1.386718,4.875 -1.671875,7.527344 -0.0039,0.04687 -0.0039,0.08984 -0.01172,0.136719 3.496094,-5.191406 9.355469,-8.597656 15.945313,-8.765625 l 0.515625,-0.0078 c 9.78125,0 17.914062,7.078125 19.550781,16.394532 l 0.07422,0.457031 0.492188,-0.441407 c 3.261722,-2.835937 7.468752,-4.5625 12.015622,-4.679687 l 0.51172,-0.0078 c 5.53516,0 10.61719,2.382813 14.14063,6.273438 l 0.20703,0.234375 0.1289,-0.445313 c 2.50391,-8.300781 10.10938,-14.390624 19.17188,-14.617187 l 0.51562,-0.0039 c 8.14063,0 15.35938,4.777343 18.66407,11.933593 l 0.11328,0.257813 L 165.20703,81.5 c 1.3125,-0.621094 2.70703,-1.046875 4.14063,-1.304688 -0.043,-10.394531 -1.8711,-16.476562 -5.76954,-22.9375 L 162.95703,56.25 162.30078,55.234375 C 157.74609,48.855469 149.71875,43.449219 141.75781,43.199219 137.875,43.078125 135.75,43.683594 131.41797,45.691406 l -0.72266,0.332032 c -3.96875,1.800781 -6.27734,2.480468 -9.99609,2.613281 l -2.14844,0.08203 -0.1914,-2.144531 c -0.73438,-8.136719 1.5625,-15.230469 5.82812,-21.171875 1.44531,-2.011719 2.89453,-3.613282 4.16406,-4.804688 l 0.0742,-0.07031 -0.49609,-0.585938 -0.58594,-0.640625 c -0.48437,-0.515625 -0.95312,-0.96875 -1.39844,-1.339843 z M 86.300781,6.191406 86.242188,6.5625 c -1.164063,7.949219 2.042968,16.207031 8.617187,24.027344 4.011719,4.773437 9.175785,9.085937 13.585935,11.796875 0.6875,0.417969 1.35938,0.808593 2,1.148437 l 0.3711,0.191406 v -0.355468 c -0.0312,-2.332032 -0.16797,-4.539063 -0.41407,-6.636719 -1.73046,-14.648437 -8.94921,-23.789063 -23.863278,-30.4375 z m 0,0"
            id="path7" />
    </g>
</svg>