<svg width="256px" height="256px" viewBox="0 0 256 256" xmlns="http://www.w3.org/2000/svg"
    xmlns:svg="http://www.w3.org/2000/svg">
    <title>InfluxDB</title>
    <rect width="256" height="256" rx="60" fill="#F2F4ED" id="rect1" />
    <g id="g1" transform="matrix(0.82287805,0,0,0.80455397,22.118644,26.542373)">
        <path
            d="m 57.799706,153.55332 0.466346,0.11691 109.583828,33.54075 c 0.91781,0.26306 1.77464,0.70447 2.52145,1.29917 0.74659,0.59469 1.36867,1.33092 1.83034,2.16657 0.4619,0.83543 0.75395,1.75393 0.86005,2.70235 0.0849,0.75893 0.0491,1.52536 -0.10467,2.27091 l -0.13744,0.5548 -18.3632,58.78342 c -0.64602,1.79052 -1.9079,3.29566 -3.56033,4.24156 -1.50222,0.8599 -3.23819,1.21006 -4.94803,1.0038 l -0.51191,-0.0786 -109.584056,-33.86272 c -1.830566,-0.55741 -3.366778,-1.81515 -4.274467,-3.4998 -0.824962,-1.5313 -1.069618,-3.30244 -0.700252,-4.9906 l 0.129265,-0.50363 18.239153,-58.65891 c 0.54245,-1.85128 1.795585,-3.41304 3.485533,-4.34397 1.54912,-0.85336 3.350026,-1.11322 5.06839,-0.74199 z m 184.995284,26.8411 -0.24838,0.25768 -73.18124,67.75168 c -2.69335,2.69268 -4.08336,1.80317 -3.22452,-1.70281 l 0.0934,-0.35928 15.25741,-49.0932 c 0.68491,-2.02964 1.87038,-3.854 3.44687,-5.30436 1.40152,-1.28922 3.07163,-2.24603 4.88618,-2.80367 l 0.68699,-0.19028 50.29501,-11.42873 c 3.56436,-1.28097 4.398,0.14572 2.21648,2.62191 z M 3.3641027,103.9637 l 0.2336486,0.26513 35.0370057,37.81406 c 1.375342,1.66003 2.341257,3.61971 2.820417,5.72116 0.425715,1.86815 0.456288,3.80195 0.09269,5.67775 l -0.154825,0.70046 -15.257176,49.09366 c -0.936832,3.67458 -2.639913,3.79707 -3.380961,0.36746 L 22.681741,203.23592 0.46676913,105.96803 C -0.61536343,102.28936 1.0485614,101.42602 3.3641027,103.9637 Z M 226.7845,41.404772 c 1.49026,0.892384 2.60032,2.292984 3.13183,3.935363 l 0.13046,0.453716 25.66867,111.330159 c 0.27157,0.90953 0.34982,1.86509 0.23014,2.80638 -0.11967,0.94128 -0.43267,1.84759 -0.92058,2.66092 -0.4879,0.81333 -1.14151,1.51596 -1.9171,2.06347 -0.62047,0.43783 -1.30722,0.76843 -2.03315,0.97954 l -0.55137,0.13574 -60.35921,13.8388 c -1.83862,0.45868 -3.78403,0.16985 -5.40977,-0.80366 -1.49026,-0.89239 -2.60032,-2.29299 -3.13201,-3.93537 L 181.4919,174.41612 155.89757,63.085961 c -0.46006,-1.828495 -0.17698,-3.764467 0.78686,-5.384682 0.88353,-1.485197 2.27352,-2.59426 3.90587,-3.129711 l 0.45099,-0.131662 60.33321,-13.838797 c 1.83862,-0.458677 3.78426,-0.169846 5.41,0.803663 z m -78.67621,26.030778 0.11121,0.370898 24.27745,105.094172 c 0.98598,3.82299 -1.23952,5.87751 -4.85244,5.06037 l -0.36585,-0.0913 -103.346689,-31.80155 c -3.670878,-1.00749 -4.446032,-3.93752 -1.99009,-6.62044 l 0.275516,-0.28641 79.069243,-73.441759 c 2.66633,-2.66589 5.68106,-1.779685 6.82165,1.716049 z M 91.255144,0.00214395 c 0.941059,0.02311368 1.86785,0.23285163 2.726978,0.61704275 0.687302,0.30735106 1.320401,0.7214536 1.876083,1.2259312 L 96.260088,2.2401655 138.1553,47.607157 c 1.26602,1.366826 1.93988,3.178751 1.87475,5.040617 -0.0599,1.706499 -0.73614,3.328103 -1.89468,4.568593 l -0.32782,0.328644 -83.914927,77.814499 c -1.385007,1.27937 -3.219026,1.96036 -5.103446,1.89523 -1.727385,-0.0597 -3.369294,-0.74191 -4.627205,-1.9119 L 43.82865,135.01176 1.8588121,89.61997 C 0.60506964,88.24716 -0.06068189,86.437767 0.00435346,84.580043 0.06396928,82.876919 0.73329754,81.257531 1.8817135,80.012068 L 2.206698,79.681886 86.146404,1.9917157 c 0.677545,-0.6533309 1.477756,-1.16563402 2.354835,-1.50717253 0.877079,-0.34154034 1.813076,-0.50551296 2.753905,-0.48239922 z m 21.231486,1.89924965 0.34729,0.090716 95.71833,29.2923044 c 3.69927,0.984664 3.82258,2.642671 0.48218,3.694676 l -0.3579,0.106614 -50.29432,11.403643 c -2.10766,0.43221 -4.28828,0.353271 -6.35912,-0.230375 -1.84074,-0.518591 -3.54729,-1.422506 -5.00762,-2.648707 L 146.47961,43.135456 111.44247,5.4455556 c -3.00897,-3.0085607 -2.45007,-4.4083019 1.04416,-3.544162 z"
            fill="#020a47" id="path1" />
    </g>
</svg>