<svg width="256px" height="256px" viewBox="0 0 256 256" xmlns="http://www.w3.org/2000/svg"
  xmlns:svg="http://www.w3.org/2000/svg">
  <rect width="256" height="256" fill="#B2BAC4" rx="60" id="rect1" />
  <g id="surface1" transform="matrix(0.94041282,0,0,0.94205233,7.3360349,6.8344465)">
    <path style="fill:#000000;fill-opacity:1;fill-rule:nonzero;stroke:none"
      d="M 204.80078,203 C 194.60156,212.19922 206,221.60156 216,215.60156 218.19922,213.19922 216,205.19922 204.80078,203 Z M 57.199219,217.80078 c 8,6.80078 20.402343,-1.80078 24,-11.40234 -7.800781,-10.19922 -36.597657,0.40234 -24,11.40234 z M 209,193.60156 c 0,4.59766 33.60156,7.59766 33.60156,-1 -4.80078,-14 -29.60156,-13.20312 -33.60156,1 z m 31.19922,-82.20312 -93.39844,-95.597659 c -11.40234,-11 -30.40234,-11 -41.19922,0 L 15.398438,108 C -15,145.80078 36.199219,141.39844 58,152.19922 c 7.800781,8 -30.199219,14 -22.199219,22 7.800781,8 47.597657,15.40234 55.398438,23.60156 L 83,222.39844 c 7.800781,8 26,0.40234 29.39844,19 2.40234,13.20312 32.80078,5.60156 47.60156,-5.19922 7.80078,-8 -15,-7.19922 -7.19922,-15.39844 19.59766,-20 37.80078,-7.19922 44.39844,-27.40234 3.40234,-10 -28.80078,-15.19922 -21,-23.39844 22.80078,-13 101,-21.60156 64,-58.60156 z m -112,62.20312 c -9.59766,2.59766 -56.000001,-16.40234 -44.398439,-16.40234 2.398438,1.40234 38.800779,8.80078 47.800779,10.40234 3.19922,0.59766 1,3.79688 -3.40234,6 z m 50.19922,-102.999998 -17.59766,-14.203124 -3.40234,21 -14.79688,-7.796876 -23.60156,15 -7.80078,-31 L 98.199219,76 H 78.800781 C 70.800781,76 70,65.398438 77.199219,58.199219 89.800781,44.601562 104.19922,30.601562 112,22.601562 c 7.80078,-8 21.60156,-8 29.39844,-0.203124 L 177,58.601562 c 3.39844,3.398438 3.39844,10 1.39844,12 z m 0,0"
      id="path1" />
  </g>
</svg>