<svg height="256px" viewBox="0 0 256 256" width="256px" version="1.1" id="svg4" sodipodi:docname="JiraSoft-Dark.svg"
   inkscape:version="1.3.2 (091e20e, 2023-11-25)" xmlns:inkscape="http://www.inkscape.org/namespaces/inkscape"
   xmlns:sodipodi="http://sodipodi.sourceforge.net/DTD/sodipodi-0.dtd" xmlns:xlink="http://www.w3.org/1999/xlink"
   xmlns="http://www.w3.org/2000/svg" xmlns:svg="http://www.w3.org/2000/svg">
    <title>JiraSoft</title>
   <defs id="defs4">
      <linearGradient inkscape:collect="always" xlink:href="#a" id="linearGradient4" gradientUnits="userSpaceOnUse"
         gradientTransform="matrix(1,0,0,-1,0,264)" x1="102.4" y1="218.63" x2="56.15" y2="172.39" />
   </defs>
   <sodipodi:namedview id="namedview4" pagecolor="#ffffff" bordercolor="#000000" borderopacity="0.25"
      inkscape:showpageshadow="2" inkscape:pageopacity="0.0" inkscape:pagecheckerboard="0" inkscape:deskcolor="#d1d1d1"
      inkscape:zoom="0.921875" inkscape:cx="127.45763" inkscape:cy="127.45763" inkscape:window-width="1440"
      inkscape:window-height="900" inkscape:window-x="0" inkscape:window-y="0" inkscape:window-maximized="0"
      inkscape:current-layer="svg4" />
   <rect width="256" height="256" rx="60" fill="#242938" id="rect1" />
   <g id="surface1" transform="matrix(1.04005,0,0,1.0290556,15.186349,14.101696)">
      <linearGradient id="a" gradientTransform="matrix(1,0,0,-1,0,264)" gradientUnits="userSpaceOnUse" x1="102.4"
         x2="56.150002" y1="218.63" y2="172.39">
         <stop offset=".18" stop-color="#0052cc" id="stop1" />
         <stop offset="1" stop-color="#2684ff" id="stop2" />
      </linearGradient>
      <linearGradient id="b" x1="114.65" x2="160.81" xlink:href="#a" y1="85.769997" y2="131.92" />
      <path
         d="M 214.06,105.73 117.67,9.34 108.33,0 35.77,72.56 2.59,105.73 a 8.89,8.89 0 0 0 0,12.54 l 66.29,66.29 39.45,39.44 72.55,-72.56 1.13,-1.12 32.05,-32 a 8.87,8.87 0 0 0 0,-12.59 z M 108.33,145.12 75.21,112 108.33,78.88 141.44,112 Z"
         fill="#2684ff" id="path2" />
      <path d="M 108.33,78.88 A 55.75,55.75 0 0 1 108.09,0.27 l -72.47,72.44 39.44,39.44 z" fill="url(#a)" id="path3"
         style="fill:url(#linearGradient4)" />
      <path d="m 141.53,111.91 -33.2,33.21 a 55.77,55.77 0 0 1 0,78.86 L 181,151.35 Z" fill="url(#b)" id="path4"
         style="fill:url(#b)" />
   </g>
</svg>