<svg width="256px" height="256px" viewBox="0 0 256 256" xmlns="http://www.w3.org/2000/svg"
    xmlns:svg="http://www.w3.org/2000/svg">
    <rect width="256" height="256" fill="#F2F4ED" rx="60" id="rect1" />
    <g id="surface1" transform="matrix(0.867151,0,0,0.86584975,17.751325,13.439198)">
        <path style="fill:#1ebdff;fill-opacity:1;fill-rule:nonzero;stroke:none"
            d="m 200.80469,254.49219 c -0.25,1 -1.25391,1.5039 -3.00391,1.5039 h -33.46484 c -2.01172,0 -3.75391,-0.8789 -5.26172,-2.63672 l -55.25781,-70.29296 -15.41016,14.66015 v 54.51563 c 0,2.51172 -1.257812,3.76172 -3.761719,3.76172 h -25.9375 c -2.507812,0 -3.761719,-1.25 -3.761719,-3.76172 V 3.761719 c 0,-2.5 1.253907,-3.7539065 3.761719,-3.7539065 h 25.941407 c 2.503906,0 3.761718,1.2578125 3.761718,3.7539065 V 156.75781 L 154.57031,89.847656 c 1.75391,-1.75 3.50781,-2.632812 5.26172,-2.632812 h 34.58984 c 1.50391,0 2.5,0.632812 3.00782,1.878906 0.5039,1.503906 0.3789,2.628906 -0.37891,3.382812 l -69.92578,67.656248 72.92578,90.59766 c 1,1.0039 1.25391,2.2539 0.76172,3.76172"
            id="path1" />
    </g>
</svg>