<svg xmlns="http://www.w3.org/2000/svg" xmlns:xlink="http://www.w3.org/1999/xlink" width="256px" height="256px" viewBox="0 0 256 256" version="1.1">
    <title>Kibana</title>
    <rect width="256" height="256" fill="#F4F2ED" rx="60" />
<g id="surface1">
<path style=" stroke:none;fill-rule:nonzero;fill:rgb(91.372549%,27.843137%,54.509804%);fill-opacity:1;" d="M 62.71875 105.921875 C 86.078125 105.921875 108.160156 112 127.359375 122.238281 L 195.839844 40 L 60.160156 40 L 60.160156 203.199219 L 60.160156 105.921875 Z M 62.71875 105.921875 "/>
<path style=" stroke:none;fill-rule:nonzero;fill:rgb(24.313725%,74.509804%,69.019608%);fill-opacity:1;" d="M 127.359375 122.238281 L 60.160156 203.199219 L 60.160156 216 L 195.519531 216 C 187.839844 175.679688 162.238281 141.441406 127.359375 122.238281 Z M 127.359375 122.238281 "/>
<path style=" stroke:none;fill-rule:nonzero;fill:rgb(21.568627%,64.705882%,58.431373%);fill-opacity:1;" d="M 127.359375 122.238281 L 60.160156 203.199219 L 60.160156 216 L 84.160156 216 L 149.441406 137.28125 C 149.441406 137.28125 144.960938 133.761719 138.878906 129.28125 C 134.398438 126.078125 127.359375 122.238281 127.359375 122.238281 Z M 127.359375 122.238281 "/>
<path style=" stroke:none;fill-rule:nonzero;fill:rgb(20.784314%,20.784314%,20.784314%);fill-opacity:1;" d="M 62.71875 105.921875 L 60.160156 105.921875 L 60.160156 203.199219 L 127.359375 122.238281 C 108.160156 112 86.078125 105.921875 62.71875 105.921875 Z M 62.71875 105.921875 "/>
</g>
</svg>
