<svg width="256px" height="256px" viewBox="0 0 256 256" xmlns="http://www.w3.org/2000/svg"
    xmlns:svg="http://www.w3.org/2000/svg">
    <rect width="256" height="256" fill="#f2f4ed" rx="60" id="rect1" />
    <g id="surface1" transform="matrix(0.85386125,0,0,0.87979318,18.164203,16.740834)">
        <path style="fill:#242938;fill-opacity:1;fill-rule:nonzero;stroke:none"
            d="M 234.87891,125.55859 V 98.449219 c 4.60156,-1.273438 8,-5.449219 8,-10.441407 0,-6 -4.87891,-10.878906 -10.87891,-10.878906 -1.52734,0 -2.97656,0.320313 -4.29688,0.886719 L 208.78516,54.367188 C 210.08984,52.574219 210.87891,50.382812 210.87891,48 210.87891,42 206,37.121094 200,37.121094 c -3.20703,0 -6.0625,1.414062 -8.05469,3.632812 L 162.67187,26.113281 C 162.80859,25.433594 162.87891,24.726562 162.87891,24 162.87891,18 158,13.121094 152,13.121094 c -5,0 -9.17578,3.398437 -10.44922,8 h -35.10937 c -1.27344,-4.601563 -5.44922,-8 -10.44141,-8 C 90,13.121094 85.121094,18 85.121094,24 c 0,0.726562 0.07813,1.433594 0.214844,2.113281 L 64.054688,36.753906 C 62.0625,34.542969 59.207031,33.121094 56,33.121094 50,33.121094 45.121094,38 45.121094,44 c 0,2.183594 0.65625,4.207031 1.765625,5.910156 L 28.785156,70.28125 C 27.335938,69.558594 25.726562,69.121094 24,69.121094 18,69.121094 13.121094,74 13.121094,80 c 0,5 3.398437,9.167969 8,10.441406 v 27.109374 c -4.601563,1.27344 -8,5.44922 -8,10.44141 0,6 4.878906,10.8789 10.878906,10.8789 4.367188,0 8.113281,-2.59765 9.847656,-6.32812 l 27.390625,4.57031 c 0.570313,5.48047 5.144531,9.76563 10.761719,9.76563 0.726562,0 1.433594,-0.0781 2.113281,-0.21485 l 6.640625,13.27344 c -2.210937,2 -3.632812,4.85547 -3.632812,8.0625 0,6 4.878906,10.87891 10.878906,10.87891 3.761719,0 7.078125,-1.91797 9.039062,-4.83204 l 28.144528,9.38672 c -0.0156,0.19141 -0.0625,0.375 -0.0625,0.56641 0,5 3.39844,9.17578 8,10.44922 v 27.10156 c -4.60156,1.27344 -8,5.44922 -8,10.44922 0,6 4.87891,10.87891 10.87891,10.87891 6,0 10.87891,-4.87891 10.87891,-10.87891 0,-4.99219 -3.39844,-9.17578 -8,-10.44922 v -27.10937 c 4.60156,-1.27344 8,-5.44922 8,-10.44922 0,-3.61719 -1.78907,-6.80078 -4.51172,-8.78516 l 5.45703,-14.55859 25.30469,7.23047 c 0,0.043 -0.008,0.082 -0.008,0.12109 0,4.99219 3.39844,9.17578 8,10.44922 v 43.10937 c -4.60156,1.27344 -8,5.44922 -8,10.44922 0,6 4.87891,10.87891 10.87891,10.87891 6,0 10.87891,-4.87891 10.87891,-10.87891 0,-4.99219 -3.39844,-9.17578 -8,-10.44922 v -43.10937 c 4.60156,-1.27344 8,-5.44922 8,-10.44922 0,-1.19141 -0.23829,-2.32031 -0.58985,-3.39063 l 30.6211,-20.42578 c 1.91406,1.66407 4.37109,2.69532 7.08984,2.69532 6,0 10.87891,-4.87891 10.87891,-10.87891 0,-4.99219 -3.39844,-9.16797 -8,-10.44141 z m -64.04688,-6.10156 c -0.0156,-0.35937 -0.0547,-0.72265 -0.11328,-1.07422 l 24.39453,-10.83984 26.50391,23.1914 z M 160,125.12109 c -2.82422,0 -5.12109,-2.29687 -5.12109,-5.12109 0,-2.82422 2.29687,-5.12109 5.12109,-5.12109 2.82422,0 5.12109,2.29687 5.12109,5.12109 0,2.82422 -2.29687,5.12109 -5.12109,5.12109 z m 0,-16 c -6,0 -10.87891,4.87891 -10.87891,10.87891 0,3.61719 1.78907,6.80078 4.51172,8.77734 l -9.32812,24.87891 -15.21485,-4.34375 -11.72265,-41.00781 43.70312,-30.046878 5.02735,3.910157 24.22265,21.199221 -21.96094,9.76172 C 166.36719,110.70313 163.38281,109.12109 160,109.12109 Z M 73.046875,125.22266 64.976562,78.800781 93.871094,75.910156 v -0.03125 c 1.570312,4.082032 5.496094,7 10.128906,7 0.0391,0 0.0703,-0.0078 0.11328,-0.0078 l 6.58203,23.031244 -31.72656,21.8086 c -1.640625,-1.375 -3.671875,-2.26172 -5.921875,-2.48828 z M 104,77.121094 c -2.82422,0 -5.121094,-2.296875 -5.121094,-5.121094 0,-2.824219 2.296874,-5.121094 5.121094,-5.121094 2.82422,0 5.12109,2.296875 5.12109,5.121094 0,2.824219 -2.29687,5.121094 -5.12109,5.121094 z m -21.761719,55.335936 30.121099,-20.71484 10.19921,35.70703 -39.695309,-11.34375 c 0,-0.043 0.0078,-0.0742 0.0078,-0.11328 0.0078,-1.23828 -0.246094,-2.41797 -0.632813,-3.53516 z M 193.03125,56.289062 c 1.89844,1.589844 4.30469,2.589844 6.96875,2.589844 1.52734,0 2.97656,-0.320312 4.29687,-0.886718 l 18.91797,23.640624 c -1.30468,1.792969 -2.09375,3.984376 -2.09375,6.367188 0,0.550781 0.0781,1.078125 0.16016,1.609375 l -25.15234,11.175785 -26.35938,-23.06641 -3.71484,-2.886719 z m 32.97656,70.640628 -25.10547,-21.96094 22.73047,-10.097656 c 1.40625,1.703125 3.29688,2.96875 5.48828,3.570312 v 27.109374 c -1.11328,0.3125 -2.16797,0.76172 -3.11328,1.37891 z M 237.12109,88 c 0,2.824219 -2.29687,5.121094 -5.12109,5.121094 -2.82422,0 -5.12109,-2.296875 -5.12109,-5.121094 0,-2.824219 2.29687,-5.121094 5.12109,-5.121094 2.82422,0 5.12109,2.296875 5.12109,5.121094 z M 200,42.878906 c 2.82422,0 5.12109,2.296875 5.12109,5.121094 0,2.824219 -2.29687,5.121094 -5.12109,5.121094 -2.82422,0 -5.12109,-2.296875 -5.12109,-5.121094 0,-2.824219 2.29687,-5.121094 5.12109,-5.121094 z m -48,-24 c 2.82422,0 5.12109,2.296875 5.12109,5.121094 0,2.824219 -2.29687,5.121094 -5.12109,5.121094 -2.82422,0 -5.12109,-2.296875 -5.12109,-5.121094 0,-2.824219 2.29687,-5.121094 5.12109,-5.121094 z m 0,16 c 3.20703,0 6.0625,-1.414062 8.05469,-3.632812 l 29.27343,14.640625 c -0.13671,0.679687 -0.20703,1.386719 -0.20703,2.113281 0,1.246094 0.25391,2.425781 0.64063,3.542969 L 161.28125,71.128906 106.04688,28.167969 c 0.16796,-0.40625 0.28125,-0.847657 0.40234,-1.289063 h 35.10937 c 1.26563,4.601563 5.44141,8 10.44141,8 z m -56,-16 c 2.824219,0 5.12109,2.296875 5.12109,5.121094 0,2.824219 -2.296871,5.121094 -5.12109,5.121094 -2.824219,0 -5.121094,-2.296875 -5.121094,-5.121094 0,-2.824219 2.296875,-5.121094 5.121094,-5.121094 z M 87.945312,31.246094 C 89.9375,33.457031 92.792969,34.878906 96,34.878906 c 2.433594,0 4.66406,-0.832031 6.48047,-2.191406 l 53.82422,41.855469 -40.60156,27.914061 -6.05469,-21.199218 C 112.76953,79.34375 114.87891,75.929688 114.87891,72 114.87891,66 110,61.121094 104,61.121094 c -5.382812,0 -9.832031,3.933594 -10.695312,9.078125 v -0.02344 L 63.984375,73.105469 60.625,53.808594 C 64.3125,52.0625 66.878906,48.335938 66.878906,44 c 0,-0.726562 -0.07813,-1.433594 -0.214844,-2.113281 z m -53.824218,44.84375 c -0.273438,-0.707032 -0.601563,-1.378906 -1.007813,-2 L 51.214844,53.71875 c 1.144531,0.570312 2.402344,0.921875 3.738281,1.058594 l 3.285156,18.902344 z M 56,38.878906 c 2.824219,0 5.121094,2.296875 5.121094,5.121094 0,2.824219 -2.296875,5.121094 -5.121094,5.121094 -2.824219,0 -5.121094,-2.296875 -5.121094,-5.121094 0,-2.824219 2.296875,-5.121094 5.121094,-5.121094 z M 18.878906,80 c 0,-2.824219 2.296875,-5.121094 5.121094,-5.121094 2.824219,0 5.121094,2.296875 5.121094,5.121094 0,2.824219 -2.296875,5.121094 -5.121094,5.121094 -2.824219,0 -5.121094,-2.296875 -5.121094,-5.121094 z M 24,133.12109 c -2.824219,0 -5.121094,-2.29687 -5.121094,-5.12109 0,-2.82422 2.296875,-5.12109 5.121094,-5.12109 2.824219,0 5.121094,2.29687 5.121094,5.12109 0,2.82422 -2.296875,5.12109 -5.121094,5.12109 z m 38.152344,-1.67968 -27.390625,-4.57032 c -0.472657,-4.48828 -3.640625,-8.14453 -7.890625,-9.32031 V 90.441406 c 4.023437,-1.113281 7.105468,-4.449218 7.816406,-8.617187 l 24.535156,-2.457031 8.144532,46.824222 c -2.289063,1.08984 -4.136719,2.94531 -5.214844,5.25 z M 66.878906,136 c 0,-2.82422 2.296875,-5.12109 5.121094,-5.12109 2.824219,0 5.121094,2.29687 5.121094,5.12109 0,2.82422 -2.296875,5.12109 -5.121094,5.12109 -2.824219,0 -5.121094,-2.29687 -5.121094,-5.12109 z M 88,173.12109 c -2.824219,0 -5.121094,-2.29687 -5.121094,-5.12109 0,-2.82422 2.296875,-5.12109 5.121094,-5.12109 2.824219,0 5.121094,2.29687 5.121094,5.12109 0,2.82422 -2.296875,5.12109 -5.121094,5.12109 z m 10.824219,-4.55468 c 0.0078,-0.19141 0.05469,-0.375 0.05469,-0.56641 C 98.878906,162 94,157.12109 88,157.12109 c -0.726562,0 -1.433594,0.0781 -2.113281,0.21485 L 79.246094,144.0625 c 0.785156,-0.70313 1.457031,-1.51172 2.011718,-2.41406 l 43.167968,12.32812 5.93359,20.76563 c -1.34375,0.82422 -2.51953,1.90625 -3.39843,3.21875 z M 141.12109,232 c 0,2.82422 -2.29687,5.12109 -5.12109,5.12109 -2.82422,0 -5.12109,-2.29687 -5.12109,-5.12109 0,-2.82422 2.29687,-5.12109 5.12109,-5.12109 2.82422,0 5.12109,2.29687 5.12109,5.12109 z M 136,189.12109 c -2.82422,0 -5.12109,-2.29687 -5.12109,-5.12109 0,-2.82422 2.29687,-5.12109 5.12109,-5.12109 2.82422,0 5.12109,2.29687 5.12109,5.12109 0,2.82422 -2.29687,5.12109 -5.12109,5.12109 z m 0.96875,-15.90625 c -0.32813,-0.0312 -0.64063,-0.0937 -0.96875,-0.0937 -0.0391,0 -0.0703,0.008 -0.11328,0.008 l -4.94141,-17.29688 11.32813,3.23047 z m 12.88672,-17.96875 9.17578,-24.46875 c 0.32812,0.0312 0.64062,0.0937 0.96875,0.0937 4.15234,0 7.73437,-2.36718 9.56641,-5.80078 l 51.60937,11.46485 c 0.0469,0.99218 0.23828,1.94531 0.54297,2.84765 l -30.62109,20.42578 c -1.92188,-1.65625 -4.37891,-2.6875 -7.09766,-2.6875 -3.92969,0 -7.34375,2.10938 -9.26563,5.23828 z M 189.12109,232 c 0,2.82422 -2.29687,5.12109 -5.12109,5.12109 -2.82422,0 -5.12109,-2.29687 -5.12109,-5.12109 0,-2.82422 2.29687,-5.12109 5.12109,-5.12109 2.82422,0 5.12109,2.29687 5.12109,5.12109 z M 184,173.12109 c -2.82422,0 -5.12109,-2.29687 -5.12109,-5.12109 0,-2.82422 2.29687,-5.12109 5.12109,-5.12109 2.82422,0 5.12109,2.29687 5.12109,5.12109 0,2.82422 -2.29687,5.12109 -5.12109,5.12109 z m 48,-32 c -2.82422,0 -5.12109,-2.29687 -5.12109,-5.12109 0,-2.82422 2.29687,-5.12109 5.12109,-5.12109 2.82422,0 5.12109,2.29687 5.12109,5.12109 0,2.82422 -2.29687,5.12109 -5.12109,5.12109 z m 0,0"
            id="path1" />
    </g>
</svg>