<svg xmlns="http://www.w3.org/2000/svg" xmlns:xlink="http://www.w3.org/1999/xlink" width="256px" height="256px" viewBox="0 0 256 256" version="1.1">
<rect width="256" height="256" rx="60" fill="#f2f4ed"/>

<g id="surface1">
<path style=" stroke:none;fill-rule:nonzero;fill:rgb(12.941177%,12.941177%,12.941177%);fill-opacity:1;" d="M 164.734375 52.820312 C 163.183594 50.042969 159.566406 49.230469 156.976562 51.078125 L 152.867188 54.011719 C 148.074219 57.4375 141.414062 56.328125 137.988281 51.535156 C 134.5625 46.738281 135.671875 40.078125 140.46875 36.652344 L 144.578125 33.71875 C 157.515625 24.476562 175.617188 28.539062 183.363281 42.425781 L 188.78125 52.132812 L 205.792969 35.125 C 209.957031 30.957031 216.710938 30.957031 220.875 35.125 C 225.042969 39.289062 225.042969 46.042969 220.875 50.210938 L 199.585938 71.5 L 208.042969 86.660156 C 209.65625 89.554688 213.488281 90.289062 216.0625 88.203125 L 219.945312 85.050781 C 224.519531 81.339844 231.238281 82.039062 234.949219 86.613281 C 238.664062 91.1875 237.960938 97.90625 233.390625 101.617188 L 229.503906 104.769531 C 216.640625 115.203125 197.480469 111.515625 189.414062 97.054688 L 183.902344 87.179688 L 167.542969 103.542969 C 163.378906 107.707031 156.625 107.707031 152.457031 103.542969 C 148.292969 99.375 148.292969 92.625 152.457031 88.457031 L 173.101562 67.816406 Z M 164.734375 52.820312 "/>
<path style=" stroke:none;fill-rule:nonzero;fill:rgb(12.941177%,12.941177%,12.941177%);fill-opacity:1;" d="M 89.558594 150.800781 C 74.453125 153.75 57.535156 154.484375 41.234375 154.632812 C 38.328125 166.476562 39.53125 174.882812 42.28125 180.550781 C 45.5 187.195312 51.714844 191.902344 60.496094 194.09375 C 78.617188 198.613281 105.019531 191.441406 122.644531 171.332031 C 126.527344 166.898438 133.265625 166.457031 137.695312 170.339844 C 142.125 174.222656 142.570312 180.960938 138.6875 185.390625 C 116.3125 210.921875 81.941406 221.429688 55.332031 214.792969 C 41.746094 211.402344 29.605469 203.320312 23.082031 189.855469 C 16.605469 176.492188 16.558594 159.683594 23.199219 140.507812 C 32.15625 114.660156 45.789062 98.472656 59.53125 88.394531 C 73.171875 78.390625 86.355469 74.820312 93.859375 73.285156 C 111.199219 69.730469 126.761719 74.613281 135.457031 86.027344 C 144.292969 97.625 144 113.40625 134.472656 126.421875 C 124.023438 140.691406 106.957031 147.40625 89.558594 150.800781 Z M 98.140625 94.183594 C 92.308594 95.378906 82.402344 98.078125 72.148438 105.597656 C 64.457031 111.234375 56.246094 119.820312 49.421875 133.160156 C 62.308594 132.839844 74.601562 131.984375 85.472656 129.863281 C 101 126.832031 111.558594 121.601562 117.257812 113.820312 C 121.855469 107.539062 120.953125 102.195312 118.488281 98.957031 C 115.878906 95.53125 109.441406 91.867188 98.140625 94.183594 Z M 98.140625 94.183594 "/>
</g>
</svg>
