<svg width="256px" height="256px" viewBox="0 0 256 256" xmlns="http://www.w3.org/2000/svg"
    xmlns:svg="http://www.w3.org/2000/svg">
    <title>Medium</title>
    <rect width="256" height="256" rx="60" fill="#f2f4ed" id="rect1" />
    <g id="surface1" transform="matrix(0.89464544,0,0,0.81054753,12.050768,18.453732)">
        <path style="fill:#000000;fill-opacity:1;fill-rule:nonzero;stroke:none"
            d="m 72.199219,55 c 39.878911,0 72.199221,32.546875 72.199221,72.69531 0,40.14844 -32.32422,72.69531 -72.199221,72.69531 C 32.328125,200.39062 0,167.84375 0,127.69531 0,87.546875 32.324219,55 72.199219,55 Z M 187.5,59.257812 c 19.9375,0 36.10156,30.636719 36.10156,68.437498 h 0.004 c 0,37.79297 -16.16406,68.4375 -36.10156,68.4375 -19.9375,0 -36.10157,-30.64453 -36.10157,-68.4375 0,-37.78906 16.16016,-68.437498 36.09766,-68.437498 z m 55.80469,7.128907 c 7.00781,0 12.69531,27.449219 12.69531,61.308591 0,33.85156 -5.68359,61.3125 -12.69531,61.3125 -7.01563,0 -12.69532,-27.45312 -12.69532,-61.3125 0,-33.855466 5.6836,-61.308591 12.69532,-61.308591 z m 0,0"
            id="path1" />
    </g>
</svg>