<svg xmlns="http://www.w3.org/2000/svg" xmlns:xlink="http://www.w3.org/1999/xlink" width="256px" height="256px"
  viewBox="0 0 256 256" version="1.1">
  <defs>
    <linearGradient id="mem0" gradientUnits="userSpaceOnUse" x1="255.894" y1="59.789" x2="255.894" y2="-452"
      gradientTransform="matrix(0.500208,0,0,0.500208,0.000004,226.093968)">
      <stop offset="0" style="stop-color:rgb(34.117647%,29.803922%,29.019608%);stop-opacity:1;" />
      <stop offset="1" style="stop-color:rgb(50.196078%,44.313725%,42.745098%);stop-opacity:1;" />
    </linearGradient>
    <linearGradient id="mem1" gradientUnits="userSpaceOnUse" x1="380.442" y1="-51.758" x2="191.971" y2="-382.305"
      gradientTransform="matrix(0.500208,0,0,0.500208,0.000004,226.093968)">
      <stop offset="0" style="stop-color:rgb(14.901961%,55.294118%,51.372549%);stop-opacity:1;" />
      <stop offset="1" style="stop-color:rgb(18.039216%,63.137255%,61.960784%);stop-opacity:1;" />
    </linearGradient>
    <radialGradient id="mem3" gradientUnits="userSpaceOnUse" cx="62.417" cy="142.923" fx="62.417" fy="142.923"
      r="9.213" gradientTransform="matrix(1.01042,0,0,1.01042,46.28425,47.609749)">
      <stop offset="0" style="stop-color:rgb(85.882353%,48.627451%,48.627451%);stop-opacity:1;" />
      <stop offset="1" style="stop-color:rgb(78.431373%,21.568627%,21.568627%);stop-opacity:1;" />
    </radialGradient>
    <radialGradient id="mem4" gradientUnits="userSpaceOnUse" cx="96.726" cy="142.923" fx="96.726" fy="142.923"
      r="9.213" gradientTransform="matrix(1.01042,0,0,1.01042,46.28425,47.609749)">
      <stop offset="0" style="stop-color:rgb(85.882353%,48.627451%,48.627451%);stop-opacity:1;" />
      <stop offset="1" style="stop-color:rgb(78.431373%,21.568627%,21.568627%);stop-opacity:1;" />
    </radialGradient>
    <filter id="alpha" filterUnits="objectBoundingBox" x="0%" y="0%" width="100%" height="100%">
      <feColorMatrix type="matrix" in="SourceGraphic" values="0 0 0 0 1 0 0 0 0 1 0 0 0 0 1 0 0 0 1 0" />
    </filter>
    <mask id="mask0">
      <g filter="url(#alpha)">
        <rect x="0" y="0" width="256" height="256" style="fill:rgb(0%,0%,0%);fill-opacity:0.101961;stroke:none;" />
      </g>
    </mask>
    <clipPath id="clip1">
      <rect x="0" y="0" width="256" height="256" />
    </clipPath>
    <g id="surface5" clip-path="url(#clip1)">
      <path style=" stroke:none;fill-rule:nonzero;fill:rgb(0%,0%,0%);fill-opacity:1;"
        d="M 198.914062 50.90625 C 204.589844 89.332031 205.917969 126.207031 205.820312 153.671875 C 205.710938 181.769531 204.101562 200.023438 204.101562 200.023438 L 170.988281 200.023438 L 167.429688 202.6875 L 206.765625 202.6875 C 206.765625 202.6875 213.347656 128.023438 200.769531 48.273438 Z M 94.683594 49.9375 C 105.019531 61.433594 122.898438 91.9375 125.347656 91.9375 C 118.792969 83.558594 102.703125 56.828125 94.683594 49.9375 Z M 79.9375 88.855469 C 68.769531 89.15625 82.195312 180.113281 85.9375 200.023438 L 51.601562 200.023438 L 49.269531 202.6875 L 88.605469 202.6875 C 84.878906 182.882812 71.570312 92.730469 82.4375 91.523438 C 81.425781 90 80.550781 88.953125 79.9375 88.855469 Z M 170.777344 88.855469 C 164.792969 89.804688 137.441406 166.023438 137.441406 166.023438 C 137.441406 166.023438 131.421875 165.273438 125.359375 165.273438 C 121.773438 165.273438 118.6875 165.492188 116.601562 165.6875 L 115.949219 168.6875 C 115.949219 168.6875 121.972656 167.9375 128.03125 167.9375 C 134.089844 167.9375 140.117188 168.6875 140.117188 168.6875 C 140.117188 168.6875 167.257812 92.972656 173.367188 91.523438 C 172.710938 89.855469 171.898438 88.886719 170.785156 88.855469 Z M 170.777344 88.855469 " />
    </g>
    <mask id="mask1">
      <g filter="url(#alpha)">
        <rect x="0" y="0" width="256" height="256" style="fill:rgb(0%,0%,0%);fill-opacity:0.301961;stroke:none;" />
      </g>
    </mask>
    <clipPath id="clip2">
      <rect x="0" y="0" width="256" height="256" />
    </clipPath>
    <g id="surface8" clip-path="url(#clip2)">
      <path style=" stroke:none;fill-rule:nonzero;fill:rgb(100%,100%,100%);fill-opacity:1;"
        d="M 55.273438 48.273438 C 42.683594 128.023438 49.269531 202.683594 49.269531 202.683594 L 51.582031 200.082031 C 50.398438 182.464844 47.230469 118.761719 57.933594 50.933594 L 94.351562 50.933594 C 95.121094 50.941406 96.152344 51.574219 97.351562 52.597656 C 94.964844 49.945312 92.984375 48.28125 91.683594 48.265625 Z M 164.355469 48.273438 C 157.425781 48.355469 131.054688 94.605469 128.023438 94.605469 C 129.257812 96.183594 130.261719 97.277344 130.6875 97.277344 C 133.71875 97.277344 160.089844 51.023438 167.023438 50.941406 L 199.160156 50.941406 L 200.773438 48.277344 Z M 85.105469 94.1875 C 93.953125 107.472656 115.941406 168.6875 115.941406 168.6875 L 116.582031 165.703125 C 111.15625 150.816406 90.46875 95.011719 85.273438 94.1875 C 85.214844 94.191406 85.160156 94.183594 85.105469 94.1875 Z M 176.105469 94.1875 C 182.039062 109.320312 170.808594 184.777344 167.441406 202.683594 L 171.011719 199.898438 C 175.566406 173.175781 186.53125 94.464844 176.109375 94.183594 Z M 176.105469 94.1875 " />
    </g>
  </defs>
  <g id="surface1">
    <path style=" stroke:none;fill-rule:nonzero;fill:url(#mem0);"
      d="M 0 172.972657 L 0 83.027344 C 0 10.375 10.367188 0 82.941406 0 L 173.0625 0 C 245.632812 0 255.996094 10.375 255.996094 83.027344 L 255.996094 172.972656 C 255.996094 245.621094 245.628906 256 173.054688 256 L 82.941406 256 C 10.371094 256 0 245.625 0 172.972656 Z M 0 172.972656 " />
    <path style=" stroke:none;fill-rule:nonzero;fill:url(#mem1);"
      d="M 55.265625 48.273438 C 42.6875 128.023438 49.269531 202.683594 49.269531 202.683594 L 88.601562 202.683594 C 84.859375 182.773438 71.433594 91.816406 82.601562 91.519531 C 88.585938 92.46875 115.933594 168.683594 115.933594 168.683594 C 115.933594 168.683594 121.957031 167.933594 128.019531 167.933594 C 134.078125 167.933594 140.101562 168.683594 140.101562 168.683594 C 140.101562 168.683594 167.453125 92.46875 173.4375 91.519531 C 184.609375 91.816406 171.183594 182.773438 167.445312 202.683594 L 206.777344 202.683594 C 206.777344 202.683594 213.359375 128.015625 200.773438 48.265625 L 164.359375 48.265625 C 157.429688 48.347656 131.054688 94.601562 128.023438 94.601562 C 124.992188 94.601562 98.621094 48.355469 91.6875 48.273438 Z M 55.265625 48.273438 " />
    <path style=" stroke:none;fill-rule:nonzero;fill:url(#mem3);"
      d="M 120.261719 193.378906 C 120.261719 198.523438 116.09375 202.683594 110.949219 202.683594 C 105.808594 202.683594 101.648438 198.515625 101.648438 193.378906 C 101.648438 188.246094 105.816406 184.070312 110.949219 184.070312 C 116.085938 184.070312 120.261719 188.238281 120.261719 193.378906 Z M 120.261719 193.378906 " />
    <path style=" stroke:none;fill-rule:nonzero;fill:url(#mem4);"
      d="M 154.394531 193.378906 C 154.394531 198.523438 150.226562 202.683594 145.089844 202.683594 C 139.953125 202.683594 135.785156 198.515625 135.785156 193.378906 C 135.785156 188.246094 139.949219 184.070312 145.09375 184.070312 C 150.234375 184.070312 154.398438 188.238281 154.398438 193.378906 Z M 154.394531 193.378906 " />
    <use xlink:href="#surface5" mask="url(#mask0)" />
    <use xlink:href="#surface8" mask="url(#mask1)" />
  </g>
</svg>