<svg xmlns="http://www.w3.org/2000/svg" xmlns:xlink="http://www.w3.org/1999/xlink" width="256px" height="256px" viewBox="0 0 256 256" version="1.1">
<rect width="256" height="256" fill="#242938" rx="60" />
<g id="surface1">
<path style=" stroke:none;fill-rule:nonzero;fill:rgb(81.176471%,84.705882%,86.27451%);fill-opacity:1;" d="M 123.113281 60.144531 C 114.40625 47.082031 112.523438 29.625 112.113281 22.453125 C 89.988281 27.238281 68.011719 35.820312 69.28125 42.136719 C 69.441406 42.933594 70.441406 43.886719 72.105469 44.816406 L 69.503906 49.472656 C 66.324219 47.691406 64.539062 45.636719 64.054688 43.183594 C 62.617188 36.03125 70.71875 29.5625 88.8125 23.402344 C 101.164062 19.195312 113.621094 16.683594 114.148438 16.582031 L 117.332031 15.941406 L 117.332031 19.199219 C 117.332031 19.425781 117.472656 42.070312 127.550781 57.1875 Z M 123.113281 60.144531 "/>
<path style=" stroke:none;fill-rule:nonzero;fill:rgb(81.176471%,84.705882%,86.27451%);fill-opacity:1;" d="M 132.003906 229.332031 L 130.667969 229.332031 C 86.976562 229.332031 38.351562 215.609375 32.609375 192.644531 C 29.105469 178.617188 40.566406 163.121094 65.75 147.839844 L 68.523438 152.394531 C 45.863281 166.148438 34.945312 179.980469 37.785156 191.355469 C 42.773438 211.289062 88.851562 223.71875 129.269531 223.996094 C 134.074219 216.8125 159.894531 174.609375 145.15625 118.003906 L 150.316406 116.660156 C 167.109375 181.152344 133.152344 227.792969 132.8125 228.257812 Z M 132.003906 229.332031 "/>
<path style=" stroke:none;fill-rule:nonzero;fill:rgb(81.176471%,84.705882%,86.27451%);fill-opacity:1;" d="M 52.964844 209.632812 C 50.089844 209.632812 48.667969 209.316406 48.433594 209.257812 C 47.492188 209.03125 46.757812 208.308594 46.5 207.382812 C 46.238281 206.453125 46.507812 205.457031 47.1875 204.777344 C 47.574219 204.394531 85.574219 166.335938 90.703125 135.5625 L 95.960938 136.4375 C 91.550781 162.910156 65.484375 193.09375 55.128906 204.207031 C 65.472656 203.617188 91.585938 198.773438 141.710938 170.714844 C 102.59375 166.425781 96.40625 135.109375 96.339844 134.773438 L 101.585938 133.808594 C 101.835938 135.121094 108.121094 165.867188 150.886719 165.867188 C 150.902344 165.867188 150.910156 165.867188 150.929688 165.867188 C 152.136719 165.867188 153.1875 166.675781 153.5 167.839844 C 153.820312 169.003906 153.308594 170.234375 152.265625 170.84375 C 92.347656 205.558594 63.289062 209.625 52.964844 209.632812 Z M 52.964844 209.632812 "/>
<path style=" stroke:none;fill-rule:nonzero;fill:rgb(81.176471%,84.705882%,86.27451%);fill-opacity:1;" d="M 77.460938 222.398438 C 76.355469 222.398438 75.355469 221.71875 74.964844 220.667969 C 74.542969 219.542969 74.929688 218.265625 75.910156 217.5625 C 76.089844 217.429688 85.578125 210.425781 95.675781 195.011719 C 91.792969 193.296875 87.863281 191.289062 83.960938 188.949219 C 79.226562 186.105469 75.648438 183.054688 72.976562 179.929688 C 59.269531 183.546875 46.617188 184.976562 35.507812 184.03125 L 35.957031 178.71875 C 45.960938 179.566406 57.339844 178.382812 69.667969 175.308594 C 61.28125 160.96875 68.980469 146.742188 69.089844 146.550781 L 73.75 149.148438 C 73.390625 149.796875 67.003906 161.785156 75.078125 173.855469 C 86.816406 170.484375 99.339844 165.5 112.296875 159.019531 C 115.28125 149.230469 117.609375 138.101562 118.832031 125.546875 C 118.917969 124.6875 119.40625 123.925781 120.15625 123.492188 C 120.902344 123.0625 121.8125 123.023438 122.597656 123.382812 C 122.769531 123.460938 140.003906 131.332031 152.484375 136.46875 C 153.390625 136.84375 154.019531 137.683594 154.121094 138.660156 C 154.230469 139.636719 153.785156 140.585938 152.96875 141.140625 C 140.761719 149.460938 128.632812 156.675781 116.820312 162.699219 C 113.078125 174.566406 108.441406 184.441406 103.707031 192.515625 C 123.449219 199.894531 140.585938 200.003906 140.804688 200.003906 C 142.019531 200.003906 143.082031 200.828125 143.386719 202.003906 C 143.691406 203.183594 143.164062 204.414062 142.101562 205.007812 C 117.886719 218.457031 79.34375 222.246094 77.71875 222.398438 C 77.632812 222.394531 77.546875 222.398438 77.460938 222.398438 Z M 100.847656 197.15625 C 95.300781 205.765625 89.851562 211.945312 85.777344 215.984375 C 96.433594 214.414062 115.113281 210.980469 130.617188 204.574219 C 123.195312 203.664062 112.449219 201.636719 100.847656 197.15625 Z M 78.757812 178.296875 C 80.851562 180.390625 83.464844 182.433594 86.703125 184.378906 C 90.628906 186.734375 94.613281 188.734375 98.542969 190.433594 C 102.566406 183.691406 106.550781 175.601562 109.96875 166.070312 C 99.1875 171.199219 88.726562 175.296875 78.757812 178.296875 Z M 123.742188 129.753906 C 122.652344 139.183594 120.964844 147.785156 118.875 155.621094 C 127.726562 150.902344 136.761719 145.507812 145.871094 139.484375 C 137.609375 135.984375 128.527344 131.914062 123.742188 129.753906 Z M 123.742188 129.753906 "/>
<path style=" stroke:none;fill-rule:nonzero;fill:rgb(81.176471%,84.705882%,86.27451%);fill-opacity:1;" d="M 95.59375 56.535156 C 94.96875 56.535156 94.351562 56.308594 93.863281 55.894531 C 85.273438 48.542969 75.167969 33.589844 74.742188 32.953125 C 74.054688 31.9375 74.160156 30.574219 74.988281 29.667969 C 75.808594 28.757812 77.164062 28.542969 78.230469 29.125 C 78.289062 29.140625 83.230469 31.179688 116.71875 36.757812 C 117.683594 36.917969 118.480469 37.589844 118.800781 38.507812 C 119.125 39.425781 118.917969 40.449219 118.265625 41.171875 C 108.890625 51.589844 97.046875 56.175781 96.542969 56.363281 C 96.234375 56.476562 95.910156 56.535156 95.59375 56.535156 Z M 83.449219 35.980469 C 86.816406 40.507812 91.664062 46.625 96.101562 50.746094 C 98.828125 49.503906 104.9375 46.382812 110.734375 41.15625 C 96.960938 38.804688 88.554688 37.128906 83.449219 35.980469 Z M 83.449219 35.980469 "/>
<path style=" stroke:none;fill-rule:nonzero;fill:rgb(71.764706%,10.980392%,10.980392%);fill-opacity:1;" d="M 116.496094 130.132812 C 116.132812 130.132812 115.765625 130.058594 115.425781 129.910156 C 114.363281 129.441406 113.722656 128.339844 113.84375 127.1875 C 115.402344 112.527344 92.90625 106.644531 92.675781 106.59375 C 91.75 106.355469 91.011719 105.636719 90.761719 104.714844 C 90.511719 103.792969 90.773438 102.800781 91.449219 102.121094 C 92.554688 101.019531 118.859375 74.933594 151.863281 60.609375 C 152.785156 60.207031 153.828125 60.355469 154.609375 60.980469 C 155.382812 61.609375 155.738281 62.617188 155.535156 63.589844 C 149.210938 94.222656 119.75 127.824219 118.5 129.238281 C 117.972656 129.820312 117.238281 130.132812 116.496094 130.132812 Z M 98.425781 102.851562 C 104.742188 105.226562 115.800781 110.71875 118.601562 120.753906 C 126.332031 111.109375 142.828125 88.894531 148.988281 67.769531 C 125.589844 79.023438 105.886719 95.996094 98.425781 102.851562 Z M 98.425781 102.851562 "/>
<path style=" stroke:none;fill-rule:nonzero;fill:rgb(71.764706%,10.980392%,10.980392%);fill-opacity:1;" d="M 69.753906 151.253906 L 67.222656 146.558594 C 77.265625 141.148438 88.769531 131.183594 98.191406 119.605469 C 90.171875 125.097656 85.578125 128.859375 85.433594 128.980469 L 82.027344 124.875 C 82.234375 124.703125 91.433594 117.15625 106.726562 107.703125 C 110.921875 100.949219 114.148438 94.003906 115.808594 87.347656 C 116.089844 86.21875 116.335938 85.125 116.535156 84.070312 C 106.265625 80.40625 96.792969 78.234375 90.289062 77.300781 C 89.300781 77.164062 88.480469 76.484375 88.148438 75.550781 C 87.820312 74.617188 88.039062 73.574219 88.703125 72.847656 C 89.15625 72.355469 99.988281 60.753906 113.523438 54.378906 C 114.574219 53.882812 115.835938 54.128906 116.625 54.988281 C 116.980469 55.375 124.304688 63.601562 122.441406 80.613281 C 128.601562 83.011719 134.949219 85.929688 141.0625 89.402344 C 155.777344 82.789062 172.484375 76.835938 190.28125 73.242188 C 191.199219 73.0625 192.21875 73.390625 192.847656 74.136719 C 193.472656 74.886719 193.644531 75.914062 193.289062 76.820312 C 186.355469 94.59375 167.765625 113.574219 166.976562 114.375 C 166.4375 114.917969 165.703125 115.1875 164.933594 115.164062 C 164.171875 115.121094 163.464844 114.757812 162.988281 114.160156 C 157.011719 106.652344 149.207031 100.433594 140.785156 95.371094 C 129.183594 100.726562 118.910156 106.453125 110.46875 111.632812 C 99.695312 128.449219 83.433594 143.886719 69.753906 151.253906 Z M 146.625 92.777344 C 153.503906 97.214844 159.910156 102.433594 165.207031 108.5 C 169.621094 103.710938 180.21875 91.605469 186.230469 79.585938 C 172.097656 82.835938 158.71875 87.546875 146.625 92.777344 Z M 121.59375 85.984375 C 121.417969 86.851562 121.214844 87.742188 120.992188 88.652344 C 119.871094 93.125 118.089844 97.722656 115.808594 102.308594 C 121.652344 98.96875 128.121094 95.523438 135.105469 92.1875 C 130.632812 89.820312 126.074219 87.761719 121.59375 85.984375 Z M 96.257812 72.917969 C 102.179688 74.078125 109.484375 75.980469 117.273438 78.710938 C 118.085938 68.878906 115.429688 62.859375 113.824219 60.191406 C 106.484375 64.019531 100.058594 69.40625 96.257812 72.917969 Z M 96.257812 72.917969 "/>
<path style=" stroke:none;fill-rule:nonzero;fill:rgb(71.764706%,10.980392%,10.980392%);fill-opacity:1;" d="M 96.265625 98.667969 C 96.265625 122.027344 76.800781 140.585938 62.773438 154.132812 C 60.425781 156.425781 52.480469 156.800781 52.480469 156.800781 C 54.453125 154.773438 56.691406 152.640625 59.09375 150.347656 C 72.425781 137.441406 90.933594 119.785156 90.933594 98.667969 C 90.933594 73.652344 80.851562 63.785156 72.90625 55.894531 C 69.386719 52.320312 66.398438 48.90625 64.585938 44.746094 L 66.238281 44.054688 C 68.054688 44.851562 70.132812 45.761719 71.734375 46.453125 C 73.011719 48.320312 74.71875 50.132812 76.691406 52.105469 C 84.851562 60.265625 96.265625 71.464844 96.265625 98.667969 Z M 96.265625 98.667969 "/>
<path style=" stroke:none;fill-rule:nonzero;fill:rgb(71.764706%,10.980392%,10.980392%);fill-opacity:1;" d="M 228.988281 105.566406 C 228.988281 105.566406 225.761719 106.027344 224.851562 106.132812 C 178.132812 111.308594 129.921875 124.746094 102.347656 135.785156 C 92.375 139.785156 82.027344 144.640625 72.585938 150.078125 C 72.535156 150.132812 72.480469 150.132812 72.375 150.1875 C 66.828125 153.386719 53.332031 160 42.398438 165.8125 C 58.398438 148.800781 88.375 135.679688 100.320312 130.878906 C 127.359375 120.054688 173.8125 106.988281 219.519531 101.386719 C 214.132812 95.09375 200.960938 81.761719 175.039062 71.839844 C 159.894531 65.972656 136.851562 62.667969 116.535156 59.734375 C 84.214844 55.09375 65.8125 52 64.054688 43.199219 C 63.679688 41.441406 63.945312 39.679688 64.746094 37.972656 C 66.507812 40.851562 69.011719 42.878906 70.667969 44.054688 C 71.464844 44.585938 72.054688 44.90625 72.265625 45.011719 L 72.320312 45.066406 C 79.894531 49.066406 100.320312 52 117.332031 54.453125 C 137.921875 57.441406 161.226562 60.800781 176.960938 66.828125 C 213.601562 80.960938 226.238281 101.171875 226.773438 102.027344 C 227.253906 102.828125 228.988281 105.566406 228.988281 105.566406 Z M 228.988281 105.566406 "/>
</g>
</svg>
