<svg width="256px" height="256px" viewBox="0 0 256 256" xmlns="http://www.w3.org/2000/svg"
    xmlns:svg="http://www.w3.org/2000/svg">
    <title>Neo4j</title>
    <rect width="256" height="256" fill="#242938" rx="60" id="rect1" />
    <g id="surface1" transform="matrix(1.2664975,0,0,1.3243965,-21.149379,-49.620536)">
        <path style="fill:#ffffff;fill-opacity:1;fill-rule:nonzero;stroke:none"
            d="m 126.66406,65.132812 c -10.39843,1.734376 -19.1289,6 -25.66406,12.53125 -7.734375,7.734376 -11.664062,17 -13,30.734378 -0.601562,6.26562 -0.933594,30.9375 -0.398438,30.9375 0.132813,0 1.398438,-0.46875 2.796876,-1.07032 3.265624,-1.39843 10.335942,-1.39843 14.000002,-0.0664 l 2.80078,1 0.33594,-16.06641 C 107.86719,106 108.26563,103.39844 111.46484,97 113.66406,92.734375 119,87.734375 123.53516,85.664062 c 5.19921,-2.398437 12.80078,-3.328124 18.66406,-2.398437 12.53515,2.070313 20,8.867187 23.13672,21.000005 1.26562,4.86718 1.32812,7.39843 1.32812,34.19921 v 28.8711 h 20.13672 l -0.33594,-31.53516 C 186.26562,106 186.13281,104 184.73437,98.664062 c -3.80078,-14.796874 -13,-25.53125 -25.86718,-30.398437 C 152,65.664062 145.46484,64.664062 136.46484,64.734375 132,64.800781 127.60156,65 126.66406,65.132812 Z m 0,0"
            id="path1" />
        <path style="fill:#008aff;fill-opacity:1;fill-rule:nonzero;stroke:none"
            d="m 45.464844,114.39844 c -5.730469,2.86719 -8.800782,8 -8.800782,14.9375 0,2.19922 0.402344,5 0.9375,6.26562 1.265626,3.13281 4.863282,6.9336 8,8.59766 3.796876,2 11,2 14.734376,0.0664 l 2.730468,-1.39843 8.535156,5.79687 8.53125,5.8711 v 8.86328 l -8.53125,5.86718 L 63,175.13281 60.800781,173.80078 C 57.601562,171.93359 51.398438,171.53516 47.601562,173 c -4,1.53516 -8.136718,5.19922 -9.667968,8.66406 -1.667969,3.53516 -1.667969,10.46875 0,14 1.402344,3.13672 4.667968,6.60156 7.601562,8.13672 1.199219,0.59766 4.066406,1.19922 6.464844,1.39844 5.601562,0.40234 10.335938,-1.46485 13.734375,-5.46485 2.730469,-3.19921 4.53125,-8.80078 4.066406,-12.66796 l -0.335937,-2.73047 8.601562,-5.80078 8.597656,-5.80079 3.070313,1.39844 c 4.664063,2 11.601565,1.53125 16.000005,-1.13281 4.80078,-3 7.19921,-7.26563 7.46484,-13.26563 0.19922,-4.19921 0,-5.13281 -1.66406,-8.39843 -4.33594,-8.26953 -14.000004,-11.40235 -22.269535,-7.26953 l -2.464844,1.19921 -8.464843,-5.80078 -8.46875,-5.80078 L 69.664062,129 C 69.535156,123.39844 67.933594,119.80078 64,116.53516 59,112.26563 51.535156,111.39844 45.464844,114.39844 Z m 0,0"
            id="path2" />
    </g>
</svg>