<svg width="256px" height="256px" viewBox="0 0 256 256" xmlns="http://www.w3.org/2000/svg"
    xmlns:svg="http://www.w3.org/2000/svg">
    <rect width="256" height="256" fill="#f2f4ed" rx="60" id="rect1" />
    <g id="surface1" transform="matrix(0.89065887,0,0,0.89537578,11.125943,12.435396)">
        <path style="fill:#242938;fill-opacity:1;fill-rule:nonzero;stroke:none"
            d="m 24.0625,137.62109 c -0.945312,1.3711 -1.265625,3.0586 -0.890625,4.66797 0.375,1.61328 1.417969,3 2.867187,3.80469 l 10.195313,5.66406 v 12.20313 c 0,2.375 1.445313,4.52343 3.65625,5.4414 l 5.019531,2.04688 -3.042968,3.03515 c -1.207032,1.21485 -1.832032,2.88282 -1.703126,4.58985 0.125,1.71094 0.992188,3.26953 2.367188,4.29687 l 10.339844,7.625 V 214.375 c 0,3.24219 2.628906,5.87109 5.875,5.87109 H 95.78125 l 4.63281,30.74219 c 0.24219,1.61719 1.14844,3.05469 2.50391,3.99219 0.98437,0.67578 2.13672,1.01953 3.30078,1.01953 0.44531,0 0.89063,-0.0625 1.32422,-0.15234 l 92.99609,-21.53516 c 3.15625,-0.73828 5.13281,-3.87109 4.39844,-7.03516 l -9,-39.23828 5.28906,-23.88672 30.44531,-37.59765 c 0.85157,-1.05078 1.3086,-2.35547 1.3086,-3.69922 V 64.609375 c 0,-0.929687 -0.23828,-1.851563 -0.64063,-2.683594 L 212.76172,23.75 c -0.57813,-1.128906 -1.53125,-2.042969 -2.67969,-2.601562 L 175.82031,4.507812 c -0.6875,-0.332031 -1.41797,-0.535156 -2.20312,-0.578124 L 110.96875,0.015625 c -1.17969,-0.0859375 -2.35547,0.210937 -3.375,0.820313 l -50.902344,30.34375 c -1.261718,0.75 -2.199218,1.953124 -2.617187,3.363281 L 38.902344,85.445312 c -0.675782,2.261719 0.07422,4.710938 1.894531,6.210938 L 46.773438,96.582031 46.125,105.66016 Z M 56.605469,89.433594 51.292969,85.0625 64.699219,40.089844 112.07422,11.847656 171.75,15.574219 l 31.45312,15.277343 18.02735,35.167969 v 54.742189 l -30.01563,37.05859 c -0.57422,0.70703 -0.97265,1.53516 -1.17187,2.42188 l -5.8711,26.51172 c -0.20312,0.86718 -0.20312,1.73046 0.008,2.58593 l 7.98828,34.82813 -81.08594,18.78125 L 106.64844,213.5 c -0.4375,-2.85938 -2.90235,-4.98828 -5.8086,-4.98828 H 64.621094 v -20.46875 c 0,-1.875 -0.882813,-3.61719 -2.382813,-4.72656 L 55,177.98437 59.476562,173.5 c 1.390626,-1.38672 1.992188,-3.38672 1.605469,-5.30469 -0.386719,-1.92578 -1.71875,-3.52344 -3.539062,-4.28515 l -9.558594,-3.88282 V 148.3125 c 0,-2.13281 -1.15625,-4.10156 -3.019531,-5.14063 l -7.550782,-4.1875 19.320313,-27.96093 c 0.601563,-0.86328 0.953125,-1.8711 1.027344,-2.92188 l 0.980469,-13.703122 c 0.113281,-1.898438 -0.667969,-3.75 -2.136719,-4.964844 z m 0,0"
            id="path1" />
        <path style="fill:#242938;fill-opacity:1;fill-rule:nonzero;stroke:none"
            d="m 69.203125,86.226562 -4.191406,10.65625 c -0.652344,1.664063 -0.511719,3.535158 0.382812,5.085938 0.894531,1.55078 2.445313,2.60156 4.210938,2.86719 l 11.324219,1.70703 3.644531,10.85547 c 0.570312,1.69531 1.875,3.03515 3.558593,3.64844 1.679688,0.60937 3.554688,0.42968 5.074219,-0.50782 l 9.769529,-5.97265 9.76953,5.97265 c 0.9336,0.57032 1.9961,0.86719 3.06641,0.86719 0.67969,0 1.35938,-0.12109 2.00781,-0.35937 1.67969,-0.60938 2.99219,-1.95313 3.5586,-3.64844 l 3.64843,-10.85547 11.31641,-1.70703 c 1.77344,-0.26563 3.33594,-1.32031 4.21094,-2.86719 0.89843,-1.55078 1.05078,-3.421875 0.39062,-5.085938 l -4.1875,-10.65625 7.58594,-8.582031 c 1.19531,-1.34375 1.69922,-3.148437 1.38672,-4.910156 -0.3086,-1.757813 -1.40235,-3.285156 -2.97656,-4.136719 L 132.69531,63.125 132.98437,51.675781 c 0.0508,-1.785156 -0.73828,-3.5 -2.09375,-4.652343 -1.375,-1.144532 -3.1914,-1.621094 -4.94531,-1.25 l -11.22656,2.269531 -7.13281,-8.953125 c -2.22656,-2.800782 -6.95703,-2.800782 -9.187502,0 l -7.128907,8.953125 -11.226562,-2.269531 c -1.757813,-0.367188 -3.570313,0.105468 -4.941407,1.25 -1.367187,1.152343 -2.140624,2.855468 -2.09375,4.652343 L 73.296875,63.125 63.238281,68.597656 c -1.570312,0.851563 -2.664062,2.375 -2.976562,4.136719 -0.3125,1.761719 0.199219,3.566406 1.382812,4.910156 z M 82.058594,71.71875 c 1.9375,-1.050781 3.121094,-3.097656 3.066406,-5.304688 l -0.199219,-7.667968 7.519531,1.519531 c 2.164063,0.449219 4.386719,-0.371094 5.757813,-2.09375 l 4.781255,-5.996094 4.78125,5.996094 c 1.375,1.722656 3.60156,2.546875 5.76171,2.09375 l 7.51563,-1.519531 -0.19531,7.667968 c -0.0547,2.207032 1.1289,4.257813 3.0664,5.304688 l 6.73828,3.671875 -5.07812,5.75 c -1.46094,1.652344 -1.87109,3.988281 -1.0625,6.039063 l 2.80469,7.136718 -7.58985,1.140625 c -2.17968,0.328125 -3.99218,1.851563 -4.6914,3.9375 l -2.44532,7.277349 -6.54296,-4 c -0.94141,-0.57813 -2.00391,-0.86719 -3.07032,-0.86719 -1.0625,0 -2.12109,0.28515 -3.066404,0.86328 l -6.539062,4 -2.445313,-7.277345 c -0.699219,-2.085937 -2.511719,-3.609375 -4.695312,-3.9375 l -7.578125,-1.144531 2.800781,-7.136719 c 0.808594,-2.050781 0.398437,-4.386719 -1.058594,-6.039063 l -5.078125,-5.75 z m 0,0"
            id="path2" />
        <path style="fill:#242938;fill-opacity:1;fill-rule:nonzero;stroke:none"
            d="m 102.97266,98.386719 c 9.44922,0 17.13281,-7.6875 17.13281,-17.132813 0,-9.445312 -7.68359,-17.128906 -17.13281,-17.128906 -9.445316,0 -17.12891,7.683594 -17.12891,17.128906 0,9.445313 7.691406,17.132813 17.12891,17.132813 z m 0,-22.515625 c 2.96875,0 5.38672,2.414062 5.38672,5.382812 0,2.96875 -2.41797,5.382813 -5.38672,5.382813 -2.96485,0 -5.382816,-2.414063 -5.382816,-5.382813 0,-2.96875 2.425786,-5.382812 5.382816,-5.382812 z m 0,0"
            id="path3" />
        <path style="fill:#242938;fill-opacity:1;fill-rule:nonzero;stroke:none"
            d="m 144.23437,83.03125 c -1.5625,0.855469 -2.67578,2.378906 -2.97265,4.140625 -0.31641,1.761719 0.19922,3.566406 1.38281,4.910156 l 5.61719,6.355469 -3.09766,7.89063 c -0.66015,1.66406 -0.51172,3.53906 0.38281,5.08593 0.89844,1.55078 2.44922,2.60547 4.21485,2.8711 l 8.39453,1.25781 2.69141,8.04297 c 0.57421,1.69531 1.8789,3.03515 3.55078,3.64844 1.69922,0.60937 3.54687,0.42578 5.08593,-0.50782 l 7.24219,-4.42578 7.23828,4.42578 c 0.9336,0.57032 2,0.86328 3.06641,0.86328 0.67578,0 1.35547,-0.11718 2.00391,-0.35546 1.68359,-0.60938 3,-1.95313 3.5664,-3.64844 l 2.69141,-8.04297 8.38672,-1.25781 c 1.77343,-0.26563 3.32031,-1.32422 4.21093,-2.8711 0.89454,-1.54687 1.03907,-3.42187 0.38672,-5.08593 l -3.10547,-7.89063 5.625,-6.355469 c 1.17579,-1.339843 1.69532,-3.148437 1.38282,-4.910156 -0.3125,-1.757813 -1.39453,-3.285156 -2.98438,-4.140625 l -7.4375,-4.050781 0.22266,-8.476563 c 0.0586,-1.789062 -0.73438,-3.5 -2.08594,-4.652344 -1.38672,-1.152343 -3.18359,-1.617187 -4.94922,-1.253906 l -8.3125,1.683594 -5.30078,-6.628906 c -2.21094,-2.800782 -6.94141,-2.800782 -9.19141,0 l -5.28515,6.628906 -8.3125,-1.683594 c -1.75781,-0.359375 -3.57813,0.105469 -4.94141,1.253906 -1.375,1.152344 -2.14062,2.863282 -2.09375,4.652344 l 0.21485,8.476563 z m 16.22266,4.539062 c 1.93359,-1.054687 3.12109,-3.105468 3.06641,-5.300781 l -0.1211,-4.699219 4.60547,0.933594 c 2.16406,0.4375 4.38672,-0.375 5.76563,-2.097656 l 2.92968,-3.671875 2.9375,3.671875 c 1.375,1.722656 3.59375,2.539062 5.76172,2.097656 l 4.61328,-0.933594 -0.10546,4.699219 c -0.0703,2.203125 1.125,4.253907 3.05078,5.300781 l 4.14453,2.246094 -3.11328,3.523438 c -1.45703,1.652344 -1.875,3.984375 -1.0586,6.035156 l 1.71485,4.375 -4.65235,0.69922 c -2.18359,0.32812 -3.99609,1.85156 -4.69531,3.94531 l -1.49219,4.45313 -4.0039,-2.44922 c -0.9375,-0.57813 -2.01172,-0.86719 -3.0625,-0.86719 -1.0625,0 -2.12891,0.28516 -3.06641,0.86719 l -3.99609,2.44922 -1.5,-4.45313 c -0.70703,-2.09375 -2.52735,-3.61719 -4.6875,-3.94531 l -4.65235,-0.69922 1.71485,-4.375 c 0.80468,-2.050781 0.39453,-4.382812 -1.0625,-6.035156 l -3.10547,-3.523438 z m 0,0"
            id="path4" />
        <path style="fill:#242938;fill-opacity:1;fill-rule:nonzero;stroke:none"
            d="m 176.69922,109.10547 c 8.22656,0 14.91015,-6.6875 14.91015,-14.910158 0,-8.222656 -6.68359,-14.910156 -14.91015,-14.910156 -8.23047,0 -14.92188,6.6875 -14.92188,14.910156 0.0117,8.222658 6.69532,14.910158 14.92188,14.910158 z m 0,-18.066408 c 1.72656,0 3.16406,1.417969 3.16406,3.164063 0,1.746094 -1.41406,3.164063 -3.16406,3.164063 -1.75,0 -3.17578,-1.417969 -3.17578,-3.164063 0.0117,-1.753906 1.4375,-3.164063 3.17578,-3.164063 z m 0,0"
            id="path5" />
    </g>
</svg>