<svg viewBox="0 0 256 256" width="256px" height="256px" version="1.1" id="svg1" xmlns="http://www.w3.org/2000/svg"
    xmlns:svg="http://www.w3.org/2000/svg">
    <title>OracleDB</title>
    <defs id="defs1" />
    <rect width="256" height="256" rx="60" fill="#F2F4ED" id="rect1" />
    <path fill="#ef0f14"
        d="m 24.603286,113.63295 h 14.486835 c 5.214665,0 11.22891,4.57116 11.22891,10.20349 0,5.63233 -6.009278,10.20351 -11.22891,10.20351 H 24.603286 c -5.214666,0 -9.242374,-4.56606 -9.242374,-10.20351 0,-5.63744 4.027708,-10.20349 9.242374,-10.20349 z m 199.448524,-5.10177 c -6.95784,0 -12.52015,6.85166 -12.52015,15.30526 0,8.45361 5.61197,15.30526 12.52015,15.30526 h 19.95976 l 4.7677,-5.10175 h -24.83174 c -4.45979,-0.23978 -6.40163,-3.25492 -7.44951,-7.65263 h 27.51355 l 4.7677,-5.10175 h -32.28125 c 1.05783,-4.39261 2.94006,-7.62713 7.44951,-7.65262 h 20.06404 l 4.7677,-5.10177 z m -44.8014,0 v 27.68211 c 0,0.75506 0.47181,1.48972 0.99823,2.05091 0.52643,0.56119 1.23662,0.8775 2.01137,0.8775 l 19.53761,0.0103 4.96635,-5.10176 -22.54722,-0.0103 v -25.49856 z m -30.58277,0 c -7.90147,0 -14.15905,6.86697 -14.15905,15.32058 0,8.4536 6.25758,15.28994 14.15905,15.28994 l 18.12221,-0.0612 5.70632,-5.04053 h -23.93282 c -5.21466,0 -9.13809,-4.56098 -9.13809,-10.19841 0,-5.63744 3.92343,-10.20861 9.13809,-10.20861 l 18.32086,0.0816 5.61196,-5.18338 z m -33.97977,0 c -1.28131,0 -2.59245,1.09688 -3.32746,2.46414 L 97.305646,139.1417 H 102.272 l 12.41587,-25.50875 8.39808,15.30525 h -13.16578 l 4.67334,4.99971 10.83162,-0.0306 3.26785,5.22931 5.36863,-0.0459 -16.27474,-28.09535 c -1.14226,-1.88254 -1.85742,-2.46415 -3.099,-2.46415 z m -54.629824,0 v 30.61052 h 4.966345 v -25.50875 h 14.899031 c 2.55767,0 4.966362,2.3672 4.966362,5.10174 0,2.73453 -2.408692,5.10175 -4.966362,5.10175 H 67.507555 l 17.287854,15.30526 h 7.543882 l -12.415869,-10.2035 1.673666,-0.0459 c 3.675098,0.005 8.259039,-4.43854 8.259039,-10.15759 0,-5.71907 -3.411892,-10.13208 -7.712745,-10.20351 z m -35.350468,0 c -7.901458,0 -14.313012,6.85676 -14.313012,15.30526 0,8.44851 6.411554,15.30526 14.313012,15.30526 h 14.293147 c 7.901456,0 16.090962,-6.85165 16.090962,-15.30526 0,-8.4536 -8.189506,-15.30526 -16.090962,-15.30526 z"
        id="path1" style="stroke-width:5.0336" />
</svg>