<svg width="256px" height="256px" viewBox="0 0 256 256" version="1.1" id="svg1" xmlns="http://www.w3.org/2000/svg"
    xmlns:svg="http://www.w3.org/2000/svg">
    <title>OSI</title>
    <defs id="defs1" />
    <rect width="256" height="256" rx="60" fill="#F2F4ED" id="rect1" />
    <g id="surface1" transform="matrix(0.94249346,0,0,0.92585203,6.4737154,6.8301529)">
        <path
            style="fill:#3fa851;fill-opacity:1;fill-rule:nonzero;stroke:#1e5428;stroke-width:0.959;stroke-linecap:butt;stroke-linejoin:round;stroke-miterlimit:4;stroke-opacity:1"
            d="m 2.72,-20.805855 c -8.571777,0 -15.52002,6.949707 -15.52002,15.520019 0,6.652832 4.187989,12.32666 10.069825,14.533691 L 0.845,-0.29023 c -2.021973,-0.759766 -3.461914,-2.709961 -3.461914,-4.995606 0,-2.946289 2.390137,-5.334961 5.334961,-5.334961 2.944824,0 5.334961,2.389649 5.334961,5.334961 0,2.286621 -1.439942,4.236816 -3.461914,4.995606 L 8.170195,9.249809 C 14.053008,7.042777 18.24002,1.369926 18.24002,-5.283883 c 0,-8.570312 -6.950196,-15.520019 -15.52002,-15.520019 z m 0,0"
            transform="matrix(8,0,0,8,106.24,174.232)" id="path1" />
    </g>
</svg>