<svg width="256px" height="256px" viewBox="0 0 256 256" xmlns="http://www.w3.org/2000/svg"
    xmlns:svg="http://www.w3.org/2000/svg">
    <title>Painting</title>
    <rect width="256" height="256" rx="60" fill="#f2f4ed" id="rect1" />
    <g id="surface1" transform="matrix(0.76885001,0,0,0.75094382,29.633588,29.47639)">
        <path style="fill:#242938;fill-opacity:1;fill-rule:nonzero;stroke:none"
            d="M 89.601562,185.60156 70.398438,166.39844 c -12.796876,-3.19922 -32,-1.59766 -43.199219,16 C 14.398438,200 22.398438,227.19922 0,256 0,256 56,256 76.800781,235.19922 96,216 96,200 92.800781,187.19922 Z m 0,0"
            id="path1" />
        <path style="fill:#242938;fill-opacity:1;fill-rule:nonzero;stroke:none"
            d="m 92.800781,129.60156 c -3.199219,4.79688 -8,11.19922 -11.199219,16 0,3.19922 -1.601562,4.79688 -3.203124,6.39844 l 24.000002,24 c 1.60156,-1.60156 4.80078,-3.19922 6.40234,-4.80078 C 113.60156,168 120,164.80078 124.80078,160 c 6.39844,0 9.59766,-3.19922 12.80078,-6.39844 L 102.39844,118.39844 C 99.199219,121.60156 96,124.80078 92.800781,129.60156 Z m 0,0"
            id="path2" />
        <path style="fill:#242938;fill-opacity:1;fill-rule:nonzero;stroke:none"
            d="m 252.80078,3.199219 c -4.80078,-4.800781 -11.19922,-4.800781 -16,-1.597657 0,0 -48,40 -94.40234,81.597657 -6.39844,6.402343 -11.19922,11.199219 -17.59766,16 -3.19922,3.199221 -6.40234,6.402341 -9.60156,8.000001 l 33.60156,33.60156 c 3.19922,-3.19922 6.39844,-6.40234 8,-11.19922 4.80078,-6.40234 9.59766,-11.20312 14.39844,-17.60156 40,-48 81.60156,-94.398438 81.60156,-94.398438 4.80078,-3.203124 4.80078,-9.601562 0,-14.402343 z m 0,0"
            id="path3" />
    </g>
</svg>