<svg width="256px" height="256px" viewBox="0 0 256 256" xmlns="http://www.w3.org/2000/svg"
   xmlns:svg="http://www.w3.org/2000/svg">
   <rect width="256" height="256" rx="60" fill="#f2f4ed" id="rect1" />
   <defs id="defs27">
      <linearGradient id="linear0" gradientUnits="userSpaceOnUse" x1="-33.423" y1="-250.910995" x2="-33.353001"
         y2="-250.858002" gradientTransform="matrix(297.07199,208.008,108.6,-155.09599,37387.785,-31856.152)">
         <stop offset="0" style="stop-color:rgb(46.27451%,46.27451%,46.27451%);stop-opacity:1;" id="stop1" />
         <stop offset="1" style="stop-color:rgb(0%,0%,0%);stop-opacity:1;" id="stop2" />
      </linearGradient>
      <linearGradient id="linear1" gradientUnits="userSpaceOnUse" x1="-32.106998" y1="-242.563004" x2="-32.028"
         y2="-242.585999" gradientTransform="matrix(648.64801,454.19199,138.448,-197.72,54432.168,-33197.152)">
         <stop offset="0" style="stop-color:rgb(0%,47.45098%,72.54902%);stop-opacity:1;" id="stop3" />
         <stop offset="1" style="stop-color:rgb(0%,0%,0%);stop-opacity:1;" id="stop4" />
      </linearGradient>
      <linearGradient id="linear2" gradientUnits="userSpaceOnUse" x1="-33.282001" y1="-243.423004" x2="-33.223999"
         y2="-243.455002" gradientTransform="matrix(480.02399,336.12,273.47199,-390.56,82744.039,-83752.672)">
         <stop offset="0" style="stop-color:rgb(0%,47.45098%,72.54902%);stop-opacity:1;" id="stop5" />
         <stop offset="1" style="stop-color:rgb(0%,0%,0%);stop-opacity:1;" id="stop6" />
      </linearGradient>
      <linearGradient id="linear3" gradientUnits="userSpaceOnUse" x1="12.356" y1="26.268" x2="14.011" y2="26.268"
         gradientTransform="scale(8)">
         <stop offset="0" style="stop-color:rgb(34.901961%,34.901961%,34.901961%);stop-opacity:1;" id="stop7" />
         <stop offset="0.087" style="stop-color:rgb(43.137255%,43.137255%,43.137255%);stop-opacity:1;" id="stop8" />
         <stop offset="0.242" style="stop-color:rgb(54.901961%,54.901961%,54.901961%);stop-opacity:1;" id="stop9" />
         <stop offset="0.405" style="stop-color:rgb(64.313725%,64.313725%,64.313725%);stop-opacity:1;" id="stop10" />
         <stop offset="0.577" style="stop-color:rgb(70.980392%,70.980392%,70.980392%);stop-opacity:1;" id="stop11" />
         <stop offset="0.765" style="stop-color:rgb(74.901961%,74.901961%,74.901961%);stop-opacity:1;" id="stop12" />
         <stop offset="1" style="stop-color:rgb(76.078431%,76.078431%,76.078431%);stop-opacity:1;" id="stop13" />
      </linearGradient>
      <linearGradient id="linear4" gradientUnits="userSpaceOnUse" x1="18.291" y1="26.171" x2="19.945999" y2="26.171"
         gradientTransform="scale(8)">
         <stop offset="0" style="stop-color:rgb(34.901961%,34.901961%,34.901961%);stop-opacity:1;" id="stop14" />
         <stop offset="0.087" style="stop-color:rgb(43.137255%,43.137255%,43.137255%);stop-opacity:1;" id="stop15" />
         <stop offset="0.242" style="stop-color:rgb(54.901961%,54.901961%,54.901961%);stop-opacity:1;" id="stop16" />
         <stop offset="0.405" style="stop-color:rgb(64.313725%,64.313725%,64.313725%);stop-opacity:1;" id="stop17" />
         <stop offset="0.577" style="stop-color:rgb(70.980392%,70.980392%,70.980392%);stop-opacity:1;" id="stop18" />
         <stop offset="0.765" style="stop-color:rgb(74.901961%,74.901961%,74.901961%);stop-opacity:1;" id="stop19" />
         <stop offset="1" style="stop-color:rgb(76.078431%,76.078431%,76.078431%);stop-opacity:1;" id="stop20" />
      </linearGradient>
      <linearGradient id="linear5" gradientUnits="userSpaceOnUse" x1="24.440001" y1="26.171" x2="26.096001" y2="26.171"
         gradientTransform="scale(8)">
         <stop offset="0" style="stop-color:rgb(34.901961%,34.901961%,34.901961%);stop-opacity:1;" id="stop21" />
         <stop offset="0.087" style="stop-color:rgb(43.137255%,43.137255%,43.137255%);stop-opacity:1;" id="stop22" />
         <stop offset="0.242" style="stop-color:rgb(54.901961%,54.901961%,54.901961%);stop-opacity:1;" id="stop23" />
         <stop offset="0.405" style="stop-color:rgb(64.313725%,64.313725%,64.313725%);stop-opacity:1;" id="stop24" />
         <stop offset="0.577" style="stop-color:rgb(70.980392%,70.980392%,70.980392%);stop-opacity:1;" id="stop25" />
         <stop offset="0.765" style="stop-color:rgb(74.901961%,74.901961%,74.901961%);stop-opacity:1;" id="stop26" />
         <stop offset="1" style="stop-color:rgb(76.078431%,76.078431%,76.078431%);stop-opacity:1;" id="stop27" />
      </linearGradient>
   </defs>
   <g id="surface1" transform="matrix(0.87631044,0,0,0.84426026,17.964336,14.608686)">
      <path style="fill:#19073f;fill-opacity:1;fill-rule:nonzero;stroke:none"
         d="m 162.44141,142.97656 54.83984,36.36719 -43.51953,24.60156 -54.875,-35.95312 z m 0,0" id="path27" />
      <path style="fill:#000000;fill-opacity:1;fill-rule:nonzero;stroke:none"
         d="m 173.72656,204.95312 -0.4375,-0.28906 -56.04297,-36.71875 45.22657,-25.97656 56.44921,37.4375 z m -53.19922,-36.90625 53.26563,34.89844 41.84765,-23.65625 L 162.39844,144 Z m 0,0"
         id="path28" />
      <path style="fill:url(#linear0);fill-rule:nonzero;stroke:none"
         d="m 211.20703,95.273438 24.13672,13.460942 -18.78516,11.96875 -22.85547,-14.72657 z m 0,0" id="path29" />
      <path style="fill:#000000;fill-opacity:1;fill-rule:nonzero;stroke:none"
         d="m 216.55078,121.71875 -24.46094,-15.75781 19.09375,-11.67969 25.82422,14.39844 z m -21.23047,-15.72656 21.23828,13.6875 17.10547,-10.87891 -22.39844,-12.51953 z m 0,0"
         id="path30" />
      <path style="fill:#ffbd3d;fill-opacity:1;fill-rule:nonzero;stroke:none"
         d="m 115.98438,142.45703 54.84765,36.375 -43.51953,24.60156 -54.871094,-35.95312 z m 0,0" id="path31" />
      <path style="fill:#000000;fill-opacity:1;fill-rule:nonzero;stroke:none"
         d="M 127.28125,204.43359 126.83984,204.14453 70.800781,167.43359 116,141.44922 l 56.44922,37.4375 z m -53.203125,-36.90625 53.265625,34.8711 41.84766,-23.65625 -53.23047,-35.30078 z m 0,0"
         id="path32" />
      <path style="fill:#a11e3f;fill-opacity:1;fill-rule:nonzero;stroke:none"
         d="m 63.921875,143.72656 55.710935,35.20313 -43.015622,25.10156 -58.875,-37.23828 z m 0,0" id="path33" />
      <path style="fill:#000000;fill-opacity:1;fill-rule:nonzero;stroke:none"
         d="M 76.601562,205.03125 16,166.70312 l 48,-24 57.3125,36.21875 z M 19.488281,166.87891 76.640625,203.02344 117.98438,178.89453 63.871094,144.71094 Z m 0,0"
         id="path34" />
      <path style="fill:url(#linear1);fill-rule:nonzero;stroke:none"
         d="m 16.886719,168.16797 58.65625,35.95312 v 28.38282 l -58.65625,-37.84766 z m 0,0" id="path35" />
      <path style="fill:#000000;fill-opacity:1;fill-rule:nonzero;stroke:none"
         d="M 76.398438,234.07812 16,195.12891 v -28.4961 l 60.398438,37.00781 z M 17.742188,194.19141 74.6875,230.92969 V 204.60156 L 17.742188,169.70312 Z m 0,0"
         id="path36" />
      <path style="fill:url(#linear2);fill-rule:nonzero;stroke:none"
         d="m 192.56641,106.74219 23.5039,15.03515 v 55.26953 l -23.5039,-15.07031 z m 0,0" id="path37" />
      <path style="fill:#000000;fill-opacity:1;fill-rule:nonzero;stroke:none"
         d="m 216.50391,177.83203 -24.35938,-15.625 v -56.24609 l 24.35938,15.57422 z M 193,161.73437 l 22.64844,14.52344 v -54.25 L 193,107.52734 Z m 0,0"
         id="path38" />
      <path style="fill:#ffffff;fill-opacity:1;fill-rule:nonzero;stroke:none"
         d="m 217.19141,180.20703 v -58.65625 l 18.92187,-11.35156 V 233.19141 H 77.167969 v -28.38282 l 43.519531,-24.60156 5.59375,24.60156 h 0.0859 l 45.41015,-24.60156 3.35157,24.60156 h 0.42968 z m 0,0"
         id="path39" />
      <path style="fill:#000000;fill-opacity:1;fill-rule:nonzero;stroke:none"
         d="M 236.96875,234.04687 H 76.3125 v -29.74218 l 44.96094,-25.41797 5.59765,24.66406 45.60157,-24.69531 3.375,24.80078 40.48828,-23.92969 V 121.0625 l 20.64062,-12.38281 z M 78.023438,232.32812 H 235.25781 V 111.71094 l -17.21094,10.32031 v 58.65625 l -0.42187,0.25 -41.83203,24.71875 h -1.39453 l -3.28516,-24.11328 -44.51172,24.11328 h -1 l -5.48828,-24.14453 -42.08203,23.78515 z m 0,0"
         id="path40" />
      <path style="fill:url(#linear3);fill-rule:nonzero;stroke:none"
         d="m 100.56641,203.51953 h 9.80859 l 1.72266,11.52734 -11.53125,1.72266 -1.718754,-11.53125 z m 0,0"
         id="path41" />
      <path style="fill:#000000;fill-opacity:1;fill-rule:nonzero;stroke:none"
         d="m 110.39844,217.60156 h -9.83985 c -1.421871,0 -2.574215,-1.15625 -2.574215,-2.57812 v -9.78516 c 0,-1.42187 1.152344,-2.57422 2.574215,-2.57422 h 9.83985 c 1.42578,0 2.57812,1.15235 2.57812,2.57422 v 9.80859 c -0.0156,1.41407 -1.16406,2.55469 -2.57812,2.55469 z m -9.83985,-13.22656 -0.855465,10.66406 10.695315,0.85547 0.85937,-10.65625 z m 0,0"
         id="path42" />
      <path style="fill:url(#linear4);fill-rule:nonzero;stroke:none"
         d="m 148.04687,202.74219 h 9.8086 l 1.71875,11.53125 -11.52735,1.71875 -1.71875,-11.52735 z m 0,0"
         id="path43" />
      <path style="fill:#000000;fill-opacity:1;fill-rule:nonzero;stroke:none"
         d="m 157.85547,216.84766 h -9.81641 c -1.42187,0 -2.57422,-1.15235 -2.57422,-2.57422 v -9.8086 c 0,-1.42187 1.15235,-2.57812 2.57422,-2.57812 h 9.8086 c 1.42187,0 2.57812,1.15625 2.57812,2.57812 v 9.8086 c 0,1.41797 -1.14844,2.57031 -2.57031,2.57422 z m -9.8086,-13.2461 -0.85546,10.66406 10.66406,0.85547 0.85547,-10.65625 z m 0,0"
         id="path44" />
      <path style="fill:url(#linear5);fill-rule:nonzero;stroke:none"
         d="m 197.23828,202.74219 h 9.80859 l 1.72266,11.53125 -11.53125,1.71875 -1.71875,-11.52735 z m 0,0"
         id="path45" />
      <path style="fill:#000000;fill-opacity:1;fill-rule:nonzero;stroke:none"
         d="m 207.04687,216.84766 h -9.80859 c -1.42187,0 -2.57422,-1.15235 -2.57422,-2.57422 v -9.8086 c 0,-1.42187 1.15235,-2.57812 2.57422,-2.57812 h 9.80859 c 1.42188,0 2.57813,1.15625 2.57813,2.57812 v 9.8086 c 0,1.42187 -1.15625,2.57422 -2.57813,2.57422 z m -9.80859,-13.2461 -0.85547,10.66406 10.66406,0.85547 0.85547,-10.65625 z m 0,0"
         id="path46" />
      <path style="fill:#e82b2e;fill-opacity:1;fill-rule:nonzero;stroke:none"
         d="m 217.71875,89.839844 c -0.41406,0.550781 -3.33594,-2.097656 -5.22266,-4.207032 -1.57031,-1.800781 -2.95312,-3.757812 -4.1289,-5.839843 -1.25391,-1.898438 -2.19141,-3.992188 -2.76563,-6.191407 -0.40625,-1.789062 -0.54297,-3.628906 -0.41797,-5.457031 0.0859,-2.035156 0.4336,-4.046875 1.03125,-5.992187 1.32422,-3.664063 3.48047,-6.96875 6.29688,-9.65625 3.64844,-3.519532 7.07422,-7.261719 10.26562,-11.199219 1.69141,-2.234375 2.98828,-4.742187 3.83203,-7.417969 0.64844,-2.226562 1.05469,-4.523437 1.20704,-6.839844 0.15234,-2.910156 -0.19922,-4.742187 0.18359,-4.902343 0.38281,-0.160157 1.71875,2.191406 2.29687,4.511719 0.77344,5.855468 -0.52343,11.796874 -3.66406,16.800781 -2.39453,4.230469 -5.33984,8.125 -8.7539,11.582031 -3.11719,2.613281 -5.46485,6.027344 -6.78907,9.871094 -0.48828,1.792968 -0.71875,3.640625 -0.6914,5.496094 0.28125,4.355468 1.58593,8.582031 3.80859,12.335937 2.30469,4.578125 3.83984,6.664063 3.51172,7.105469 z m 0,0"
         id="path47" />
      <path style="fill:#000000;fill-opacity:1;fill-rule:nonzero;stroke:none"
         d="m 217.54297,90.128906 c -0.99219,0 -3.9336,-2.921875 -5.20703,-4.351562 -1.58203,-1.8125 -2.97266,-3.78125 -4.16016,-5.875 -1.25781,-1.917969 -2.19141,-4.027344 -2.76953,-6.246094 -0.41016,-1.808594 -0.55078,-3.667969 -0.42188,-5.519531 0.0859,-2.054688 0.4336,-4.085938 1.03907,-6.046875 1.34375,-3.6875 3.51562,-7.015625 6.34375,-9.730469 2.35156,-2.648437 4,-4.222656 5.27343,-5.488281 1.85938,-1.710938 3.52735,-3.617188 4.97657,-5.6875 1.67578,-2.214844 2.96484,-4.703125 3.80859,-7.351563 0.64453,-2.214843 1.04688,-4.492187 1.19922,-6.792969 0.0625,-1.269531 0,-2.351562 0,-3.144531 0,-1.269531 -0.0508,-1.796875 0.30469,-1.941406 1.48828,1.316406 2.26172,2.914063 2.58203,4.632813 0.80859,5.910156 -0.49219,11.921874 -3.67969,16.964843 -2.41016,4.246094 -5.36719,8.15625 -8.80078,11.625 -0.4375,0.480469 -0.87109,0.929688 -1.29688,1.367188 -2.55859,2.246093 -4.44531,5.160156 -5.44531,8.417969 -0.46484,1.753906 -0.6875,3.566406 -0.65625,5.382812 0.28516,4.320312 1.58203,8.511719 3.78125,12.242188 0.91406,1.847656 1.72266,3.316406 2.3125,4.390624 1.03516,1.878907 1.42578,2.582032 1.13672,2.953126 z m 10.55469,-67.730468 c -0.0586,0.507812 -0.0586,1.015624 0,1.523437 0,0.796875 0.0547,1.886719 0,3.199219 -0.15625,2.332031 -0.5625,4.640625 -1.21875,6.886718 -0.85157,2.691407 -2.16016,5.21875 -3.86329,7.472657 -1.46484,2.09375 -3.15234,4.019531 -5.03125,5.75 -1.29687,1.265625 -2.91406,2.832031 -5.25781,5.464843 -2.78906,2.679688 -4.92969,5.964844 -6.2539,9.601563 -0.59766,1.929687 -0.94141,3.925781 -1.02344,5.941406 -0.125,1.8125 0.0117,3.632813 0.41406,5.402344 0.57031,2.179687 1.49219,4.253906 2.73047,6.136719 1.16797,2.066406 2.54297,4.007812 4.10156,5.796875 1.33203,1.714843 2.9961,3.148437 4.89063,4.210937 -0.26953,-0.878906 -0.66797,-1.714844 -1.17969,-2.480468 -0.58984,-1.074219 -1.39844,-2.542969 -2.31641,-4.410157 -2.25781,-3.800781 -3.58203,-8.082031 -3.86718,-12.496093 -0.0273,-1.855469 0.19921,-3.707032 0.67187,-5.503907 1.03125,-3.320312 2.94922,-6.292969 5.55469,-8.597656 0.41406,-0.441406 0.84765,-0.890625 1.28515,-1.367187 3.40235,-3.445313 6.33594,-7.324219 8.72266,-11.539063 3.13672,-4.953125 4.42578,-10.851563 3.64844,-16.664063 -0.32031,-1.578124 -1.00781,-3.0625 -2.00781,-4.328124 z m 0,0"
         id="path48" />
      <path style="fill:#e82b2e;fill-opacity:1;fill-rule:nonzero;stroke:none"
         d="m 239.77734,48.695312 c -0.15234,-0.703124 -3.45703,-0.320312 -6.1289,0.585938 -3.26172,1.1875 -6.17578,3.171875 -8.47266,5.773438 -4.24609,3.832031 -6.87109,9.140624 -7.32812,14.839843 0.16015,2.929688 0.85937,5.804688 2.0625,8.480469 1.76953,4.578125 3.64062,6.183594 3.55468,9.800781 -0.0586,2.398438 -0.91406,3.871094 -0.38672,4.390625 0.53125,0.523438 2.51563,-0.796875 3.69922,-2.503906 1.48828,-2.457031 2.21094,-5.304688 2.07032,-8.175781 -0.36719,-6.519531 -4.80079,-8.117188 -4.86329,-14.398438 0.004,-1.851562 0.35547,-3.6875 1.03125,-5.410156 3.54297,-10.007813 15.04688,-12.0625 14.76172,-13.382813 z m 0,0"
         id="path49" />
      <path style="fill:#000000;fill-opacity:1;fill-rule:nonzero;stroke:none"
         d="m 223.47266,92.9375 c -0.92188,-0.578125 -0.79297,-1.183594 -0.59375,-2.105469 0.20703,-0.867187 0.32812,-1.753906 0.35937,-2.648437 -0.0234,-2.042969 -0.61719,-4.035156 -1.71094,-5.757813 -0.67968,-1.289062 -1.28906,-2.609375 -1.82422,-3.960937 -1.21484,-2.699219 -1.91796,-5.605469 -2.07031,-8.5625 0.44141,-5.757813 3.08594,-11.128906 7.38281,-14.992188 2.32422,-2.621094 5.26563,-4.625 8.5586,-5.832031 C 235.51172,48.277344 237.625,48 239.70312,48.28125 L 240,48.648438 c 0.12109,0.558593 -0.73438,0.96875 -2.44922,1.792968 -5.52344,2.074219 -9.97266,6.292969 -12.33594,11.703125 -0.66797,1.699219 -1.01172,3.507813 -1.01562,5.335938 0.0781,2.535156 0.88672,4.992187 2.32812,7.078125 1.46485,2.175781 2.33985,4.695312 2.53516,7.3125 0.15234,2.921875 -0.58594,5.816406 -2.10938,8.3125 -0.77734,1.273437 -1.96484,2.238281 -3.36718,2.738281 z m 15.11328,-44.394531 c -1.66016,0.07422 -3.30078,0.386719 -4.86719,0.9375 -3.22656,1.179687 -6.10547,3.148437 -8.38281,5.71875 -4.21875,3.785156 -6.82032,9.046875 -7.27344,14.695312 0.16016,2.902344 0.85156,5.753907 2.05078,8.402344 0.52734,1.335937 1.12891,2.644531 1.79688,3.917969 1.125,1.789062 1.73437,3.851562 1.76171,5.960937 -0.0352,0.917969 -0.16015,1.832031 -0.375,2.726563 -0.15234,0.730468 -0.28125,1.304687 -0.0742,1.503906 1.57812,-0.410156 2.65625,-1.308594 3.36328,-2.476562 1.45312,-2.421876 2.16015,-5.21875 2.03125,-8.042969 -0.19532,-2.546875 -1.05078,-5 -2.48047,-7.117188 -1.48047,-2.152343 -2.3125,-4.679687 -2.40235,-7.289062 0.004,-1.878907 0.35547,-3.742188 1.04297,-5.488281 2.40235,-5.519532 6.94532,-9.828126 12.58203,-11.9375 1.00782,-0.488282 2.26563,-1.085938 2.21485,-1.3125 l -0.0625,-0.05469 z m 0,0"
         id="path50" />
   </g>
</svg>