<svg xmlns="http://www.w3.org/2000/svg" xmlns:xlink="http://www.w3.org/1999/xlink" width="256px" height="256px" viewBox="0 0 256 256" version="1.1">
<g id="surface1">
<path style=" stroke:none;fill-rule:nonzero;fill:rgb(100%,100%,100%);fill-opacity:1;" d="M 60 0 L 196 0 C 229.136719 0 256 26.863281 256 60 L 256 196 C 256 229.136719 229.136719 256 196 256 L 60 256 C 26.863281 256 0 229.136719 0 196 L 0 60 C 0 26.863281 26.863281 0 60 0 Z M 60 0 "/>
<path style=" stroke:none;fill-rule:nonzero;fill:rgb(23.529412%,43.137255%,70.588235%);fill-opacity:1;" d="M 181.347656 123.496094 C 181.621094 125.183594 181.894531 126.875 182.226562 128.523438 L 198.546875 128.523438 L 198.546875 123.496094 Z M 184.054688 136.0625 C 184.390625 137.21875 184.746094 138.367188 185.144531 139.511719 C 186.089844 139.984375 187.015625 140.507812 187.90625 141.097656 L 208.59375 141.097656 L 208.59375 136.0625 Z M 150.46875 138.398438 C 149.691406 138.679688 148.933594 139.011719 148.1875 139.367188 L 148.1875 139.375 C 148.933594 139.015625 149.691406 138.679688 150.46875 138.398438 Z M 75.304688 201.390625 L 75.304688 206.421875 L 135.726562 206.421875 L 135.726562 201.390625 Z M 110.492188 213.957031 L 110.492188 218.972656 L 160.234375 218.972656 L 160.234375 213.957031 Z M 110.492188 213.957031 "/>
<path style=" stroke:none;fill-rule:nonzero;fill:rgb(80%,80%,80%);fill-opacity:1;" d="M 122.902344 44.152344 C 113.957031 44.152344 105.191406 45.183594 99.96875 47.261719 C 85.59375 52.523438 74.550781 66.894531 71.277344 84.308594 C 66.96875 104.691406 67.226562 120.644531 62.945312 135.652344 C 64.902344 134.164062 67.070312 132.972656 69.378906 132.117188 C 72.71875 130.796875 78.324219 130.132812 84.042969 130.132812 C 89.765625 130.132812 95.613281 130.796875 99.40625 132.117188 C 107.734375 135.160156 114.308594 142.980469 117.027344 152.679688 L 134.738281 152.679688 C 138.367188 145.972656 143.902344 140.792969 150.46875 138.398438 C 157.609375 135.566406 174.457031 135.574219 182.570312 138.398438 C 183.449219 138.71875 184.304688 139.109375 185.148438 139.527344 C 179.566406 123.371094 180.277344 106.449219 175.59375 84.308594 C 172.324219 66.894531 161.277344 52.523438 146.902344 47.261719 C 140.972656 45.191406 131.847656 44.152344 122.902344 44.152344 Z M 122.902344 44.152344 "/>
<path style=" stroke:none;fill-rule:nonzero;fill:rgb(90.588235%,90.980392%,91.372549%);fill-opacity:1;" d="M 94.042969 105.246094 C 90.679688 105.25 87.957031 108.121094 87.957031 111.664062 C 87.957031 115.207031 90.679688 118.078125 94.042969 118.082031 C 97.40625 118.082031 100.128906 115.207031 100.128906 111.664062 C 100.128906 108.121094 97.40625 105.25 94.042969 105.246094 Z M 155.613281 105.246094 C 152.253906 105.25 149.527344 108.121094 149.527344 111.664062 C 149.527344 115.207031 152.253906 118.078125 155.613281 118.082031 C 157.234375 118.085938 158.785156 117.410156 159.929688 116.207031 C 161.074219 115.003906 161.71875 113.367188 161.71875 111.664062 C 161.71875 109.960938 161.074219 108.324219 159.929688 107.121094 C 158.785156 105.917969 157.234375 105.242188 155.613281 105.246094 Z M 155.613281 105.246094 "/>
<path style=" stroke:none;fill-rule:nonzero;fill:rgb(65.490196%,66.27451%,67.45098%);fill-opacity:1;" d="M 104.300781 106.917969 L 81.65625 112.988281 L 82.304688 115.417969 L 104.953125 109.34375 Z M 147.160156 106.917969 L 146.507812 109.34375 L 169.152344 115.417969 L 169.804688 112.988281 Z M 106.566406 110.578125 L 83.792969 123.730469 L 85.050781 125.90625 L 107.820312 112.753906 Z M 144.90625 110.578125 L 143.648438 112.753906 L 166.421875 125.90625 L 167.679688 123.730469 Z M 108.234375 114.941406 L 92.550781 130.644531 C 93.617188 130.78125 94.632812 130.949219 95.605469 131.140625 L 110.011719 116.714844 Z M 143.238281 114.941406 L 141.464844 116.714844 L 161.160156 136.441406 C 162.273438 136.371094 163.414062 136.320312 164.566406 136.296875 Z M 108.996094 120.660156 L 101.785156 133.160156 C 102.535156 133.527344 103.269531 133.933594 103.980469 134.382812 L 111.171875 121.914062 Z M 142.476562 120.660156 L 140.300781 121.914062 L 149.933594 138.617188 C 150.113281 138.546875 150.285156 138.464844 150.46875 138.398438 C 151.035156 138.171875 151.679688 137.972656 152.359375 137.785156 Z M 142.476562 120.660156 "/>
<path style=" stroke:none;fill-rule:nonzero;fill:rgb(100%,100%,100%);fill-opacity:1;" d="M 145.039062 107.164062 C 145.039062 117.445312 136.28125 125.78125 125.476562 125.78125 C 114.667969 125.785156 105.910156 117.445312 105.910156 107.164062 C 105.910156 96.878906 114.671875 88.546875 125.476562 88.546875 C 136.277344 88.546875 145.035156 96.882812 145.035156 107.164062 Z M 145.039062 107.164062 "/>
<path style=" stroke:none;fill-rule:nonzero;fill:rgb(50.196078%,50.196078%,50.196078%);fill-opacity:1;" d="M 133.824219 103.808594 C 133.167969 102.105469 133.167969 98.707031 131.199219 98.707031 C 129.234375 98.707031 127.410156 97.429688 125.476562 97.429688 C 123.539062 97.429688 121.722656 98.707031 119.75 98.707031 C 117.78125 98.707031 117.78125 102.105469 117.125 103.808594 C 116.46875 105.507812 125.476562 111.03125 125.476562 111.03125 C 125.476562 111.03125 134.480469 105.507812 133.824219 103.808594 Z M 133.824219 103.808594 "/>
<path style=" stroke:none;fill-rule:nonzero;fill:rgb(23.529412%,43.137255%,70.588235%);fill-opacity:1;" d="M 116.136719 149.894531 C 116.734375 151.507812 117.210938 153.191406 117.578125 154.925781 L 133.613281 154.925781 C 134.421875 153.152344 135.359375 151.46875 136.410156 149.890625 Z M 196.632812 149.894531 C 197.699219 151.496094 198.632812 153.175781 199.425781 154.925781 L 219.601562 154.925781 L 219.601562 149.894531 Z M 196.632812 149.894531 "/>
<path style=" stroke:none;fill-rule:nonzero;fill:rgb(80%,80%,80%);fill-opacity:1;" d="M 84.046875 130.132812 C 78.324219 130.132812 72.71875 130.796875 69.378906 132.117188 C 60.183594 135.480469 53.128906 144.652344 51.035156 155.761719 C 49.941406 160.910156 49.316406 165.585938 48.78125 169.988281 L 120.003906 169.988281 C 119.46875 165.585938 118.855469 160.914062 117.761719 155.761719 C 115.671875 144.652344 108.601562 135.480469 99.40625 132.121094 C 95.609375 130.800781 89.765625 130.132812 84.042969 130.132812 Z M 84.046875 130.132812 "/>
<path style=" stroke:none;fill-rule:nonzero;fill:rgb(90.588235%,90.980392%,91.372549%);fill-opacity:1;" d="M 65.59375 169.117188 C 64.761719 169.144531 63.960938 169.449219 63.308594 169.988281 L 67.972656 169.988281 C 67.292969 169.429688 66.457031 169.125 65.59375 169.121094 Z M 104.988281 169.117188 C 104.160156 169.144531 103.355469 169.449219 102.703125 169.988281 L 107.371094 169.988281 C 106.6875 169.429688 105.851562 169.125 104.988281 169.121094 Z M 104.988281 169.117188 "/>
<path style=" stroke:none;fill-rule:nonzero;fill:rgb(65.490196%,66.27451%,67.45098%);fill-opacity:1;" d="M 72.042969 169.75 L 71.160156 169.988281 L 72.109375 169.988281 Z M 99.6875 169.75 L 99.625 169.988281 L 100.574219 169.988281 Z M 99.6875 169.75 "/>
<path style=" stroke:none;fill-rule:nonzero;fill:rgb(100%,100%,100%);fill-opacity:1;" d="M 85.703125 158.476562 C 78.957031 158.492188 73.4375 163.585938 73.226562 169.988281 L 98.160156 169.988281 C 97.949219 163.59375 92.441406 158.503906 85.703125 158.476562 Z M 85.703125 158.476562 "/>
<path style=" stroke:none;fill-rule:nonzero;fill:rgb(50.196078%,50.196078%,50.196078%);fill-opacity:1;" d="M 85.703125 164.136719 C 84.464844 164.136719 83.300781 164.957031 82.042969 164.957031 C 80.785156 164.957031 80.773438 167.121094 80.355469 168.207031 C 80.210938 168.585938 80.84375 169.269531 81.695312 169.988281 L 89.707031 169.988281 C 90.558594 169.269531 91.179688 168.585938 91.03125 168.207031 C 90.609375 167.121094 90.617188 164.957031 89.359375 164.957031 C 88.101562 164.957031 86.941406 164.136719 85.703125 164.136719 Z M 85.703125 164.136719 "/>
<path style=" stroke:none;fill-rule:nonzero;fill:rgb(53.72549%,17.254902%,62.745098%);fill-opacity:1;" d="M 178.703125 17.195312 L 77.136719 17.496094 C 76.375 17.5 75.65625 17.847656 75.183594 18.441406 L 12.078125 98.128906 C 11.609375 98.726562 11.4375 99.503906 11.605469 100.246094 L 34.492188 199.304688 C 34.667969 200.050781 35.171875 200.679688 35.863281 201.007812 L 127.496094 244.851562 C 128.183594 245.175781 128.988281 245.171875 129.671875 244.835938 L 221.050781 200.453125 C 221.742188 200.117188 222.242188 199.484375 222.40625 198.734375 L 244.722656 99.550781 C 244.890625 98.808594 244.710938 98.03125 244.234375 97.4375 L 180.679688 18.125 C 180.195312 17.53125 179.46875 17.1875 178.707031 17.195312 Z M 177.507812 22.226562 L 239.550781 99.632812 L 217.769531 196.46875 L 128.582031 239.792969 L 39.128906 197.003906 L 16.78125 100.292969 L 78.367188 22.507812 Z M 177.507812 22.226562 "/>
<path style=" stroke:none;fill-rule:nonzero;fill:rgb(80%,80%,80%);fill-opacity:1;" d="M 205.867188 188.976562 C 204.765625 181.460938 204.230469 173.285156 202.191406 163.667969 C 199.953125 151.792969 192.398438 141.984375 182.570312 138.394531 C 174.457031 135.570312 157.609375 135.5625 150.46875 138.394531 C 140.636719 141.984375 133.085938 151.792969 130.847656 163.667969 C 128.808594 173.289062 128.273438 181.460938 127.167969 188.976562 "/>
<path style=" stroke:none;fill-rule:nonzero;fill:rgb(90.588235%,90.980392%,91.372549%);fill-opacity:1;" d="M 146.421875 177.953125 C 144.121094 177.953125 142.253906 179.917969 142.257812 182.335938 C 142.253906 184.757812 144.121094 186.71875 146.421875 186.71875 C 148.722656 186.71875 150.585938 184.753906 150.585938 182.335938 C 150.585938 179.917969 148.722656 177.953125 146.421875 177.953125 Z M 188.53125 177.953125 C 186.230469 177.953125 184.363281 179.917969 184.367188 182.335938 C 184.363281 184.757812 186.230469 186.71875 188.53125 186.71875 C 190.835938 186.71875 192.699219 184.753906 192.695312 182.335938 C 192.699219 179.917969 190.835938 177.953125 188.53125 177.953125 Z M 188.53125 177.953125 "/>
<path style=" stroke:none;fill-rule:nonzero;fill:rgb(65.490196%,66.27451%,67.45098%);fill-opacity:1;" d="M 153.335938 178.710938 L 137.847656 182.859375 L 138.5 185.285156 L 153.984375 181.136719 Z M 182.847656 178.710938 L 182.195312 181.136719 L 197.683594 185.285156 L 198.335938 182.859375 Z M 154.785156 181.246094 L 139.214844 190.222656 L 140.46875 192.398438 L 156.039062 183.425781 Z M 181.398438 181.246094 L 180.140625 183.425781 L 195.707031 192.398438 L 196.964844 190.222656 Z M 181.398438 181.246094 "/>
<path style=" stroke:none;fill-rule:nonzero;fill:rgb(100%,100%,100%);fill-opacity:1;" d="M 181.292969 179.269531 C 181.292969 186.28125 175.304688 191.96875 167.914062 191.96875 C 160.523438 191.96875 154.535156 186.28125 154.535156 179.269531 C 154.535156 172.253906 160.523438 166.566406 167.914062 166.566406 C 175.304688 166.566406 181.292969 172.253906 181.292969 179.269531 Z M 181.292969 179.269531 "/>
<path style=" stroke:none;fill-rule:nonzero;fill:rgb(50.196078%,50.196078%,50.196078%);fill-opacity:1;" d="M 173.625 176.976562 C 173.175781 175.816406 173.175781 173.496094 171.828125 173.496094 C 170.484375 173.496094 169.242188 172.628906 167.914062 172.628906 C 166.589844 172.628906 165.34375 173.496094 164 173.496094 C 162.652344 173.496094 162.652344 175.816406 162.203125 176.976562 C 161.753906 178.136719 167.914062 181.90625 167.914062 181.90625 C 167.914062 181.90625 174.074219 178.136719 173.625 176.976562 Z M 173.625 176.976562 "/>
<path style=" stroke:none;fill-rule:nonzero;fill:rgb(37.647059%,37.647059%,35.686275%);fill-opacity:1;" d="M 125.476562 86.667969 C 113.703125 86.667969 104.03125 95.820312 104.03125 107.171875 C 104.03125 118.523438 113.703125 127.675781 125.476562 127.675781 C 137.253906 127.675781 146.925781 118.523438 146.925781 107.171875 C 146.925781 95.820312 137.25 86.667969 125.476562 86.667969 Z M 125.476562 90.4375 C 135.3125 90.4375 143.15625 97.960938 143.15625 107.171875 C 143.15625 116.382812 135.3125 123.902344 125.476562 123.902344 C 115.644531 123.902344 107.796875 116.382812 107.796875 107.171875 C 107.796875 97.960938 115.644531 90.4375 125.476562 90.4375 Z M 85.703125 156.582031 C 77.949219 156.582031 71.527344 162.523438 71.316406 169.988281 L 75.085938 169.988281 C 75.289062 164.667969 79.890625 160.351562 85.703125 160.351562 C 91.515625 160.351562 96.109375 164.667969 96.316406 169.988281 L 100.082031 169.988281 C 99.878906 162.527344 93.449219 156.582031 85.703125 156.582031 Z M 167.917969 164.6875 C 159.5625 164.6875 152.648438 171.171875 152.648438 179.261719 C 152.648438 187.351562 159.5625 193.847656 167.917969 193.847656 C 176.273438 193.847656 183.1875 187.347656 183.1875 179.261719 C 183.1875 171.171875 176.273438 164.6875 167.917969 164.6875 Z M 167.917969 168.457031 C 174.339844 168.457031 179.417969 173.316406 179.417969 179.261719 C 179.417969 185.203125 174.339844 190.082031 167.917969 190.082031 C 161.496094 190.082031 156.421875 185.203125 156.421875 179.261719 C 156.421875 173.320312 161.496094 168.453125 167.917969 168.453125 Z M 167.917969 168.457031 "/>
<path style=" stroke:none;fill-rule:nonzero;fill:rgb(23.529412%,43.137255%,70.588235%);fill-opacity:1;" d="M 40.628906 169.988281 L 40.628906 175.015625 L 128.9375 175.015625 C 129.15625 173.382812 129.398438 171.707031 129.675781 169.988281 Z M 85.371094 188.835938 L 85.371094 193.847656 L 215.957031 193.847656 L 215.957031 188.835938 L 205.851562 188.835938 L 205.871094 188.972656 L 127.167969 188.972656 L 127.183594 188.835938 Z M 85.371094 188.835938 "/>
<path style=" stroke:none;fill-rule:nonzero;fill:rgb(0%,0%,0%);fill-opacity:1;" d="M 122.90625 42.269531 L 122.902344 42.269531 C 113.824219 42.269531 104.992188 43.261719 99.296875 45.519531 C 84.203125 51.0625 72.824219 65.972656 69.441406 83.921875 C 66.429688 98.164062 65.632812 110.207031 64.03125 121.109375 C 63.347656 125.773438 62.503906 130.210938 61.304688 134.554688 C 55.179688 139.390625 50.78125 146.882812 49.171875 155.417969 C 48.050781 160.726562 47.429688 165.511719 46.886719 169.988281 L 50.675781 169.988281 C 51.199219 165.667969 51.8125 161.132812 52.867188 156.15625 L 52.878906 156.140625 L 52.878906 156.105469 C 54.867188 145.566406 61.574219 136.988281 70.023438 133.902344 L 70.058594 133.882812 L 70.070312 133.871094 C 72.9375 132.734375 78.464844 132.023438 84.042969 132.023438 C 89.613281 132.023438 95.363281 132.714844 98.773438 133.902344 C 107.21875 136.992188 113.917969 145.574219 115.902344 156.105469 L 115.902344 156.140625 L 115.917969 156.15625 C 116.976562 161.132812 117.585938 165.671875 118.109375 169.988281 L 121.898438 169.988281 C 121.355469 165.507812 120.738281 160.710938 119.613281 155.398438 C 117.410156 143.726562 109.988281 133.980469 100.050781 130.351562 L 100.039062 130.351562 L 100.023438 130.335938 C 95.847656 128.882812 89.910156 128.257812 84.042969 128.253906 C 78.1875 128.253906 72.511719 128.859375 68.699219 130.367188 C 67.757812 130.714844 66.84375 131.132812 65.945312 131.585938 C 66.683594 128.300781 67.292969 124.992188 67.769531 121.664062 C 69.398438 110.542969 70.164062 98.644531 73.113281 84.695312 L 73.132812 84.675781 L 73.132812 84.648438 C 76.296875 67.8125 86.992188 54.023438 100.621094 49.035156 L 100.640625 49.019531 L 100.667969 49.019531 C 105.414062 47.132812 114.105469 46.039062 122.90625 46.042969 C 131.695312 46.042969 140.699219 47.105469 146.25 49.035156 C 159.878906 54.023438 170.578125 67.808594 173.738281 84.644531 L 173.753906 84.683594 L 173.753906 84.695312 C 176.703125 98.644531 177.488281 110.542969 179.117188 121.664062 C 179.851562 126.671875 180.804688 131.519531 182.179688 136.304688 C 177.816406 134.984375 171.96875 134.390625 166.152344 134.390625 C 159.902344 134.390625 153.859375 135.046875 149.816406 136.648438 C 139.257812 140.507812 131.363281 150.859375 129.011719 163.285156 C 126.941406 173.046875 126.390625 181.285156 125.300781 188.691406 L 129.039062 189.246094 C 130.160156 181.621094 130.675781 173.527344 132.683594 164.054688 L 132.703125 164.039062 L 132.703125 164.023438 C 134.832031 152.71875 142.039062 143.476562 151.125 140.160156 L 151.136719 140.160156 L 151.171875 140.144531 C 154.269531 138.914062 160.183594 138.15625 166.152344 138.15625 C 172.121094 138.15625 178.269531 138.898438 181.941406 140.175781 L 181.960938 140.175781 C 191.027344 143.503906 198.21875 152.730469 200.347656 164.023438 L 200.347656 164.054688 C 202.351562 173.523438 202.882812 181.621094 204.003906 189.242188 L 207.742188 188.691406 C 206.65625 181.285156 206.105469 173.046875 204.035156 163.285156 C 201.949219 152.246094 195.484375 142.851562 186.671875 138.179688 C 184.839844 132.6875 183.71875 127.078125 182.84375 121.109375 C 181.242188 110.214844 180.453125 98.179688 177.445312 83.957031 C 174.066406 65.972656 162.679688 51.019531 147.558594 45.484375 L 147.527344 45.484375 C 141.214844 43.28125 132 42.269531 122.90625 42.269531 Z M 94.535156 64.980469 C 90.613281 64.957031 86.902344 66.765625 84.503906 69.871094 L 83.351562 71.351562 L 86.347656 73.65625 L 87.5 72.15625 C 89.089844 70.136719 91.476562 68.894531 94.042969 68.75 C 96.414062 68.652344 98.875 69.605469 100.558594 71.273438 L 101.898438 72.617188 L 104.5625 69.933594 L 103.222656 68.609375 C 100.902344 66.320312 97.789062 65.019531 94.53125 64.984375 Z M 155.347656 64.980469 C 152.089844 65.019531 148.972656 66.320312 146.65625 68.609375 L 145.3125 69.933594 L 147.964844 72.617188 L 149.308594 71.273438 C 151.046875 69.582031 153.398438 68.671875 155.820312 68.75 C 158.324219 68.859375 160.851562 70.167969 162.378906 72.160156 L 163.535156 73.65625 L 166.515625 71.351562 L 165.363281 69.871094 C 162.96875 66.765625 159.265625 64.957031 155.347656 64.980469 Z M 94.441406 81.589844 C 89.238281 81.589844 85.023438 85.917969 85.023438 91.253906 C 85.023438 96.59375 89.238281 100.921875 94.441406 100.925781 C 99.644531 100.929688 103.871094 96.597656 103.871094 91.253906 C 103.867188 85.914062 99.644531 81.582031 94.441406 81.589844 Z M 155.425781 81.589844 C 150.226562 81.59375 146.011719 85.917969 146.007812 91.253906 C 146.007812 96.59375 150.222656 100.921875 155.425781 100.925781 C 160.625 100.921875 164.84375 96.59375 164.84375 91.253906 C 164.839844 85.917969 160.628906 81.59375 155.425781 81.589844 Z M 125.476562 95.546875 C 124.097656 95.546875 122.964844 95.972656 122.023438 96.289062 C 121.082031 96.605469 120.328125 96.824219 119.75 96.824219 C 118.71875 96.824219 117.703125 97.390625 117.148438 98.054688 C 116.597656 98.71875 116.339844 99.40625 116.136719 100.058594 C 115.738281 101.355469 115.542969 102.675781 115.367188 103.136719 C 114.960938 104.183594 115.347656 105.015625 115.667969 105.5625 C 115.988281 106.109375 116.378906 106.539062 116.816406 106.984375 C 117.699219 107.867188 118.8125 108.757812 119.941406 109.582031 C 121.09375 110.429688 122.25 111.199219 123.109375 111.757812 L 123.066406 112.515625 C 122.640625 112.863281 121.605469 113.78125 119.894531 114.359375 C 118.878906 114.703125 117.859375 114.824219 116.976562 114.597656 C 116.222656 114.40625 115.472656 113.742188 114.703125 112.738281 C 114.753906 112.339844 114.773438 112.179688 114.859375 111.523438 C 115.019531 110.378906 115.25 108.996094 115.351562 108.585938 L 111.691406 107.671875 C 111.472656 108.546875 111.289062 109.820312 111.125 111.003906 C 110.960938 112.183594 110.839844 113.195312 110.839844 113.195312 L 110.761719 113.871094 L 111.125 114.4375 C 112.453125 116.527344 114.222656 117.792969 116.046875 118.257812 C 117.867188 118.722656 119.636719 118.441406 121.109375 117.945312 C 123.023438 117.292969 124.585938 116.25 125.445312 115.59375 C 126.304688 116.25 127.855469 117.296875 129.765625 117.945312 C 131.242188 118.441406 132.988281 118.722656 134.8125 118.257812 C 136.632812 117.789062 138.40625 116.527344 139.734375 114.4375 L 140.097656 113.871094 L 140.019531 113.195312 C 140.019531 113.195312 139.898438 112.183594 139.734375 111.003906 C 139.570312 109.820312 139.378906 108.546875 139.164062 107.671875 L 135.507812 108.585938 C 135.609375 108.996094 135.839844 110.378906 136 111.523438 C 136.085938 112.167969 136.109375 112.324219 136.152344 112.722656 C 135.382812 113.734375 134.640625 114.40625 133.882812 114.601562 C 132.996094 114.824219 131.980469 114.703125 130.964844 114.359375 C 129.253906 113.78125 128.21875 112.863281 127.796875 112.515625 L 127.761719 111.808594 C 128.636719 111.242188 129.816406 110.460938 131.011719 109.585938 C 132.136719 108.757812 133.253906 107.867188 134.136719 106.980469 C 134.574219 106.535156 134.96875 106.105469 135.285156 105.5625 C 135.605469 105.015625 135.988281 104.183594 135.585938 103.132812 C 135.40625 102.679688 135.199219 101.355469 134.796875 100.054688 C 134.597656 99.40625 134.355469 98.71875 133.804688 98.050781 C 133.253906 97.390625 132.238281 96.824219 131.203125 96.824219 C 130.625 96.824219 129.871094 96.605469 128.933594 96.289062 C 127.988281 95.972656 126.859375 95.546875 125.476562 95.546875 Z M 125.476562 99.316406 C 126.03125 99.316406 126.769531 99.53125 127.71875 99.851562 C 128.589844 100.144531 129.683594 100.46875 130.933594 100.53125 C 130.976562 100.59375 131.085938 100.804688 131.203125 101.175781 C 131.40625 101.832031 131.609375 102.835938 131.894531 103.808594 C 131.804688 103.933594 131.695312 104.089844 131.457031 104.328125 C 130.832031 104.957031 129.816406 105.769531 128.773438 106.535156 C 127.167969 107.714844 126.164062 108.328125 125.476562 108.761719 C 124.792969 108.332031 123.773438 107.722656 122.164062 106.539062 C 121.117188 105.773438 120.121094 104.957031 119.5 104.328125 C 119.257812 104.089844 119.152344 103.933594 119.0625 103.808594 C 119.34375 102.835938 119.550781 101.835938 119.75 101.175781 C 119.8125 100.953125 119.90625 100.734375 120.023438 100.53125 C 121.269531 100.472656 122.347656 100.144531 123.222656 99.851562 C 124.164062 99.53125 124.921875 99.316406 125.476562 99.316406 Z M 65.449219 142.75 C 62.898438 142.859375 60.511719 144.105469 58.953125 146.128906 L 57.804688 147.625 L 60.78125 149.929688 L 61.933594 148.425781 C 62.839844 147.296875 64.179688 146.605469 65.625 146.519531 C 66.984375 146.480469 68.304688 146.992188 69.285156 147.9375 L 70.625 149.261719 L 73.273438 146.582031 L 71.933594 145.257812 C 70.210938 143.558594 67.863281 142.652344 65.449219 142.75 Z M 105.242188 142.75 C 102.832031 142.652344 100.488281 143.558594 98.773438 145.257812 L 97.433594 146.582031 L 100.082031 149.261719 L 101.425781 147.9375 C 102.402344 146.992188 103.722656 146.480469 105.082031 146.515625 C 106.527344 146.601562 107.871094 147.296875 108.773438 148.425781 L 109.910156 149.929688 L 112.90625 147.625 L 111.753906 146.128906 C 110.183594 144.101562 107.804688 142.863281 105.242188 142.75 Z M 188.34375 149.878906 L 188.339844 149.878906 C 185.957031 149.90625 183.679688 150.855469 181.984375 152.53125 L 180.644531 153.855469 L 183.296875 156.53125 L 184.632812 155.210938 C 185.707031 154.175781 187.152344 153.617188 188.640625 153.664062 C 190.171875 153.730469 191.742188 154.535156 192.675781 155.746094 L 193.828125 157.246094 L 196.8125 154.941406 L 195.660156 153.445312 C 194.011719 151.308594 191.507812 150.007812 188.8125 149.890625 C 188.65625 149.886719 188.5 149.878906 188.34375 149.878906 Z M 146.753906 149.878906 C 146.59375 149.878906 146.4375 149.886719 146.28125 149.894531 C 143.582031 150.011719 141.070312 151.308594 139.417969 153.445312 L 138.269531 154.941406 L 141.265625 157.246094 L 142.414062 155.746094 C 143.394531 154.511719 144.859375 153.753906 146.4375 153.664062 C 147.929688 153.617188 149.378906 154.175781 150.457031 155.210938 L 151.800781 156.535156 L 154.449219 153.855469 L 153.109375 152.53125 C 151.414062 150.855469 149.136719 149.90625 146.753906 149.878906 Z M 65.84375 154.027344 C 62.519531 154.03125 59.820312 156.789062 59.820312 160.195312 C 59.816406 161.832031 60.449219 163.40625 61.578125 164.566406 C 62.710938 165.726562 64.242188 166.378906 65.84375 166.378906 C 67.445312 166.378906 68.976562 165.726562 70.109375 164.566406 C 71.238281 163.40625 71.871094 161.832031 71.867188 160.195312 C 71.867188 156.789062 69.167969 154.03125 65.84375 154.027344 Z M 104.859375 154.027344 C 103.261719 154.023438 101.726562 154.671875 100.589844 155.828125 C 99.457031 156.984375 98.820312 158.554688 98.820312 160.195312 C 98.816406 161.835938 99.453125 163.410156 100.585938 164.570312 C 101.71875 165.730469 103.257812 166.382812 104.859375 166.378906 C 106.460938 166.378906 107.996094 165.726562 109.125 164.566406 C 110.253906 163.40625 110.886719 161.832031 110.886719 160.195312 C 110.882812 156.789062 108.1875 154.03125 104.859375 154.027344 Z M 146.6875 161.820312 C 143.132812 161.828125 140.257812 164.773438 140.253906 168.410156 C 140.253906 172.046875 143.132812 174.996094 146.6875 175.003906 C 150.246094 175.007812 153.132812 172.054688 153.136719 168.410156 C 153.132812 164.765625 150.246094 161.816406 146.6875 161.820312 Z M 188.402344 161.820312 C 184.84375 161.816406 181.953125 164.765625 181.949219 168.410156 C 181.953125 172.054688 184.839844 175.007812 188.402344 175.003906 C 191.957031 175 194.835938 172.050781 194.835938 168.410156 C 194.835938 164.773438 191.953125 161.824219 188.402344 161.820312 Z M 85.699219 162.261719 C 84.667969 162.261719 83.871094 162.566406 83.269531 162.769531 C 82.667969 162.96875 82.265625 163.066406 82.042969 163.066406 C 81.183594 163.066406 80.296875 163.570312 79.847656 164.109375 C 79.402344 164.648438 79.21875 165.164062 79.078125 165.621094 C 78.792969 166.539062 78.660156 167.378906 78.601562 167.527344 C 78.226562 168.5 78.585938 169.242188 78.839844 169.675781 C 78.910156 169.796875 78.984375 169.886719 79.058594 169.988281 L 84.816406 169.988281 C 84.53125 169.800781 84.253906 169.609375 83.980469 169.40625 C 83.328125 168.925781 82.691406 168.421875 82.339844 168.066406 L 82.339844 168.046875 C 82.453125 167.574219 82.589844 167.007812 82.671875 166.738281 C 82.679688 166.710938 82.679688 166.734375 82.691406 166.710938 C 83.355469 166.613281 84.027344 166.480469 84.46875 166.328125 C 85.074219 166.125 85.492188 166.03125 85.699219 166.03125 C 85.90625 166.03125 86.308594 166.125 86.914062 166.332031 C 87.355469 166.480469 88.03125 166.613281 88.695312 166.710938 C 88.707031 166.734375 88.703125 166.710938 88.710938 166.738281 C 88.792969 167.007812 88.945312 167.570312 89.058594 168.050781 L 89.042969 168.066406 C 88.691406 168.421875 88.058594 168.925781 87.402344 169.40625 C 87.132812 169.605469 86.859375 169.796875 86.585938 169.988281 L 92.34375 169.988281 C 92.414062 169.886719 92.492188 169.792969 92.558594 169.675781 C 92.8125 169.242188 93.171875 168.5 92.796875 167.527344 C 92.742188 167.382812 92.589844 166.539062 92.304688 165.621094 C 92.15625 165.066406 91.894531 164.550781 91.535156 164.109375 C 91.085938 163.570312 90.214844 163.066406 89.359375 163.066406 C 89.136719 163.066406 88.730469 162.96875 88.128906 162.769531 C 87.527344 162.566406 86.730469 162.261719 85.699219 162.261719 Z M 167.917969 170.746094 C 166.839844 170.746094 166.003906 171.066406 165.359375 171.285156 C 164.714844 171.5 164.273438 171.613281 164.003906 171.613281 C 163.125 171.613281 162.226562 172.113281 161.761719 172.667969 C 161.304688 173.222656 161.109375 173.765625 160.960938 174.246094 C 160.660156 175.210938 160.511719 176.113281 160.441406 176.296875 C 160.0625 177.28125 160.429688 178.027344 160.691406 178.472656 C 160.953125 178.921875 161.257812 179.238281 161.578125 179.5625 C 162.21875 180.207031 163 180.816406 163.785156 181.390625 C 164.429688 181.863281 165.0625 182.292969 165.597656 182.65625 C 165.242188 182.9375 164.769531 183.324219 163.90625 183.617188 C 163.289062 183.824219 162.710938 183.875 162.253906 183.757812 C 161.917969 183.671875 161.539062 183.28125 161.164062 182.859375 C 161.195312 182.628906 161.203125 182.617188 161.242188 182.324219 C 161.351562 181.550781 161.507812 180.589844 161.558594 180.386719 L 157.902344 179.46875 C 157.734375 180.140625 157.617188 180.988281 157.507812 181.800781 C 157.394531 182.617188 157.316406 183.316406 157.316406 183.316406 L 157.238281 183.976562 L 157.601562 184.546875 C 158.574219 186.074219 159.929688 187.0625 161.320312 187.417969 C 162.714844 187.773438 164.027344 187.546875 165.109375 187.183594 C 166.097656 186.835938 167.03125 186.351562 167.882812 185.742188 C 168.535156 186.203125 169.5 186.789062 170.660156 187.183594 C 171.742188 187.546875 173.050781 187.773438 174.445312 187.417969 C 175.835938 187.0625 177.191406 186.074219 178.167969 184.546875 L 178.53125 183.976562 L 178.449219 183.316406 C 178.449219 183.316406 178.359375 182.617188 178.246094 181.804688 C 178.132812 180.992188 178.019531 180.140625 177.851562 179.46875 L 174.195312 180.386719 C 174.246094 180.589844 174.417969 181.550781 174.523438 182.324219 C 174.5625 182.617188 174.554688 182.628906 174.585938 182.859375 C 174.210938 183.28125 173.847656 183.671875 173.515625 183.757812 C 173.054688 183.875 172.476562 183.824219 171.855469 183.617188 C 171.019531 183.332031 170.554688 182.953125 170.203125 182.667969 C 170.746094 182.308594 171.386719 181.875 172.046875 181.390625 C 172.832031 180.816406 173.609375 180.207031 174.253906 179.5625 C 174.597656 179.242188 174.894531 178.875 175.136719 178.472656 C 175.398438 178.027344 175.753906 177.28125 175.375 176.296875 C 175.300781 176.113281 175.152344 175.210938 174.851562 174.246094 C 174.707031 173.765625 174.523438 173.222656 174.066406 172.667969 C 173.601562 172.113281 172.703125 171.609375 171.828125 171.609375 C 171.5625 171.609375 171.117188 171.5 170.472656 171.28125 C 169.828125 171.0625 168.992188 170.746094 167.917969 170.746094 Z M 167.917969 174.515625 C 168.164062 174.515625 168.609375 174.628906 169.257812 174.847656 C 169.902344 175.042969 170.5625 175.179688 171.230469 175.253906 C 171.253906 175.304688 171.230469 175.273438 171.257812 175.363281 C 171.355469 175.683594 171.511719 176.296875 171.652344 176.851562 L 171.589844 176.914062 C 171.03125 177.4375 170.441406 177.917969 169.824219 178.363281 C 168.902344 179.035156 168.464844 179.292969 167.917969 179.640625 C 167.371094 179.292969 166.933594 179.039062 166.007812 178.363281 C 165.386719 177.921875 164.796875 177.4375 164.238281 176.914062 C 164.199219 176.871094 164.214844 176.871094 164.179688 176.832031 C 164.3125 176.289062 164.460938 175.679688 164.554688 175.367188 C 164.585938 175.269531 164.578125 175.304688 164.601562 175.257812 C 165.265625 175.179688 165.921875 175.042969 166.558594 174.847656 C 167.207031 174.628906 167.664062 174.515625 167.914062 174.515625 Z M 167.917969 174.515625 "/>
<path style=" stroke:none;fill-rule:nonzero;fill:rgb(53.72549%,17.254902%,62.745098%);fill-opacity:1;" d="M 94.4375 79.710938 C 91.421875 79.714844 88.539062 80.941406 86.449219 83.113281 C 85.152344 84.441406 84.195312 86.0625 83.652344 87.839844 C 83.257812 89.136719 83.089844 90.492188 83.160156 91.847656 C 83.339844 95.441406 85.171875 98.753906 88.121094 100.816406 C 88.875 101.339844 89.691406 101.769531 90.554688 102.09375 C 93.238281 103.109375 96.210938 103.035156 98.84375 101.894531 C 99.855469 101.457031 100.796875 100.871094 101.632812 100.15625 C 102.617188 99.324219 103.457031 98.335938 104.113281 97.226562 C 105.492188 94.90625 106.023438 92.175781 105.617188 89.507812 C 105.390625 88.015625 104.878906 86.582031 104.109375 85.285156 C 103.261719 83.863281 102.121094 82.636719 100.761719 81.691406 C 100.007812 81.167969 99.1875 80.738281 98.328125 80.414062 C 97.085938 79.949219 95.769531 79.710938 94.441406 79.710938 Z M 155.425781 79.710938 C 154.097656 79.714844 152.78125 79.953125 151.539062 80.421875 C 150.507812 80.808594 149.539062 81.347656 148.667969 82.019531 C 147.648438 82.800781 146.765625 83.75 146.0625 84.824219 C 144.359375 87.398438 143.746094 90.542969 144.363281 93.570312 C 144.804688 95.769531 145.875 97.792969 147.4375 99.402344 C 148.207031 100.1875 149.082031 100.859375 150.039062 101.398438 C 151.011719 101.9375 152.058594 102.332031 153.148438 102.5625 C 154.277344 102.804688 155.433594 102.863281 156.582031 102.742188 C 158.808594 102.507812 160.914062 101.605469 162.613281 100.148438 C 163.738281 99.199219 164.667969 98.039062 165.359375 96.738281 C 166.445312 94.699219 166.898438 92.382812 166.660156 90.082031 C 166.488281 88.390625 165.953125 86.753906 165.085938 85.292969 C 164.144531 83.710938 162.84375 82.375 161.285156 81.394531 C 160.34375 80.808594 159.320312 80.367188 158.25 80.078125 C 157.328125 79.835938 156.378906 79.710938 155.425781 79.710938 Z M 94.4375 83.464844 L 94.441406 83.464844 C 94.824219 83.464844 95.207031 83.496094 95.585938 83.554688 C 96.445312 83.6875 97.277344 83.972656 98.035156 84.394531 C 98.679688 84.75 99.265625 85.199219 99.777344 85.730469 C 100.472656 86.441406 101.023438 87.28125 101.398438 88.203125 C 101.746094 89.046875 101.941406 89.941406 101.984375 90.851562 C 102.027344 91.777344 101.914062 92.703125 101.652344 93.589844 C 101.363281 94.550781 100.890625 95.449219 100.265625 96.234375 C 99.648438 97 98.890625 97.640625 98.035156 98.121094 C 96.589844 98.917969 94.921875 99.214844 93.292969 98.957031 C 91.445312 98.671875 89.777344 97.695312 88.625 96.230469 C 87.996094 95.449219 87.523438 94.550781 87.238281 93.589844 C 87.011719 92.832031 86.894531 92.046875 86.898438 91.253906 C 86.902344 90.464844 87.015625 89.679688 87.238281 88.921875 C 87.53125 87.964844 88 87.066406 88.625 86.28125 C 89.238281 85.519531 89.992188 84.878906 90.847656 84.398438 C 91.832031 83.851562 92.925781 83.535156 94.050781 83.476562 C 94.175781 83.46875 94.304688 83.46875 94.4375 83.46875 Z M 155.425781 83.464844 C 156.1875 83.464844 156.941406 83.582031 157.667969 83.8125 C 158.601562 84.113281 159.46875 84.59375 160.21875 85.234375 C 160.972656 85.871094 161.597656 86.648438 162.054688 87.527344 C 162.535156 88.433594 162.832031 89.429688 162.925781 90.453125 C 163.078125 92.019531 162.773438 93.59375 162.050781 94.988281 C 161.589844 95.863281 160.96875 96.640625 160.21875 97.28125 C 159.65625 97.757812 159.03125 98.148438 158.359375 98.441406 C 156.488281 99.253906 154.363281 99.253906 152.496094 98.441406 C 151.59375 98.050781 150.78125 97.488281 150.097656 96.78125 C 149.40625 96.066406 148.855469 95.226562 148.480469 94.304688 C 148.136719 93.464844 147.9375 92.570312 147.898438 91.660156 C 147.867188 90.996094 147.914062 90.328125 148.042969 89.675781 C 148.238281 88.679688 148.625 87.730469 149.175781 86.882812 C 149.714844 86.0625 150.40625 85.351562 151.214844 84.785156 C 151.921875 84.296875 152.710938 83.933594 153.542969 83.710938 C 154.160156 83.546875 154.789062 83.464844 155.425781 83.464844 Z M 65.640625 152.148438 C 65.570312 152.144531 65.503906 152.148438 65.4375 152.148438 C 61.253906 152.367188 57.945312 155.929688 57.945312 160.191406 C 57.945312 164.59375 61.472656 168.253906 65.84375 168.253906 C 70.21875 168.253906 73.761719 164.59375 73.761719 160.191406 C 73.761719 155.789062 70.21875 152.148438 65.84375 152.148438 Z M 104.660156 152.148438 C 104.589844 152.144531 104.519531 152.148438 104.453125 152.148438 C 100.269531 152.367188 96.945312 155.929688 96.945312 160.191406 C 96.945312 164.59375 100.492188 168.253906 104.863281 168.253906 C 109.234375 168.253906 112.765625 164.59375 112.765625 160.191406 C 112.765625 155.789062 109.234375 152.148438 104.863281 152.148438 Z M 65.84375 155.921875 C 68.128906 155.921875 69.992188 157.78125 69.992188 160.191406 C 69.992188 162.605469 68.128906 164.484375 65.84375 164.484375 C 63.5625 164.484375 61.710938 162.605469 61.710938 160.191406 C 61.710938 157.78125 63.5625 155.921875 65.84375 155.921875 Z M 104.863281 155.921875 C 107.148438 155.921875 108.996094 157.78125 108.996094 160.191406 C 108.996094 162.605469 107.148438 164.484375 104.863281 164.484375 C 102.578125 164.484375 100.714844 162.605469 100.714844 160.191406 C 100.714844 157.78125 102.578125 155.921875 104.863281 155.921875 Z M 146.6875 159.925781 C 142.085938 159.925781 138.359375 163.773438 138.359375 168.410156 C 138.359375 173.046875 142.085938 176.894531 146.6875 176.894531 C 151.289062 176.894531 155.015625 173.050781 155.015625 168.410156 C 155.015625 163.773438 151.289062 159.925781 146.6875 159.925781 Z M 188.402344 159.925781 C 183.800781 159.925781 180.074219 163.773438 180.074219 168.410156 C 180.074219 173.046875 183.800781 176.894531 188.402344 176.894531 C 193.007812 176.894531 196.730469 173.050781 196.730469 168.410156 C 196.730469 163.773438 193.007812 159.925781 188.402344 159.925781 Z M 146.570312 163.695312 L 146.6875 163.695312 C 149.203125 163.695312 151.246094 165.761719 151.246094 168.410156 C 151.246094 171.058594 149.203125 173.125 146.6875 173.125 C 144.175781 173.125 142.128906 171.058594 142.128906 168.410156 C 142.128906 165.84375 144.042969 163.816406 146.453125 163.695312 C 146.492188 163.695312 146.53125 163.695312 146.570312 163.695312 Z M 188.285156 163.695312 L 188.40625 163.695312 C 190.917969 163.695312 192.960938 165.761719 192.960938 168.410156 C 192.960938 171.058594 190.917969 173.125 188.40625 173.125 C 185.890625 173.125 183.847656 171.058594 183.847656 168.410156 C 183.847656 165.84375 185.757812 163.816406 188.167969 163.695312 C 188.207031 163.695312 188.246094 163.695312 188.285156 163.695312 Z M 188.285156 163.695312 "/>
<path style=" stroke:none;fill-rule:nonzero;fill:rgb(100%,100%,100%);fill-opacity:1;" d="M 91.300781 83.71875 C 88.742188 83.714844 86.667969 85.867188 86.664062 88.527344 C 86.660156 89.808594 87.148438 91.035156 88.015625 91.941406 C 88.886719 92.847656 90.070312 93.359375 91.300781 93.355469 C 92.53125 93.359375 93.710938 92.847656 94.582031 91.941406 C 95.453125 91.035156 95.941406 89.808594 95.9375 88.527344 C 95.933594 85.867188 93.859375 83.714844 91.300781 83.71875 Z M 152.257812 83.71875 C 149.699219 83.714844 147.625 85.867188 147.621094 88.527344 C 147.617188 89.808594 148.105469 91.035156 148.976562 91.941406 C 149.84375 92.847656 151.027344 93.359375 152.257812 93.355469 C 153.488281 93.355469 154.667969 92.847656 155.539062 91.941406 C 156.40625 91.035156 156.894531 89.808594 156.890625 88.527344 C 156.886719 85.871094 154.816406 83.71875 152.257812 83.71875 Z M 63.839844 155.382812 C 62.203125 155.386719 60.878906 156.761719 60.878906 158.457031 C 60.878906 159.273438 61.191406 160.058594 61.746094 160.632812 C 62.300781 161.210938 63.058594 161.535156 63.84375 161.535156 C 64.628906 161.535156 65.382812 161.210938 65.941406 160.632812 C 66.496094 160.058594 66.808594 159.273438 66.808594 158.457031 C 66.808594 156.761719 65.480469 155.382812 63.84375 155.382812 Z M 103.234375 155.824219 C 101.597656 155.824219 100.273438 157.203125 100.273438 158.902344 C 100.273438 160.601562 101.601562 161.976562 103.238281 161.976562 C 104.023438 161.976562 104.777344 161.652344 105.335938 161.078125 C 105.894531 160.5 106.207031 159.71875 106.207031 158.902344 C 106.207031 158.085938 105.894531 157.300781 105.335938 156.722656 C 104.777344 156.148438 104.023438 155.824219 103.234375 155.824219 Z M 144.542969 163.269531 C 142.796875 163.269531 141.378906 164.734375 141.375 166.550781 C 141.371094 167.421875 141.707031 168.261719 142.300781 168.878906 C 142.894531 169.496094 143.703125 169.84375 144.542969 169.84375 C 145.386719 169.84375 146.195312 169.496094 146.789062 168.878906 C 147.382812 168.261719 147.71875 167.421875 147.714844 166.550781 C 147.710938 164.734375 146.292969 163.269531 144.542969 163.269531 Z M 186.90625 163.695312 C 186.0625 163.691406 185.253906 164.039062 184.660156 164.660156 C 184.066406 165.277344 183.730469 166.117188 183.734375 166.992188 C 183.738281 168.804688 185.15625 170.273438 186.90625 170.273438 C 188.652344 170.273438 190.070312 168.804688 190.074219 166.992188 C 190.078125 166.117188 189.746094 165.277344 189.152344 164.660156 C 188.554688 164.039062 187.746094 163.691406 186.90625 163.695312 Z M 186.90625 163.695312 "/>
</g>
</svg>
