<svg width="256px" height="256px" viewBox="0 0 256 256" xmlns="http://www.w3.org/2000/svg"
    xmlns:svg="http://www.w3.org/2000/svg">
    <title>ProblemSolving</title>
    <rect width="256" height="256" rx="60" fill="#f2f4ed" id="rect1" />
    <g id="surface1" transform="matrix(0.79772816,0,0,0.8218679,24.370897,19.456546)">
        <path style="fill:#242938;fill-opacity:1;fill-rule:nonzero;stroke:none"
            d="M 246.80469,214.14062 106.74219,76.695312 c 2.02344,-3.570312 3.67969,-7.304687 4.85156,-11.15625 0.125,-1.234374 0.375,-2.515624 0.82813,-3.820312 0.24218,-0.734375 0.44531,-1.484375 0.64843,-2.226562 C 116.27344,42.164062 111.1875,23.609375 97.789062,10.210938 93.554688,5.972656 88.796875,2.574219 83.734375,-0.00390625 c -0.25,0 -0.5,0.03515625 -0.742187,0.08984375 l -4.5,1.0976565 c -0.84375,0.222656 -1.570313,0.75 -2.007813,1.5 -0.4375,0.742187 -0.554687,1.640625 -0.320313,2.476562 l 9.671876,34.738282 c 0.359374,1.296874 -0.125,2.671874 -1.210938,3.460937 L 62.648438,59.320312 c -0.671876,0.476563 -1.5,0.6875 -2.320313,0.578126 L 36.976562,56.675781 c -1.273437,-0.171875 -2.3125,-1.078125 -2.65625,-2.3125 L 24.109375,17.679688 C 23.640625,16.015625 21.9375,15.007812 20.257812,15.421875 l -5.90625,1.445313 C 14.046875,16.945312 13.773438,17.101562 13.5,17.265625 6.71875,26.773438 3.296875,37.9375 3.25,49.117188 c 0.101562,14.03125 5.476562,28.03125 16.179688,38.734374 12.914062,12.906248 30.59375,17.968748 47.382812,15.601568 2.421875,-0.35157 4.632812,-0.59375 6.664062,-0.73438 1.9375,-0.53125 3.84375,-1.22656 5.734376,-1.98437 23.484372,23.78125 138.882812,142.11718 138.882812,142.11718 7.92969,7.92969 20.78125,7.92969 28.71094,0 7.92968,-7.92969 7.92968,-20.78125 0,-28.71094 z m -7.17969,21.53125 c -3.96094,3.96875 -10.38281,3.96875 -14.35156,0 -3.96875,-3.96093 -3.96875,-10.39062 0,-14.35937 3.96875,-3.96094 10.39062,-3.96094 14.35156,0 3.96875,3.96875 3.96875,10.39844 0,14.35937 z m 0,0"
            id="path1" />
        <path style="fill:#242938;fill-opacity:1;fill-rule:nonzero;stroke:none"
            d="M 203.13281,68.15625 225.89844,62.382812 247.8125,24.109375 237.19531,14.039062 226.58594,3.96875 189.51562,27.859375 184.94531,50.882812 145.59375,92.359375 163.5,109.92188 Z m 0,0"
            id="path2" />
        <path style="fill:#242938;fill-opacity:1;fill-rule:nonzero;stroke:none"
            d="M 89.046875,140.1875 C 84.515625,144.10937 78.09375,139.25 69.6875,148.11719 L 14.125,206.66406 c -11.109375,11.70313 -10.625,30.20313 1.078125,41.3125 11.703125,11.10938 30.195313,10.625 41.304687,-1.07812 l 55.570318,-58.5625 c 8.40625,-8.85938 3.22656,-15.00782 6.89843,-19.74219 0.75,-0.97656 1.4375,-1.64844 2.125,-2.15625 -10.51562,-10.76563 -20.57812,-21.0625 -29.28906,-29.96094 -0.367188,1.23438 -1.203125,2.36719 -2.765625,3.71094 z m 0,0"
            id="path3" />
    </g>
</svg>