<svg xmlns="http://www.w3.org/2000/svg" xmlns:xlink="http://www.w3.org/1999/xlink" width="256px" height="256px" viewBox="0 0 256 256" version="1.1">
<rect width="256" height="256" fill="#f2f4ed" rx="60"/>
<g id="surface1">
<path style=" stroke:none;fill-rule:nonzero;fill:#242938;fill-opacity:1;" d="M 26.929688 44.585938 L 21.070312 51.398438 C 30.066406 59.101562 37.515625 67.199219 43.476562 75.5 L 8 75.5 L 8 84.5 L 49.289062 84.5 C 57.449219 98.648438 61.5 113.351562 61.5 128 C 61.5 142.648438 57.449219 157.351562 49.289062 171.5 L 8 171.5 L 8 180.5 L 43.476562 180.5 C 37.515625 188.800781 30.066406 196.898438 21.070312 204.601562 L 26.929688 211.398438 C 38.226562 201.699219 47.355469 191.351562 54.300781 180.5 L 64.148438 180.5 C 65.949219 177.550781 67.601562 174.550781 69.101562 171.5 L 59.5 171.5 C 66.800781 157.398438 70.5 142.75 70.5 128 C 70.5 113.25 66.800781 98.601562 59.5 84.5 L 69.101562 84.5 C 67.601562 81.449219 65.949219 78.449219 64.148438 75.5 L 54.300781 75.5 C 47.359375 64.648438 38.226562 54.25 26.929688 44.585938 Z M 58.300781 52.5 C 78.300781 75.449219 88.5 101.699219 88.5 128 C 88.5 154.300781 78.300781 180.550781 58.300781 203.5 L 96 203.5 C 113.050781 203.5 136.949219 186.5 155.648438 167.800781 C 165 158.5 173.199219 148.851562 178.949219 141.148438 C 181.851562 137.351562 184.148438 133.949219 185.648438 131.449219 C 186.351562 130.199219 186.898438 129.101562 187.25 128.398438 C 187.300781 128.199219 187.351562 128.148438 187.351562 128 C 187.351562 127.851562 187.300781 127.75 187.25 127.550781 C 186.949219 126.851562 186.398438 125.800781 185.648438 124.550781 C 184.148438 122 181.898438 118.648438 179.050781 114.800781 C 173.398438 107.101562 165.300781 97.5 156 88.199219 C 137.398438 69.5 113.550781 52.5 96 52.5 Z M 195.25 123.5 C 195.351562 123.648438 195.449219 123.851562 195.5 124 C 196.050781 125.199219 196.5 126.199219 196.5 128 C 196.5 129.800781 196 130.800781 195.5 132 C 195.449219 132.148438 195.351562 132.351562 195.25 132.5 L 248 132.5 L 248 123.5 Z M 195.25 123.5 "/>
</g>
</svg>
