<svg width="256px" height="256px" viewBox="0 -31 256 256" xmlns="http://www.w3.org/2000/svg"
	xmlns:svg="http://www.w3.org/2000/svg">
    <title>RHEL</title>
	<rect width="256" height="256" fill="#242938" rx="60" id="rect1" x="-0.10208811" y="-30.385201" />
	<g id="g2" transform="matrix(0.92497254,0,0,0.92631863,9.284497,0.94747204)">
		<path
			d="m 170.75803,111.61069 c 16.82431,0 41.16644,-3.46977 41.16644,-23.481417 0.0503,-1.54445 -0.0897,-3.089219 -0.41691,-4.599453 L 201.48829,40.009856 C 199.17511,30.434388 197.14436,26.090461 180.3335,17.685029 167.28827,11.014478 138.87118,0 130.46575,0 c -7.82714,0 -10.09996,10.086518 -19.43336,10.086518 -8.98372,0 -15.654273,-7.5312667 -24.059705,-7.5312667 -8.069214,0 -13.327653,5.5005147 -17.389157,16.8108637 0,0 -11.31035,31.900295 -12.762808,36.526645 -0.230856,0.849551 -0.330629,1.729374 -0.295871,2.609046 0,12.399693 48.818751,53.055084 114.233181,53.055084 m 43.74859,-15.304608 c 2.32663,11.014478 2.32663,12.171068 2.32663,13.623528 0,18.82816 -21.16824,29.2778 -48.99359,29.2778 -62.88607,0.0403 -117.971913,-36.80907 -117.971913,-61.16465 -0.0036,-3.39019 0.687498,-6.745164 2.030752,-9.857891 C 29.277801,69.260759 0,73.295366 0,99.143751 c 0,42.336479 100.31379,94.517399 179.74176,94.517399 60.89567,0 76.25407,-27.54292 76.25407,-49.28945 0,-17.10674 -14.79356,-36.52665 -41.46231,-48.119418"
			fill="#ee0000" id="path1" />
		<path
			d="m 214.50662,96.252282 c 2.32663,11.014478 2.32663,12.171068 2.32663,13.623528 0,18.82816 -21.16824,29.27783 -48.99359,29.27783 -62.88607,0.0403 -117.971928,-36.8091 -117.971928,-61.16468 -0.0036,-3.39019 0.687513,-6.745164 2.030767,-9.857891 L 56.82072,55.946555 c -0.225463,0.832237 -0.32519,1.693514 -0.295871,2.555251 0,12.399693 48.818751,53.055084 114.233181,53.055084 16.82431,0 41.16644,-3.46976 41.16644,-23.481412 0.0503,-1.54445 -0.0897,-3.089219 -0.41691,-4.599452 z"
			fill="#000000" id="path2" />
	</g>
</svg>