<svg width="256px" height="256px" viewBox="0 0 256 256" version="1.1" id="svg16" xmlns="http://www.w3.org/2000/svg"
    xmlns:svg="http://www.w3.org/2000/svg">
    <defs id="defs16" />
    <rect width="256" height="256" rx="60" fill="#F2F4ED" id="rect1" />
    <g id="surface1" transform="matrix(0.93302852,0,0,0.92341385,6.6766573,10.750951)">
        <path
            style="fill:#57cfe3;fill-opacity:1;fill-rule:nonzero;stroke:#3a2b54;stroke-width:1.26;stroke-linecap:round;stroke-linejoin:round;stroke-miterlimit:4;stroke-opacity:1"
            d="m 15.299939,63.499521 c 0.399574,2.100649 -0.899828,4.100617 -2.999428,4.600872 -2.100649,0.399574 -4.100617,-0.900878 -4.600872,-3.000478 0,0 -7.100045,-33.299947 -7.100045,-40.10005 0,-14.200091 11.300294,-24.299565 27.200411,-24.299565 15.900117,0 27.200411,9.999842 27.200411,24.199934 0,6.800102 -7.100046,40.10005 -7.100046,40.10005 -0.400623,2.0996 -2.400591,3.499683 -4.500191,3.100109 C 41.29953,67.69977 39.900496,65.699801 40.30007,63.600201"
            transform="matrix(3.724668,0,0,3.724668,24.454212,-0.260728)" id="path1" />
        <path style="fill:#57cfe3;fill-opacity:1;fill-rule:nonzero;stroke:none"
            d="m 196.53516,200.87109 -7.07813,40.22657 c -1.11719,7.82031 -8.56641,13.41015 -16.38672,12.29296 -7.82422,-1.11718 -13.41015,-8.5664 -12.29297,-16.39062"
            id="path2" />
        <path style="fill:#3a2b54;fill-opacity:1;fill-rule:nonzero;stroke:none"
            d="m 198.02344,200.87109 -3.35157,21.23047 -1.86328,10.42969 -0.74609,5.58594 -1.11719,5.58593 c -2.60547,8.94141 -11.91797,13.78125 -20.85547,11.17579 -3.72656,-1.11719 -6.70703,-3.35157 -8.9414,-6.33204 -2.23438,-3.35156 -3.35157,-7.82031 -2.60547,-11.91796 0,-1.11719 1.48828,-2.23438 2.60547,-1.86329 1.11718,0 2.23437,1.48829 1.86328,2.60938 -0.7461,6.32812 3.35156,11.91797 9.68359,13.03516 5.96094,1.11718 12.29297,-2.23438 14.15625,-8.19532 0.3711,-1.11718 0.74219,-3.35156 1.11719,-4.83984 l 1.11719,-5.21484 1.85937,-10.42969 4.09766,-20.85938 c 0.35547,-0.69922 1.07812,-1.13281 1.86328,-1.11718 0.74609,0 1.11719,0.74609 1.11719,1.11718 z m 0,0"
            id="path3" />
        <path
            style="fill:#ffffff;fill-opacity:1;fill-rule:nonzero;stroke:#3a2b54;stroke-width:1.26;stroke-linecap:butt;stroke-linejoin:round;stroke-miterlimit:4;stroke-opacity:1"
            d="m 30.699802,22.400011 c 0,6.682642 -5.4168,12.100491 -12.099443,12.100491 -6.682642,0 -12.100491,-5.417849 -12.100491,-12.100491 0,-6.682643 5.417849,-12.100492 12.100491,-12.100492 6.682643,0 12.099443,5.417849 12.099443,12.100492 z m 0,0"
            transform="matrix(3.724668,0,0,3.724668,24.454212,-0.260728)" id="path4" />
        <path style="fill:#3a2b54;fill-opacity:1;fill-rule:nonzero;stroke:none"
            d="m 103.04297,53.375 c -7.820314,1.488281 -9.308595,18.621094 -4.839845,23.464844 2.980465,2.980468 9.312505,4.097656 9.312505,6.332031 0,2.234375 -6.33204,3.351563 -9.312505,6.332031 -4.84375,4.84375 -2.980469,21.976564 4.839845,23.464844 9.3125,1.86328 23.46875,-9.3125 23.46875,-29.796875 0,-20.484375 -14.15625,-31.660156 -23.46875,-29.796875 z m 0,0"
            id="path5" />
        <path
            style="fill:#ffffff;fill-opacity:1;fill-rule:nonzero;stroke:#3a2b54;stroke-width:1.05;stroke-linecap:round;stroke-linejoin:round;stroke-miterlimit:4;stroke-opacity:1"
            d="m 12.799716,38.699702 c 0.400623,1.300451 1.700026,3.30042 3.400052,2.899797 0.800197,-0.199263 1.300451,-1.299403 1.300451,-2.899797"
            transform="matrix(3.724668,0,0,3.724668,24.454212,-0.260728)" id="path6" />
        <path
            style="fill:#ffffff;fill-opacity:1;fill-rule:nonzero;stroke:#3a2b54;stroke-width:1.26;stroke-linecap:round;stroke-linejoin:round;stroke-miterlimit:4;stroke-opacity:1"
            d="m 23.599756,37.899505 c 0.400623,1.700025 0.800197,2.900845 2.100649,2.900845 1.299403,0 2.899797,-1.700025 2.499174,-4.600871"
            transform="matrix(3.724668,0,0,3.724668,24.454212,-0.260728)" id="path7" />
        <path style="fill:#3a2b54;fill-opacity:1;fill-rule:nonzero;stroke:none"
            d="M 62.816406,140.53125 C 92.988281,145 123.53125,137.55078 148.48437,120.41797 c 1.11719,-0.37109 2.60938,0 2.98047,1.11719 0.3711,0.74609 0.3711,1.86328 -0.37109,2.60937 -26.07422,17.87891 -57.734375,24.95313 -89.019531,20.48438 -1.117188,-0.3711 -1.492188,-1.48829 -1.117188,-2.60547 0.742188,-1.1211 1.117188,-1.49219 1.859375,-1.49219 z m 89.394534,-13.03516 c -0.8711,-4.18359 -4.32422,-7.33593 -8.56641,-7.82421 -1.11719,0.375 -2.60937,-0.3711 -2.60937,-1.85938 -0.3711,-1.11719 0.375,-2.60937 1.86328,-2.60937 h 1.48828 c 5.96094,1.11718 10.42969,5.96093 11.17578,11.91796 0,0.7461 -0.74609,1.49219 -1.48828,1.49219 -1.11719,0.37109 -1.86328,-0.37109 -1.86328,-1.11719 z m 0,0"
            id="path8" />
        <path style="fill:#57cfe3;fill-opacity:1;fill-rule:nonzero;stroke:none"
            d="m 95.222656,237 c 1.117188,7.82422 -4.097656,15.27344 -12.292968,16.39062 -7.820313,1.11719 -15.269532,-4.09765 -16.386719,-12.29296 l -6.703125,-40.22657"
            id="path9" />
        <path style="fill:#3a2b54;fill-opacity:1;fill-rule:nonzero;stroke:none"
            d="m 97.832031,236.62891 c 1.117188,9.3125 -5.589843,17.5039 -14.527343,18.62109 -8.195313,1.11719 -15.644532,-4.09375 -17.878907,-11.54688 l -1.117187,-5.58593 -2.234375,-15.64453 c -1.863281,-7.44922 -2.980469,-14.52344 -4.097657,-21.60157 0,-0.74609 0.746094,-1.48828 1.488282,-1.48828 0.746094,0 1.492187,0.3711 1.492187,1.11719 L 65.054688,221.35547 68.40625,237 l 1.117188,4.84375 c 1.863281,5.95703 7.820312,9.68359 14.152343,8.19141 5.960938,-1.48829 10.058594,-7.07422 9.3125,-13.03516 0,-1.11719 0.746094,-2.60547 1.863281,-2.60547 1.488282,-0.375 2.605469,0.74219 2.980469,2.23438 z m 0,0"
            id="path10" />
        <path style="fill:#57cfe3;fill-opacity:1;fill-rule:nonzero;stroke:none"
            d="m 116.08203,237.74609 c 0.3711,7.82032 -5.58984,14.89844 -13.78125,15.26953 -7.449218,0.375 -14.156249,-5.21484 -14.898436,-12.66406 L 82.929688,200.125"
            id="path11" />
        <path style="fill:#3a2b54;fill-opacity:1;fill-rule:nonzero;stroke:none"
            d="m 118.6875,237.74609 c 0.375,9.3125 -6.70312,17.13282 -16.01562,17.50391 -8.195318,0.375 -15.269536,-4.83984 -17.132818,-12.66406 C 85.167969,240.72656 84.792969,238.86328 84.792969,237 L 84.421875,231.78516 83.304688,221.35547 81.441406,200.125 c 0,-0.74219 0.746094,-1.48828 1.488282,-1.48828 0.746093,0 1.492187,0.37109 1.492187,1.11719 l 4.46875,31.66015 0.746094,5.21485 c 0.371093,1.86328 0.371093,3.72265 0.742187,4.83984 1.492188,5.96094 7.453125,10.05859 13.410154,8.94141 6.07813,-1.15235 10.46485,-6.48047 10.42969,-12.66407 0,-1.11718 1.11719,-2.23437 2.60547,-2.23437 0.74609,0.37109 1.49219,1.11719 1.86328,2.23437 z m 0,0"
            id="path12" />
        <path style="fill:#57cfe3;fill-opacity:1;fill-rule:nonzero;stroke:none"
            d="m 173.07031,199.75391 -4.47265,40.59765 c -0.74219,7.82422 -7.44922,13.78125 -15.64063,13.03906 -7.82422,-0.74609 -13.78125,-7.44921 -13.03906,-15.64453"
            id="path13" />
        <path style="fill:#3a2b54;fill-opacity:1;fill-rule:nonzero;stroke:none"
            d="m 174.92969,199.75391 -1.85938,21.23046 -1.12109,10.42969 -0.3711,5.21485 c 0,1.86328 -0.37109,3.72265 -0.74609,5.58593 -1.11719,4.09766 -3.35156,7.44922 -7.07422,10.0586 -7.82422,5.21093 -17.8789,3.35156 -23.09375,-4.47266 -2.23437,-2.97656 -2.98047,-6.70312 -2.98047,-10.42578 0.3711,-1.12109 1.49219,-2.23828 2.60938,-1.86328 1.11719,0 1.85937,1.11719 1.85937,2.23437 -0.37109,6.33203 4.09766,11.54688 10.42969,12.66407 5.96094,0.74609 11.91797,-2.98047 13.41016,-8.94141 l 0.74609,-4.83984 2.23438,-15.64454 2.97656,-21.23046 c 0.375,-0.7461 1.12109,-1.48829 1.86328,-1.11719 0.375,0 0.74609,0.37109 1.11719,1.11719 z m 0,0"
            id="path14" />
        <path style="fill:#57cfe3;fill-opacity:1;fill-rule:nonzero;stroke:none"
            d="m 143.64453,198.26562 -1.11719,40.59766 c 0,7.82031 -6.33203,14.52734 -14.52734,14.52734 -7.82031,0 -14.52734,-6.33203 -14.52734,-14.52734 l -1.11719,-40.59766"
            id="path15" />
        <path style="fill:#3a2b54;fill-opacity:1;fill-rule:nonzero;stroke:none"
            d="m 145.13281,198.63672 -0.37109,31.28515 v 7.82422 c 0,2.98047 -0.375,5.95703 -1.86328,8.56641 -4.09766,8.19531 -14.52735,11.54687 -22.71875,7.07812 -4.47266,-2.23437 -7.82422,-6.70703 -8.56641,-11.54687 -0.375,-1.49219 -0.375,-2.98047 -0.375,-4.46875 v -7.82422 l -0.37109,-31.28516 c 0,-0.74609 0.74609,-1.49218 1.48828,-1.49218 0.74609,0 1.49219,0.74609 1.49219,1.49218 l 1.85937,39.10938 c 0,1.11719 0,2.23437 0.375,3.35156 l 1.11719,2.97656 c 3.35156,5.96094 10.42969,8.19532 16.38672,4.84375 2.23437,-1.11718 3.72656,-2.98046 4.84375,-4.84375 l 1.11718,-2.97656 c 0.3711,-1.11719 0.3711,-2.23437 0.3711,-3.35156 l 1.86328,-39.10938 c 0,-0.74609 0.74609,-1.49218 1.48828,-1.49218 1.49219,0 1.86328,0.74609 1.86328,1.86328 z m 0,0"
            id="path16" />
    </g>
</svg>