<svg width="256px" height="256px" viewBox="0 0 256 256" xmlns="http://www.w3.org/2000/svg"
    xmlns:svg="http://www.w3.org/2000/svg">
    <title>Sikhism</title>
    <rect width="256" height="256" rx="60" fill="#f2f4ed" id="rect1" />
    <g id="surface1" transform="matrix(0.94063916,0,0,0.95663012,6.6729984,6.1681088)">
        <path style="fill:#000000;fill-opacity:1;fill-rule:nonzero;stroke:none"
            d="m 178.24609,42.667969 c 40.03516,25.109375 42.73047,82.449221 5.23047,111.207031 l -48.17578,36.94141 0.375,-7.5586 11.99219,-7.99219 c -0.72266,-5.60546 -1.31641,-11.21093 -1.8086,-16.8164 26.67969,-7.75391 46.23438,-32.41406 46.23438,-61.558595 0,-27.476563 -17.37891,-50.96875 -41.71875,-60.066406 0.41406,-2.902344 0.84375,-5.808594 1.29297,-8.714844 L 128,0 104.33203,28.109375 c 0.44922,2.90625 0.87891,5.8125 1.29297,8.71875 -24.339844,9.09375 -41.714844,32.59375 -41.714844,60.0625 0,29.144535 19.550782,53.808595 46.230474,61.558595 -0.49219,5.60547 -1.08594,11.21094 -1.8086,16.8164 l 11.99219,7.9961 0.375,7.55469 L 72.523438,153.875 C 35.023438,125.12109 37.71875,67.777344 77.753906,42.671875 16.554688,57.734375 -1.847656,135.78125 46.175781,176.60156 l 32.644531,27.7461 c 2.824219,2.40234 3.996094,6.24609 2.945313,9.80468 -0.01953,0.0586 -0.03516,0.11719 -0.05469,0.17969 -0.574219,1.90234 1.636718,3.42578 3.230468,2.23828 l 22.148437,-16.51172 8.53907,5.84375 -27.460944,21.05469 c -2.589844,1.98828 -4.449219,4.84766 -4.953125,8.07422 -1.527344,9.76562 9.285156,16.26953 17.746099,12.98047 5.07812,-1.97656 6.34375,-6.62891 6.34375,-10.78906 0,-5.3711 2.52734,-10.42579 6.95703,-13.45704 l 7.80078,-5.33593 0.41797,8.41797 c 0,3.64453 -1.25391,7.17968 -3.5625,10 -1.94141,2.36718 -2.97266,5.51171 -2.55859,8.89843 0.64843,5.31641 4.96484,9.58203 10.28906,10.17578 7.08203,0.79297 13.08203,-4.73046 13.08203,-11.65234 0,-2.73828 -0.94141,-5.25781 -2.51172,-7.25391 -2.30469,-2.91796 -3.69922,-6.45312 -3.69922,-10.17187 l 0.41797,-8.41406 7.80078,5.33593 c 4.42969,3.03125 6.95703,8.08594 6.95703,13.45704 0,4.16015 1.26953,8.8125 6.34375,10.78906 8.46094,3.28906 19.27344,-3.21485 17.7461,-12.98047 -0.50391,-3.22656 -2.36329,-6.08594 -4.95313,-8.07422 l -27.46094,-21.05469 8.53907,-5.84375 22.14843,16.51172 c 1.59375,1.1875 3.80469,-0.33594 3.23047,-2.23828 -0.0156,-0.0625 -0.0352,-0.12109 -0.0547,-0.17969 -1.05078,-3.55859 0.1211,-7.40234 2.94532,-9.80468 l 32.64843,-27.7461 C 257.84766,135.78125 239.44531,57.734375 178.24609,42.667969 Z M 148.69922,49.4375 c 18.28125,7.996094 31.08203,26.261719 31.08203,47.453125 0,22.621095 -14.58203,41.898435 -34.83594,48.929685 -1.87109,-32.1289 -0.23047,-64.261716 3.75391,-96.394529 -0.004,0.0039 0,0.0078 0,0.01172 z M 76.226562,96.890625 c 0,-21.195313 12.800782,-39.453125 31.074218,-47.453125 0,-0.0078 0,-0.01563 0,-0.01953 3.98438,32.132812 5.625,64.26953 3.75781,96.40234 -20.253902,-7.03125 -34.832028,-26.3125 -34.832028,-48.929685 z m 0,0"
            id="path1" />
    </g>
</svg>