<svg width="256px" height="256px" viewBox="0 0 256 256" version="1.1" id="svg1" xmlns="http://www.w3.org/2000/svg"
    xmlns:svg="http://www.w3.org/2000/svg">
    <defs id="defs1" />
    <rect width="256" height="256" rx="60" fill="#242938" id="rect1" />
    <g id="surface1" transform="matrix(0.90039858,0,0,0.90012891,11.443521,11.478866)">
        <path style="fill:#28b3e6;fill-opacity:1;fill-rule:nonzero;stroke:none"
            d="m 39.441406,61.191406 52.03125,31.199219 c 5.933594,3.566406 13.539064,2.570313 18.355474,-2.402344 3.15625,-3.042969 4.92968,-7.246093 4.90625,-11.632812 v -62.53125 c 0.21484,-5.578125 -2.64063,-10.828125 -7.44141,-13.679688 -4.80078,-2.851562 -10.773439,-2.851562 -15.57422,0 -4.796875,2.851563 -7.65625,8.101563 -7.441406,13.679688 V 51.40625 L 54.726562,33.6875 c -3.519531,-2.089844 -7.734374,-2.667969 -11.6875,-1.597656 -3.941406,1.058594 -7.269531,3.757812 -9.199218,7.375 -4.226563,7.597656 -1.761719,17.121094 5.601562,21.6875 M 164.51953,92.351562 216.55078,61.152344 c 7.35938,-4.574219 9.83203,-14.132813 5.60156,-21.695313 -1.93359,-3.609375 -5.25781,-6.265625 -9.19922,-7.363281 -3.9414,-1.097656 -8.16406,-0.535156 -11.67968,1.554688 L 172.07031,51.128906 V 15.769531 c 0.20313,-5.574219 -2.65234,-10.8125 -7.44922,-13.660156 -4.79687,-2.84375 -10.76172,-2.84375 -15.55859,0 -4.79297,2.847656 -7.65234,8.085937 -7.44922,13.660156 v 61.289063 c -0.3125,3.285156 0.375,6.585937 1.97656,9.46875 1.92578,3.613281 5.25391,6.28125 9.19922,7.375 3.94922,1.105468 8.17969,0.527344 11.6875,-1.597656 m -46.26953,35.574222 c 0.0547,-1 0.4336,-2 1.08985,-2.71875 l 6.07812,-6.32032 c 0.72266,-0.66796 1.65234,-1.07031 2.63281,-1.1289 h 0.22656 c 0.98047,0.0586 1.91016,0.45703 2.625,1.1289 l 6.08204,6.32032 c 0.65625,0.76172 1.03906,1.71875 1.08593,2.72265 v 0.24219 c -0.0469,1.00391 -0.42968,1.96875 -1.08593,2.73047 l -6.08204,6.32031 c -0.71093,0.67578 -1.64062,1.07813 -2.625,1.13672 h -0.22656 c -0.98437,-0.0547 -1.91797,-0.46094 -2.63281,-1.13672 l -6.07812,-6.32031 c -0.65625,-0.76172 -1.03907,-1.72656 -1.08985,-2.73047 z m -18.414061,-2.59766 v 5.45312 c 0.06641,1.3711 0.589841,2.6836 1.488281,3.72266 l 20.64063,21.42578 c 0.97265,0.92188 2.23828,1.46875 3.57812,1.54688 h 5.24609 c 1.33985,-0.0781 2.60938,-0.625 3.58203,-1.54688 l 20.64063,-21.42578 c 0.89453,-1.03906 1.41797,-2.35156 1.48828,-3.72266 v -5.45312 c -0.0703,-1.37109 -0.59375,-2.68359 -1.48828,-3.72266 l -20.64063,-21.42578 c -0.97265,-0.921872 -2.24218,-1.468748 -3.58203,-1.542966 H 125.5 c -1.33984,0.07422 -2.60547,0.621094 -3.57812,1.542966 l -20.64063,21.46875 c -0.89453,1.03907 -1.417969,2.34766 -1.488281,3.71875 m -87.273438,-14.83984 29.460938,17.66797 -29.460938,17.65234 c -7.355469,4.58203 -9.816406,14.12891 -5.59375,21.69531 1.929688,3.61328 5.253907,6.27735 9.199219,7.375 3.941406,1.09766 8.167969,0.53125 11.6875,-1.5664 l 52.03125,-31.19922 c 4.800781,-3.05078 7.601562,-8.3125 7.601562,-13.96875 -0.0039,-5.64453 -2.863281,-10.90234 -7.601562,-13.96875 L 27.8125,82.96875 c -3.519531,-2.089844 -7.734375,-2.667969 -11.6875,-1.601562 -3.945312,1.0625 -7.273438,3.761718 -9.199219,7.375 -4.230469,7.601562 -1.761719,17.113282 5.597657,21.691402 m 155.980472,17.76563 c -0.0937,5.66015 2.8125,10.94922 7.64062,13.91015 l 52,31.19922 c 3.51953,2.09375 7.73438,2.66407 11.67969,1.56641 3.94531,-1.09375 7.26953,-3.75781 9.19922,-7.37109 4.24218,-7.56641 1.77343,-17.12891 -5.59766,-21.69532 L 214,128.15234 243.46094,110.48438 c 7.35937,-4.57422 9.82812,-14.121099 5.59765,-21.687505 -1.92578,-3.617187 -5.25,-6.28125 -9.19922,-7.375 -3.94921,-1.097656 -8.16796,-0.539063 -11.67968,1.597656 l -52,31.199219 c -4.86719,2.98047 -7.77735,8.32422 -7.64063,14.02734 m -66.61718,33.78516 C 98.328125,161.33984 94.609375,162 91.476562,163.88672 l -52.03125,31.20312 c -7.359374,4.57032 -9.824218,14.11719 -5.601562,21.6875 1.933594,3.60938 5.257812,6.27735 9.199219,7.3711 3.949219,1.09375 8.171875,0.52734 11.6875,-1.57032 L 84.28125,204.85937 v 35.32032 c -0.222656,5.58593 2.628906,10.84375 7.433594,13.70312 4.800781,2.85547 10.785156,2.85547 15.585936,0 4.80469,-2.85937 7.65625,-8.11719 7.4336,-13.70312 v -62.57813 c 0.11328,-7.63672 -5.30469,-14.23828 -12.82032,-15.61328 m 114.64063,33.10547 -52.03125,-31.20313 c -3.51953,-2.09375 -7.74219,-2.66015 -11.6875,-1.5664 -3.94532,1.09375 -7.27344,3.75781 -9.19922,7.37109 -1.60156,2.89063 -2.28906,6.19531 -1.97656,9.48047 v 61 c -0.22266,5.58594 2.63281,10.84375 7.43359,13.69922 4.80469,2.85937 10.78516,2.85937 15.58984,0 4.80078,-2.85547 7.65235,-8.11328 7.4336,-13.69922 v -35.05469 l 29.14843,17.48047 c 3.51954,2.08985 7.73438,2.66406 11.6875,1.59766 3.94141,-1.0586 7.26954,-3.75781 9.19922,-7.375 4.22657,-7.60156 1.75782,-17.1211 -5.60156,-21.6875"
            id="path1" />
    </g>
</svg>