<svg xmlns="http://www.w3.org/2000/svg" xmlns:xlink="http://www.w3.org/1999/xlink" width="256px" height="256px" viewBox="0 0 256 256" version="1.1">
<rect width="256" height="256" rx="60" fill="#242938" id="rect1" />
<g id="surface1">
<path style=" stroke:none;fill-rule:nonzero;fill:#f2f4ed;fill-opacity:1;" d="M 191.246094 166 C 201.753906 171.753906 207.753906 182 207 192.246094 C 206.496094 198.496094 206.246094 198.753906 198.246094 199.753906 C 193.246094 200.503906 161.742188 200.753906 129.246094 200.753906 C 92.496094 200.753906 54 200 51.246094 199.246094 C 40.246094 196.496094 46.246094 176.496094 60.753906 167 C 72 159.753906 95 148.753906 101.257812 147.496094 C 109.761719 145.742188 110.761719 140.496094 101.257812 123.496094 C 99.007812 119.742188 96.503906 108.246094 96.257812 96.246094 C 96.007812 76.742188 99.761719 63.496094 116.761719 57 C 120.265625 55.753906 123.761719 55.246094 127.007812 55.246094 C 138.257812 55.246094 148.761719 61.496094 153.007812 70.753906 C 159.257812 83 156.761719 115.753906 150.257812 127.503906 C 142.753906 140.753906 143.503906 145.007812 151.761719 147.257812 C 157.265625 148.761719 174.265625 156.761719 191.265625 166.007812 Z M 55.246094 158.503906 C 51.246094 161.257812 47.496094 164.753906 44.496094 168.257812 C 34.992188 168.257812 27.742188 168.007812 26.992188 167.753906 C 20.742188 166.246094 24.238281 154.753906 32.496094 149.753906 C 38.742188 145.753906 51.496094 139.503906 55 138.753906 C 59.503906 137.753906 60.503906 135 55 125.503906 C 53.753906 123.503906 52.246094 117 52.246094 110.257812 C 52 99.257812 54.246094 91.753906 63.753906 88.503906 C 71.753906 85.503906 80.753906 89.257812 84 96.007812 C 87.246094 103.007812 85.503906 121.007812 82 127.511719 C 78 135.265625 78.753906 137.265625 83.246094 138.511719 C 84.246094 138.761719 86.246094 139.761719 89 141.015625 C 78 145.519531 63 153.769531 55.246094 158.519531 Z M 219.753906 149 C 225.753906 152.246094 229 157.753906 228.503906 163.503906 C 228.257812 167.007812 228.257812 167.257812 223.753906 167.753906 C 222.503906 168 216.753906 168.257812 209.246094 168.257812 C 206 164.007812 201.496094 160.007812 196 157.257812 C 185.753906 151.257812 173.246094 144.753906 164 140.753906 C 166.503906 139.753906 168.753906 139 169.753906 138.753906 C 174.503906 137.753906 175.257812 135 169.753906 125.503906 C 168.753906 123.503906 167 117 167 110.257812 C 166.753906 99.257812 168.753906 91.753906 178.246094 88.503906 C 186.496094 85.503906 195.496094 89.257812 198.496094 96.007812 C 201.742188 103.007812 200.496094 121.007812 196.992188 127.511719 C 192.992188 135.265625 193.488281 137.265625 197.742188 138.511719 C 200.742188 139.511719 210.246094 144.015625 219.742188 149.015625 Z M 219.753906 149 "/>
</g>
</svg>
