<svg width="256px" height="256px" viewBox="0 0 256 256" xmlns="http://www.w3.org/2000/svg"
    xmlns:svg="http://www.w3.org/2000/svg">
    <title>SpellingBee</title>
    <rect width="256" height="256" fill="#242938" rx="60" id="rect1" />
    <g id="surface1" transform="matrix(0.91638157,0,0,0.93785949,10.475434,13.874809)">
        <path style="fill:#f2f4ed;fill-opacity:1;fill-rule:nonzero;stroke:none"
            d="m 100.95313,72.597656 c 0,6.929688 2.60546,13.25 6.89062,18.03125 h 40.3125 c 4.28516,-4.78125 6.89453,-11.101562 6.89453,-18.03125 0,-9.371094 -4.76953,-17.625 -12.01172,-22.484375 l 4.12891,-8.429687 c 1.40625,-0.222656 2.6875,-1.101563 3.35937,-2.472656 1.09375,-2.238282 0.16797,-4.9375 -2.0664,-6.03125 -2.23828,-1.097657 -4.9375,-0.171876 -6.03125,2.066406 -0.78907,1.617187 -0.52344,3.464844 0.52734,4.785156 l -3.86328,7.898438 C 135.70703,46.40625 131.95312,45.550781 128,45.550781 c -3.95312,0 -7.70703,0.855469 -11.09375,2.378907 l -3.86328,-7.898438 c 1.05078,-1.320312 1.32031,-3.167969 0.52734,-4.785156 -1.09375,-2.238282 -3.79297,-3.164063 -6.02734,-2.066406 -2.23828,1.09375 -3.16406,3.792968 -2.07031,6.03125 0.67187,1.371093 1.95312,2.25 3.35937,2.472656 l 4.12891,8.429687 c -7.24219,4.859375 -12.00781,13.113281 -12.00781,22.484375 z m 0,0"
            id="path1" />
        <path style="fill:#f2f4ed;fill-opacity:1;fill-rule:nonzero;stroke:none"
            d="M 91.261719,105.22656 C 101.5625,100.07813 98.664062,92.632812 93.9375,87.414062 81.699219,73.886719 39.195312,49.414062 16.984375,45.550781 10.640625,44.445312 -3.195312,45.121094 0.671875,64.875 2,71.679688 11.40625,101.79297 32.011719,112.10156 c 20.609375,10.30078 50.472656,-2.48828 59.25,-6.875 z m 0,0"
            id="path2" />
        <path style="fill:#f2f4ed;fill-opacity:1;fill-rule:nonzero;stroke:none"
            d="m 101.73828,105.96875 c -2.199218,2.10938 -5.003905,3.72266 -7.597655,5.01953 -5.378906,2.69141 -24.429687,11.46485 -43.691406,11.46485 -1.707031,0 -3.367188,-0.082 -4.996094,-0.21875 -10.71875,11.3789 -14.484375,26.77343 -8.71875,36.66406 6.011719,10.30468 23.664063,13.25 36.496094,5.14843 16.3125,-10.30078 26.402343,-40.35937 28.121091,-48.9414 0.48828,-2.44922 1.4336,-7.48047 0.38672,-9.13672 z m 0,0"
            id="path3" />
        <path style="fill:#f2f4ed;fill-opacity:1;fill-rule:nonzero;stroke:none"
            d="m 239.01562,45.550781 c -22.21093,3.863281 -64.71484,28.335938 -76.95312,41.863281 -4.72266,5.21875 -7.625,12.664068 2.67578,17.812498 8.77344,4.38672 38.64063,17.17578 59.25,6.875 C 244.59766,101.79297 254,71.679688 255.32812,64.875 259.19531,45.121094 245.35937,44.445312 239.01562,45.550781 Z m 0,0"
            id="path4" />
        <path style="fill:#f2f4ed;fill-opacity:1;fill-rule:nonzero;stroke:none"
            d="m 205.55078,122.45313 c -19.26172,0 -38.3125,-8.77344 -43.69141,-11.46485 -2.59375,-1.29687 -5.40234,-2.91015 -7.59765,-5.01953 -1.04688,1.65625 -0.10156,6.6875 0.38672,9.13672 1.71875,8.58203 11.80859,38.64062 28.12109,48.9414 12.82813,8.10157 30.48438,5.15625 36.49219,-5.14843 5.76953,-9.89063 2.0039,-25.28907 -8.71485,-36.66406 -1.6289,0.13671 -3.28906,0.21875 -4.99609,0.21875 z m 0,0"
            id="path5" />
        <path style="fill:#f2f4ed;fill-opacity:1;fill-rule:nonzero;stroke:none"
            d="m 147,95.78125 h -38 c -1.42187,0 -2.57422,1.15625 -2.57422,2.578125 v 16.421875 c 0,1.42188 1.15235,2.57813 2.57422,2.57813 h 38 c 1.41797,0 2.57422,-1.15625 2.57422,-2.57813 V 98.359375 c 0,-1.421875 -1.15625,-2.578125 -2.57422,-2.578125 z m 0,0"
            id="path6" />
        <path style="fill:#f2f4ed;fill-opacity:1;fill-rule:nonzero;stroke:none"
            d="m 108.67578,123.47656 c -1.67187,1.58985 -6.86328,9.5 -10.367186,19.96485 h 59.382816 c -3.50391,-10.46485 -8.69532,-18.375 -10.36719,-19.96485 z m 0,0"
            id="path7" />
        <path style="fill:#f2f4ed;fill-opacity:1;fill-rule:nonzero;stroke:none"
            d="m 95.253906,156.96094 c -0.433594,3.92187 -0.464844,7.96093 0.105469,11.97656 0.410156,2.87109 1.007813,5.52344 1.742187,7.99219 h 61.800778 c 0.73828,-2.46875 1.33203,-5.1211 1.73828,-7.99219 0.57032,-4.01563 0.54297,-8.05469 0.10547,-11.97656 z m 0,0"
            id="path8" />
        <path style="fill:#f2f4ed;fill-opacity:1;fill-rule:nonzero;stroke:none"
            d="m 124.86328,206.17969 2.34766,15.83203 c 0.10547,0.73047 0.73437,1.26953 1.47265,1.26953 0.73828,0 1.36719,-0.53906 1.47657,-1.26953 l 2.42187,-16.35938 c 5.08594,-1.95312 13.41016,-6.28515 19.78906,-15.19922 h -48.73828 c 7.03125,9.8125 16.41797,14.08594 21.23047,15.72657 z m 0,0"
            id="path9" />
    </g>
</svg>