<svg xmlns="http://www.w3.org/2000/svg" xmlns:xlink="http://www.w3.org/1999/xlink" width="256px" height="256px" viewBox="0 0 256 256" version="1.1">
    <title>SystemVerilog</title>
<rect width="256" height="256" fill="#F2F4ED" rx="60" id="rect1" />
<defs>
<linearGradient id="linear0" gradientUnits="userSpaceOnUse" x1="2" y1="26.221" x2="25.625" y2="26.221" gradientTransform="matrix(8,0,0,8,0,0)">
<stop offset="0" style="stop-color:rgb(10.196078%,20.392157%,56.078431%);stop-opacity:1;"/>
<stop offset="1" style="stop-color:rgb(89.803922%,91.372549%,77.647059%);stop-opacity:1;"/>
</linearGradient>
<linearGradient id="linear1" gradientUnits="userSpaceOnUse" x1="6.375" y1="5.779" x2="30" y2="5.779" gradientTransform="matrix(8,0,0,8,0,0)">
<stop offset="0" style="stop-color:rgb(89.803922%,91.372549%,77.647059%);stop-opacity:1;"/>
<stop offset="1" style="stop-color:rgb(10.196078%,20.392157%,56.078431%);stop-opacity:1;"/>
</linearGradient>
</defs>
<g id="surface1">
<path style=" stroke:none;fill-rule:nonzero;fill:rgb(17.254902%,3.137255%,49.411765%);fill-opacity:1;" d="M 106.113281 138.3125 C 104.554688 133.832031 102.105469 129.710938 98.910156 126.199219 C 94.339844 121.570312 89.363281 117.351562 84.046875 113.601562 C 78.011719 109.6875 72.601562 104.882812 68 99.351562 C 66.226562 96.722656 65.285156 93.621094 65.304688 90.449219 C 65.25 86.273438 66.667969 82.210938 69.304688 78.976562 C 71.789062 75.648438 75.734375 73.734375 79.886719 73.839844 C 84.035156 73.804688 87.957031 75.722656 90.472656 79.023438 C 93.980469 84.097656 96.128906 89.988281 96.710938 96.128906 L 96.992188 97.910156 L 99.230469 98.542969 C 99.863281 98.511719 100.476562 98.300781 100.992188 97.9375 L 101.960938 97.320312 L 102.152344 95.824219 C 102.238281 95.105469 102.375 93.59375 102.496094 88.753906 L 102.753906 80.480469 C 102.753906 79.839844 102.585938 77.40625 102.230469 73.175781 L 102.128906 71.929688 L 101.359375 71.199219 C 99.179688 68.824219 96.589844 66.855469 93.71875 65.382812 C 89.988281 63.820312 85.964844 63.058594 81.921875 63.152344 C 74.082031 62.929688 66.613281 66.472656 61.832031 72.6875 C 56.617188 79.46875 53.90625 87.84375 54.152344 96.390625 C 54.070312 101.074219 54.824219 105.734375 56.375 110.152344 C 58.398438 115.226562 61.285156 119.910156 64.902344 124 C 69.394531 128.492188 74.269531 132.585938 79.472656 136.230469 C 84.914062 139.886719 89.648438 144.492188 93.449219 149.832031 C 95.554688 153.359375 96.644531 157.398438 96.601562 161.503906 C 96.539062 164.8125 95.824219 168.074219 94.496094 171.105469 C 93.332031 174.152344 91.324219 176.804688 88.703125 178.753906 C 86.273438 180.519531 83.34375 181.472656 80.335938 181.472656 C 74.832031 181.1875 69.832031 178.175781 67.007812 173.441406 C 63.035156 168.09375 60.722656 161.691406 60.367188 155.039062 C 60.339844 153.71875 60.015625 152.421875 59.425781 151.238281 C 58.914062 150.238281 57.851562 149.644531 56.734375 149.738281 C 55.613281 149.828125 54.660156 150.585938 54.320312 151.65625 C 53.703125 153.765625 53.453125 155.964844 53.574219 158.160156 C 53.535156 162.695312 53.214844 168.558594 52.640625 175.601562 C 52.542969 176.777344 52.496094 177.742188 52.496094 178.496094 C 52.480469 180.332031 53.039062 182.128906 54.097656 183.632812 C 55.832031 185.636719 58.027344 187.195312 60.496094 188.167969 C 65.808594 190.855469 71.679688 192.257812 77.632812 192.265625 C 83.566406 192.53125 89.433594 190.898438 94.375 187.601562 C 99.070312 183.992188 102.660156 179.140625 104.742188 173.601562 C 107.300781 167.289062 108.597656 160.539062 108.550781 153.726562 C 108.617188 148.488281 107.792969 143.273438 106.113281 138.3125 Z M 106.113281 138.3125 "/>
<path style=" stroke:none;fill-rule:nonzero;fill:rgb(17.254902%,3.137255%,49.411765%);fill-opacity:1;" d="M 203.273438 67.199219 L 202.097656 66.617188 C 200.386719 65.960938 198.554688 65.6875 196.726562 65.816406 L 167.929688 66.113281 L 167.449219 67.984375 L 167.136719 69.710938 C 167.15625 70.953125 167.535156 72.160156 168.222656 73.191406 L 168.726562 73.992188 L 174.183594 74.945312 C 175.730469 75.148438 177.257812 75.472656 178.753906 75.921875 C 179.511719 76.222656 180.171875 76.742188 180.648438 77.40625 C 180.835938 77.679688 180.960938 77.988281 181.015625 78.3125 C 179.898438 88.449219 177.859375 98.460938 174.921875 108.222656 C 174.550781 110.191406 174.335938 111.351562 174.273438 111.632812 L 169.871094 128.800781 C 167.632812 137.300781 165.40625 145.324219 163.199219 152.871094 L 160.800781 161.214844 C 157.886719 150.480469 154.953125 139.945312 151.953125 129.535156 L 138.910156 86.601562 C 137.792969 83.398438 137.148438 80.050781 137 76.664062 C 137.136719 76.519531 137.976562 75.769531 141.3125 75.351562 C 143.191406 75.078125 145.089844 74.945312 146.992188 74.953125 L 147.503906 74.953125 C 149.085938 75.0625 150.554688 74.128906 151.121094 72.648438 L 151.59375 69.207031 L 151.335938 68.40625 C 151.082031 67.554688 150.5625 66.804688 149.855469 66.265625 L 149.054688 65.960938 C 147.769531 65.894531 146.449219 65.855469 145.054688 65.816406 C 143.664062 65.777344 142.273438 65.769531 140.824219 65.769531 C 133.671875 65.769531 128.617188 65.863281 125.761719 66.046875 C 125.039062 66.105469 124.375 66.136719 123.777344 66.136719 L 121.726562 66.136719 C 118.277344 66.011719 114.824219 65.953125 111.367188 65.953125 L 110.03125 65.953125 L 108.808594 70.238281 L 109.015625 71.230469 C 109.230469 72.40625 109.804688 73.484375 110.65625 74.320312 C 111.574219 74.847656 112.5625 75.238281 113.59375 75.480469 C 115.90625 76.070312 118.128906 76.988281 120.183594 78.207031 C 121.273438 79.988281 122.125 81.902344 122.71875 83.902344 L 142.199219 147.34375 C 145.398438 157.585938 149.519531 172.144531 154.503906 190.71875 L 154.894531 192.167969 L 155.960938 192.496094 C 156.609375 192.714844 157.289062 192.832031 157.976562 192.847656 C 158.90625 192.773438 159.777344 192.355469 160.425781 191.679688 L 161.039062 191.128906 L 163.121094 182.152344 C 165.273438 172.550781 168.984375 158.625 174.167969 140.816406 L 190.808594 81.558594 C 191.191406 80.046875 191.875 78.625 192.824219 77.382812 C 194.570312 76.40625 196.519531 75.835938 198.519531 75.71875 C 199.632812 75.53125 200.710938 75.175781 201.71875 74.671875 L 202.519531 74.28125 L 202.886719 73.160156 C 203.273438 72.039062 203.460938 70.859375 203.441406 69.671875 Z M 203.273438 67.199219 "/>
<path style=" stroke:none;fill-rule:nonzero;fill:url(#linear0);" d="M 205 191.6875 C 169.304688 242.886719 59.816406 238.511719 39.144531 179.527344 L 16 179.527344 C 32.496094 256.34375 171.511719 259.511719 205 191.6875 Z M 205 191.6875 "/>
<path style=" stroke:none;fill-rule:nonzero;fill:url(#linear1);" d="M 240 76.472656 C 223.503906 -0.328125 84.488281 -3.527344 51 64.3125 C 86.695312 13.113281 196.183594 17.488281 216.855469 76.472656 Z M 240 76.472656 "/>
</g>
</svg>
