<svg xmlns="http://www.w3.org/2000/svg" xmlns:xlink="http://www.w3.org/1999/xlink" width="256px" height="256px" viewBox="0 0 256 256" version="1.1">
    <title>SystemVerilog</title>
<rect width="256" height="256" fill="#242938" rx="60" id="rect1" />
<defs>
<linearGradient id="linear0" gradientUnits="userSpaceOnUse" x1="2" y1="26.221" x2="25.625" y2="26.221" gradientTransform="matrix(8,0,0,8,0,0)">
<stop offset="0" style="stop-color:rgb(10.196078%,20.392157%,56.078431%);stop-opacity:1;"/>
<stop offset="1" style="stop-color:rgb(89.803922%,91.372549%,77.647059%);stop-opacity:1;"/>
</linearGradient>
<linearGradient id="linear1" gradientUnits="userSpaceOnUse" x1="6.375" y1="5.779" x2="30" y2="5.779" gradientTransform="matrix(8,0,0,8,0,0)">
<stop offset="0" style="stop-color:rgb(89.803922%,91.372549%,77.647059%);stop-opacity:1;"/>
<stop offset="1" style="stop-color:rgb(10.196078%,20.392157%,56.078431%);stop-opacity:1;"/>
</linearGradient>
</defs>
<g id="surface1">
<path style=" stroke:none;fill-rule:nonzero;fill:rgb(77.254902%,76.078431%,100%);fill-opacity:1;" d="M 106.113281 138.3125 C 104.554688 133.832031 102.105469 129.710938 98.910156 126.199219 C 94.339844 121.570312 89.363281 117.351562 84.046875 113.601562 C 78.011719 109.6875 72.601562 104.882812 68 99.351562 C 66.226562 96.722656 65.285156 93.621094 65.304688 90.449219 C 65.25 86.273438 66.667969 82.210938 69.304688 78.976562 C 71.789062 75.648438 75.734375 73.734375 79.886719 73.839844 C 84.035156 73.804688 87.957031 75.722656 90.472656 79.023438 C 93.980469 84.097656 96.128906 89.988281 96.710938 96.128906 L 96.992188 97.910156 L 99.230469 98.542969 C 99.863281 98.511719 100.476562 98.300781 100.992188 97.9375 L 101.960938 97.320312 L 102.152344 95.824219 C 102.238281 95.105469 102.375 93.59375 102.496094 88.753906 L 102.753906 80.480469 C 102.753906 79.839844 102.585938 77.40625 102.230469 73.175781 L 102.128906 71.929688 L 101.359375 71.199219 C 99.179688 68.824219 96.589844 66.855469 93.71875 65.382812 C 89.988281 63.820312 85.964844 63.058594 81.921875 63.152344 C 74.082031 62.929688 66.613281 66.472656 61.832031 72.6875 C 56.617188 79.46875 53.90625 87.84375 54.152344 96.390625 C 54.070312 101.074219 54.824219 105.734375 56.375 110.152344 C 58.398438 115.226562 61.285156 119.910156 64.902344 124 C 69.394531 128.492188 74.269531 132.585938 79.472656 136.230469 C 84.914062 139.886719 89.648438 144.492188 93.449219 149.832031 C 95.554688 153.359375 96.644531 157.398438 96.601562 161.503906 C 96.539062 164.8125 95.824219 168.074219 94.496094 171.105469 C 93.332031 174.152344 91.324219 176.804688 88.703125 178.753906 C 86.273438 180.519531 83.34375 181.472656 80.335938 181.472656 C 74.832031 181.1875 69.832031 178.175781 67.007812 173.441406 C 63.035156 168.09375 60.722656 161.691406 60.367188 155.039062 C 60.339844 153.71875 60.015625 152.421875 59.425781 151.238281 C 58.914062 150.238281 57.851562 149.644531 56.734375 149.738281 C 55.613281 149.828125 54.660156 150.585938 54.320312 151.65625 C 53.703125 153.765625 53.453125 155.964844 53.574219 158.160156 C 53.535156 162.695312 53.214844 168.558594 52.640625 175.601562 C 52.542969 176.777344 52.496094 177.742188 52.496094 178.496094 C 52.480469 180.332031 53.039062 182.128906 54.097656 183.632812 C 55.832031 185.636719 58.027344 187.195312 60.496094 188.167969 C 65.808594 190.855469 71.679688 192.257812 77.632812 192.265625 C 83.566406 192.53125 89.433594 190.898438 94.375 187.601562 C 99.070312 183.992188 102.660156 179.140625 104.742188 173.601562 C 107.300781 167.289062 108.597656 160.539062 108.550781 153.726562 C 108.617188 148.488281 107.792969 143.273438 106.113281 138.3125 Z M 106.113281 138.3125 "/>
<path style=" stroke:none;fill-rule:nonzero;fill:rgb(17.254902%,3.137255%,49.411765%);fill-opacity:1;" d="M 77.664062 193.3125 C 71.550781 193.308594 65.519531 191.871094 60.0625 189.113281 C 57.429688 188.074219 55.089844 186.40625 53.257812 184.246094 C 52.082031 182.578125 51.460938 180.585938 51.480469 178.542969 C 51.480469 177.742188 51.527344 176.777344 51.632812 175.566406 C 52.207031 168.535156 52.519531 162.695312 52.566406 158.199219 C 52.429688 155.875 52.699219 153.542969 53.367188 151.3125 C 53.886719 149.917969 55.160156 148.941406 56.640625 148.800781 C 58.125 148.703125 59.53125 149.472656 60.246094 150.777344 C 60.921875 152.085938 61.292969 153.535156 61.335938 155.007812 C 61.695312 161.460938 63.9375 167.664062 67.785156 172.855469 C 70.414062 177.34375 75.109375 180.222656 80.304688 180.535156 C 83.101562 180.535156 85.832031 179.652344 88.097656 178.007812 C 90.554688 176.171875 92.445312 173.675781 93.542969 170.808594 C 94.824219 167.886719 95.511719 164.742188 95.566406 161.550781 C 95.613281 157.625 94.574219 153.761719 92.558594 150.390625 C 88.828125 145.15625 84.183594 140.632812 78.847656 137.039062 C 73.589844 133.359375 68.664062 129.222656 64.128906 124.679688 C 60.433594 120.503906 57.488281 115.71875 55.425781 110.535156 C 53.824219 106 53.046875 101.214844 53.128906 96.40625 C 52.878906 87.632812 55.667969 79.039062 61.023438 72.078125 C 65.988281 65.621094 73.75 61.929688 81.894531 62.160156 C 86.082031 62.066406 90.242188 62.859375 94.105469 64.480469 C 97.089844 66.003906 99.78125 68.046875 102.046875 70.511719 L 103.007812 71.503906 L 103.144531 73.105469 C 103.480469 77.046875 103.671875 79.742188 103.671875 80.488281 L 103.441406 88.800781 C 103.320312 93.601562 103.183594 95.199219 103.089844 96 L 102.832031 97.976562 L 101.464844 98.832031 C 100.792969 99.316406 99.996094 99.59375 99.167969 99.632812 L 98.894531 99.632812 L 96.046875 98.832031 L 95.664062 96.433594 C 95.105469 90.472656 93.035156 84.75 89.648438 79.816406 C 87.3125 76.761719 83.675781 74.980469 79.832031 75.015625 C 75.984375 74.914062 72.324219 76.691406 70.023438 79.777344 C 67.546875 82.84375 66.222656 86.679688 66.28125 90.625 C 66.292969 93.539062 67.171875 96.386719 68.800781 98.808594 C 73.351562 104.222656 78.6875 108.925781 84.632812 112.761719 C 90.007812 116.574219 95.03125 120.855469 99.648438 125.558594 C 102.925781 129.171875 105.441406 133.410156 107.039062 138.015625 C 108.761719 143.085938 109.605469 148.40625 109.542969 153.761719 C 109.589844 160.699219 108.269531 167.578125 105.664062 174.007812 C 103.53125 179.742188 99.835938 184.765625 94.992188 188.503906 C 89.875 191.910156 83.804688 193.59375 77.664062 193.3125 Z M 56.976562 150.777344 L 56.800781 150.777344 C 56.066406 150.859375 55.441406 151.355469 55.199219 152.054688 C 54.644531 154.0625 54.417969 156.144531 54.527344 158.222656 C 54.488281 162.734375 54.167969 168.625 53.585938 175.71875 C 53.488281 176.863281 53.441406 177.808594 53.441406 178.535156 C 53.425781 180.167969 53.925781 181.761719 54.863281 183.097656 C 56.523438 184.960938 58.601562 186.402344 60.929688 187.3125 C 66.097656 189.933594 71.8125 191.300781 77.609375 191.3125 C 83.332031 191.578125 88.992188 190.011719 93.769531 186.839844 C 98.3125 183.316406 101.773438 178.59375 103.769531 173.199219 C 106.277344 167.011719 107.546875 160.390625 107.503906 153.710938 C 107.5625 148.589844 106.75 143.492188 105.105469 138.640625 C 103.59375 134.285156 101.21875 130.277344 98.121094 126.863281 C 93.609375 122.285156 88.703125 118.113281 83.457031 114.398438 C 77.367188 110.371094 71.875 105.503906 67.144531 99.945312 C 65.261719 97.148438 64.261719 93.851562 64.28125 90.480469 C 64.210938 86.082031 65.691406 81.800781 68.457031 78.382812 C 71.113281 74.78125 75.355469 72.699219 79.832031 72.800781 C 84.292969 72.765625 88.507812 74.839844 91.199219 78.398438 C 94.828125 83.617188 97.050781 89.675781 97.65625 96 L 97.832031 97.152344 L 99.304688 97.566406 C 99.703125 97.507812 100.085938 97.351562 100.414062 97.121094 L 100.992188 96.761719 L 101.128906 95.726562 C 101.214844 95.023438 101.351562 93.519531 101.464844 88.761719 L 101.71875 80.480469 C 101.71875 79.984375 101.585938 77.808594 101.199219 73.28125 L 101.128906 72.390625 L 100.664062 71.910156 C 98.566406 69.625 96.078125 67.730469 93.320312 66.3125 C 89.722656 64.8125 85.847656 64.085938 81.953125 64.175781 C 74.417969 63.945312 67.230469 67.339844 62.625 73.304688 C 57.550781 79.90625 54.914062 88.0625 55.160156 96.382812 C 55.082031 100.949219 55.816406 105.492188 57.328125 109.800781 C 59.308594 114.757812 62.128906 119.335938 65.664062 123.335938 C 70.109375 127.769531 74.925781 131.8125 80.0625 135.414062 C 85.613281 139.160156 90.433594 143.882812 94.296875 149.351562 C 96.5 153.023438 97.644531 157.238281 97.601562 161.519531 C 97.546875 164.972656 96.804688 168.378906 95.425781 171.542969 C 94.1875 174.765625 92.0625 177.570312 89.289062 179.625 C 86.6875 181.515625 83.550781 182.53125 80.335938 182.527344 C 74.5 182.242188 69.191406 179.054688 66.199219 174.03125 C 62.125 168.535156 59.75 161.96875 59.367188 155.136719 C 59.347656 153.972656 59.074219 152.828125 58.566406 151.785156 C 58.253906 151.1875 57.648438 150.804688 56.976562 150.777344 Z M 56.976562 150.777344 "/>
<path style=" stroke:none;fill-rule:nonzero;fill:rgb(77.254902%,76.078431%,100%);fill-opacity:1;" d="M 203.273438 67.199219 L 202.097656 66.617188 C 200.386719 65.960938 198.554688 65.6875 196.726562 65.816406 L 167.929688 66.113281 L 167.449219 67.984375 L 167.136719 69.710938 C 167.15625 70.953125 167.535156 72.160156 168.222656 73.191406 L 168.726562 73.992188 L 174.183594 74.945312 C 175.730469 75.148438 177.257812 75.472656 178.753906 75.921875 C 179.511719 76.222656 180.171875 76.742188 180.648438 77.40625 C 180.835938 77.679688 180.960938 77.988281 181.015625 78.3125 C 179.898438 88.449219 177.859375 98.460938 174.921875 108.222656 C 174.550781 110.191406 174.335938 111.351562 174.273438 111.632812 L 169.871094 128.800781 C 167.632812 137.300781 165.40625 145.324219 163.199219 152.871094 L 160.800781 161.214844 C 157.886719 150.480469 154.953125 139.945312 151.953125 129.535156 L 138.910156 86.601562 C 137.792969 83.398438 137.148438 80.050781 137 76.664062 C 137.136719 76.519531 137.976562 75.769531 141.3125 75.351562 C 143.191406 75.078125 145.089844 74.945312 146.992188 74.953125 L 147.503906 74.953125 C 149.085938 75.0625 150.554688 74.128906 151.121094 72.648438 L 151.59375 69.207031 L 151.335938 68.40625 C 151.082031 67.554688 150.5625 66.804688 149.855469 66.265625 L 149.054688 65.960938 C 147.769531 65.894531 146.449219 65.855469 145.054688 65.816406 C 143.664062 65.777344 142.273438 65.769531 140.824219 65.769531 C 133.671875 65.769531 128.617188 65.863281 125.761719 66.046875 C 125.039062 66.105469 124.375 66.136719 123.777344 66.136719 L 121.726562 66.136719 C 118.277344 66.011719 114.824219 65.953125 111.367188 65.953125 L 110.03125 65.953125 L 108.808594 70.238281 L 109.015625 71.230469 C 109.230469 72.40625 109.804688 73.484375 110.65625 74.320312 C 111.574219 74.847656 112.5625 75.238281 113.59375 75.480469 C 115.90625 76.070312 118.128906 76.988281 120.183594 78.207031 C 121.273438 79.988281 122.125 81.902344 122.71875 83.902344 L 142.199219 147.34375 C 145.398438 157.585938 149.519531 172.144531 154.503906 190.71875 L 154.894531 192.167969 L 155.960938 192.496094 C 156.609375 192.714844 157.289062 192.832031 157.976562 192.847656 C 158.90625 192.773438 159.777344 192.355469 160.425781 191.679688 L 161.039062 191.128906 L 163.121094 182.152344 C 165.273438 172.550781 168.984375 158.625 174.167969 140.816406 L 190.808594 81.558594 C 191.191406 80.046875 191.875 78.625 192.824219 77.382812 C 194.570312 76.40625 196.519531 75.835938 198.519531 75.71875 C 199.632812 75.53125 200.710938 75.175781 201.71875 74.671875 L 202.519531 74.28125 L 202.886719 73.160156 C 203.273438 72.039062 203.460938 70.859375 203.441406 69.671875 Z M 203.273438 67.199219 "/>
<path style=" stroke:none;fill-rule:nonzero;fill:rgb(17.254902%,3.137255%,49.411765%);fill-opacity:1;" d="M 157.984375 193.855469 C 157.199219 193.84375 156.421875 193.710938 155.679688 193.464844 L 154.078125 192.96875 L 153.542969 190.992188 C 148.585938 172.527344 144.449219 157.953125 141.257812 147.65625 L 121.777344 84.207031 C 121.195312 82.351562 120.410156 80.558594 119.441406 78.871094 C 117.46875 77.882812 115.414062 77.082031 113.296875 76.472656 C 112.167969 76.207031 111.085938 75.769531 110.097656 75.167969 C 109.050781 74.1875 108.34375 72.898438 108.078125 71.488281 L 107.816406 70.257812 L 109.320312 65.007812 L 111.414062 65.007812 C 114.9375 65.007812 118.433594 65.070312 121.816406 65.191406 L 123.832031 65.191406 C 124.40625 65.191406 125.046875 65.191406 125.742188 65.105469 C 128.679688 64.910156 133.742188 64.816406 140.886719 64.816406 C 142.351562 64.816406 143.761719 64.816406 145.144531 64.863281 C 146.527344 64.910156 147.855469 64.945312 149.144531 65.007812 L 149.441406 65.070312 L 150.496094 65.496094 C 151.375 66.15625 152.019531 67.082031 152.335938 68.136719 L 152.671875 69.121094 L 152.105469 73.039062 C 151.386719 74.894531 149.550781 76.070312 147.566406 75.953125 L 147.054688 75.953125 C 145.183594 75.941406 143.308594 76.070312 141.457031 76.34375 C 140.277344 76.425781 139.117188 76.695312 138.023438 77.144531 C 138.28125 80.253906 138.910156 83.320312 139.894531 86.28125 L 152.929688 129.207031 C 155.527344 138.222656 158.128906 147.496094 160.847656 157.441406 L 162.230469 152.558594 C 164.398438 145.136719 166.648438 137.046875 168.894531 128.503906 L 173.265625 111.335938 C 173.320312 111.089844 173.535156 109.945312 173.894531 107.992188 C 176.804688 98.296875 178.839844 88.355469 179.976562 78.296875 C 179.976562 78.296875 179.902344 78.136719 179.753906 77.878906 C 179.375 77.378906 178.863281 76.996094 178.28125 76.777344 C 176.863281 76.382812 175.421875 76.082031 173.96875 75.878906 L 168.078125 74.855469 L 167.34375 73.6875 C 166.554688 72.5 166.125 71.113281 166.105469 69.6875 L 166.433594 67.785156 L 167.113281 65.105469 L 196.710938 64.800781 C 198.699219 64.65625 200.695312 64.96875 202.542969 65.710938 L 204.222656 66.511719 L 204.480469 69.59375 C 204.503906 70.910156 204.300781 72.222656 203.878906 73.472656 L 203.382812 74.992188 L 202.191406 75.566406 C 201.082031 76.121094 199.894531 76.503906 198.671875 76.703125 C 196.867188 76.855469 195.109375 77.34375 193.488281 78.144531 C 192.703125 79.285156 192.121094 80.550781 191.769531 81.886719 L 175.144531 141.089844 C 169.960938 158.921875 166.246094 172.800781 164.113281 182.367188 L 161.960938 191.648438 L 161.113281 192.449219 C 160.28125 193.292969 159.164062 193.792969 157.984375 193.855469 Z M 155.726562 191.390625 L 156.265625 191.558594 C 157.4375 192.167969 158.871094 191.914062 159.769531 190.945312 L 160.144531 190.609375 L 162.152344 181.945312 C 164.304688 172.34375 168.015625 158.414062 173.214844 140.550781 L 189.855469 81.304688 C 190.304688 79.625 191.082031 78.054688 192.144531 76.679688 C 194.03125 75.550781 196.160156 74.890625 198.351562 74.753906 C 199.382812 74.582031 200.382812 74.257812 201.320312 73.792969 L 201.742188 73.585938 L 201.976562 72.871094 C 202.332031 71.84375 202.503906 70.761719 202.480469 69.671875 L 202.320312 67.792969 L 201.640625 67.457031 C 200.070312 66.875 198.390625 66.632812 196.71875 66.753906 L 168.671875 67.039062 L 168.089844 69.824219 C 168.152344 70.8125 168.476562 71.769531 169.03125 72.59375 L 169.296875 73.007812 L 174.3125 73.886719 C 175.9375 74.117188 177.542969 74.46875 179.113281 74.945312 C 180.058594 75.324219 180.871094 75.980469 181.449219 76.824219 C 181.730469 77.25 181.90625 77.738281 181.960938 78.246094 C 180.761719 88.453125 178.710938 98.542969 175.832031 108.40625 C 175.472656 110.335938 175.257812 111.503906 175.191406 111.792969 L 170.816406 128.992188 C 168.558594 137.558594 166.3125 145.671875 164.136719 153.105469 L 160.800781 164.929688 L 159.855469 161.449219 C 156.800781 150.175781 153.902344 139.847656 151.015625 129.785156 L 137.984375 86.863281 C 136.835938 83.558594 136.167969 80.109375 136 76.617188 L 136 76.238281 L 136.257812 75.960938 C 136.648438 75.535156 137.800781 74.761719 141.175781 74.359375 C 143.113281 74.089844 145.066406 73.953125 147.023438 73.953125 L 147.496094 73.953125 C 148.632812 74.054688 149.707031 73.40625 150.144531 72.351562 L 150.558594 69.289062 L 150.398438 68.742188 C 150.21875 68.125 149.867188 67.570312 149.382812 67.144531 L 148.847656 66.953125 C 147.625 66.894531 146.351562 66.847656 145.039062 66.816406 C 143.726562 66.785156 142.273438 66.769531 140.832031 66.769531 C 133.761719 66.769531 128.710938 66.863281 125.832031 67.046875 C 125.097656 67.105469 124.40625 67.144531 123.785156 67.144531 L 121.734375 67.144531 C 118.34375 67.023438 114.871094 66.960938 111.375 66.960938 L 110.792969 66.960938 L 109.839844 70.289062 L 110 71.03125 C 110.175781 72.011719 110.652344 72.910156 111.359375 73.609375 C 112.1875 73.976562 113.039062 74.28125 113.910156 74.527344 C 116.347656 75.15625 118.679688 76.136719 120.832031 77.441406 C 122.085938 79.320312 123.039062 81.382812 123.664062 83.550781 L 143.199219 147.070312 C 146.398438 157.390625 150.550781 172 155.519531 190.488281 Z M 155.726562 191.390625 "/>
<path style=" stroke:none;fill-rule:nonzero;fill:url(#linear0);" d="M 205 191.6875 C 169.304688 242.886719 59.816406 238.511719 39.144531 179.527344 L 16 179.527344 C 32.496094 256.34375 171.511719 259.511719 205 191.6875 Z M 205 191.6875 "/>
<path style=" stroke:none;fill-rule:nonzero;fill:url(#linear1);" d="M 240 76.472656 C 223.503906 -0.328125 84.488281 -3.527344 51 64.3125 C 86.695312 13.113281 196.183594 17.488281 216.855469 76.472656 Z M 240 76.472656 "/>
</g>
</svg>
