<svg width="256px" height="256px" viewBox="0 0 256 256" xmlns="http://www.w3.org/2000/svg"
  xmlns:svg="http://www.w3.org/2000/svg">
  <title>Telegraf</title>
  <rect width="256" height="256" fill="#f2f4ed" rx="60" id="rect1" />
  <defs id="defs19">
    <linearGradient id="linear0" gradientUnits="userSpaceOnUse" x1="61.626701" y1="423.628601" x2="172.209106"
      y2="336.360992" gradientTransform="matrix(0.597712,0,0,-0.596011,0,478.17725)">
      <stop offset="0" style="stop-color:rgb(89.803922%,43.137255%,67.058824%);stop-opacity:1;" id="stop1" />
      <stop offset="1" style="stop-color:rgb(94.117647%,66.27451%,80.392157%);stop-opacity:1;" id="stop2" />
    </linearGradient>
    <linearGradient id="linear1" gradientUnits="userSpaceOnUse" x1="149.889496" y1="496.936096" x2="384.511414"
      y2="501.746887" gradientTransform="matrix(0.597712,0,0,-0.596011,0,478.17725)">
      <stop offset="0" style="stop-color:rgb(94.117647%,66.27451%,80.392157%);stop-opacity:1;" id="stop3" />
      <stop offset="1" style="stop-color:rgb(89.803922%,43.137255%,67.058824%);stop-opacity:1;" id="stop4" />
    </linearGradient>
    <clipPath id="clip1">
      <path
        d="M 24.566406 32.183594 L 231.375 32.183594 L 231.375 301.816406 L 24.566406 301.816406 Z M 24.566406 32.183594 "
        id="path4" />
    </clipPath>
    <filter id="alpha" filterUnits="objectBoundingBox" x="0" y="0" width="1" height="1">
      <feColorMatrix type="matrix" in="SourceGraphic" values="0 0 0 0 1 0 0 0 0 1 0 0 0 0 1 0 0 0 1 0"
        id="feColorMatrix4" />
    </filter>
    <mask id="mask0">
      <g filter="url(#alpha)" id="g4">
        <rect x="0" y="0" width="256" height="334" style="fill:rgb(0%,0%,0%);fill-opacity:0.301961;stroke:none;"
          id="rect4" />
      </g>
    </mask>
    <clipPath id="clip2">
      <rect x="0" y="0" width="256" height="334" id="rect5" />
    </clipPath>
    <g id="surface5" clip-path="url(#clip2)">
      <path style=" stroke:none;fill-rule:nonzero;fill:rgb(41.960785%,3.921569%,36.078432%);fill-opacity:1;"
        d="M 174.171875 252.347656 C 175.964844 249.488281 176.984375 246.148438 177.101562 242.8125 L 178.953125 184.640625 L 169.332031 243.46875 Z M 174.171875 252.347656 "
        id="path5" />
    </g>
    <mask id="mask1">
      <g filter="url(#alpha)" id="g6">
        <rect x="0" y="0" width="256" height="334" style="fill:rgb(0%,0%,0%);fill-opacity:0.301961;stroke:none;"
          id="rect6" />
      </g>
    </mask>
    <clipPath id="clip3">
      <rect x="0" y="0" width="256" height="334" id="rect7" />
    </clipPath>
    <g id="surface8" clip-path="url(#clip3)">
      <path style=" stroke:none;fill-rule:nonzero;fill:rgb(41.960785%,3.921569%,36.078432%);fill-opacity:1;"
        d="M 109.441406 214.023438 C 109.441406 214.023438 133.050781 214.980469 136.636719 191.972656 L 133.050781 219.867188 Z M 109.441406 214.023438 "
        id="path7" />
    </g>
    <mask id="mask2">
      <g filter="url(#alpha)" id="g8">
        <rect x="0" y="0" width="256" height="334" style="fill:rgb(0%,0%,0%);fill-opacity:0.501961;stroke:none;"
          id="rect8" />
      </g>
    </mask>
    <clipPath id="clip4">
      <rect x="0" y="0" width="256" height="334" id="rect9" />
    </clipPath>
    <g id="surface11" clip-path="url(#clip4)">
      <path style=" stroke:none;fill-rule:nonzero;fill:rgb(41.960785%,3.921569%,36.078432%);fill-opacity:1;"
        d="M 163.59375 127.722656 L 210.933594 137.558594 L 212.066406 114.550781 Z M 163.59375 127.722656 "
        id="path9" />
    </g>
    <clipPath id="clip5">
      <path
        d="M 24.566406 32.183594 L 231.375 32.183594 L 231.375 301.816406 L 24.566406 301.816406 Z M 24.566406 32.183594 "
        id="path10" />
    </clipPath>
    <mask id="mask3">
      <g filter="url(#alpha)" id="g10">
        <rect x="0" y="0" width="256" height="334" style="fill:rgb(0%,0%,0%);fill-opacity:0.34902;stroke:none;"
          id="rect10" />
      </g>
    </mask>
    <clipPath id="clip6">
      <rect x="0" y="0" width="256" height="334" id="rect11" />
    </clipPath>
    <g id="surface14" clip-path="url(#clip6)">
      <path style=" stroke:none;fill-rule:nonzero;fill:rgb(100%,100%,100%);fill-opacity:1;"
        d="M 93.421875 251.8125 C 101.492188 252.886719 112.789062 253.839844 124.921875 254.496094 C 123.605469 254.734375 122.230469 254.792969 120.917969 254.734375 C 107.050781 254.078125 93.839844 253.003906 84.695312 251.8125 C 78.539062 250.976562 72.683594 248.59375 67.722656 244.839844 C 62.757812 241.144531 58.816406 236.195312 56.304688 230.535156 C 53.792969 224.871094 52.777344 218.675781 53.316406 212.476562 C 53.855469 206.335938 56.003906 200.375 59.53125 195.25 C 91.570312 148.523438 146.199219 104.179688 146.199219 104.179688 L 153.492188 105.371094 C 144.765625 112.585938 97.1875 152.992188 68.199219 195.308594 C 64.671875 200.4375 62.582031 206.335938 61.984375 212.535156 C 61.445312 218.734375 62.460938 224.933594 64.972656 230.59375 C 67.480469 236.257812 71.425781 241.203125 76.386719 244.898438 C 81.46875 248.59375 87.324219 250.976562 93.421875 251.8125 Z M 93.421875 251.8125 "
        id="path11" />
    </g>
    <clipPath id="clip7">
      <path d="M 24.566406 220 L 125 220 L 125 274 L 24.566406 274 Z M 24.566406 220 " id="path12" />
    </clipPath>
    <linearGradient id="linear2" gradientUnits="userSpaceOnUse" x1="238.268997" y1="662.655273" x2="387.4729"
      y2="659.122925" gradientTransform="matrix(0.597712,0,0,-0.596011,0,478.17725)">
      <stop offset="0" style="stop-color:rgb(94.117647%,66.27451%,80.392157%);stop-opacity:1;" id="stop12" />
      <stop offset="1" style="stop-color:rgb(89.803922%,43.137255%,67.058824%);stop-opacity:1;" id="stop13" />
    </linearGradient>
    <clipPath id="clip8">
      <path
        d="M 24.566406 32.183594 L 231.375 32.183594 L 231.375 301.816406 L 24.566406 301.816406 Z M 24.566406 32.183594 "
        id="path13" />
    </clipPath>
    <mask id="mask4">
      <g filter="url(#alpha)" id="g13">
        <rect x="0" y="0" width="256" height="334" style="fill:rgb(0%,0%,0%);fill-opacity:0.301961;stroke:none;"
          id="rect13" />
      </g>
    </mask>
    <clipPath id="clip9">
      <rect x="0" y="0" width="256" height="334" id="rect14" />
    </clipPath>
    <g id="surface17" clip-path="url(#clip9)">
      <path style=" stroke:none;fill-rule:nonzero;fill:rgb(100%,100%,100%);fill-opacity:1;"
        d="M 171.066406 125.277344 L 160.546875 125.277344 C 159.410156 125.277344 158.332031 124.980469 157.378906 124.445312 C 156.421875 123.910156 155.585938 123.074219 155.046875 122.121094 L 134.964844 87.371094 C 134.425781 86.417969 134.125 85.285156 134.125 84.214844 C 134.125 83.082031 134.425781 82.007812 134.964844 81.054688 L 155.046875 46.308594 C 155.585938 45.355469 156.421875 44.519531 157.378906 43.984375 C 158.332031 43.445312 159.46875 43.148438 160.546875 43.148438 L 171.066406 43.148438 C 169.929688 43.148438 168.855469 43.445312 167.898438 43.984375 C 166.941406 44.519531 166.105469 45.355469 165.566406 46.308594 L 145.484375 81.054688 C 144.886719 82.007812 144.585938 83.140625 144.585938 84.214844 C 144.585938 85.347656 144.886719 86.417969 145.484375 87.371094 L 165.566406 122.121094 C 166.105469 123.074219 166.941406 123.910156 167.898438 124.445312 C 168.855469 124.980469 169.988281 125.277344 171.066406 125.277344 Z M 171.066406 125.277344 "
        id="path14" />
    </g>
    <linearGradient id="linear3" gradientUnits="userSpaceOnUse" x1="251.535706" y1="715.668884" x2="230.744705"
      y2="729.260376" gradientTransform="matrix(0.597712,0,0,-0.596011,0,478.17725)">
      <stop offset="0" style="stop-color:rgb(94.117647%,66.27451%,80.392157%);stop-opacity:1;" id="stop14" />
      <stop offset="1" style="stop-color:rgb(89.803922%,43.137255%,67.058824%);stop-opacity:1;" id="stop15" />
    </linearGradient>
    <clipPath id="clip10">
      <path d="M 133 32.183594 L 158 32.183594 L 158 63 L 133 63 Z M 133 32.183594 " id="path15" />
    </clipPath>
    <linearGradient id="linear4" gradientUnits="userSpaceOnUse" x1="355.139893" y1="718.30188" x2="380.708099"
      y2="728.293701" gradientTransform="matrix(0.597712,0,0,-0.596011,0,478.17725)">
      <stop offset="0" style="stop-color:rgb(94.117647%,66.27451%,80.392157%);stop-opacity:1;" id="stop16" />
      <stop offset="1" style="stop-color:rgb(89.803922%,43.137255%,67.058824%);stop-opacity:1;" id="stop17" />
    </linearGradient>
    <clipPath id="clip11">
      <path d="M 205 32.183594 L 231 32.183594 L 231 63 L 205 63 Z M 205 32.183594 " id="path17" />
    </clipPath>
    <clipPath id="clip12">
      <path d="M 132 40 L 231.375 40 L 231.375 128 L 132 128 Z M 132 40 " id="path18" />
    </clipPath>
    <clipPath id="clip13">
      <path d="M 80 293 L 92 293 L 92 301.816406 L 80 301.816406 Z M 80 293 " id="path19" />
    </clipPath>
  </defs>
  <g id="surface1" transform="matrix(0.82135643,0,0,0.83210698,19.480618,-9.6856018)">
    <path style="fill:url(#linear0);fill-rule:nonzero;stroke:none"
      d="m 51.820312,221.47656 -1.132812,0.29688 c -2.632812,0.77343 -5.261719,1.72656 -7.890625,2.80078 -2.871094,1.1914 -5.621094,2.62109 -8.1875,4.35156 C 32.933594,230 31.441406,231.25 30.125,232.73828 c -0.898438,0.95703 -1.675781,2.02734 -2.332031,3.21875 -0.835938,1.49219 -1.375,3.16016 -1.613281,4.89063 -0.238282,1.84765 -0.05859,3.7539 0.539062,5.53906 0.238281,0.77734 0.597656,1.49219 0.957031,2.20703 0.296875,0.53516 0.597657,1.13281 1.015625,1.60937 1.015625,1.42969 2.210938,2.80079 3.523438,3.99219 2.332031,2.20703 4.902344,4.05469 7.710937,5.60547 4.960938,2.67969 10.222657,4.76563 15.722657,6.25781 10.160156,2.67969 20.621093,4.34766 31.078124,4.94532 10.28125,0.65625 20.562498,0.71484 30.785158,0.12109 1.01562,-0.0625 1.97266,-0.35938 2.80859,-0.83594 0.83594,-0.47656 1.61328,-1.1914 2.15235,-2.02734 0.53515,-0.83203 0.89453,-1.78906 1.01562,-2.74219 0.11719,-1.01172 0,-1.96484 -0.35937,-2.91797 -0.47657,-1.2539 -1.25391,-2.26562 -2.33203,-3.04297 -1.07422,-0.77343 -2.39063,-1.1289 -3.70704,-1.1289 -9.74218,0.0586 -19.421871,-0.47657 -29.105465,-1.67188 -9.445313,-1.01172 -18.710937,-2.91797 -27.792969,-5.78125 -4.125,-1.30859 -8.128906,-3.15625 -11.835937,-5.36328 -0.359375,-0.23828 -0.65625,-0.59375 -0.835938,-0.95312 -0.179687,-0.41797 -0.242187,-0.83594 -0.242187,-1.25 0.0625,-0.41797 0.179687,-0.83594 0.480468,-1.19532 0.238282,-0.35547 0.597657,-0.59375 1.015626,-0.77343 l 0.539062,-0.23829 c 2.03125,-0.71484 4.121094,-1.37109 6.335938,-2.02734 1.074218,-0.29687 2.148437,-0.53516 3.226562,-0.77344 l 1.554688,-0.35937 z m 0,0"
      id="path20" />
    <path style="fill:url(#linear1);fill-rule:nonzero;stroke:none"
      d="m 162.69531,106.80469 -16.43359,-2.56641 c 0,0 -54.691408,44.40625 -86.66797,91.07031 -3.527344,5.12891 -5.621094,11.02735 -6.21875,17.22657 -0.539062,6.14062 0.480469,12.39843 2.988281,18.05859 2.511719,5.66406 6.457031,10.60937 11.417969,14.30469 4.960938,3.69531 10.816406,6.14062 16.972656,6.97265 9.148438,1.25391 22.355474,2.26563 36.222654,2.92188 2.62891,0.11719 5.19922,-0.35938 7.65235,-1.3125 2.44921,-0.95313 4.60156,-2.44141 6.45312,-4.35156 2.15234,2.86328 5.08203,5.0664 8.42969,6.3789 3.34765,1.25 7.05078,1.55078 10.57812,0.83594 3.52735,-0.71875 6.75391,-2.44531 9.38282,-4.89063 2.57031,-2.5 4.42578,-5.66015 5.26171,-9.11718 0.65625,4.11328 2.8086,7.86718 6.09766,10.55078 3.22656,2.62109 7.35156,3.99219 11.53516,3.8125 4.18359,-0.17969 8.1875,-1.90625 11.17578,-4.76953 2.98828,-2.91797 4.84375,-6.85157 5.14062,-11.02344 l 9.20703,-126.29687 z m 0,0"
      id="path21" />
    <g clip-path="url(#clip1)" clip-rule="nonzero" id="g23">
      <use xlink:href="#surface5" mask="url(#mask0)" id="use21" />
      <use xlink:href="#surface8" mask="url(#mask1)" id="use22" />
      <use xlink:href="#surface11" mask="url(#mask2)" id="use23" />
    </g>
    <path style="fill:#68075c;fill-opacity:1;fill-rule:nonzero;stroke:none"
      d="m 103.46484,265.28125 c -0.23828,-2.44141 -0.23828,-5.54297 1.3125,-6.25781 l 8.78907,0.65625 c -2.75,1.78906 -5.20313,3.99218 -7.35157,6.49609 -0.17968,0.23828 -0.48046,0.35938 -0.77734,0.47656 -0.30078,0.0586 -0.59766,0.0586 -0.89844,0 -0.29687,-0.11718 -0.53906,-0.29687 -0.71484,-0.53515 -0.24219,-0.29688 -0.35938,-0.53516 -0.35938,-0.83594 z m 0,0"
      id="path23" />
    <path style="fill:#68075c;fill-opacity:1;fill-rule:nonzero;stroke:none"
      d="m 91.570312,271.36328 c 0.535157,-2.20703 1.492188,-4.29297 2.6875,-6.19922 0.179688,-0.30078 0.480469,-0.47656 0.777344,-0.65625 0.300782,-0.12109 0.660156,-0.17969 0.957032,-0.12109 0.359374,0.0625 0.65625,0.17969 0.898437,0.41797 0.238281,0.23828 0.476563,0.47656 0.535156,0.83593 0.539063,2.20313 1.496094,4.28907 2.749999,6.19922 1.4336,1.19141 -8.605468,-0.47656 -8.605468,-0.47656 z m 0,0"
      id="path24" />
    <path style="fill:#68075c;fill-opacity:1;fill-rule:nonzero;stroke:none"
      d="m 85.175781,256.99609 c 0,0 -3.527343,5.72266 -1.675781,10.78907 0,0 1.496094,2.44531 4.003906,-1.01172 2.511719,-3.45703 3.289063,-7.21485 5.261719,-8.70313 z m 0,0"
      id="path25" />
    <path style="fill:#68075c;fill-opacity:1;fill-rule:nonzero;stroke:none"
      d="m 48.894531,257.41406 c -0.421875,-1.60937 -0.300781,-3.27734 0.296875,-4.76562 0.597656,-1.55078 1.675782,-2.80469 3.109375,-3.63672 l 5.738281,2.67969 c -2.390624,1.55078 -4.363281,3.75781 -5.738281,6.26171 -0.179687,0.29688 -0.480469,0.59375 -0.777343,0.71485 -0.359376,0.17578 -0.71875,0.23828 -1.078126,0.17578 -0.355468,-0.0586 -0.714843,-0.23828 -0.953124,-0.47656 -0.359376,-0.23828 -0.539063,-0.59375 -0.597657,-0.95313 z m 0,0"
      id="path26" />
    <path style="fill:#68075c;fill-opacity:1;fill-rule:nonzero;stroke:none"
      d="m 63.179688,252.64844 c 0,0 -5.382813,4.64843 -4.785157,10.72656 0.0625,0.41797 0.179688,0.77344 0.480469,1.07422 0.238281,0.29687 0.597656,0.53515 0.957031,0.65234 0.359375,0.1211 0.777344,0.1211 1.195313,0 0.359375,-0.11719 0.714844,-0.35547 0.957031,-0.65234 2.808594,-3.81641 7.886719,-9.65625 12.070313,-9.77735 5.859374,-0.23828 -10.875,-2.02343 -10.875,-2.02343 z m 0,0"
      id="path27" />
    <path style="fill:#68075c;fill-opacity:1;fill-rule:nonzero;stroke:none"
      d="m 67.660156,268.20312 c 0.777344,-3.93359 2.988282,-7.51171 6.21875,-9.89453 0.175782,-0.11718 0.417969,-0.23828 0.65625,-0.17968 0.238282,0 0.476563,0.0625 0.65625,0.23828 0.179688,0.12109 0.359375,0.35937 0.417969,0.53906 0.0625,0.23828 0.121094,0.47656 0.0625,0.71484 -0.777344,3.15625 -1.734375,8.40235 0,10.3711 z m 0,0"
      id="path28" />
    <path style="fill:#68075c;fill-opacity:1;fill-rule:nonzero;stroke:none"
      d="m 154.80859,198.35156 c 0,0 10.03907,8.16406 20.32032,4.64844 l 1.61328,-10.19141 c -4.71875,4.05078 -11.35547,6.4375 -21.9336,5.54297 z m 0,0"
      id="path29" />
    <path style="fill:#68075c;fill-opacity:1;fill-rule:nonzero;stroke:none"
      d="m 156.42187,219.92578 c 0,0 10.03907,5.06641 15.1211,1.84766 l 1.67578,-6.79297 c -4.90234,3.45703 -10.82031,5.18359 -16.79688,4.94531 z m 0,0"
      id="path30" />
    <path style="fill:#68075c;fill-opacity:1;fill-rule:nonzero;stroke:none"
      d="m 141.65625,205.62109 c 4.18359,2.44532 18.11328,6.85547 28.99219,2.20703 0,0 -1.79297,9.11719 -15.83985,7.44922 -13.44922,-1.60937 -13.15234,-9.65625 -13.15234,-9.65625 z m 0,0"
      id="path31" />
    <path style="fill:#68075c;fill-opacity:1;fill-rule:nonzero;stroke:none"
      d="m 198.62109,194.29687 c 2.62891,0.53516 6.03516,1.01172 7.53125,0.41797 l 0.47657,-9.12109 c -2.44922,2.625 -5.26172,4.82812 -8.36719,6.61719 -0.23828,0.12109 -0.35938,0.29687 -0.48047,0.47656 -0.11719,0.17969 -0.11719,0.41797 -0.11719,0.65625 0.0586,0.23828 0.11719,0.47656 0.29688,0.59766 0.24218,0.23828 0.41797,0.35546 0.66015,0.35546 z m 0,0"
      id="path32" />
    <path style="fill:#68075c;fill-opacity:1;fill-rule:nonzero;stroke:none"
      d="m 190.25,207.46875 c 4.00781,2.02734 10.51953,4.23047 14.94531,1.01172 l 0.47656,-8.16406 c -2.03125,2.5625 -6.99218,4.82812 -15,5.24609 -0.24218,0 -0.42187,0.0586 -0.59765,0.23828 -0.17969,0.11719 -0.30078,0.35547 -0.35938,0.53516 -0.0625,0.23828 0,0.47656 0.0586,0.65625 0.12109,0.23828 0.23828,0.41797 0.47656,0.47656 z m 0,0"
      id="path33" />
    <path style="fill:#68075c;fill-opacity:1;fill-rule:nonzero;stroke:none"
      d="m 182.36328,218.91406 c 4.60156,3.8711 15.17969,9.29688 21.81641,7.08985 l 0.41797,-10.01172 c -4.125,2.02734 -12.07422,1.84765 -21.39844,0.95312 -0.23828,-0.0586 -0.48047,0 -0.71875,0.1211 -0.23828,0.11718 -0.35938,0.29687 -0.47656,0.53515 -0.1211,0.23828 -0.1211,0.47656 -0.0586,0.71485 0.11719,0.23828 0.23828,0.41796 0.41797,0.59765 z m 0,0"
      id="path34" />
    <path style="fill:#68075c;fill-opacity:1;fill-rule:nonzero;stroke:none"
      d="m 211.41016,127.72266 c -3.16797,5.0664 -6.69532,9.89453 -10.51954,14.42187 -0.23828,0.23828 -0.41796,0.59766 -0.41796,0.89453 -0.0586,0.35938 0,0.71485 0.17968,1.01563 0.17969,0.29687 0.41797,0.59375 0.71485,0.71484 0.30078,0.17969 0.66015,0.23828 1.01953,0.23828 2.92578,-0.41797 5.67578,-1.66797 7.82812,-3.7539 z m 0,0"
      id="path35" />
    <path style="fill:#68075c;fill-opacity:1;fill-rule:nonzero;stroke:none"
      d="m 209.19922,147.98828 c -4.00391,4.82813 -8.84766,8.9375 -14.22656,12.15625 -0.29688,0.17969 -0.59766,0.41797 -0.71485,0.71484 -0.17969,0.30079 -0.24219,0.65625 -0.17969,1.01563 0.0586,0.35547 0.17969,0.65625 0.41797,0.95312 0.23828,0.23829 0.53907,0.41797 0.89453,0.53516 4.1836,0.95313 9.92188,2.02734 13.03125,0.59766 z m 0,0"
      id="path36" />
    <path style="fill:#68075c;fill-opacity:1;fill-rule:nonzero;stroke:none"
      d="m 152.23828,146.07812 c -4.72266,-7.86718 -13.86719,-25.26953 -10.58203,-36.71093 l -19.90234,17.51953 c 0,0 2.15234,10.37109 6.8125,15.67578 0.17968,0.23828 0.41796,0.35937 0.71875,0.41797 0.29687,0.0586 0.59765,0 0.83593,-0.11719 0.23828,-0.12109 0.48047,-0.35937 0.59766,-0.59766 0.12109,-0.23828 0.17969,-0.53515 0.12109,-0.83593 -0.95703,-3.99219 -2.27343,-10.60938 -1.55468,-14.30469 6.63281,11.26562 11.53515,20.38672 20.26171,22.58984 0.48047,0.1211 0.95704,0.0586 1.4336,-0.11718 0.48047,-0.17969 0.83984,-0.47657 1.13672,-0.83594 0.30078,-0.41797 0.41797,-0.83594 0.48047,-1.3125 0,-0.47656 -0.1211,-0.95313 -0.35938,-1.3711 z m 0,0"
      id="path37" />
    <path style="fill:#68075c;fill-opacity:1;fill-rule:nonzero;stroke:none"
      d="m 110.63672,136.42578 c 0,0 4.72266,21.51563 20.91797,34.92578 0.24218,0.23828 0.53906,0.35547 0.83984,0.35547 0.29688,0 0.59766,-0.0586 0.83594,-0.29687 0.23828,-0.17969 0.41797,-0.47657 0.47656,-0.77344 0.0625,-0.30078 0,-0.59766 -0.17969,-0.89453 -4.89843,-9.29688 -14.52343,-29.50391 -12.42968,-41.125 z m 0,0"
      id="path38" />
    <path style="fill:#68075c;fill-opacity:1;fill-rule:nonzero;stroke:none"
      d="m 108.78516,139.58203 c -3.05078,10.37109 6.03515,30.39844 10.45703,38.92188 0.12109,0.29687 0.17969,0.65625 0.12109,0.95312 -0.0586,0.29688 -0.23828,0.59375 -0.47656,0.83594 -0.24219,0.23828 -0.53906,0.35547 -0.83984,0.41406 -0.29688,0.0625 -0.65625,0 -0.95704,-0.17578 -13.02734,-8.04688 -19.542965,-30.81641 -19.542965,-30.81641 z m 0,0"
      id="path39" />
    <path style="fill:#68075c;fill-opacity:1;fill-rule:nonzero;stroke:none"
      d="m 85.949219,162.17187 c 0,0 4.960937,16.33204 18.351561,18.17969 0.29688,0.0586 0.59766,0 0.89844,-0.12109 0.29687,-0.11719 0.47656,-0.35547 0.65625,-0.59375 0.17969,-0.23828 0.23828,-0.53906 0.23828,-0.83594 0,-0.29687 -0.12109,-0.59766 -0.29687,-0.83594 -4.00782,-5.24218 -12.074224,-17.40234 -10.523442,-25.03125 z m 0,0"
      id="path40" />
    <path style="fill:#68075c;fill-opacity:1;fill-rule:nonzero;stroke:none"
      d="m 71.785156,178.92187 c 0,0 6.875,13.64844 16.078125,19.12891 0.417969,0.23828 0.957031,0.35938 1.433594,0.35938 0.480469,-0.0586 0.957031,-0.23829 1.375,-0.53516 0.417969,-0.30078 0.660156,-0.71875 0.835937,-1.25391 0.121094,-0.47656 0.121094,-1.01172 0,-1.48828 -2.867187,-8.04687 -8.066406,-23.90234 -7.050781,-31.17187 z m 0,0"
      id="path41" />
    <g clip-path="url(#clip5)" clip-rule="nonzero" id="g41">
      <use xlink:href="#surface14" mask="url(#mask3)" id="use41" />
    </g>
    <path style="fill:#d10770;fill-opacity:1;fill-rule:nonzero;stroke:none"
      d="m 133.41016,223.67969 c -0.35938,0 -0.66016,-0.11719 -0.95704,-0.35547 -1.79296,-1.42969 -3.82421,-2.50391 -6.03515,-3.10156 L 78.71875,207.11328 C 78.359375,206.99219 78,206.75391 77.820312,206.39453 c -0.175781,-0.35547 -0.238281,-0.77344 -0.175781,-1.12891 0.117188,-0.35937 0.355469,-0.71875 0.714844,-0.89453 0.359375,-0.17968 0.777344,-0.23828 1.136719,-0.17968 l 47.757816,13.11328 c 2.6289,0.71484 5.07812,1.96484 7.17187,3.69531 0.29688,0.23828 0.53906,0.59375 0.53906,1.01172 0.0586,0.41797 -0.0625,0.77344 -0.30078,1.13281 -0.17969,0.17969 -0.35937,0.35547 -0.53906,0.41797 -0.23828,0.11719 -0.47656,0.11719 -0.71484,0.11719 z m 0,0"
      id="path42" />
    <path style="fill:#d10770;fill-opacity:1;fill-rule:nonzero;stroke:none"
      d="m 121.875,256.28125 h -0.95703 c -14.28516,-0.65625 -27.496095,-1.78516 -36.402345,-2.91797 -6.394531,-0.89453 -12.492187,-3.39844 -17.632813,-7.27344 -5.140624,-3.875 -9.261718,-9 -11.832031,-14.89843 -2.632812,-5.90235 -3.707031,-12.33985 -3.109375,-18.77344 0.597656,-6.4375 2.808594,-12.57813 6.453125,-17.88281 31.859375,-46.36719 86.492189,-90.94922 86.968749,-91.42578 0.30078,-0.23829 0.65625,-0.30079 1.07422,-0.30079 0.35937,0.0625 0.71875,0.23829 0.95703,0.47657 0.24219,0.30078 0.35938,0.65625 0.30078,1.01562 -0.0586,0.35547 -0.23828,0.71485 -0.48047,0.95313 -0.53515,0.41797 -54.80859,44.82031 -86.488278,90.77343 -3.347656,4.88672 -5.378906,10.60547 -5.917968,16.50782 -0.535156,5.90234 0.480468,11.85937 2.871094,17.28515 2.390624,5.42188 6.15625,10.13281 10.9375,13.70703 4.78125,3.57813 10.339843,5.83985 16.257812,6.67578 8.785156,1.19141 21.9375,2.20704 36.22266,2.92188 3.52343,0.17578 7.05078,-0.77734 10.03906,-2.74219 2.98828,-1.96875 5.26172,-4.76953 6.51562,-8.10547 1.25782,-3.33984 1.4336,-6.97265 0.53907,-10.37109 -0.95704,-3.39844 -2.92969,-6.49609 -5.67969,-8.70313 -0.29688,-0.23828 -0.53516,-0.59375 -0.53516,-1.01171 -0.0625,-0.41797 0.0586,-0.77735 0.29688,-1.13282 0.23828,-0.29687 0.59765,-0.53515 1.01562,-0.53515 0.41797,-0.0625 0.77735,0.0586 1.13672,0.29687 3.22656,2.5625 5.5,6.07813 6.63281,10.01172 1.13672,3.93359 1.01563,8.16797 -0.35547,12.03906 -1.375,3.875 -3.88671,7.21094 -7.23437,9.59766 -3.34766,2.38281 -7.35156,3.63672 -11.47656,3.63672 z m 0,0"
      id="path43" />
    <path style="fill:#d10770;fill-opacity:1;fill-rule:nonzero;stroke:none"
      d="m 185.71094,258.19141 c -4.42578,0 -8.72657,-1.55079 -12.13672,-4.41407 -3.40625,-2.85937 -5.61719,-6.85156 -6.27344,-11.26172 -0.0625,-0.41796 0.0586,-0.77734 0.23828,-1.13281 0.23828,-0.29687 0.59766,-0.53515 0.95703,-0.59765 0.41797,-0.0586 0.77735,0.0625 1.13282,0.30078 0.30078,0.23828 0.53906,0.59375 0.59765,1.01172 0.59766,3.8125 2.57031,7.21093 5.5,9.65625 2.98828,2.4414 6.75391,3.69531 10.58203,3.51562 3.82422,-0.17969 7.46875,-1.73047 10.21875,-4.41016 2.75,-2.68359 4.42188,-6.25781 4.66407,-10.07421 l 9.20312,-126.29297 c 0.0586,-0.35938 0.23828,-0.71485 0.53906,-0.95313 0.29688,-0.23828 0.65625,-0.35937 1.01563,-0.30078 0.35937,0 0.71484,0.17969 0.95703,0.47656 0.23828,0.30079 0.41797,0.65625 0.41797,1.01563 l -8.96485,126.23437 c -0.35937,4.70703 -2.45312,9.0586 -5.91796,12.27735 -3.46875,3.16015 -8.01172,4.94922 -12.73047,4.94922 z m 0,0"
      id="path44" />
    <path style="fill:#d10770;fill-opacity:1;fill-rule:nonzero;stroke:none"
      d="m 133.05078,223.62109 h -0.17969 c -0.41797,-0.0586 -0.77734,-0.23828 -1.01562,-0.53515 -0.23828,-0.30078 -0.35938,-0.71485 -0.30078,-1.13282 l 4.66406,-38.92187 c 0,-0.17578 0.0586,-0.41406 0.17969,-0.59375 0.11718,-0.17969 0.23828,-0.35938 0.35937,-0.47656 0.17969,-0.1211 0.35547,-0.23828 0.53516,-0.30078 0.17969,-0.0586 0.41797,-0.0586 0.59765,-0.0586 0.17969,0 0.41797,0.0586 0.53907,0.17969 0.17968,0.11719 0.35937,0.23828 0.48047,0.41797 0.11718,0.17969 0.23828,0.35547 0.23828,0.53515 0.0586,0.17969 0.0586,0.41797 0.0586,0.59766 l -4.66016,38.97656 c -0.0625,0.35938 -0.24218,0.71485 -0.48046,0.95313 -0.29688,0.23828 -0.65625,0.35937 -1.01563,0.35937 z m 0,0"
      id="path45" />
    <path style="fill:#d10770;fill-opacity:1;fill-rule:nonzero;stroke:none"
      d="m 150.32422,258.19141 c -3.16797,0 -6.33594,-0.71875 -9.14453,-2.14844 -2.8711,-1.42969 -5.32032,-3.45703 -7.23438,-6.01953 -0.23828,-0.29688 -0.29687,-0.71485 -0.23828,-1.07032 0.0625,-0.35937 0.23828,-0.71875 0.53906,-0.95703 0.17969,-0.11718 0.35938,-0.17578 0.53907,-0.23828 0.17968,-0.0586 0.41796,-0.0586 0.59765,-0.0586 0.17969,0 0.35938,0.12109 0.53516,0.17969 0.17969,0.11718 0.30078,0.23828 0.42187,0.41796 2.08985,2.74219 4.89844,4.82813 8.12891,5.96094 3.22656,1.12891 6.75391,1.3086 10.09766,0.47656 3.34765,-0.83593 6.33593,-2.625 8.66796,-5.1289 2.33204,-2.5 3.82422,-5.66016 4.42188,-9.0586 l 9.20703,-57.51562 c 0,-0.17578 0.12109,-0.41406 0.17969,-0.53516 0.11719,-0.17968 0.23828,-0.29687 0.41797,-0.41797 0.17968,-0.11718 0.35937,-0.17968 0.53906,-0.23828 0.17969,-0.0586 0.41797,-0.0586 0.59766,0 0.41796,0.0586 0.77734,0.30078 0.95312,0.59766 0.24219,0.29687 0.35938,0.71484 0.24219,1.13281 l -9.14453,57.39453 c -0.77735,4.82813 -3.23047,9.23828 -6.9336,12.39844 -3.76562,3.09766 -8.48828,4.82813 -13.39062,4.82813 z m 0,0"
      id="path46" />
    <g clip-path="url(#clip7)" clip-rule="nonzero" id="g47">
      <path style="fill:#d10770;fill-opacity:1;fill-rule:nonzero;stroke:none"
        d="m 102.98438,273.03125 c -5.558599,0 -10.937505,-0.17969 -16.316411,-0.53906 -10.640625,-0.59375 -21.160157,-2.26172 -31.378907,-5.00391 -5.558593,-1.55078 -10.9375,-3.69531 -15.960937,-6.49609 -2.925781,-1.60938 -5.617187,-3.57813 -8.066406,-5.84375 -1.4375,-1.25 -2.691407,-2.67969 -3.828125,-4.17188 -0.417969,-0.53515 -0.777344,-1.13281 -1.074219,-1.78515 -0.417969,-0.77735 -0.777344,-1.60938 -1.074219,-2.50391 -0.660156,-1.96875 -0.839844,-4.11328 -0.601562,-6.19922 0.242187,-1.90625 0.839844,-3.75391 1.796875,-5.42578 0.714843,-1.25 1.550781,-2.44141 2.507812,-3.51563 1.433594,-1.48828 3.050781,-2.85937 4.78125,-3.99218 2.691407,-1.72657 5.5,-3.16016 8.488281,-4.35157 2.628907,-1.07031 5.320313,-2.02734 8.070313,-2.85937 l 1.074219,-0.23828 c 0.179687,-0.0586 0.359375,-0.0586 0.597656,-0.0586 0.179688,0 0.359375,0.0586 0.539062,0.17579 0.179688,0.12109 0.296876,0.23828 0.417969,0.35937 0.121094,0.17969 0.238281,0.35547 0.238281,0.53516 0.0625,0.17968 0.0625,0.41797 0.0625,0.59765 0,0.17969 -0.0625,0.41797 -0.179687,0.53516 -0.121094,0.17969 -0.242187,0.29687 -0.359375,0.47656 -0.179688,0.1211 -0.359375,0.23828 -0.539062,0.23828 l -1.136719,0.29688 c -2.628907,0.77734 -5.257813,1.67187 -7.828125,2.68359 -2.808594,1.13281 -5.5,2.50391 -8.070313,4.11328 -1.492187,1.01172 -2.808593,2.20313 -4.003906,3.57422 -0.777344,0.89453 -1.433594,1.84766 -2.03125,2.92188 -0.71875,1.37109 -1.195313,2.80078 -1.433594,4.35156 -0.179687,1.66797 -0.0625,3.27734 0.476563,4.88672 0.417968,1.1914 0.957031,2.32422 1.671875,3.39844 0.957031,1.37109 2.035156,2.67968 3.289062,3.87109 2.210938,2.08594 4.722657,3.93359 7.410157,5.36719 4.84375,2.62109 10.042968,4.64843 15.363281,6.01953 10.101562,2.67969 20.382812,4.28906 30.78125,4.88672 10.222656,0.65625 20.441411,0.71484 30.601561,0.11718 0.77735,-0.0586 1.4961,-0.23828 2.15235,-0.65625 0.66015,-0.35546 1.19531,-0.89062 1.61328,-1.48828 0.41797,-0.65625 0.66015,-1.3125 0.71875,-2.08593 0.0586,-0.71485 0,-1.48829 -0.23828,-2.20704 -0.35938,-0.89062 -0.95704,-1.72656 -1.79297,-2.26171 -0.83594,-0.53907 -1.79297,-0.83594 -2.75,-0.83594 h -0.23828 c -9.74219,0.0586 -19.425786,-0.53516 -29.10938,-1.66797 -9.5625,-1.07422 -19.007812,-3.03906 -28.152344,-6.01953 -4.242187,-1.3711 -8.367187,-3.21875 -12.195312,-5.54297 -0.597656,-0.35938 -1.074219,-0.89453 -1.433594,-1.55078 -0.296875,-0.65625 -0.476562,-1.3711 -0.359375,-2.08594 0.0625,-0.71484 0.359375,-1.37109 0.777344,-1.96484 0.417969,-0.59766 1.015625,-1.01563 1.675781,-1.25391 l 0.597656,-0.23828 c 1.851563,-0.65625 4.003906,-1.37109 6.453125,-2.02734 1.136719,-0.29688 2.210938,-0.59375 3.347657,-0.83204 l 1.613281,-0.35937 c 0.179687,-0.0586 0.417969,-0.0586 0.597656,0 0.179687,0.0586 0.359375,0.12109 0.539063,0.23828 0.179687,0.12109 0.300781,0.23828 0.417968,0.41797 0.121094,0.17969 0.179688,0.35937 0.238282,0.53516 0.0625,0.35937 0,0.77734 -0.179688,1.13281 -0.238281,0.35937 -0.535156,0.59765 -0.953125,0.65625 l -1.554687,0.29687 c -1.015626,0.23828 -2.09375,0.47657 -3.167969,0.77735 -2.390625,0.65625 -4.421875,1.30859 -6.15625,2.02343 l -0.539063,0.24219 c -0.179687,0.0586 -0.296875,0.17578 -0.359375,0.29688 -0.117187,0.11718 -0.179687,0.29687 -0.179687,0.41797 0,0.11718 0,0.29687 0.0625,0.41406 0.05859,0.12109 0.179687,0.23828 0.296875,0.30078 3.648437,2.20312 7.53125,3.93359 11.597656,5.24219 8.964844,2.86328 18.167969,4.76953 27.492187,5.78125 9.625,1.07422 19.246098,1.60937 28.929688,1.60937 1.61328,0 3.22656,0.47656 4.54297,1.3711 1.31641,0.89453 2.33203,2.20703 2.87109,3.75781 0.41797,1.1289 0.53516,2.38281 0.41797,3.57422 -0.12109,1.1914 -0.53906,2.38281 -1.19531,3.39843 -0.66016,1.01172 -1.55469,1.84766 -2.63281,2.44141 -1.01563,0.59766 -2.21094,0.95313 -3.40625,1.01563 -5.01953,0.47656 -9.98047,0.71484 -14.64453,0.71484 z m 0,0"
        id="path47" />
    </g>
    <path style="fill:#68075c;fill-opacity:1;fill-rule:nonzero;stroke:none"
      d="m 183.67578,200.13672 c -0.35937,0.0625 -0.71484,0 -1.07422,-0.11719 -0.35937,-0.12109 -0.65625,-0.35937 -0.89844,-0.59766 -0.23828,-0.23828 -0.41796,-0.59375 -0.53515,-0.95312 -0.1211,-0.35547 -0.1211,-0.71484 -0.0625,-1.07031 0.24219,-1.07422 0.30078,-2.26563 1.91406,-2.56641 1.61328,-0.29687 6.75391,1.3125 10.75781,2.68359 0.23828,0.0586 0.41797,0.23829 0.59766,0.47657 0.12109,0.23828 0.17969,0.47656 0.12109,0.71484 -0.0586,0.23828 -0.17968,0.47656 -0.35937,0.65625 -0.17969,0.17969 -0.41797,0.29688 -0.65625,0.29688 z m 0,0"
      id="path48" />
    <path style="fill:url(#linear2);fill-rule:nonzero;stroke:none"
      d="M 227.72656,80.996094 207.64453,46.25 c -0.53906,-0.957031 -1.375,-1.730469 -2.33203,-2.328125 -0.95313,-0.535156 -2.03125,-0.832031 -3.16797,-0.832031 h -40.16406 c -1.13672,0 -2.21094,0.296875 -3.16797,0.832031 -0.95703,0.539063 -1.79297,1.371094 -2.33203,2.328125 L 136.39844,80.996094 C 135.80078,81.949219 135.5,83.082031 135.5,84.15625 c 0,1.128906 0.30078,2.203125 0.89844,3.15625 l 20.08203,34.75 c 0.53906,0.95313 1.375,1.78516 2.33203,2.32422 0.95703,0.53516 2.08984,0.83203 3.16797,0.83203 h 40.22656 c 1.13281,0 2.21094,-0.29687 3.16797,-0.83203 0.95703,-0.53906 1.79297,-1.37109 2.32812,-2.32422 l 20.08594,-34.75 c 0.53516,-0.953125 0.83594,-2.085938 0.83594,-3.15625 0,-1.132812 -0.30078,-2.207031 -0.89844,-3.160156 z m 0,0"
      id="path49" />
    <g clip-path="url(#clip8)" clip-rule="nonzero" id="g49">
      <use xlink:href="#surface17" mask="url(#mask4)" id="use49" />
    </g>
    <path style="fill:#f0a8cc;fill-opacity:1;fill-rule:nonzero;stroke:none"
      d="m 203.46094,96.492188 h -43.09375 v 26.640622 h 43.09375 z m 0,0" id="path50" />
    <path style="fill:#ffffff;fill-opacity:1;fill-rule:nonzero;stroke:none"
      d="m 207.10547,82.070312 c -4.60156,3.15625 -9.92188,3.453126 -11.77344,0.714844 -0.47656,-0.957031 -0.71875,-2.027344 -0.65625,-3.101562 0.0586,-1.070313 0.47656,-2.085938 1.07422,-2.917969 0.23828,-0.359375 0.48047,-0.777344 0.71875,-1.132813 0.59766,-0.777343 1.25391,-1.492187 2.03125,-2.148437 0.53906,-0.476563 1.07422,-0.953125 1.67187,-1.308594 l 0.1211,-0.121093 c 4.60156,-3.097657 9.92187,-3.457032 11.77344,-0.65625 1.91406,2.742187 -0.29688,7.511718 -4.96094,10.671874 z m 0,0"
      id="path51" />
    <path style="fill:#68075c;fill-opacity:1;fill-rule:nonzero;stroke:none"
      d="m 193.35937,110.37891 c -0.29687,-0.17969 -0.71875,-0.29688 -1.07421,-0.17969 -0.35938,0.0625 -0.71875,0.30078 -0.89844,0.59766 -0.89453,1.07031 -2.15235,1.72656 -3.46485,2.02734 -1.07812,0.23828 -2.21093,0.23828 -3.34765,0 -0.35938,-0.0625 -0.71875,-0.23828 -0.95703,-0.53906 v -4.52735 c 1.3164,-0.23828 2.57031,-0.89453 3.58593,-1.78906 l 10.04297,-9.058594 h -30.1875 l 10.04297,9.058594 c 1.01563,0.89453 2.21094,1.48828 3.52735,1.78906 v 4.58985 c -0.23829,0.29687 -0.59766,0.47656 -0.95704,0.53515 -1.07421,0.29688 -2.26953,0.29688 -3.34765,0 -1.375,-0.17968 -2.57031,-0.83593 -3.52735,-1.84765 -0.23828,-0.29688 -0.53515,-0.47657 -0.95312,-0.59766 -0.35938,-0.0586 -0.77734,0 -1.07813,0.23828 -0.29687,0.23828 -0.53906,0.59766 -0.59765,0.95313 -0.0586,0.41797 0,0.77734 0.23828,1.13281 1.375,1.60937 3.28906,2.74219 5.37891,3.03906 0.77734,0.17969 1.55468,0.24219 2.39453,0.24219 0.83593,0 1.61328,-0.12109 2.44922,-0.30078 0.59765,-0.17969 1.13671,-0.47656 1.67187,-0.83203 0.53906,0.35547 1.07813,0.59375 1.67578,0.77343 0.71485,0.17969 1.375,0.23829 2.08985,0.23829 0.89843,0 1.79296,-0.1211 2.6914,-0.29688 2.08985,-0.41797 3.94531,-1.55078 5.25781,-3.27734 0.17969,-0.35938 0.17969,-0.77735 0.0625,-1.13282 -0.12109,-0.35937 -0.35937,-0.65625 -0.71875,-0.83593 z m 0,0"
      id="path52" />
    <path style="fill:#000745;fill-opacity:1;fill-rule:nonzero;stroke:none"
      d="m 206.92969,78.550781 c 0,1.492188 -0.59766,2.980469 -1.67578,4.054688 -1.07422,1.070312 -2.51172,1.667969 -4.0625,1.667969 -1.4961,0 -2.98829,-0.597657 -4.06641,-1.667969 -1.07422,-1.074219 -1.67188,-2.503907 -1.67188,-4.054688 0,-0.59375 0.0586,-1.132812 0.23829,-1.667969 0.11718,-0.476562 0.35937,-0.894531 0.59765,-1.3125 0.47656,-0.832031 1.19531,-1.546874 2.03125,-2.023437 0.77735,-0.417969 1.61328,-0.65625 2.51172,-0.65625 h 0.23828 c 0.77735,0 1.4961,0.117187 2.21094,0.417969 0.71875,0.296875 1.375,0.714844 1.91406,1.25 0.53906,0.535156 0.95703,1.191406 1.25391,1.847656 0.35937,0.65625 0.48047,1.371094 0.48047,2.144531 z m 0,0"
      id="path53" />
    <path style="fill:#ffffff;fill-opacity:1;fill-rule:nonzero;stroke:none"
      d="m 201.66797,74.5 c 0,0.355469 -0.0586,0.714844 -0.17969,1.011719 -0.12109,0.359375 -0.35937,0.65625 -0.59766,0.894531 -0.23828,0.238281 -0.53906,0.476562 -0.89453,0.597656 -0.35937,0.117188 -0.66015,0.175782 -1.01953,0.175782 -0.53515,0 -1.01562,-0.117188 -1.43359,-0.414063 -0.41797,-0.300781 -0.77735,-0.65625 -1.01563,-1.132813 -0.0586,-0.0625 -0.0586,-0.121093 -0.12109,-0.238281 0.48047,-0.835937 1.19922,-1.550781 2.03516,-2.027343 0.53515,-0.476563 1.07421,-0.953126 1.67187,-1.3125 0.30078,0.121093 0.59766,0.359374 0.83594,0.65625 0.41797,0.535156 0.66015,1.191406 0.71875,1.789062 z m 0,0"
      id="path54" />
    <path style="fill:#ffffff;fill-opacity:1;fill-rule:nonzero;stroke:none"
      d="m 169.51172,82.722656 c -1.91406,2.742188 -7.17188,2.445313 -11.77735,-0.714844 -4.60156,-3.15625 -6.87109,-7.925781 -4.96093,-10.667968 1.85547,-2.742188 7.17578,-2.441406 11.77734,0.65625 l 0.11719,0.117187 c 0.59765,0.417969 1.13672,0.835938 1.67578,1.3125 0.71484,0.65625 1.43359,1.371094 2.03125,2.144531 0.23828,0.359376 0.48047,0.71875 0.65625,1.015626 0.66016,0.832031 1.07812,1.90625 1.13672,2.980468 0.0586,1.132813 -0.17969,2.203125 -0.65625,3.15625 z m 0,0"
      id="path55" />
    <path style="fill:#000745;fill-opacity:1;fill-rule:nonzero;stroke:none"
      d="m 169.27344,78.550781 c 0,1.132813 -0.35938,2.207031 -0.95703,3.160157 -0.66016,0.953124 -1.4961,1.667968 -2.57032,2.085937 -1.01562,0.417969 -2.21093,0.535156 -3.28906,0.296875 -1.13281,-0.238281 -2.15234,-0.773438 -2.92578,-1.546875 -0.77734,-0.777344 -1.31641,-1.789063 -1.55469,-2.921875 -0.24219,-1.132812 -0.12109,-2.265625 0.29688,-3.277344 0.41797,-1.015625 1.13672,-1.90625 2.09375,-2.5625 0.95703,-0.597656 2.03125,-0.953125 3.16797,-0.953125 h 0.23828 c 0.89453,0.05859 1.73437,0.296875 2.51172,0.652344 0.83593,0.476563 1.49218,1.195313 2.03125,2.027344 0.23828,0.359375 0.47656,0.777343 0.59765,1.253906 0.23828,0.59375 0.35938,1.191406 0.35938,1.785156 z m 0,0"
      id="path56" />
    <path style="fill:#ffffff;fill-opacity:1;fill-rule:nonzero;stroke:none"
      d="m 168.375,75.453125 c 0,0.05859 0,0.117187 0,0.238281 -0.23828,0.476563 -0.53906,0.835938 -1.01563,1.132813 -0.47656,0.296875 -0.95703,0.417969 -1.43359,0.417969 -0.35937,0 -0.71875,-0.0625 -1.07812,-0.179688 -0.35547,-0.121094 -0.65625,-0.296875 -0.89454,-0.597656 -0.23828,-0.238282 -0.48046,-0.535156 -0.59765,-0.894532 -0.1211,-0.355468 -0.23828,-0.714843 -0.23828,-1.070312 0,-0.65625 0.23828,-1.253906 0.65625,-1.730469 0.23828,-0.296875 0.53906,-0.476562 0.83593,-0.65625 0.59766,0.417969 1.13672,0.835938 1.67579,1.3125 0.89453,0.535157 1.61328,1.191407 2.08984,2.027344 z m 0,0"
      id="path57" />
    <path style="fill:url(#linear3);fill-rule:nonzero;stroke:none"
      d="m 156.48047,43.269531 -13.86719,-8.824219 c -0.59766,-0.355468 -1.19531,-0.59375 -1.91016,-0.652343 -0.66015,-0.0625 -1.375,0 -2.03515,0.238281 -0.65625,0.238281 -1.19531,0.59375 -1.67188,1.070312 -0.48047,0.476563 -0.83593,1.074219 -1.01562,1.730469 -2.15235,7.03125 -3.46875,19.191407 10.8789,23.898438 z m 0,0"
      id="path58" />
    <path style="fill:#d10770;fill-opacity:1;fill-rule:nonzero;stroke:none"
      d="m 141.83594,33.730469 c -1.25391,0.597656 -2.62891,0.894531 -4.00391,0.957031 0.0586,1.070312 0.41797,2.144531 0.95703,3.097656 0.53906,0.953125 1.31641,1.726563 2.26953,2.324219 l 11.77735,7.570313 2.6289,-4.828126 z m 0,0"
      id="path59" />
    <g clip-path="url(#clip10)" clip-rule="nonzero" id="g60">
      <path style="fill:#d10770;fill-opacity:1;fill-rule:nonzero;stroke:none"
        d="m 146.79687,62.160156 c -0.17968,0 -0.29687,0 -0.47656,0 -11.35547,-3.8125 -15.66015,-13.171875 -11.77344,-25.804687 0.23829,-0.894531 0.71485,-1.667969 1.3711,-2.324219 0.66015,-0.65625 1.375,-1.132812 2.27344,-1.492188 0.83593,-0.296874 1.79296,-0.417968 2.6875,-0.355468 0.89843,0.117187 1.79687,0.414062 2.57031,0.894531 l 13.86719,8.878906 c 0.30078,0.238281 0.53906,0.535157 0.59765,0.894531 0.0625,0.355469 0,0.773438 -0.17969,1.070313 -0.23828,0.300781 -0.53515,0.539063 -0.89453,0.65625 -0.35937,0.0625 -0.77734,0 -1.07422,-0.175781 l -13.86718,-8.882813 c -0.35938,-0.238281 -0.83985,-0.417969 -1.25782,-0.476562 -0.47656,-0.05859 -0.89453,0 -1.3125,0.179687 -0.41796,0.117188 -0.77734,0.417969 -1.07812,0.714844 -0.29688,0.296875 -0.53906,0.714844 -0.65625,1.132812 -2.39063,7.808594 -2.62891,17.878907 9.92187,22.050782 0.17969,0.0625 0.35938,0.179687 0.53907,0.300781 0.17968,0.117187 0.29687,0.296875 0.35547,0.476563 0.0625,0.175781 0.12109,0.414062 0.12109,0.59375 0,0.179687 -0.0586,0.417968 -0.12109,0.597656 -0.11719,0.296875 -0.35547,0.535156 -0.59766,0.714844 -0.35547,0.355468 -0.71484,0.417968 -1.01563,0.355468 z m 0,0"
        id="path60" />
    </g>
    <path style="fill:url(#linear4);fill-rule:nonzero;stroke:none"
      d="m 206.62891,43.269531 13.86718,-8.882812 c 11.59375,-4.351563 11.17578,23.664062 -4.24218,26.285156 z m 0,0"
      id="path61" />
    <path style="fill:#d10770;fill-opacity:1;fill-rule:nonzero;stroke:none"
      d="m 221.27344,33.730469 c 1.2539,0.597656 2.6289,0.894531 4.0039,0.957031 0.30078,5.421875 -11.71484,10.191406 -15.0039,12.992188 l -2.62891,-4.828126 z m 0,0"
      id="path62" />
    <g clip-path="url(#clip11)" clip-rule="nonzero" id="g63">
      <path style="fill:#d10770;fill-opacity:1;fill-rule:nonzero;stroke:none"
        d="m 216.25391,62.160156 c -0.35938,0 -0.71875,-0.175781 -0.95704,-0.414062 -0.23828,-0.238282 -0.41796,-0.597656 -0.48046,-0.957032 -0.0586,-0.355468 0.0625,-0.714843 0.30078,-1.011718 0.23828,-0.296875 0.53906,-0.476563 0.89453,-0.59375 6.7539,-1.195313 9.38672,-7.570313 10.22265,-10.3125 1.55469,-5.066406 0.95704,-10.550782 -1.2539,-12.636719 -0.48047,-0.476563 -1.13672,-0.773437 -1.79297,-0.832031 -0.66016,-0.121094 -1.375,0 -1.97266,0.296875 l -13.80859,8.761719 c -0.30078,0.179687 -0.71875,0.296874 -1.07422,0.179687 -0.35937,-0.0625 -0.71875,-0.300781 -0.89844,-0.65625 -0.17968,-0.359375 -0.23828,-0.714844 -0.17968,-1.074219 0.0586,-0.355468 0.30078,-0.714844 0.59765,-0.894531 l 13.86719,-8.878906 0.30078,-0.121094 c 1.13281,-0.535156 2.44922,-0.714844 3.70313,-0.476563 1.25781,0.179688 2.39062,0.777344 3.34765,1.609376 3.10938,2.921874 4.00391,9.359374 2.03125,15.675781 -2.03125,6.855469 -6.63281,11.382812 -12.60937,12.398437 z m 0,0"
        id="path63" />
    </g>
    <g clip-path="url(#clip12)" clip-rule="nonzero" id="g64">
      <path style="fill:#d10770;fill-opacity:1;fill-rule:nonzero;stroke:none"
        d="M 230.47656,80.816406 209.14062,43.984375 c -0.59765,-1.015625 -1.4375,-1.847656 -2.45312,-2.445313 -1.01563,-0.59375 -2.21094,-0.894531 -3.34766,-0.894531 h -42.61328 c -1.19531,0 -2.33203,0.300781 -3.41015,0.894531 -1.01563,0.597657 -1.91016,1.429688 -2.50782,2.445313 l -21.28125,36.832031 c -0.59765,1.011719 -0.89453,2.207032 -0.89453,3.339844 0,1.191406 0.29688,2.324219 0.89453,3.335938 l 21.28125,36.832032 c 0.59766,1.01562 1.4336,1.84766 2.50782,2.44531 1.01562,0.59766 2.21484,0.89453 3.41015,0.89453 h 42.61328 c 1.19532,0 2.33203,-0.29687 3.34766,-0.89453 1.01562,-0.59765 1.85547,-1.42969 2.45312,-2.44531 l 21.33594,-36.832032 c 0.59766,-1.011719 0.89844,-2.207032 0.89844,-3.335938 0,-1.195312 -0.30078,-2.328125 -0.89844,-3.339844 z m -7.28906,6.199219 -18.11328,31.289065 c -0.53906,0.89453 -1.25391,1.60937 -2.08985,2.08594 -0.89843,0.47656 -1.85546,0.77734 -2.87109,0.77734 h -36.10156 c -1.01563,0 -1.97266,-0.23828 -2.86719,-0.77734 -0.89844,-0.47657 -1.61328,-1.19141 -2.09375,-2.08594 L 140.94141,87.015625 c -0.48047,-0.894531 -0.77735,-1.847656 -0.77735,-2.859375 0,-1.015625 0.23828,-1.96875 0.77735,-2.863281 l 18.05078,-31.289063 c 0.47656,-0.894531 1.2539,-1.609375 2.08984,-2.085937 0.89844,-0.476563 1.85547,-0.777344 2.87109,-0.777344 h 36.21875 c 1.01954,0 1.97266,0.238281 2.8711,0.777344 0.89453,0.476562 1.61328,1.191406 2.08984,2.085937 l 18.11328,31.289063 c 0.47657,0.894531 0.71485,1.847656 0.71485,2.863281 0,1.011719 -0.29688,2.023438 -0.77344,2.859375 z m 0,0"
        id="path64" />
    </g>
    <path style="fill:#d10770;fill-opacity:1;fill-rule:nonzero;stroke:none"
      d="m 229.94141,81.113281 c -0.17969,-0.296875 -0.53907,-0.535156 -0.89844,-0.652343 -0.35938,-0.121094 -0.77735,-0.0625 -1.13672,0.117187 l -21.39844,12.457031 c -0.29687,0.179688 -0.65625,0.296875 -1.01562,0.359375 -0.35938,0.05859 -0.71485,0 -1.07422,-0.0625 -0.35938,-0.117187 -0.71875,-0.238281 -0.95703,-0.476562 -0.29688,-0.238281 -0.53907,-0.476563 -0.71875,-0.832031 L 185.53125,62.28125 c -0.35938,-0.65625 -0.48047,-1.371094 -0.30078,-2.085938 0.17969,-0.714843 0.65625,-1.3125 1.3164,-1.667968 l 21.03907,-12.457032 c 0.35937,-0.179687 0.59765,-0.539062 0.65625,-0.894531 0.12109,-0.359375 0.0586,-0.773437 -0.11719,-1.132812 -0.17969,-0.359375 -0.53906,-0.597657 -0.89844,-0.65625 -0.35937,-0.117188 -0.77734,-0.05859 -1.13672,0.121093 l -22.59375,13.171876 c -0.41797,0.238281 -0.89453,0.414062 -1.43359,0.414062 -0.47656,0 -1.01563,-0.117188 -1.43359,-0.414062 L 159.10937,43.984375 c -0.35546,-0.179687 -0.77734,-0.238281 -1.13281,-0.179687 -0.35937,0.117187 -0.71875,0.359374 -0.95703,0.714843 -0.17969,0.359375 -0.23828,0.773438 -0.17969,1.132813 0.1211,0.359375 0.35938,0.714844 0.71875,0.953125 l 20.02344,11.800781 c 0.29688,0.179688 0.59766,0.417969 0.83594,0.714844 0.23828,0.300781 0.35937,0.597656 0.47656,0.953125 0.12109,0.359375 0.12109,0.714843 0.0586,1.074219 -0.0586,0.359374 -0.17578,0.714843 -0.35546,1.011718 l -17.27344,29.800782 c -0.17969,0.300781 -0.42188,0.597656 -0.71875,0.835937 -0.30078,0.238281 -0.59766,0.417969 -0.95703,0.476563 -0.35938,0.121093 -0.71875,0.121093 -1.07422,0.05859 -0.35938,-0.05859 -0.71875,-0.179687 -1.01563,-0.355469 L 136.03906,80.460938 c -0.35937,-0.179688 -0.77734,-0.238282 -1.13672,-0.179688 -0.35547,0.117188 -0.71484,0.355469 -0.89453,0.714844 -0.17969,0.355468 -0.23828,0.773437 -0.17969,1.132812 0.11719,0.355469 0.35938,0.714844 0.71875,0.894532 l 23.01172,13.410156 c 0.41797,0.238281 0.77344,0.59375 1.01563,1.011718 0.23828,0.417969 0.35547,0.894532 0.35547,1.371094 v 24.199224 c 0,0.41406 0.17968,0.77343 0.42187,1.07031 0.29688,0.30078 0.65625,0.41797 1.07422,0.41797 0.41797,0 0.77734,-0.17969 1.07422,-0.41797 0.30078,-0.29688 0.42187,-0.65625 0.42187,-1.07031 v -22.41016 c 0,-0.35938 0.0586,-0.714845 0.23829,-1.07422 0.11718,-0.355469 0.35937,-0.65625 0.59765,-0.894531 0.23828,-0.238281 0.59766,-0.476563 0.89453,-0.59375 0.35938,-0.121094 0.71875,-0.238281 1.07813,-0.238281 h 34.48828 c 0.71484,0 1.43359,0.296874 1.97266,0.832031 0.53515,0.539062 0.83593,1.253906 0.83593,1.968751 v 22.34766 c 0,0.41796 0.17969,0.77734 0.41797,1.07421 0.29688,0.29688 0.65625,0.41797 1.07422,0.41797 0.41797,0 0.77734,-0.17968 1.07813,-0.41797 0.29687,-0.29687 0.41796,-0.65625 0.41796,-1.07421 V 98.757812 c 0,-0.476562 0.11719,-0.953124 0.35938,-1.429687 0.23828,-0.417969 0.59766,-0.777344 1.01562,-1.015625 l 23.01172,-13.351562 c 0.35938,-0.175782 0.59766,-0.535157 0.71485,-0.890626 0.0625,-0.179687 0,-0.597656 -0.17578,-0.957031 z m -65.21094,10.910157 15.53906,-26.820313 c 0.17969,-0.300781 0.41797,-0.539063 0.71875,-0.65625 0.29688,-0.179687 0.59766,-0.238281 0.95703,-0.238281 0.35547,0 0.65625,0.05859 0.95313,0.238281 0.30078,0.175781 0.53906,0.417969 0.71875,0.65625 l 15.48047,26.757813 c 0.17968,0.300781 0.23828,0.65625 0.30078,1.015624 0,0.355469 -0.1211,0.714844 -0.24219,1.011719 -0.17969,0.296875 -0.41797,0.535157 -0.71484,0.714844 C 198.14062,94.882812 197.78125,95 197.42578,95 h -30.90234 c -0.35938,0 -0.71875,-0.117188 -1.01563,-0.238281 -0.30078,-0.175781 -0.53906,-0.414063 -0.71875,-0.714844 -0.17969,-0.296875 -0.29687,-0.652344 -0.29687,-1.011719 0,-0.417968 0.0586,-0.714844 0.23828,-1.011718 z m 0,0"
      id="path65" />
    <path style="fill:#d10770;fill-opacity:1;fill-rule:evenodd;stroke:none"
      d="m 108.90234,286.67969 c -0.47656,0 -0.95703,-0.17969 -1.3125,-0.47657 -0.17968,-0.17968 -0.30078,-0.35937 -0.42187,-0.53906 -0.11719,-0.17578 -0.11719,-0.41406 -0.11719,-0.65234 0,-0.23828 0.0586,-0.47656 0.11719,-0.65625 0.12109,-0.23828 0.24219,-0.41797 0.42187,-0.53906 0.35547,-0.35547 0.83594,-0.53516 1.3125,-0.47657 0.23829,0 0.48047,0.0625 0.71875,0.1211 0.23829,0.0586 0.41797,0.23828 0.59766,0.35547 0.17969,0.17968 0.29688,0.35937 0.41797,0.53906 0.12109,0.23828 0.12109,0.41797 0.12109,0.65625 0,0.23828 -0.0625,0.47656 -0.12109,0.65234 -0.12109,0.17969 -0.23828,0.41797 -0.41797,0.53906 -0.17969,0.17969 -0.35937,0.29688 -0.59766,0.35547 -0.23828,0.1211 -0.48046,0.1211 -0.71875,0.1211 z m -1.61328,10.72656 v -9.23828 h 3.22657 v 9.23828 z m 5.37891,0 v -9.23828 h 3.16797 v 1.13281 c 0.23828,-0.47656 0.59765,-0.83203 1.01562,-1.07031 0.48047,-0.24219 1.07813,-0.35938 1.61328,-0.35938 0.42188,-0.0586 0.89844,0.0586 1.31641,0.23828 0.41797,0.17969 0.77734,0.41797 1.07422,0.77344 0.59766,0.83594 0.89844,1.84766 0.83984,2.92188 v 5.60156 h -3.23047 v -5.00391 c 0,-1.07422 -0.41796,-1.60937 -1.2539,-1.60937 -0.17969,0 -0.41797,0 -0.59766,0.11719 -0.17969,0.0586 -0.35937,0.17968 -0.47656,0.35937 -0.24219,0.35547 -0.35938,0.83203 -0.35938,1.30859 v 4.88672 h -3.10937 z m 12.07422,0 v -6.61328 H 123.25 v -2.5625 h 1.49219 v -0.89453 c -0.0586,-1.19532 0.30078,-2.38672 1.01562,-3.28125 0.35938,-0.41407 0.83594,-0.71485 1.375,-0.89063 0.53907,-0.17969 1.07813,-0.30078 1.61328,-0.23828 0.35938,-0.0625 0.71875,-0.0625 1.01563,0 0.30078,0.0586 0.59765,0.11719 0.83984,0.23828 l -0.17969,2.67969 c -0.17968,-0.0586 -0.30078,-0.11719 -0.48046,-0.11719 h -0.47657 c -0.23828,0 -0.41797,0 -0.59765,0.0586 -0.17969,0.0586 -0.35938,0.17968 -0.53907,0.35546 -0.29687,0.41797 -0.41796,0.89454 -0.35937,1.4336 v 0.65625 h 2.21484 v 2.5625 h -2.09375 v 6.61328 z m 6.875,0 v -14.48047 h 3.28515 v 14.48047 z m 8.54687,0.30078 c -0.41797,0 -0.89844,-0.0625 -1.2539,-0.24219 -0.42188,-0.17578 -0.77735,-0.41406 -1.01954,-0.77343 -0.59765,-0.83204 -0.89453,-1.84766 -0.83593,-2.85938 v -5.72266 h 3.28906 v 4.94532 c 0,0.41797 0.0586,0.83593 0.29687,1.2539 0.1211,0.11719 0.23829,0.23828 0.41797,0.29688 0.17969,0.0586 0.35938,0.12109 0.53907,0.0586 0.17968,0 0.35937,-0.0586 0.53906,-0.11719 0.17969,-0.0586 0.29687,-0.17968 0.41797,-0.35937 0.23828,-0.41406 0.35937,-0.83203 0.35937,-1.30859 v -4.82813 h 3.28516 v 9.23828 h -3.10547 v -1.13281 c -0.24219,0.47656 -0.59766,0.83203 -1.07813,1.07031 -0.53906,0.30078 -1.07421,0.48047 -1.67187,0.48047 z m 7.41016,-0.30078 3.40625,-4.76563 -3.04688,-4.47265 h 3.64453 l 1.4961,2.5039 1.49219,-2.5039 h 3.46875 l -3.16797,4.53125 3.40625,4.70703 h -3.70703 l -1.67188,-2.80078 -1.67187,2.80078 z m 16.07812,0.30078 c -0.77734,0 -1.55468,-0.24219 -2.21093,-0.59766 -0.65625,-0.41796 -1.19532,-1.01171 -1.55469,-1.66796 -0.35547,-0.77735 -0.59766,-1.60938 -0.53516,-2.44532 0,-0.83203 0.17969,-1.66797 0.59766,-2.38281 0.35547,-0.71484 0.95312,-1.3125 1.61328,-1.73047 0.65625,-0.41406 1.49219,-0.65234 2.26953,-0.65234 0.66016,0 1.31641,0.17578 1.85547,0.47656 0.59766,0.35547 1.07422,0.83203 1.37109,1.42969 v -7.15235 h 1.55469 v 14.48047 h -1.49219 v -1.60547 c -0.35937,0.59375 -0.83593,1.07032 -1.43359,1.42969 -0.59766,0.29688 -1.25781,0.47656 -1.91406,0.47656 h -0.1211 z m 0.35938,-1.37109 c 0.59765,0 1.13672,-0.1211 1.67578,-0.41797 0.47656,-0.30078 0.83594,-0.71485 1.07422,-1.19141 0.29687,-0.53906 0.41797,-1.13281 0.41797,-1.78906 0,-0.59766 -0.1211,-1.19141 -0.41797,-1.78906 -0.23828,-0.47657 -0.59766,-0.89453 -1.07422,-1.19141 -0.48047,-0.29687 -1.07813,-0.41797 -1.61719,-0.41797 -0.59765,0 -1.13281,0.17969 -1.61328,0.41797 -0.47656,0.29688 -0.83594,0.71484 -1.13281,1.19141 -0.30078,0.53515 -0.42188,1.13281 -0.42188,1.78906 0,0.59375 0.1211,1.19141 0.42188,1.78906 0.23828,0.47656 0.65625,0.89063 1.13281,1.19141 0.53906,0.35547 1.13672,0.47656 1.79297,0.41797 z m 12.61328,1.37109 c -0.71875,0 -1.375,-0.17969 -2.03516,-0.48047 -0.53515,-0.35547 -1.01562,-0.83203 -1.3125,-1.42969 v 1.60938 h -1.2539 v -14.48047 h 1.55078 v 7.15234 c 0.35937,-0.59765 0.83984,-1.07421 1.4375,-1.43359 0.59765,-0.35547 1.3125,-0.53516 2.03125,-0.47656 0.77734,0 1.55469,0.17969 2.21094,0.59765 0.65625,0.41797 1.19531,1.01172 1.55468,1.66797 0.35938,0.77344 0.53907,1.60938 0.53907,2.44532 0,0.83203 -0.17969,1.66796 -0.59766,2.4414 -0.35938,0.71485 -0.95703,1.25391 -1.61719,1.73047 -0.65625,0.41406 -1.49219,0.65625 -2.26953,0.65625 z m -0.23828,-1.37109 c 0.53515,0 1.13281,-0.1211 1.61328,-0.41797 0.47656,-0.30078 0.89453,-0.71485 1.13281,-1.19141 0.30078,-0.53906 0.41797,-1.13281 0.41797,-1.78906 0,-0.59766 -0.11719,-1.19141 -0.41797,-1.78906 -0.23828,-0.47657 -0.59765,-0.89453 -1.07422,-1.19141 -0.47656,-0.29687 -1.07422,-0.47656 -1.61328,-0.41797 -0.59765,0 -1.13672,0.1211 -1.67578,0.41797 -0.47656,0.29688 -0.83594,0.71484 -1.13281,1.19141 -0.30078,0.53515 -0.41797,1.13281 -0.41797,1.78906 0,0.59375 0.11719,1.19141 0.41797,1.78906 0.23828,0.47656 0.65625,0.89063 1.13281,1.19141 0.53906,0.35547 1.19531,0.47656 1.79297,0.41797 z m 0,0"
      id="path66" />
    <path style="fill:#d10770;fill-opacity:1;fill-rule:evenodd;stroke:none"
      d="m 93.183594,295.32031 4.839844,-1.13281 0.242187,-0.11719 c 0.05859,-0.0586 0.117187,-0.12109 0.117187,-0.17969 0.05859,-0.0586 0.05859,-0.11718 0.05859,-0.23828 0,-0.0586 0,-0.17968 -0.05859,-0.23828 l -2.03125,-8.9414 c 0,-0.0586 -0.05859,-0.11719 -0.121093,-0.17579 -0.05859,-0.0625 -0.117188,-0.12109 -0.179688,-0.17968 -0.05859,-0.0625 -0.117187,-0.0625 -0.238281,-0.0625 -0.05859,0 -0.179688,0 -0.238281,0.0625 L 90.734375,285.25 c -0.0625,0 -0.121094,0.0586 -0.179687,0.11719 -0.0625,0.0586 -0.121094,0.12109 -0.121094,0.17968 -0.05859,0.11719 -0.05859,0.29688 0,0.41797 l 2.03125,8.9375 c 0.0625,0.1211 0.121094,0.30078 0.242187,0.35938 0.175781,0.11719 0.355469,0.11719 0.476563,0.0586 z m 0,0"
      id="path67" />
    <path style="fill:#d10770;fill-opacity:1;fill-rule:evenodd;stroke:none"
      d="m 91.570312,300.86328 5.917969,-5.48437 c 0.238281,-0.23829 0.179688,-0.35547 -0.121093,-0.23829 l -4.003907,0.89454 c -0.179687,0.0625 -0.300781,0.12109 -0.417969,0.23828 -0.121093,0.12109 -0.238281,0.23828 -0.300781,0.41797 l -1.253906,3.99218 c -0.238281,0.30078 -0.121094,0.41797 0.179687,0.17969 z m 0,0"
      id="path68" />
    <g clip-path="url(#clip13)" clip-rule="nonzero" id="g69">
      <path style="fill:#d10770;fill-opacity:1;fill-rule:evenodd;stroke:none"
        d="m 80.75,299.07422 8.847656,2.68359 c 0.117188,0.0586 0.296875,0.0586 0.417969,0 0.121094,-0.0586 0.238281,-0.17969 0.296875,-0.35547 l 1.496094,-4.71093 c 0,-0.0586 0,-0.17969 0,-0.23829 0,-0.0586 0,-0.11718 0,-0.17968 C 91.75,296.21484 91.75,296.15625 91.6875,296.09766 l -0.238281,-0.1211 -8.84375,-2.68359 c -0.121094,-0.0586 -0.300781,-0.0586 -0.480469,0 -0.117188,0.0625 -0.238281,0.17969 -0.296875,0.35937 l -1.496094,4.70703 c -0.05859,0.17969 -0.05859,0.30079 0,0.47657 0.121094,0.12109 0.238281,0.23828 0.417969,0.23828 z m 0,0"
        id="path69" />
    </g>
    <path style="fill:#d10770;fill-opacity:1;fill-rule:evenodd;stroke:none"
      d="m 77.882812,289.42187 1.792969,7.80469 c 0,0.30078 0.179688,0.30078 0.296875,0 l 1.257813,-3.99219 c 0.05859,-0.17968 0.05859,-0.35546 0,-0.53515 -0.0625,-0.17969 -0.121094,-0.29688 -0.242188,-0.47656 l -2.808593,-3.03907 c -0.238282,-0.12109 -0.417969,-0.12109 -0.296876,0.23828 z m 0,0"
      id="path70" />
    <path style="fill:#d10770;fill-opacity:1;fill-rule:evenodd;stroke:none"
      d="M 84.753906,281.07812 78,287.33594 c -0.05859,0.0586 -0.117188,0.11718 -0.117188,0.17578 0,0.0625 -0.0625,0.12109 -0.0625,0.23828 0,0.0625 0,0.12109 0,0.23828 0,0.0625 0.0625,0.12109 0.121094,0.17969 l 3.40625,3.63672 c 0.0625,0.0586 0.121094,0.12109 0.179688,0.12109 0.05859,0.0586 0.121094,0.0586 0.238281,0.0586 0.179687,0 0.300781,-0.0586 0.417969,-0.12109 l 6.757812,-6.25781 c 0.117188,-0.11719 0.175782,-0.23828 0.175782,-0.41797 0,-0.11719 -0.05859,-0.29688 -0.175782,-0.41406 l -3.46875,-3.69532 c -0.05859,-0.0625 -0.121094,-0.12109 -0.179687,-0.12109 -0.05859,0 -0.117188,0 -0.238281,0 h -0.238282 c 0.05859,0 0,0.0586 -0.0625,0.12109 z m 0,0"
      id="path71" />
    <path style="fill:#d10770;fill-opacity:1;fill-rule:evenodd;stroke:none"
      d="m 91.332031,295.08203 c 0.296875,0 0.476563,0 0.417969,-0.41797 l -2.035156,-8.46094 c 0,-0.30078 -0.355469,-0.35937 -0.535156,-0.17968 l -6.398438,5.90234 c -0.238281,0.23828 -0.175781,0.47656 0.121094,0.53516 z m 0,0"
      id="path72" />
    <path style="fill:#d10770;fill-opacity:1;fill-rule:evenodd;stroke:none"
      d="m 94.675781,283.40234 -7.707031,-2.32422 c -0.300781,0 -0.359375,0 -0.121094,0.29688 l 2.808594,3.03906 c 0.121094,0.1211 0.300781,0.17969 0.417969,0.23828 0.179687,0.0586 0.359375,0.0586 0.480469,0 l 4.003906,-0.89453 c 0.417968,-0.17969 0.417968,-0.29687 0.117187,-0.35547 z m 0,0"
      id="path73" />
    <path style="fill:#d10770;fill-opacity:1;fill-rule:evenodd;stroke:none"
      d="m 185.05078,285.48828 v -2.02734 h -0.71484 v -0.35938 h 1.85156 v 0.35938 h -0.71875 v 2.02734 z m 1.55469,0 0.12109,-2.26562 h 0.41797 l 0.71484,1.42968 0.71875,-1.42968 h 0.41797 l 0.1211,2.26562 h -0.41797 v -1.67187 l -0.59766,1.2539 h -0.30078 l -0.65625,-1.3125 v 1.73047 z m 0,0"
      id="path74" />
  </g>
</svg>