<svg width="256px" height="256px" viewBox="0 0 256 256" xmlns:xlink="http://www.w3.org/1999/xlink"
  xmlns="http://www.w3.org/2000/svg" xmlns:svg="http://www.w3.org/2000/svg">
  <rect width="256" height="256" fill="#f2f4ed" rx="60" id="rect1" />
  <defs id="defs5">
    <filter id="alpha" filterUnits="objectBoundingBox" x="0" y="0" width="1" height="1">
      <feColorMatrix type="matrix" in="SourceGraphic" values="0 0 0 0 1 0 0 0 0 1 0 0 0 0 1 0 0 0 1 0"
        id="feColorMatrix1" />
    </filter>
    <mask id="mask0">
      <g filter="url(#alpha)" id="g2">
        <rect x="0" y="0" width="256" height="256" style="fill:rgb(0%,0%,0%);fill-opacity:0.8;stroke:none;"
          id="rect2" />
      </g>
    </mask>
    <clipPath id="clip1">
      <rect x="0" y="0" width="256" height="256" id="rect3" />
    </clipPath>
    <g id="surface5" clip-path="url(#clip1)">
      <path style=" stroke:none;fill-rule:nonzero;fill:rgb(92.156863%,83.529412%,60%);fill-opacity:1;"
        d="M 64.894531 96.28125 C 64.894531 96.28125 65.75 85.15625 67.496094 80.890625 C 68.394531 78.691406 73.890625 77.308594 78.085938 76.28125 C 82.285156 75.257812 88.976562 73.285156 90.277344 79.179688 C 91.578125 85.078125 93.675781 89.375 95.074219 91.273438 L 93.277344 66.988281 L 64.382812 73.996094 L 62.484375 95.480469 L 63.386719 97.179688 L 64.882812 96.277344 M 211.015625 96.28125 C 211.015625 96.28125 210.160156 85.15625 208.414062 80.890625 C 207.515625 78.691406 202.019531 77.308594 197.824219 76.28125 C 193.628906 75.257812 186.945312 73.285156 185.628906 79.179688 C 184.316406 85.078125 182.234375 89.375 180.832031 91.273438 L 182.632812 66.988281 L 211.511719 73.984375 L 213.410156 95.46875 L 212.511719 97.167969 L 211.015625 96.269531 "
        id="path3" />
    </g>
    <mask id="mask1">
      <g filter="url(#alpha)" id="g4">
        <rect x="0" y="0" width="256" height="256" style="fill:rgb(0%,0%,0%);fill-opacity:0.74902;stroke:none;"
          id="rect4" />
      </g>
    </mask>
    <clipPath id="clip2">
      <rect x="0" y="0" width="256" height="256" id="rect5" />
    </clipPath>
    <g id="surface8" clip-path="url(#clip2)">
      <path style=" stroke:none;fill-rule:nonzero;fill:rgb(92.156863%,83.529412%,60%);fill-opacity:1;"
        d="M 170.195312 23.605469 C 170.195312 23.605469 169.429688 81.84375 155.828125 81.84375 L 120.464844 81.84375 C 106.863281 81.84375 105.765625 23.644531 105.765625 23.644531 L 99.070312 43.390625 L 99.179688 70.507812 L 103.925781 74.277344 L 106.082031 85.921875 L 109.097656 92.714844 L 167.316406 92.820312 L 170.011719 87.957031 L 172.277344 79.765625 L 172.601562 74.589844 L 179.03125 56.234375 L 170.183594 23.59375 Z M 213.03125 77.898438 C 213.03125 77.898438 215.828125 97.984375 223.238281 101.605469 C 230.644531 105.230469 223.238281 101.605469 223.238281 101.605469 L 212.867188 98.476562 Z M 62.601562 77.898438 C 62.601562 77.898438 59.804688 97.984375 52.394531 101.605469 C 44.984375 105.230469 52.394531 101.605469 52.394531 101.605469 L 62.765625 98.476562 Z M 62.601562 77.898438 "
        id="path5" />
    </g>
  </defs>
  <g id="surface1" transform="matrix(0.85111629,0,0,0.87195958,8.4075698,12.90211)">
    <path style="fill:#ca3347;fill-opacity:1;fill-rule:nonzero;stroke:none"
      d="m 61.160156,110.89453 c 0,0 -39.832031,28.03516 -41.390625,38.71484 l 2.988281,-0.61328 c 0,0 47.699219,-31.61718 85.507818,-35.45703 l 0.85937,-4.80078 -47.964844,2.16797 z m 62.527344,-4.00781 -31.359375,22.2539 1.695313,1.35938 c 1.277343,-1.03125 55.730472,-17.66016 55.730472,-17.66016 l 11.48046,-7.19921 c -7.70312,0.96093 -37.53124,1.24609 -37.53124,1.24609 z m 27.26562,26.91797 c 22.27735,0 55.67188,-21.82031 55.67188,-21.82031 l -10.79297,-2.05469 c -0.53516,0.53515 -17.41016,-0.58985 -17.41016,-0.58985 l -8.00781,-2.22656 -19.13672,21.80859 -1.55859,3.78125 c 1.375,-0.55859 1.23437,1.10157 1.23437,1.10157 z m 72.69922,69.58203 -6.88281,1.9375 -31.80078,-0.6875 -19.89063,-15.46875 -24.04296,6.01562 -27.8086,-2.40625 -15.574216,17.01563 -29.21875,8.73047 L 53.84375,214 l -0.734375,-0.63281 6.550781,16.03515 c 0,0 14.832032,15.90235 23.113282,17.77344 8.285156,1.87109 23.253902,-0.13281 34.476562,-1.87109 11.22656,-1.73828 20.17969,-5.76172 23.78516,-12.29297 3.60937,-6.53125 4.14453,-8.42188 4.14453,-8.42188 0,0 10.6914,15.10157 19.91015,16.83985 9.21875,1.73828 36.61328,-7.61719 36.61328,-7.61719 0,0 16.70704,-4.54688 19.64454,-10.28906 2.9375,-5.7461 10.6914,-24.57813 10.6914,-24.57813 l -8.38672,4.45703 z m -166.749996,13.0625 -0.460938,-0.21094 -2.574218,-2.22266 3.039062,2.4336 z m 0,0"
      id="path6" />
    <path style="fill:#f3ebae;fill-opacity:1;fill-rule:nonzero;stroke:none"
      d="m 250.66406,89.789062 -0.2539,-2.570312 -0.27735,-1.824219 c -2.29297,-1.933593 -4.90234,-3.648437 -7.61719,-5.210937 -2.94531,-1.71875 -6.02343,-3.257813 -9.16406,-4.6875 L 223.80078,71.390625 218.94141,69.5 l -4.91016,-1.820312 10.25781,2.226562 6.58203,1.890625 c -15.5039,-40.519531 -52.57031,-66.90625 -93.03906,-66.90625 -40.472655,0 -77.539061,26.386719 -93.039061,66.90625 2.179687,-0.679687 4.375,-1.320313 6.574219,-1.890625 3.394531,-0.875 6.8125,-1.65625 10.261718,-2.226562 L 56.714844,69.5 l -4.875,1.890625 c -3.226563,1.300781 -6.421875,2.632813 -9.546875,4.105469 -3.136719,1.429687 -6.21875,2.96875 -9.160157,4.6875 -2.714843,1.5625 -5.320312,3.28125 -7.625,5.210937 -0.09766,0.585938 -0.191406,1.214844 -0.257812,1.820313 -0.101562,0.855468 -0.199219,1.714844 -0.253906,2.574218 -0.152344,1.726563 -0.214844,3.460938 -0.226563,5.195313 -0.03516,3.472656 0.199219,6.945315 0.636719,10.371095 0.476562,3.44531 1.109375,6.86719 2.042969,10.17578 0.460937,1.65625 0.984375,3.29297 1.585937,4.875 0.304688,0.78906 0.636719,1.56641 0.980469,2.32422 0.167969,0.37109 0.34375,0.73828 0.527344,1.10547 l 0.21875,0.41797 0.777343,0.38281 1.542969,0.73828 3.03125,1.40625 c 0.05469,-0.043 0.105469,-0.0937 0.15625,-0.14453 l -2.859375,-10.89844 c 0.605469,-0.16406 6.039063,-1.5664 15.398438,-3.34765 -0.765625,-0.14454 -1.515625,-0.3086 -2.265625,-0.48829 -2.132813,-0.52734 -4.238281,-1.17578 -6.273438,-2 -1.023437,-0.42578 -2.007812,-0.89062 -2.957031,-1.42578 -0.949219,-0.54687 -1.882812,-1.16406 -2.605469,-1.98437 10.285157,3.35547 31.539063,1.83594 50.429688,-0.11328 17.281251,-1.78125 34.597661,-2.9375 52.007811,-2.96875 17.41016,0.0312 34.73438,1.1875 52.00781,2.96875 18.89844,1.95312 40.15235,3.47265 50.4375,0.11328 -0.72265,0.82031 -1.65625,1.4375 -2.60547,1.98437 -0.95703,0.53125 -1.9414,1.00782 -2.95312,1.42578 -2.03906,0.82422 -4.14063,1.47266 -6.27344,2 -0.3164,0.0781 -0.63281,0.14454 -0.94922,0.21485 10.26563,1.90234 16.24219,3.45312 16.87891,3.62109 l -2.73828,10.36719 1.66406,-0.73438 1.53906,-0.73437 0.77735,-0.38281 0.21484,-0.42188 c 0.1875,-0.36328 0.36719,-0.73047 0.53516,-1.10547 0.34375,-0.7539 0.67578,-1.53515 0.97656,-2.32422 0.60547,-1.58203 1.12891,-3.21875 1.58984,-4.875 0.9336,-3.30859 1.56641,-6.73437 2.03907,-10.17578 0.4414,-3.4375 0.67578,-6.910154 0.64062,-10.367185 -0.0117,-1.738281 -0.0781,-3.457031 -0.23047,-5.199219 z m 0,0"
      id="path7" />
    <path style="fill:#e6ccab;fill-opacity:1;fill-rule:nonzero;stroke:none"
      d="m 149.48828,233.88672 -4.07812,0.48047 -2.63672,0.1289 -0.3125,0.008 2.46093,-5.55469 z m 2.96094,3.01953 c 4.22656,4.1875 9.46875,6.58594 15.23437,7.01172 -9.6875,3.9375 -18.8164,5.45312 -25.85156,5.92578 -7.01172,0.47266 -14.12109,-0.35547 -21.08594,-2.26563 0.50782,-0.0937 1.01563,-0.17578 1.52735,-0.24218 0.57031,-0.0664 13.0625,-1.69922 18.69531,-10.07032 h 1.91016 c 0.93359,0 1.78515,-0.0781 2.67968,-0.10937 2.09766,-0.18359 4.17969,-0.48438 6.2461,-0.90234 l 0.64453,0.64062 z m 0,0"
      id="path8" />
    <path style="fill:#636b66;fill-opacity:1;fill-rule:nonzero;stroke:none"
      d="m 164.43359,111.53125 -1.33984,1.71875 c -2.47656,3.12891 -5.90625,7.12891 -9.97656,11.04297 l -14.59766,-0.22656 c -8.26953,0 -16.19922,0.21875 -23.72656,0.58593 10.62109,-4.41796 23.41797,-8.72656 37.24609,-11.32031 4.04297,-0.76562 8.19141,-1.375 12.38281,-1.80078 z m -62.26562,4.76563 c -3.79297,2.66796 -8.085939,6.07031 -12.242189,10.19921 -10.648437,1.06641 -19.941406,2.35938 -27.605469,3.58594 11.785157,-5.41797 25.230469,-10.40234 39.847658,-13.80078 z m 130.125,21.98828 -4.33203,30.30859 -20.75,14.53516 -54.1211,-6.15235 -8.14843,-26.83203 c -0.19141,-0.63672 -0.74219,-1.13281 -1.41797,-1.23828 -2.00391,-0.32422 -3.78125,-0.49219 -5.25782,-0.49219 -1.47656,0 -3.25,0.16797 -5.26562,0.49219 -0.66797,0.10937 -1.21875,0.58594 -1.41797,1.23828 l -7.93359,26.17969 -53.820315,11.97656 -21.339844,-14.94531 -4.203125,-34.01172 2.785156,-1.53516 4.445313,-0.90234 L 55.476562,169 c 0.06641,0.5 0.335938,0.94922 0.75,1.23828 l 14.671876,10.28125 c 0.304687,0.20313 0.660156,0.3125 1.019531,0.3125 0.125,0 0.253906,-0.0117 0.390625,-0.043 l 44.249996,-9.84375 c 0.15235,-0.0352 0.30079,-0.0859 0.44141,-0.16015 0.41797,-0.21875 0.73438,-0.60157 0.87109,-1.0586 l 7.96875,-26.23437 c 2.13672,-0.55078 7.61328,-1.83203 12.42188,-1.83203 4.80078,0 10.28125,1.28125 12.41797,1.83203 l 7.96875,26.23437 c 0.20312,0.6836 0.79687,1.16797 1.5039,1.25 l 44.25,5.02735 c 0.42969,0.0469 0.86719,-0.0625 1.21875,-0.3086 l 14.67969,-10.27344 c 0.39844,-0.28906 0.66016,-0.72265 0.73438,-1.21093 l 3.91796,-27.41797 7.33985,1.5 z m 5.46875,-19.00782 -3.8125,14.46094 c -7.78906,-1.71484 -24.90235,-5.08594 -48.19531,-7.35547 7.60937,-3.24609 15.35937,-7.3164 22.4375,-12.41406 13.86328,1.95703 24.03906,4.05469 29.57031,5.30859 z m 0,0"
      id="path9" />
    <path style="fill:#e3caa1;fill-opacity:1;fill-rule:nonzero;stroke:none"
      d="m 81.714844,164.48437 c 3.015625,-1.6289 6.425781,-1.38671 11.777344,-1.38281 l 1.789062,-0.004 1.613281,-0.0312 c 5.496099,-0.0508 10.074219,0.46875 9.992189,-8.16407 -0.082,-8.63672 -3.92188,-15.61328 -9.414064,-15.55859 -5.5,0.0469 -10.820312,7.12109 -10.492187,15.75 0.08984,2.25 0.417969,3.87109 0.949219,5.03906 -4.792969,1.20313 -6.113282,4.16797 -6.1875,4.35156 z m 66.121096,-35.51953 c -2.13282,1.72657 -4.37891,3.32813 -6.71875,4.75 l -7.80469,4.71094 c -4.89453,0.59766 -9.14453,1.80859 -9.38281,1.87891 -0.14453,0.0391 -0.28125,0.10156 -0.40625,0.17968 -0.37891,0.21875 -0.66406,0.58204 -0.80469,1.01563 l -7.94922,26.1875 -42.476561,9.44922 -13.378907,-9.3711 -3.890624,-31.53125 c 7.597656,-1.41015 17.757812,-3.01171 29.949218,-4.3789 -1.308594,1.57031 -2.578125,3.21094 -3.78125,4.93359 l -7.265625,10.4336 10.578125,-7.05079 c 0.160156,-0.11328 6.898438,-4.54687 17.917974,-9.93359 10.98437,-0.82422 23.10937,-1.35937 36.08203,-1.35937 l 9.3164,0.0898 z m 0,0"
      id="path10" />
    <path style="fill:#e3caa1;fill-opacity:1;fill-rule:nonzero;stroke:none"
      d="m 194.34766,160.94531 c -0.0508,-0.20312 -1.20704,-3.67578 -6.32422,-3.0664 0.58984,-1.28516 0.85156,-3.01563 0.66406,-5.37891 -0.67578,-8.61328 -5.6875,-15.46094 -11.17969,-15.26953 -5.49219,0.1914 -9.01562,7.33594 -8.71094,15.97265 0.30079,8.62891 4.91407,8.56641 10.41016,8.375 7.38672,-0.13671 11.44141,-2.40625 15.14063,-0.61718 z m 27.11328,-24.8125 -3.83203,26.8086 -13.49219,9.44531 -42.41797,-4.82031 -7.91406,-26.0625 c -0.17969,-0.57813 -0.63282,-1.02344 -1.21094,-1.19532 -0.26172,-0.0781 -5.51172,-1.57422 -11.08203,-2.05859 l 1.01562,-0.0664 c 0.87891,-0.0664 15.51172,-1.85547 32.98047,-7.88281 19.34766,1.48438 35.14844,3.86719 45.94922,5.83203 z m 0,0"
      id="path11" />
    <path style="fill:#c7b399;fill-opacity:1;fill-rule:nonzero;stroke:none"
      d="m 81.714844,164.48437 c 3.015625,-1.6289 6.425781,-1.38671 11.777344,-1.38281 l 1.789062,-0.004 1.613281,-0.0312 c 5.496099,-0.0508 10.074219,0.46875 9.992189,-8.16407 -0.082,-8.63672 -3.92188,-15.61328 -9.414064,-15.55859 -5.5,0.0469 -10.820312,7.12109 -10.492187,15.75 0.08984,2.25 0.417969,3.87109 0.949219,5.03906 -4.792969,1.20313 -6.113282,4.16797 -6.1875,4.35156 z m 66.121096,-35.51953 c -2.13282,1.72657 -4.37891,3.32813 -6.71875,4.75 l -7.80469,4.71094 c -4.89453,0.59766 -9.14453,1.80859 -9.38281,1.87891 -0.14453,0.0391 -0.28125,0.10156 -0.40625,0.17968 -0.37891,0.21875 -0.66406,0.58204 -0.80469,1.01563 l -7.94922,26.1875 -42.476561,9.44922 -13.378907,-9.3711 -3.890624,-31.53125 c 7.597656,-1.41015 17.757812,-3.01171 29.949218,-4.3789 -1.308594,1.57031 -2.578125,3.21094 -3.78125,4.93359 l -7.265625,10.4336 10.578125,-7.05079 c 0.160156,-0.11328 6.898438,-4.54687 17.917974,-9.93359 10.98437,-0.82422 23.10937,-1.35937 36.08203,-1.35937 l 9.3164,0.0898 z m 0,0"
      id="path12" />
    <path style="fill:#c7b399;fill-opacity:1;fill-rule:nonzero;stroke:none"
      d="m 194.34766,160.94531 c -0.0508,-0.20312 -1.20704,-3.67578 -6.32422,-3.0664 0.58984,-1.28516 0.85156,-3.01563 0.66406,-5.37891 -0.67578,-8.61328 -5.6875,-15.46094 -11.17969,-15.26953 -5.49219,0.1914 -9.01562,7.33594 -8.71094,15.97265 0.30079,8.62891 4.91407,8.56641 10.41016,8.375 7.38672,-0.13671 11.44141,-2.40625 15.14063,-0.61718 z m 27.11328,-24.8125 -3.83203,26.8086 -13.49219,9.44531 -42.41797,-4.82031 -7.91406,-26.0625 c -0.17969,-0.57813 -0.63282,-1.02344 -1.21094,-1.19532 -0.26172,-0.0781 -5.51172,-1.57422 -11.08203,-2.05859 l 1.01562,-0.0664 c 0.87891,-0.0664 15.51172,-1.85547 32.98047,-7.88281 19.34766,1.48438 35.14844,3.86719 45.94922,5.83203 z m 0,0"
      id="path13" />
    <path style="fill:#e6ccab;fill-opacity:1;fill-rule:nonzero;stroke:none"
      d="m 239.97266,147.92578 c 0.65234,0.53516 1.15234,1.92188 0.58593,8.39453 -0.71875,7.91797 -4.04687,21.82422 -6.10547,24.0625 -2.27734,0.44141 -7.04687,-0.082 -9.95703,-0.76172 0.50391,-1.99609 0.64844,-2.95312 1.05078,-4.99218 l 5.08985,-3.5586 c 0.40234,-0.28125 0.67187,-0.71875 0.74219,-1.20312 l 3.55468,-24.91797 c 2.16016,1.16797 4.37891,2.43359 5.04297,2.97656 z m -187.574222,32.51953 0.800781,2.6875 c -2.742188,0.80469 -8.316407,1.57422 -10.835938,1.13281 -2.089843,-2.10546 -5.992187,-16.59765 -6.84375,-24.29296 -0.691406,-6.23047 -0.207031,-7.58204 0.429688,-8.10547 0.734375,-0.61719 3.488281,-2.1875 5.878906,-3.46485 l 3.222656,26.17578 c 0.0625,0.50391 0.332031,0.94532 0.75,1.23829 l 6.601563,4.6289 z m 102.914062,0.36328 -0.19141,1.67188 c 0,0 -5.86328,5.4375 -15.30468,6.65625 -9.44141,1.21875 -16.85938,-4.58594 -16.85938,-4.58594 0.3125,1.00781 0.75,3.28516 2.89063,5.23047 -2.51563,-0.30078 -5.23438,-0.50391 -8.08203,-0.50391 -1.02735,0.004 -2.05079,0.0273 -3.07422,0.0781 -5.8125,0.30469 -13.98047,9.08984 -19.730472,17.9375 L 73.125,213.99609 C 63.601562,200.8125 58.917969,187.32031 58.445312,185.92578 l 0.0039,-0.008 -0.5625,-1.625 2.449219,1.71484 v 0.004 l 6.046874,4.22656 2.023438,1.40625 c 0.304688,0.21484 0.660156,0.32422 1.015625,0.32422 0.132813,0 0.261719,-0.0117 0.390625,-0.0391 l 55.597657,-12.37891 c 0.625,-0.13672 1.125,-0.60547 1.3125,-1.21484 l 7.92968,-26.11328 c 1.36719,-0.1836 2.57032,-0.28125 3.60157,-0.28125 1.03125,0 2.23437,0.0977 3.60156,0.28125 l 8.16015,26.8789 c 0.20704,0.67969 0.79688,1.17578 1.4961,1.25 l 3.80078,0.4336 z m 63.47266,-1.4414 1.79687,-1.26172 -0.95703,3.70703 c -2.49609,8 -5.44141,15.07031 -8.71094,21.32031 -0.76562,0.0547 -1.53515,0.0781 -2.30469,0.0781 -2.52343,0 -5.10156,-0.21485 -7.95312,-0.47266 l -15.29297,-1.64453 -15.53906,-12.30469 -0.64453,-0.53906 c -1.07032,-0.90625 -2.30469,-1.9375 -4.75782,-1.9375 -2.24218,0 -5.51562,0.81641 -13.4414,3.21094 4.11328,-3.07032 4.14062,-7.03907 4.14062,-7.03907 l 0.19141,-1.67187 52.15625,5.92969 c 0.42969,0.0469 0.86719,-0.0625 1.22266,-0.3086 l 10.07812,-7.0664 z m 0,0"
      id="path14" />
    <path style="fill:#ebd499;fill-opacity:1;fill-rule:nonzero;stroke:none"
      d="m 180.39844,69.632812 c 0.16015,4.640626 0.043,13.046876 -2.11719,20.921876 -0.0859,0.304687 -0.0742,0.613281 0,0.902343 l -8.25,-0.769531 c 3.08594,-6.46875 3.75781,-13.359375 3.90625,-15.785156 2.37109,-1.683594 4.73047,-3.707032 6.46484,-5.28125 z m -78.69531,5.28125 c 0.14453,2.425782 0.82031,9.300782 3.90234,15.765626 l -8.246095,0.761718 c 0.07422,-0.28125 0.08594,-0.585937 0,-0.886718 -2.15625,-7.859376 -2.265625,-16.273438 -2.117187,-20.921876 1.734374,1.574219 4.097656,3.582032 6.464842,5.28125 z m 0,0"
      id="path15" />
    <path style="fill:#2b3035;fill-opacity:1;fill-rule:nonzero;stroke:none"
      d="m 194.34766,160.94531 c -3.71094,-1.78515 -7.75391,0.48438 -15.14063,0.6211 -5.49219,0.1914 -10.10547,0.2539 -10.40625,-8.375 -0.30469,-8.63672 3.21484,-15.77735 8.71094,-15.97266 5.49219,-0.19531 10.5039,6.65625 11.17969,15.26953 0.18359,2.375 -0.0781,4.10547 -0.66407,5.375 5.11328,-0.60937 6.26953,2.86328 6.32032,3.07031 z m -17.26172,-12.64453 c 1.54687,-0.0352 2.78125,-1.3125 2.7539,-2.85937 -0.0273,-1.54688 -1.30468,-2.78907 -2.85937,-2.75782 -0.7461,0.0156 -1.45313,0.32422 -1.97266,0.85938 -0.51562,0.53515 -0.79687,1.25781 -0.78125,2 0.0234,1.54687 1.30469,2.78906 2.85938,2.75781 z m 0,0"
      id="path16" />
    <path style="fill:#ebf5fa;fill-opacity:1;fill-rule:nonzero;stroke:none"
      d="m 179.83984,145.42969 c 0.0273,1.55078 -1.20703,2.83203 -2.75781,2.85937 -1.55078,0.0312 -2.83203,-1.20312 -2.85937,-2.7539 -0.0273,-1.55079 1.20703,-2.83204 2.75781,-2.85938 1.55078,-0.0312 2.83203,1.20313 2.85937,2.75391 z m 0,0"
      id="path17" />
    <path style="fill:#2b3035;fill-opacity:1;fill-rule:nonzero;stroke:none"
      d="m 106.85938,154.90234 c 0.082,8.63672 -4.49219,8.11328 -9.992192,8.16407 l -1.609376,0.0312 c -0.59375,0.0156 -1.1875,0.0156 -1.78125,0.004 -5.332031,-0.004 -8.746093,-0.24609 -11.773437,1.38281 0.07422,-0.18359 1.40625,-3.14843 6.1875,-4.35156 -0.53125,-1.16797 -0.859375,-2.78906 -0.949219,-5.03906 -0.328125,-8.62891 4.992188,-15.70703 10.492188,-15.75 5.499996,-0.0469 9.332036,6.92187 9.414066,15.55859 z m -8.492192,-4.51953 c 1.550781,-0.0391 2.773442,-1.33594 2.730472,-2.8789 -0.043,-1.55469 -1.332035,-2.77735 -2.87891,-2.73438 -1.554688,0.0352 -2.78125,1.32813 -2.738281,2.87891 0.03906,1.55468 1.332031,2.77734 2.886719,2.73437 z m 0,0"
      id="path18" />
    <path style="fill:#ebf5fa;fill-opacity:1;fill-rule:nonzero;stroke:none"
      d="m 101.10156,147.50781 c 0.043,1.55078 -1.183591,2.83985 -2.734372,2.88281 -1.550782,0.0391 -2.839844,-1.1875 -2.882813,-2.73828 -0.03906,-1.55078 1.1875,-2.83984 2.738281,-2.8789 1.550782,-0.043 2.839844,1.18359 2.878904,2.73437 z m 0,0"
      id="path19" />
    <use xlink:href="#surface5" mask="url(#mask0)" id="use19" />
    <use xlink:href="#surface8" mask="url(#mask1)" id="use20" />
    <path style="fill:#2b3035;fill-opacity:1;fill-rule:nonzero;stroke:none"
      d="m 215.02344,98.386719 c 3.52734,1.152343 7.07422,2.378911 10.28515,4.253911 -1.71875,-0.67969 -3.49218,-1.16797 -5.28125,-1.60938 l -5.375,-1.179688 -10.8789,-1.699218 -10.9375,-1.183594 -10.97266,-0.832031 c -14.65234,-0.902344 -29.34375,-1.125 -44.03125,-1.140625 -14.69922,0.0078 -29.39453,0.28125 -44.035155,1.148437 -3.660156,0.210938 -7.3125,0.511719 -10.96875,0.832031 -3.65625,0.304688 -7.304687,0.699219 -10.941406,1.179688 -3.644531,0.441406 -7.265625,1.019531 -10.875,1.699219 -1.808594,0.339841 -3.601563,0.730471 -5.386719,1.175781 -1.789062,0.44141 -3.5625,0.92969 -5.28125,1.60938 3.203125,-1.875 6.757812,-3.105474 10.292969,-4.261724 0.296875,-0.09766 0.597656,-0.179687 0.898437,-0.273437 -0.01953,-0.07813 -0.03906,-0.144531 -0.05469,-0.226563 -0.0625,-0.40625 -1.367188,-10.0625 0.898437,-23.867187 0.109375,-0.660157 0.582032,-1.195313 1.230469,-1.375 l 3.734375,-1.0625 c 0.808594,-28.960938 12.738281,-42.582031 13.109375,-43 -10.65625,17.148437 -10.558594,37.484375 -10.375,42.222656 L 93.28125,64.199219 c 0.01953,-0.0039 0.03516,-0.0039 0.05469,-0.01172 0.09766,-0.01953 0.191406,-0.03516 0.289062,-0.03906 0.02344,0 0.0625,-0.0078 0.09375,-0.0078 0.128906,-0.0039 0.257812,0.0078 0.382812,0.03516 0.01953,0 0.03906,0.01172 0.06641,0.01953 0.09766,0.01953 0.1875,0.05469 0.285156,0.09375 0.04297,0.02344 0.07031,0.04297 0.113281,0.06641 0.07813,0.04297 0.152344,0.08984 0.226563,0.140625 0.01953,0.01563 0.04297,0.02344 0.0625,0.04297 0.01172,0.01563 0.02734,0.02734 0.04297,0.04297 0.01953,0.01953 0.04687,0.03516 0.06641,0.05469 0.53125,0.523437 1.070312,1.042969 1.617187,1.550781 -0.234375,-7.648438 0.128907,-29.578125 10.574219,-47.746094 -0.21875,0.636719 -8.507812,24.867188 -5.65234,52.027344 0.92187,0.742188 1.875,1.445312 2.85547,2.109375 0.46093,0.316406 0.73828,0.835937 0.74609,1.394531 0.008,0.08984 0.20703,8.746094 4.03125,16.109375 0.0547,0.113281 0.0937,0.226563 0.12891,0.34375 9.51171,-0.644531 19.04687,-0.894531 28.56249,-0.914062 9.51563,0.0078 19.04297,0.28125 28.55079,0.933593 0.0352,-0.125 0.082,-0.246093 0.14062,-0.363281 3.82422,-7.363281 4.02344,-16.019531 4.02344,-16.109375 0.0117,-0.558594 0.29297,-1.078125 0.76562,-1.410156 0.97657,-0.667969 1.92578,-1.371094 2.84766,-2.109375 2.85937,-27.160156 -5.42578,-51.390625 -5.63281,-52.027344 10.4375,18.175781 10.80859,40.109375 10.57812,47.746094 l 1.61328,-1.539063 c 0.0195,-0.01953 0.0508,-0.03125 0.0664,-0.05469 0.0156,-0.01172 0.0234,-0.02344 0.043,-0.03906 0.0195,-0.01562 0.043,-0.03125 0.0625,-0.04297 0.0781,-0.05469 0.15234,-0.101563 0.22656,-0.152344 0.0352,-0.01172 0.0703,-0.03516 0.10156,-0.05469 0.0977,-0.04297 0.19922,-0.07422 0.30469,-0.101562 0.0195,0 0.0391,-0.01172 0.0625,-0.01172 0.125,-0.03125 0.25,-0.04297 0.37891,-0.03516 0.0352,0 0.0625,0.0078 0.0898,0.0078 0.0977,0.0039 0.19531,0.01953 0.29297,0.03906 0.0156,0.0078 0.0352,0.0078 0.0547,0.01172 l 23.20703,6.597656 c 0.1875,-4.738281 0.28125,-25.089844 -10.375,-42.222656 0.38672,0.417969 12.28906,14.039062 13.10547,43 l 3.73828,1.0625 c 0.64453,0.183593 1.12109,0.71875 1.23437,1.375 2.27344,13.804687 0.96094,23.460937 0.90625,23.867187 -0.0156,0.07813 -0.0312,0.15625 -0.0547,0.230469 l 0.90234,0.277344 z m -4.21875,-1.238281 c 0.17578,-1.546876 1.02343,-9.984376 -0.76953,-21.503907 l -26.25391,-7.464843 c 0.23828,4.445312 0.33984,14.09375 -2.18359,23.292968 -0.0352,0.113282 -0.0781,0.226563 -0.12891,0.332032 0.25781,0.02344 0.52344,0.04687 0.77344,0.08203 7.38672,0.84375 14.72265,2.027343 22.01953,3.621093 2.1914,0.511719 4.38281,1.054688 6.55859,1.644532 z m -32.51172,-6.59375 c 2.16015,-7.871094 2.27734,-16.28125 2.11719,-20.921876 -1.73047,1.574219 -4.09375,3.585938 -6.46485,5.28125 -0.14453,2.425782 -0.82031,9.316407 -3.90625,15.785157 l 8.25,0.765625 c -0.0781,-0.292969 -0.0781,-0.605469 0,-0.898438 z m -72.67969,0.125 c -3.08203,-6.464844 -3.75781,-13.339844 -3.89844,-15.765626 -2.378902,-1.683593 -4.730465,-3.707031 -6.46484,-5.28125 -0.152344,4.648438 -0.04297,13.066407 2.117188,20.921876 0.08203,0.304687 0.07422,0.605468 0,0.890624 l 8.242192,-0.765624 z m -11.433592,1.105468 c -0.05078,-0.101562 -0.09375,-0.207031 -0.125,-0.316406 C 91.523438,82.269531 91.621094,72.625 91.863281,68.175781 L 65.59375,75.640625 c -1.769531,11.496094 -0.945312,19.945313 -0.765625,21.5 2.179687,-0.589844 4.351563,-1.136719 6.566406,-1.644531 3.628907,-0.804688 7.285157,-1.476563 10.953125,-2.097656 3.671875,-0.609376 7.355469,-1.078126 11.039063,-1.523438 0.261719,-0.03516 0.519531,-0.05469 0.777343,-0.08984 z M 165.50781,24.367188 V 46.160156 H 150.0625 v -6.367187 h -3.48438 v 29.414062 h 5.25 V 85.65625 H 124.82031 V 69.207031 h 5.23828 V 39.792969 h -3.45703 v 6.367187 h -15.4375 V 24.367188 h 54.35938 z M 160.86719,41.53125 V 28.988281 H 115.76563 V 41.53125 h 6.16406 v -6.367188 h 12.7539 v 38.6875 h -5.24609 v 7.175782 h 17.74609 v -7.175782 h -5.24609 v -38.6875 h 12.75391 v 6.367188 z m 0,0"
      id="path20" />
    <path style="fill:#ca3347;fill-opacity:1;fill-rule:nonzero;stroke:none"
      d="M 115.76563,41.527344 V 28.984375 h 45.08984 v 12.542969 h -6.16797 v -6.367188 h -12.75391 v 38.6875 h 5.25 v 7.175782 H 129.4375 v -7.175782 h 5.24609 V 35.164062 h -12.75 v 6.367188 z m 0,0"
      id="path21" />
    <path style="fill:#636b66;fill-opacity:1;fill-rule:nonzero;stroke:none"
      d="m 39.289062,119.27734 9.023438,-1.88281 -7.964844,5.88281 -1.0625,-4 z m 0,0" id="path22" />
    <path style="fill:#c7b399;fill-opacity:1;fill-rule:nonzero;stroke:none"
      d="m 121.72656,179 c 0,0 0.63282,4.05078 -5.03906,5.78516 -5.67187,1.73437 -41.578125,12.4375 -45.671875,11.85546 C 66.917969,196.0625 56.523438,189.125 56.523438,189.125 l -2.519532,-8.96484 15.378906,9.58984 z m 32.17188,-0.78516 c 0,0 -0.45313,4.07422 5.28515,5.5625 5.73828,1.48828 42.07813,10.61719 46.14453,9.85938 4.0625,-0.75391 14.14844,-8.14063 14.14844,-8.14063 l 2.12891,-9.0664 -14.14063,8.43359 -53.57031,-6.64453 z m 0,0"
      id="path23" />
    <path style="fill:#c7b399;fill-opacity:1;fill-rule:nonzero;stroke:none"
      d="m 36.367188,171.54687 c 0,0 4.976562,9.94922 13.011718,6.50391 l 5.742188,2.10547 -0.574219,4.22656 -12.058594,1.52735 -3.25,-1.91016 -2.871093,-12.44141 z M 240.0625,168.8125 c 0,0 -8.12891,10.38672 -16.16797,6.94531 l -2.58594,1.66406 0.57422,4.22657 12.0586,1.53125 3.25,-1.91407 2.87109,-12.4375 z M 114.27734,247 c 0,0 29.48047,14.84766 62.85547,-5.36328 l -10.71875,-0.72656 c 0,0 -23.38672,9.2539 -41.90234,4.14062 z m 0,0"
      id="path24" />
    <path style="fill:#2b3035;fill-opacity:1;fill-rule:nonzero;stroke:none"
      d="m 144.16016,219.61328 2.04296,2.43359 c 0.043,0.0586 4.57813,5.45313 10.11719,10.94532 3.6875,3.65234 8.13672,5.5 13.23828,5.5 1.74219,0 3.57422,-0.22266 5.42188,-0.66797 l 5.48828,-1.32031 18.48047,-4.57813 c 0.75,-0.21094 1.58594,-0.40234 2.46484,-0.60156 5.03516,-1.16797 11.94141,-2.76953 15.59766,-10.10156 l 9.21484,-17.86719 c -2.38672,1.10156 -4.88672,2.30469 -6.66015,3.22656 -2.73829,1.4375 -6.32032,2.13281 -10.95704,2.13281 -2.7539,0 -5.46093,-0.23047 -8.45312,-0.5 -5.98438,-0.55078 -16.10938,-1.74218 -16.21484,-1.75781 l -0.77344,-0.0859 -0.61328,-0.48828 c -0.0898,-0.0664 -8.96485,-7.13672 -16.13672,-12.77344 l -0.79297,-0.65625 c -0.76563,-0.64453 -0.76563,-0.64453 -1.20703,-0.64453 -2.29688,0 -8.98438,2.07422 -23.62891,6.61328 l -0.90234,0.28516 -0.88281,-0.33203 c -0.0977,-0.0352 -9.70704,-3.58594 -21.22266,-3.58594 -0.92969,0 -1.86328,0.0234 -2.79687,0.0742 -1.14844,0.0586 -7.625,3.13281 -15.902349,16.23047 l -0.539062,0.83984 -0.945313,0.30469 c -0.136718,0.0469 -14.386718,4.64453 -29.492187,8.96484 L 67.125,221.48439 66.195312,221.0508 c -0.09766,-0.0391 -6.011718,-2.78125 -11.636718,-5.36719 3.070312,4.53125 6.992187,10.1875 10.445312,14.6211 6.03125,7.76562 13.632813,14.9414 28.203125,14.9414 1.925781,-0.004 3.851563,-0.11718 5.765625,-0.33984 14.820314,-1.67578 18.640624,-2.35156 20.695314,-2.70703 0.69531,-0.1211 1.24609,-0.21875 1.94922,-0.30469 0.10937,-0.0156 12.24609,-1.58594 15.65625,-9.22656 l 4.25,-9.78906 1.23828,-3.3086 c 0,0 0.15234,-0.85547 0.40625,-1.12109 l 0.0312,0.0234 c 0.38672,0.28125 0.96875,1.15625 0.96875,1.15625 z M 51.839844,71.378906 c -3.21875,1.296875 -6.421875,2.636719 -9.546875,4.109375 -3.136719,1.433594 -6.21875,2.96875 -9.160157,4.683594 -2.714843,1.5625 -5.320312,3.28125 -7.621093,5.21875 -0.09766,0.582031 -0.191407,1.214844 -0.269531,1.820313 l -0.265626,2.570312 c -0.152343,1.722656 -0.210937,3.460938 -0.230468,5.199219 -0.03125,3.472656 0.203125,6.945311 0.644531,10.382811 0.472656,3.44531 1.105469,6.875 2.039063,10.17969 0.464843,1.65625 0.980468,3.29297 1.589843,4.86719 0.300781,0.79687 0.628907,1.57422 0.976563,2.32812 0.167968,0.3711 0.34375,0.73828 0.527344,1.10547 l 0.222656,0.41797 c 0.253906,0.13281 0.511718,0.25781 0.773437,0.38281 l 1.542969,0.73438 3.027344,1.39843 c 0.05859,-0.0469 0.113281,-0.0977 0.160156,-0.14453 l -2.855469,-10.89453 c 0.601563,-0.16406 6.039063,-1.57031 15.402344,-3.35156 -0.769531,-0.14063 -1.523437,-0.30469 -2.273437,-0.48828 -2.125,-0.52735 -4.234376,-1.17578 -6.269532,-2 -1.007812,-0.42969 -2.007812,-0.89453 -2.957031,-1.4336 -0.945313,-0.53515 -1.878906,-1.15625 -2.605469,-1.98046 10.285156,3.37109 31.535156,1.84765 50.429688,-0.0977 17.277346,-1.78516 34.593746,-2.9375 52.003906,-2.97656 17.40625,0.0391 34.73437,1.1914 52.00391,2.97656 18.90625,1.94531 40.16015,3.47266 50.4414,0.11328 -0.72265,0.82031 -1.65625,1.43359 -2.60547,1.98047 -0.94531,0.54297 -1.94531,1 -2.95703,1.43359 -2.03906,0.82032 -4.14062,1.46875 -6.27344,2 l -0.94921,0.21094 c 10.26562,1.90234 16.24609,3.45313 16.8789,3.625 l -2.73437,10.37891 1.64843,-0.73828 1.54297,-0.73438 0.77735,-0.38281 0.21093,-0.41797 c 0.1875,-0.36328 0.36719,-0.73047 0.53516,-1.10547 0.34766,-0.75391 0.67578,-1.53125 0.98438,-2.32812 0.60546,-1.59375 1.13281,-3.21875 1.58203,-4.86719 0.93359,-3.30469 1.57031,-6.73438 2.03906,-10.17969 0.44531,-3.4375 0.67578,-6.910156 0.64453,-10.382812 -0.0117,-1.734376 -0.0781,-3.472657 -0.22656,-5.195313 -0.0703,-0.863281 -0.16406,-1.714844 -0.27344,-2.574219 -0.0742,-0.609375 -0.16406,-1.214844 -0.26953,-1.820312 -2.30078,-1.9375 -4.90234,-3.652344 -7.62109,-5.21875 -2.94532,-1.714844 -6.02344,-3.25 -9.16797,-4.683594 -3.11719,-1.472656 -6.32422,-2.808594 -9.54688,-4.109375 L 218.92578,69.5 214.01562,67.679688 c 3.45313,0.570312 6.875,1.355468 10.25782,2.226562 2.20703,0.578125 4.40234,1.207031 6.57812,1.898438 C 215.36328,31.28125 178.28516,4.894531 137.81641,4.894531 c -40.476566,0 -77.539066,26.386719 -93.03516,66.910157 2.179688,-0.683594 4.371094,-1.328126 6.574219,-1.894532 3.390625,-0.871094 6.808593,-1.65625 10.265625,-2.230468 l -4.917969,1.824218 c -1.632813,0.605469 -3.253906,1.234375 -4.863281,1.886719 z M 255.91016,94.824219 c 0.1875,3.726562 0.0859,7.464841 -0.32813,11.175781 -0.39062,3.70313 -1.09375,7.375 -2.07422,11.01563 -0.51172,1.82031 -1.11328,3.61328 -1.79687,5.37109 -0.35157,0.89062 -0.73047,1.77344 -1.15235,2.65234 -0.21093,0.44141 -0.43359,0.88282 -0.67187,1.3125 l -0.36328,0.65235 c -0.13282,0.23828 -0.23828,0.41797 -0.44532,0.73437 l -0.375,0.58594 -0.58984,0.30469 c -0.56641,0.28906 -1.13672,0.57031 -1.71875,0.83593 l -1.66016,0.75 c -1.10937,0.46875 -2.22656,0.92578 -3.35156,1.36328 l -2.1289,0.85938 -1.84766,7.02344 -1.64453,-0.40235 -0.0977,0.73438 c 2.03906,1.0664 6.04688,3.23047 7.41406,4.35547 2.75,2.27343 2.94532,5.87109 2.33204,12.59765 -0.3125,3.44922 -1.45704,10.16797 -3.04297,16.33985 -2.7461,10.62109 -4.20313,11.87109 -6.08594,12.35156 -1.25781,0.31641 -2.55078,0.48047 -3.85156,0.49219 -2.89844,0 -6.85157,0.0781 -9.50782,-0.5625 -0.68359,2.41406 -2.63281,8.71875 -6.48828,16.58984 0.19141,-0.0937 0.38282,-0.17187 0.5586,-0.26562 4.75781,-2.4961 13.89843,-6.48047 14.28515,-6.65625 l 7.22266,-3.13672 -3.71094,6.95703 c -0.0859,0.14844 -8.01953,15.0664 -12.875,24.80859 -4.82812,9.64844 -13.87109,11.75 -19.28515,12.99219 l -2.21875,0.54297 c -3.88282,1.09375 -11.75,2.97265 -18.6875,4.64062 -0.082,0.0195 -0.16797,0.0391 -0.25,0.0508 -4.26954,2.63672 -8.92969,4.99219 -14.02344,6.92579 -18.64844,7.0625 -38.30078,6.66796 -56.12109,0.11718 l -11.76563,1.40625 c -2.121094,0.24219 -4.25,0.36328 -6.382812,0.3711 -16.976563,0 -25.976563,-8.6211 -32.542969,-17.0625 -7.03125,-9.03907 -15.632813,-22.45703 -15.996094,-23.01953 l -4.960937,-7.76172 8.429687,3.78906 19.460937,8.96094 0.824219,-0.23828 C 62.6875,207.24219 58.007812,197.96484 54.703125,187.6875 c -2.808594,0.84766 -7.136719,1.50391 -10.503906,1.50391 -1.226563,0 -2.332031,-0.0937 -3.179688,-0.29297 -1.882812,-0.42969 -4.027343,-2.2461 -6.949219,-12.53907 -1.695312,-5.97265 -2.960937,-12.49609 -3.332031,-15.85546 -0.730469,-6.55079 -0.597656,-10.0625 2.128907,-12.33204 1.640624,-1.37109 7.179687,-4.28125 8.328124,-4.8789 l -0.246093,-2.01953 C 23.347656,151.61328 12.800781,160.75391 12.585938,160.94141 L 0,171.98828 8.964844,157.84766 C 16.0625,146.64062 24.261719,137.58203 31.800781,130.60547 l -0.894531,-0.37891 -1.664062,-0.74609 c -0.570313,-0.26563 -1.089844,-0.51172 -1.714844,-0.83594 l -0.589844,-0.30469 -0.378906,-0.58593 c -0.210938,-0.32032 -0.304688,-0.4961 -0.441406,-0.73438 l -0.386719,-0.65234 -0.660157,-1.3125 c -0.414062,-0.8711 -0.792968,-1.75391 -1.140624,-2.65235 -0.6875,-1.76171 -1.289063,-3.55468 -1.796876,-5.375 -0.984374,-3.63671 -1.683593,-7.29296 -2.074218,-11.01171 -0.410156,-3.71485 -0.515625,-7.449224 -0.332032,-11.179692 0.09766,-1.863282 0.277344,-3.722657 0.535157,-5.574219 0.132812,-0.925781 0.273437,-1.855469 0.457031,-2.777344 0.1875,-0.953125 0.410156,-1.902344 0.664062,-2.839844 l 0.199219,-0.722656 0.515625,-0.40625 c 2.9375,-2.308594 6.105469,-4.050781 9.324219,-5.59375 C 34.066406,75.6875 36.761719,74.570312 39.5,73.574219 47.109375,52.460938 60.1875,33.742188 77.375,20.695312 95.152344,7.210938 116.05078,0.0820312 137.81641,0.0820312 c 21.76953,0 42.66796,7.1289068 60.4414,20.6171878 17.1875,13.046875 30.26953,31.769531 37.8711,52.871093 2.73046,1.007813 5.42578,2.097657 8.08593,3.355469 3.21875,1.542969 6.39844,3.285157 9.32032,5.59375 l 0.51953,0.402344 0.19922,0.722656 c 0.25781,0.9375 0.48046,1.886719 0.66015,2.84375 0.1836,0.921875 0.33594,1.847657 0.45703,2.777344 0.26172,1.847656 0.44141,3.707031 0.53516,5.570313 z m -15.35157,61.476561 c 0.58203,-6.46484 0.0742,-7.85937 -0.58593,-8.39062 -0.65625,-0.55079 -2.875,-1.80469 -5.03516,-2.98047 l -3.55859,24.91406 c -0.0703,0.48828 -0.33985,0.92187 -0.74219,1.20703 l -5.08985,3.55469 c -0.40234,2.03906 -0.55078,3.0039 -1.04687,4.99609 2.91016,0.67578 7.67969,1.20313 9.95312,0.76172 2.0625,-2.23437 5.39454,-16.125 6.10157,-24.06641 z m -6.60547,-22.58984 3.8086,-14.46485 c -5.52735,-1.25 -15.70313,-3.34765 -29.56641,-5.30859 -7.07812,5.08984 -14.82422,9.16016 -22.4375,12.40234 23.29297,2.26563 40.40625,5.64063 48.19531,7.35547 z m -5.99218,34.86328 4.33203,-30.30469 -7.33203,-1.49609 -3.91797,27.41797 c -0.0742,0.48437 -0.33985,0.92968 -0.73438,1.20703 l -14.6875,10.26953 c -0.35156,0.24609 -0.78125,0.35937 -1.21093,0.3125 l -44.25,-5.03125 c -0.70704,-0.0781 -1.29688,-0.56641 -1.50782,-1.2461 l -7.96875,-26.23828 c -2.13672,-0.55078 -7.61718,-1.83203 -12.41015,-1.83203 -4.82032,0 -10.29297,1.28125 -12.42578,1.83203 l -7.97266,26.23828 c -0.14062,0.45313 -0.45312,0.83204 -0.875,1.05079 -0.13281,0.0742 -0.28516,0.1289 -0.4375,0.16015 l -44.242188,9.86719 c -0.140624,0.0273 -0.257812,0.0391 -0.390624,0.0391 -0.363282,0.004 -0.71875,-0.10937 -1.015626,-0.32031 L 56.238281,170.22266 c -0.410156,-0.28516 -0.683593,-0.73438 -0.75,-1.23829 l -3.957031,-32.09375 -4.453125,0.90235 -2.78125,1.55078 4.195313,34.00781 21.335937,14.94531 53.820315,-11.97265 7.9414,-26.17969 c 0.19532,-0.65234 0.7461,-1.13672 1.42188,-1.24609 2.01172,-0.32422 3.77344,-0.48828 5.26562,-0.48828 1.47657,0 3.2461,0.16406 5.25391,0.48828 0.67578,0.10547 1.22656,0.58984 1.41797,1.24609 l 8.14844,26.82422 54.12109,6.15625 20.75,-14.53906 z m -10.32813,-5.64453 3.82813,-26.8125 c -10.80078,-1.96875 -26.59766,-4.34375 -45.94922,-5.82813 -17.46485,6.02344 -32.09766,7.81641 -32.98047,7.875 l -1.01953,0.0742 c 5.57422,0.48047 10.82422,1.97656 11.08594,2.05469 0.57812,0.17187 1.02734,0.61328 1.20703,1.19531 l 7.91797,26.06641 42.41796,4.82031 z m 2.94531,15.16015 -1.79687,1.26172 -10.07813,7.0625 c -0.35937,0.2461 -0.79296,0.35938 -1.21875,0.3125 l -55.95312,-6.36328 c -0.70313,-0.0781 -1.29297,-0.57031 -1.5,-1.25 l -8.16016,-26.875 c -1.36718,-0.1875 -2.57812,-0.28516 -3.58593,-0.28516 -1.03516,0 -2.23829,0.0937 -3.60547,0.28516 l -7.92578,26.10156 c -0.1836,0.60938 -0.6875,1.07422 -1.3125,1.21094 l -55.609379,12.40234 c -0.128906,0.0273 -0.261719,0.0391 -0.390625,0.0391 -0.359375,0 -0.71875,-0.10547 -1.023437,-0.32422 l -2.019531,-1.40625 -6.050782,-4.23047 v -0.0156 l -2.429687,-1.70703 c 0.171875,0.55078 0.371093,1.08594 0.5625,1.6211 l -0.0078,0.008 c 0.472656,1.39844 5.15625,14.87891 14.679688,28.07031 l 21.832031,-6.69922 c 5.742182,-8.85156 13.921872,-17.63281 19.734372,-17.9375 1.02344,-0.0508 2.05078,-0.0742 3.07422,-0.0781 2.69922,0.008 5.39844,0.17578 8.07812,0.5039 -2.13671,-1.9414 -2.57812,-4.22265 -2.89062,-5.23046 0,0 7.41797,5.80078 16.85937,4.58984 9.44532,-1.21875 15.3086,-6.66016 15.3086,-6.66016 0,0 -0.0234,3.96875 -4.14063,7.04297 7.91016,-2.39453 11.1875,-3.21484 13.42578,-3.21484 2.47266,0 3.69141,1.03515 4.75782,1.94531 0.20312,0.16797 0.41406,0.34375 0.64843,0.53906 l 15.53907,12.30469 15.28906,1.64453 c 2.85156,0.25391 5.43359,0.47656 7.95703,0.47656 0.81641,0 1.57812,-0.0352 2.30078,-0.082 3.27344,-6.24609 6.21484,-13.32422 8.71484,-21.3164 0.33594,-1.23047 0.65625,-2.46875 0.94922,-3.71094 z m -19.24218,-66.03906 c -0.0117,-0.008 -0.0234,-0.0156 -0.0391,-0.0156 l -12.57812,-0.83203 -17.49219,-0.85157 c -0.65234,0.96094 -1.32422,1.91016 -2.01562,2.84766 -3.17188,4.29297 -9.46875,12.16016 -17.53907,18.85156 11.42579,-2.04687 31.24219,-7.11328 48.38672,-19.07812 l 1.28125,-0.91797 z m -38.24219,1.1875 1.33594,-1.71484 c -4.14844,0.41797 -8.27735,1.01953 -12.375,1.80078 -13.84375,2.58984 -26.625,6.89844 -37.25,11.3125 7.90625,-0.38672 15.8164,-0.58203 23.73047,-0.58203 5.0039,0 9.86718,0.0859 14.59765,0.22265 4.07031,-3.91015 7.50391,-7.91015 9.97656,-11.03906 z m 4.59375,130.66797 c -5.76563,-0.42578 -11.00781,-2.82031 -15.23828,-7.01172 l -0.64063,-0.65234 c -2.0664,0.41406 -4.15234,0.71484 -6.25,0.89843 -0.89062,0.0352 -1.73828,0.11329 -2.67187,0.11329 l -1.38672,0.0117 -0.53125,-0.0117 c -5.625,8.37109 -18.125,10 -18.69141,10.07421 -0.51562,0.0586 -0.9414,0.12891 -1.52343,0.23829 6.96484,1.90625 14.07421,2.73437 21.08593,2.26562 7.02735,-0.47266 16.16016,-1.99609 25.84766,-5.92578 z m -22.27344,-9.54688 c 1.35156,-0.10937 2.71094,-0.28125 4.07422,-0.48437 -1.55078,-1.61719 -3.07422,-3.26563 -4.56641,-4.9375 l -2.45703,5.55469 h 0.3125 c 0.83985,0 1.76172,-0.0898 2.63672,-0.13282 z m -4.29297,-100.65234 c 2.33985,-1.41016 4.58594,-3.02734 6.71875,-4.75 l -9.3125,-0.0937 c -12.04296,0.004 -24.07812,0.45703 -36.08203,1.35938 -11.011716,5.39062 -17.761716,9.82031 -17.917966,9.93359 l -10.585938,7.05859 7.273438,-10.43359 c 1.199218,-1.73047 2.46875,-3.375 3.78125,-4.9375 -12.203125,1.36719 -22.371094,2.98437 -29.949219,4.38281 l 3.886719,31.52735 13.378906,9.37109 42.47656,-9.44531 7.95313,-26.19532 c 0.13281,-0.42968 0.42187,-0.79296 0.80078,-1.01171 0.125,-0.082 0.26172,-0.14063 0.40234,-0.17969 0.2461,-0.0664 4.48047,-1.28125 9.39063,-1.875 l 7.80078,-4.71094 z m 4.88282,-24.04687 -8.87891,-0.0781 -13.04297,0.14063 -8.02734,3.80078 c -0.004,0.008 -0.0508,0.0234 -0.10938,0.0625 -1.20703,0.58594 -11.74609,5.90234 -21.660154,15.38281 8.886724,-4.67187 21.949224,-10.77344 37.316404,-15.50391 4.60547,-1.41406 9.42969,-2.71484 14.39844,-3.80468 z m -56.082035,16.83593 c 4.15625,-4.1289 8.453125,-7.53515 12.242185,-10.19921 -14.609372,3.39062 -28.058591,8.375 -39.843748,13.79687 7.667969,-1.23828 16.953126,-2.53125 27.597657,-3.59766 z m 2.761719,-12.73828 c 4.898437,-1.37109 9.945316,-2.57031 15.121096,-3.57812 l -22.261721,1.03515 -12.882813,0.85157 -6.410156,0.57031 c -0.609375,0.0586 -1.207031,0.125 -1.816406,0.20703 -5.59375,3.34375 -27.039063,16.80859 -41.765625,34.41797 14.3125,-9.94531 39.238281,-24.88672 70.015625,-33.5 z m -39.488282,69.375 c -0.277343,-0.89062 -0.542968,-1.78906 -0.792968,-2.6875 l -6.609375,-4.625 c -0.414063,-0.28906 -0.6875,-0.73828 -0.75,-1.23828 l -3.21875,-26.17578 c -2.386719,1.27734 -5.140625,2.84766 -5.878907,3.46484 -0.636718,0.52344 -1.117187,1.86719 -0.429687,8.10157 0.855469,7.67968 4.75,22.1875 6.847656,24.29687 2.515625,0.44141 8.097657,-0.33203 10.832031,-1.13672 z m -4.882812,-65.73828 -9.023438,1.88281 1.0625,4 c 2.582032,-2.05859 5.238282,-4.02343 7.964844,-5.88281 z m 0,0"
      id="path25" />
  </g>
</svg>