<svg xmlns="http://www.w3.org/2000/svg" xmlns:xlink="http://www.w3.org/1999/xlink" width="256px" height="256px" viewBox="0 0 256 256" version="1.1">
    <title>Ubuntu</title>
<g id="surface1">
<path style=" stroke:none;fill-rule:nonzero;fill:rgb(100%,100%,100%);fill-opacity:1;" d="M 38.398438 0 L 217.601562 0 C 238.808594 0 256 17.191406 256 38.398438 L 256 217.601562 C 256 238.808594 238.808594 256 217.601562 256 L 38.398438 256 C 17.191406 256 0 238.808594 0 217.601562 L 0 38.398438 C 0 17.191406 17.191406 0 38.398438 0 Z M 38.398438 0 "/>
<path style=" stroke:none;fill-rule:nonzero;fill:rgb(90.196078%,36.862745%,9.019608%);fill-opacity:1;" d="M 207.5 128 C 207.5 169.421875 173.921875 203 132.5 203 C 91.078125 203 57.5 169.421875 57.5 128 C 57.5 86.578125 91.078125 53 132.5 53 C 173.921875 53 207.5 86.578125 207.5 128 Z M 207.5 128 "/>
<path style=" stroke:none;fill-rule:nonzero;fill:rgb(100%,100%,100%);fill-opacity:1;" d="M 182 128 C 182 155.339844 159.839844 177.5 132.5 177.5 C 105.160156 177.5 83 155.339844 83 128 C 83 100.660156 105.160156 78.5 132.5 78.5 C 159.839844 78.5 182 100.660156 182 128 Z M 182 128 "/>
<path style=" stroke:none;fill-rule:nonzero;fill:rgb(100%,100%,100%);fill-opacity:1;" d="M 68.5 128.5 C 68.5 141.480469 57.980469 152 45 152 C 32.019531 152 21.5 141.480469 21.5 128.5 C 21.5 115.519531 32.019531 105 45 105 C 57.980469 105 68.5 115.519531 68.5 128.5 Z M 68.5 128.5 "/>
<path style=" stroke:none;fill-rule:nonzero;fill:rgb(100%,100%,100%);fill-opacity:1;" d="M 200 204.5 C 200 217.480469 189.480469 228 176.5 228 C 163.519531 228 153 217.480469 153 204.5 C 153 191.519531 163.519531 181 176.5 181 C 189.480469 181 200 191.519531 200 204.5 Z M 200 204.5 "/>
<path style=" stroke:none;fill-rule:nonzero;fill:rgb(100%,100%,100%);fill-opacity:1;" d="M 200 52 C 200 64.980469 189.480469 75.5 176.5 75.5 C 163.519531 75.5 153 64.980469 153 52 C 153 39.019531 163.519531 28.5 176.5 28.5 C 189.480469 28.5 200 39.019531 200 52 Z M 200 52 "/>
<path style=" stroke:none;fill-rule:nonzero;fill:rgb(90.196078%,36.862745%,9.019608%);fill-opacity:1;" d="M 194.5 52 C 194.5 61.941406 186.441406 70 176.5 70 C 166.558594 70 158.5 61.941406 158.5 52 C 158.5 42.058594 166.558594 34 176.5 34 C 186.441406 34 194.5 42.058594 194.5 52 Z M 194.5 52 "/>
<path style=" stroke:none;fill-rule:nonzero;fill:rgb(90.196078%,36.862745%,9.019608%);fill-opacity:1;" d="M 194.5 204.5 C 194.5 214.441406 186.441406 222.5 176.5 222.5 C 166.558594 222.5 158.5 214.441406 158.5 204.5 C 158.5 194.558594 166.558594 186.5 176.5 186.5 C 186.441406 186.5 194.5 194.558594 194.5 204.5 Z M 194.5 204.5 "/>
<path style=" stroke:none;fill-rule:nonzero;fill:rgb(90.196078%,36.862745%,9.019608%);fill-opacity:1;" d="M 63 128.5 C 63 138.441406 54.941406 146.5 45 146.5 C 35.058594 146.5 27 138.441406 27 128.5 C 27 118.558594 35.058594 110.5 45 110.5 C 54.941406 110.5 63 118.558594 63 128.5 Z M 63 128.5 "/>
<path style=" stroke:none;fill-rule:nonzero;fill:rgb(100%,100%,100%);fill-opacity:1;" d="M 210 133 L 210 123.5 L 180 123.5 L 180 133 Z M 89.5 192.5 L 98 197.5 L 113.5 171 L 105 166.5 Z M 98 58.5 L 89.5 63.5 L 105 89.5 L 113.5 85 Z M 98 58.5 "/>
</g>
</svg>
