<?xml version="1.0" encoding="UTF-8"?>
<svg xmlns="http://www.w3.org/2000/svg" xmlns:xlink="http://www.w3.org/1999/xlink" width="256px" height="256px" viewBox="0 0 256 256" version="1.1">
<rect width="256" height="256" rx="60" fill="#ffff"/>
<g id="surface1">
<path style=" stroke:none;fill-rule:evenodd;fill:rgb(57.254902%,58.039216%,58.823529%);fill-opacity:1;" d="M 159.289062 27.726562 L 190.765625 27.726562 L 190.765625 33.945312 L 203.394531 33.945312 L 203.394531 40.542969 L 209.992188 40.542969 L 209.992188 59.578125 L 184.546875 59.578125 L 184.546875 65.421875 L 197.367188 65.421875 L 197.367188 71.453125 L 203.394531 71.453125 L 203.394531 77.484375 L 209.992188 77.484375 L 209.992188 97.089844 L 203.394531 97.089844 L 203.394531 103.683594 L 197.367188 103.683594 L 197.367188 109.714844 L 152.882812 109.714844 L 152.882812 103.683594 L 146.285156 103.683594 L 146.285156 97.089844 L 140.253906 97.089844 L 140.253906 77.484375 L 158.914062 77.484375 L 158.914062 72.207031 L 146.285156 72.207031 L 146.285156 66.175781 L 140.253906 66.175781 L 140.253906 40.542969 L 146.285156 40.542969 L 146.285156 33.945312 L 158.914062 33.945312 L 158.914062 27.726562 Z M 190.011719 28.667969 L 159.664062 28.667969 L 159.664062 34.699219 L 147.035156 34.699219 L 147.035156 41.296875 L 141.003906 41.296875 L 141.003906 65.421875 L 147.035156 65.421875 L 147.035156 71.453125 L 159.664062 71.453125 L 159.664062 77.484375 L 178.511719 77.484375 L 178.511719 84.269531 L 184.546875 84.269531 L 184.546875 90.867188 L 165.132812 90.867188 L 165.132812 85.023438 L 158.910156 85.023438 L 158.910156 78.238281 L 141.003906 78.238281 L 141.003906 96.335938 L 147.035156 96.335938 L 147.035156 102.742188 L 153.636719 102.742188 L 153.636719 108.964844 L 196.421875 108.964844 L 196.421875 102.742188 L 202.640625 102.742188 L 202.640625 96.335938 L 209.238281 96.335938 L 209.238281 78.238281 L 202.640625 78.238281 L 202.640625 72.207031 L 196.421875 72.207031 L 196.421875 66.175781 L 183.792969 66.175781 L 183.792969 59.578125 L 165.132812 59.578125 L 165.132812 46.761719 L 184.546875 46.761719 L 184.546875 58.824219 L 209.238281 58.824219 L 209.238281 41.296875 L 202.640625 41.296875 L 202.640625 34.699219 L 190.011719 34.699219 Z M 183.792969 58.824219 L 183.792969 47.515625 L 165.886719 47.515625 L 165.886719 58.824219 Z M 159.664062 78.238281 L 159.664062 84.269531 L 165.886719 84.269531 L 165.886719 90.113281 L 183.789062 90.113281 L 183.789062 85.023438 L 177.761719 85.023438 L 177.761719 78.238281 Z M 159.664062 78.238281 "/>
<path style=" stroke:none;fill-rule:evenodd;fill:rgb(55.686275%,56.078431%,56.078431%);fill-opacity:1;" d="M 40.351562 27.726562 L 65.609375 27.726562 L 65.609375 33.945312 L 72.207031 33.945312 L 72.207031 46.761719 L 78.429688 46.761719 L 78.429688 58.824219 L 84.457031 58.824219 L 84.457031 71.453125 L 90.113281 71.453125 L 90.113281 58.824219 L 96.710938 58.824219 L 96.710938 46.761719 L 102.742188 46.761719 L 102.742188 33.945312 L 108.777344 33.945312 L 108.777344 27.726562 L 134.972656 27.726562 L 134.972656 109.71875 L 108.777344 109.71875 L 108.777344 85.027344 L 103.496094 85.027344 L 103.496094 97.089844 L 97.464844 97.089844 L 97.464844 109.71875 L 77.484375 109.71875 L 77.484375 97.089844 L 71.453125 97.089844 L 71.453125 85.027344 L 65.609375 85.027344 L 65.609375 109.71875 L 39.976562 109.71875 L 39.976562 27.726562 Z M 40.351562 27.726562 "/>
<path style=" stroke:none;fill-rule:evenodd;fill:rgb(55.686275%,56.078431%,56.078431%);fill-opacity:1;" d="M 77.484375 147.226562 L 65.609375 147.226562 L 65.609375 190.390625 L 83.703125 190.390625 L 83.703125 178.324219 L 77.484375 178.324219 Z M 134.03125 147.226562 L 128.378906 147.226562 L 128.378906 183.980469 L 134.03125 183.980469 L 134.03125 177.574219 L 140.253906 177.574219 L 140.253906 171.355469 L 152.878906 171.355469 L 152.878906 166.074219 L 146.285156 166.074219 L 146.285156 160.042969 L 140.253906 160.042969 L 140.253906 154.011719 L 134.03125 154.011719 Z M 190.011719 178.324219 L 178.511719 178.324219 L 178.511719 183.980469 L 190.011719 183.980469 Z M 34.320312 102.742188 L 97.464844 102.742188 L 97.464844 108.964844 L 102.742188 108.964844 L 102.742188 102.742188 L 147.035156 102.742188 L 147.035156 108.964844 L 152.878906 108.964844 L 152.878906 102.742188 L 197.363281 102.742188 L 197.363281 108.964844 L 209.992188 108.964844 L 209.992188 114.996094 L 216.023438 114.996094 L 216.023438 121.972656 L 222.246094 121.972656 L 222.246094 141.195312 L 216.023438 141.195312 L 216.023438 147.226562 L 197.363281 147.226562 L 197.363281 153.070312 L 209.992188 153.070312 L 209.992188 159.292969 L 216.023438 159.292969 L 216.023438 165.324219 L 222.246094 165.324219 L 222.246094 209.617188 L 216.023438 209.617188 L 216.023438 215.835938 L 209.992188 215.835938 L 209.992188 222.054688 L 197.363281 222.054688 L 197.363281 228.273438 L 158.910156 228.273438 L 158.910156 222.054688 L 153.632812 222.054688 L 153.632812 228.273438 L 108.777344 228.273438 L 108.777344 222.054688 L 97.464844 222.054688 L 97.464844 228.273438 L 33.757812 228.273438 L 33.757812 102.742188 Z M 196.421875 146.472656 L 196.421875 141.195312 L 190.011719 141.195312 L 190.011719 134.40625 L 184.546875 134.40625 L 184.546875 146.46875 L 196.421875 146.46875 Z M 196.421875 146.472656 "/>
<path style=" stroke:none;fill-rule:evenodd;fill:rgb(0%,0%,0%);fill-opacity:1;" d="M 178.136719 177.570312 L 190.765625 177.570312 L 190.765625 184.734375 L 177.761719 184.734375 L 177.761719 177.570312 Z M 96.710938 103.683594 L 34.699219 103.683594 L 34.699219 227.332031 L 96.710938 227.332031 L 96.710938 221.300781 L 109.71875 221.300781 L 109.71875 227.332031 L 152.878906 227.332031 L 152.878906 221.300781 L 159.664062 221.300781 L 159.664062 227.332031 L 196.421875 227.332031 L 196.421875 221.300781 L 209.238281 221.300781 L 209.238281 214.894531 L 215.269531 214.894531 L 215.269531 208.863281 L 221.300781 208.863281 L 221.300781 166.074219 L 215.269531 166.074219 L 215.269531 160.042969 L 209.238281 160.042969 L 209.238281 154.011719 L 196.421875 154.011719 L 196.421875 147.226562 L 183.789062 147.226562 L 183.789062 133.65625 L 190.765625 133.65625 L 190.765625 140.253906 L 197.363281 140.253906 L 197.363281 146.472656 L 215.269531 146.472656 L 215.269531 140.253906 L 221.300781 140.253906 L 221.300781 122.722656 L 215.269531 122.722656 L 215.269531 115.75 L 209.238281 115.75 L 209.238281 109.71875 L 196.421875 109.71875 L 196.421875 103.683594 L 153.636719 103.683594 L 153.636719 109.714844 L 146.285156 109.714844 L 146.285156 103.683594 L 103.496094 103.683594 L 103.496094 109.714844 L 96.710938 109.714844 Z M 128 146.472656 L 134.972656 146.472656 L 134.972656 153.070312 L 141.003906 153.070312 L 141.003906 159.289062 L 147.035156 159.289062 L 147.035156 165.320312 L 153.636719 165.320312 L 153.636719 172.105469 L 141.003906 172.105469 L 141.003906 178.324219 L 134.972656 178.324219 L 134.972656 184.734375 L 127.621094 184.734375 L 127.621094 146.472656 Z M 65.234375 146.472656 L 78.429688 146.472656 L 78.429688 177.570312 L 84.457031 177.570312 L 84.457031 191.140625 L 64.855469 191.140625 L 64.855469 146.472656 Z M 65.234375 146.472656 "/>
<path style=" stroke:none;fill-rule:evenodd;fill:rgb(60.392157%,56.862745%,25.490196%);fill-opacity:1;" d="M 190.390625 128 L 196.796875 128 L 196.796875 134.03125 L 209.613281 134.03125 L 209.613281 128 L 215.648438 128 L 215.648438 140.628906 L 196.796875 140.628906 L 196.796875 134.03125 L 190.390625 134.03125 Z M 140.628906 184.359375 L 146.660156 184.359375 L 146.660156 196.796875 L 153.257812 196.796875 L 153.257812 203.207031 L 165.511719 203.207031 L 165.511719 209.234375 L 196.800781 209.234375 L 196.800781 203.207031 L 203.019531 203.207031 L 203.019531 196.796875 L 209.617188 196.796875 L 209.617188 190.765625 L 215.652344 190.765625 L 215.652344 209.234375 L 209.617188 209.234375 L 209.617188 215.457031 L 196.800781 215.457031 L 196.800781 221.679688 L 159.292969 221.679688 L 159.292969 215.457031 L 153.261719 215.457031 L 153.261719 209.234375 L 146.664062 209.234375 L 146.664062 203.207031 L 140.632812 203.207031 L 140.632812 184.359375 Z M 184.171875 165.695312 L 190.390625 165.695312 L 190.390625 171.730469 L 196.796875 171.730469 L 196.796875 177.949219 L 190.390625 177.949219 L 190.390625 171.730469 L 184.171875 171.730469 Z M 140.628906 146.847656 L 146.660156 146.847656 L 146.660156 153.632812 L 153.257812 153.632812 L 153.257812 159.664062 L 146.660156 159.664062 L 146.660156 153.632812 L 140.628906 153.632812 Z M 140.628906 146.847656 "/>
<path style=" stroke:none;fill-rule:evenodd;fill:rgb(95.686275%,89.803922%,26.666667%);fill-opacity:1;" d="M 140.628906 177.949219 L 159.289062 177.949219 L 159.289062 184.359375 L 165.511719 184.359375 L 165.511719 190.765625 L 190.390625 190.765625 L 190.390625 184.359375 L 196.796875 184.359375 L 196.796875 171.726562 L 190.390625 171.726562 L 190.390625 165.695312 L 184.171875 165.695312 L 184.171875 153.632812 L 196.796875 153.632812 L 196.796875 159.664062 L 209.613281 159.664062 L 209.613281 165.695312 L 215.648438 165.695312 L 215.648438 190.765625 L 209.613281 190.765625 L 209.613281 196.796875 L 203.019531 196.796875 L 203.019531 203.207031 L 196.796875 203.207031 L 196.796875 209.234375 L 165.507812 209.234375 L 165.507812 203.207031 L 153.257812 203.207031 L 153.257812 196.796875 L 146.65625 196.796875 L 146.65625 184.359375 L 140.625 184.359375 L 140.625 177.949219 Z M 153.257812 115.371094 L 146.660156 115.371094 L 146.660156 122.34375 L 140.628906 122.34375 L 140.628906 146.847656 L 146.660156 146.847656 L 146.660156 153.632812 L 153.257812 153.632812 L 153.257812 134.03125 L 159.289062 134.03125 L 159.289062 128 L 196.796875 128 L 196.796875 134.03125 L 209.613281 134.03125 L 209.613281 128 L 215.648438 128 L 215.648438 122.34375 L 209.613281 122.34375 L 209.613281 115.371094 L 196.796875 115.371094 L 196.796875 109.339844 L 153.257812 109.339844 Z M 153.257812 115.371094 "/>
<path style=" stroke:none;fill-rule:evenodd;fill:rgb(80%,14.901961%,17.647059%);fill-opacity:1;" d="M 40.351562 109.339844 L 90.492188 109.339844 L 90.492188 115.371094 L 84.082031 115.371094 L 84.082031 128 L 59.203125 128 L 59.203125 196.796875 L 90.492188 196.796875 L 90.492188 190.765625 L 97.089844 190.765625 L 97.089844 184.359375 L 103.121094 184.359375 L 103.121094 177.949219 L 109.152344 177.949219 L 109.152344 134.03125 L 121.96875 134.03125 L 121.96875 184.359375 L 115.371094 184.359375 L 115.371094 190.765625 L 109.152344 190.765625 L 109.152344 196.796875 L 103.121094 196.796875 L 103.121094 203.207031 L 90.492188 203.207031 L 90.492188 209.238281 L 40.351562 209.238281 Z M 40.351562 109.339844 "/>
<path style=" stroke:none;fill-rule:evenodd;fill:rgb(57.647059%,18.039216%,20.392157%);fill-opacity:1;" d="M 59.203125 128 L 84.082031 128 L 84.082031 134.03125 L 78.050781 134.03125 L 78.050781 140.628906 L 59.203125 140.628906 Z M 90.492188 109.339844 L 97.089844 109.339844 L 97.089844 115.371094 L 90.492188 115.371094 L 90.492188 122.347656 L 84.082031 122.347656 L 84.082031 115.371094 L 90.492188 115.371094 Z M 40.351562 209.238281 L 90.492188 209.238281 L 90.492188 203.207031 L 103.121094 203.207031 L 103.121094 215.457031 L 97.089844 215.457031 L 97.089844 221.679688 L 40.351562 221.679688 Z M 40.351562 209.238281 "/>
<path style=" stroke:none;fill-rule:evenodd;fill:rgb(0%,0%,0%);fill-opacity:1;" d="M 64.855469 28.667969 L 40.730469 28.667969 L 40.730469 108.964844 L 64.855469 108.964844 L 64.855469 84.269531 L 72.207031 84.269531 L 72.207031 96.335938 L 78.429688 96.335938 L 78.429688 108.964844 L 96.710938 108.964844 L 96.710938 96.335938 L 102.742188 96.335938 L 102.742188 84.269531 L 109.71875 84.269531 L 109.71875 108.964844 L 134.03125 108.964844 L 134.03125 28.667969 L 109.71875 28.667969 L 109.71875 34.699219 L 103.496094 34.699219 L 103.496094 47.515625 L 97.464844 47.515625 L 97.464844 59.578125 L 90.867188 59.578125 L 90.867188 72.207031 L 83.703125 72.207031 L 83.703125 59.578125 L 77.484375 59.578125 L 77.484375 47.515625 L 71.453125 47.515625 L 71.453125 34.699219 L 64.855469 34.699219 Z M 64.855469 28.667969 "/>
<path style=" stroke:none;fill-rule:evenodd;fill:rgb(80.784314%,80.784314%,80.784314%);fill-opacity:1;" d="M 46.574219 34.320312 L 59.203125 34.320312 L 59.203125 40.917969 L 65.234375 40.917969 L 65.234375 52.980469 L 71.832031 52.980469 L 71.832031 65.800781 L 78.050781 65.800781 L 78.050781 77.863281 L 84.082031 77.863281 L 84.082031 90.492188 L 90.492188 90.492188 L 90.492188 71.832031 L 97.089844 71.832031 L 97.089844 59.203125 L 103.121094 59.203125 L 103.121094 47.140625 L 109.152344 47.140625 L 109.152344 34.320312 L 121.96875 34.320312 L 121.96875 103.121094 L 115.371094 103.121094 L 115.371094 59.203125 L 109.152344 59.203125 L 109.152344 71.832031 L 103.121094 71.832031 L 103.121094 84.648438 L 97.089844 84.648438 L 97.089844 96.710938 L 90.492188 96.710938 L 90.492188 103.121094 L 84.082031 103.121094 L 84.082031 96.710938 L 78.050781 96.710938 L 78.050781 84.648438 L 71.832031 84.648438 L 71.832031 71.832031 L 65.234375 71.832031 L 65.234375 59.203125 L 59.203125 59.203125 L 59.203125 52.980469 L 53.171875 52.980469 L 53.171875 103.121094 L 46.574219 103.121094 Z M 46.574219 34.320312 "/>
<path style=" stroke:none;fill-rule:evenodd;fill:rgb(55.686275%,56.078431%,56.078431%);fill-opacity:1;" d="M 121.96875 34.320312 L 128 34.320312 L 128 103.121094 L 121.96875 103.121094 Z M 109.152344 59.203125 L 115.371094 59.203125 L 115.371094 65.800781 L 109.152344 65.800781 Z M 59.203125 34.320312 L 65.234375 34.320312 L 65.234375 40.917969 L 59.203125 40.917969 Z M 65.234375 47.140625 L 71.832031 47.140625 L 71.832031 52.980469 L 65.234375 52.980469 Z M 71.832031 59.203125 L 78.050781 59.203125 L 78.050781 65.800781 L 71.832031 65.800781 Z M 78.050781 71.832031 L 84.082031 71.832031 L 84.082031 77.863281 L 78.050781 77.863281 Z M 84.082031 84.648438 L 90.492188 84.648438 L 90.492188 90.492188 L 84.082031 90.492188 Z M 53.171875 52.980469 L 53.171875 103.121094 L 59.203125 103.121094 L 59.203125 65.800781 L 65.234375 65.800781 L 65.234375 59.203125 L 59.203125 59.203125 L 59.203125 52.980469 Z M 53.171875 52.980469 "/>
<path style=" stroke:none;fill-rule:evenodd;fill:rgb(0%,0%,0%);fill-opacity:1;" d="M 190.011719 28.667969 L 159.664062 28.667969 L 159.664062 34.699219 L 147.035156 34.699219 L 147.035156 41.296875 L 141.003906 41.296875 L 141.003906 65.421875 L 147.035156 65.421875 L 147.035156 71.453125 L 159.664062 71.453125 L 159.664062 77.484375 L 178.511719 77.484375 L 178.511719 84.269531 L 184.546875 84.269531 L 184.546875 90.867188 L 165.132812 90.867188 L 165.132812 85.027344 L 158.910156 85.027344 L 158.910156 78.238281 L 141.003906 78.238281 L 141.003906 96.335938 L 147.035156 96.335938 L 147.035156 102.742188 L 153.636719 102.742188 L 153.636719 108.964844 L 196.421875 108.964844 L 196.421875 102.742188 L 202.640625 102.742188 L 202.640625 96.335938 L 209.238281 96.335938 L 209.238281 78.238281 L 202.640625 78.238281 L 202.640625 72.207031 L 196.421875 72.207031 L 196.421875 66.175781 L 183.792969 66.175781 L 183.792969 59.578125 L 165.132812 59.578125 L 165.132812 46.761719 L 184.546875 46.761719 L 184.546875 58.824219 L 209.238281 58.824219 L 209.238281 41.296875 L 202.640625 41.296875 L 202.640625 34.699219 L 190.011719 34.699219 Z M 190.011719 28.667969 "/>
<path style=" stroke:none;fill-rule:evenodd;fill:rgb(80.784314%,80.784314%,80.784314%);fill-opacity:1;" d="M 146.660156 40.917969 L 159.289062 40.917969 L 159.289062 34.320312 L 184.171875 34.320312 L 184.171875 40.917969 L 196.796875 40.917969 L 196.796875 52.980469 L 190.390625 52.980469 L 190.390625 47.140625 L 184.171875 47.140625 L 184.171875 40.917969 L 159.289062 40.917969 L 159.289062 47.140625 L 153.257812 47.140625 L 153.257812 65.800781 L 146.660156 65.800781 Z M 159.289062 65.800781 L 159.289062 71.832031 L 178.136719 71.832031 L 178.136719 77.863281 L 184.171875 77.863281 L 184.171875 84.648438 L 190.390625 84.648438 L 190.390625 90.492188 L 184.171875 90.492188 L 184.171875 96.710938 L 159.289062 96.710938 L 159.289062 84.648438 L 146.660156 84.648438 L 146.660156 96.710938 L 153.257812 96.710938 L 153.257812 103.121094 L 190.390625 103.121094 L 190.390625 96.710938 L 196.796875 96.710938 L 196.796875 77.863281 L 190.390625 77.863281 L 190.390625 71.832031 L 178.136719 71.832031 L 178.136719 65.800781 Z M 159.289062 65.800781 "/>
<path style=" stroke:none;fill-rule:evenodd;fill:rgb(55.686275%,56.078431%,56.078431%);fill-opacity:1;" d="M 159.289062 40.917969 L 165.511719 40.917969 L 165.511719 47.140625 L 159.289062 47.140625 L 159.289062 59.203125 L 165.511719 59.203125 L 165.511719 65.800781 L 153.257812 65.800781 L 153.257812 47.140625 L 159.289062 47.140625 Z M 196.796875 77.863281 L 203.019531 77.863281 L 203.019531 96.710938 L 196.796875 96.710938 L 196.796875 103.121094 L 190.390625 103.121094 L 190.390625 96.710938 L 196.796875 96.710938 L 196.796875 77.863281 L 190.390625 77.863281 L 190.390625 71.832031 L 196.796875 71.832031 Z M 178.136719 65.800781 L 184.171875 65.800781 L 184.171875 71.832031 L 178.136719 71.832031 Z M 196.796875 40.917969 L 203.019531 40.917969 L 203.019531 52.980469 L 196.796875 52.980469 Z M 184.171875 34.320312 L 190.390625 34.320312 L 190.390625 40.917969 L 184.171875 40.917969 Z M 184.171875 34.320312 "/>
<path style=" stroke:none;fill-rule:evenodd;fill:rgb(50.588235%,17.647059%,54.117647%);fill-opacity:1;" d="M 128 128 L 134.597656 128 L 134.597656 134.03125 L 128 134.03125 Z M 109.152344 209.238281 L 115.371094 209.238281 L 115.371094 215.460938 L 121.96875 215.460938 L 121.96875 209.238281 L 128 209.238281 L 128 215.460938 L 140.628906 215.460938 L 140.628906 221.679688 L 146.660156 221.679688 L 146.660156 215.460938 L 140.628906 215.460938 L 140.628906 209.238281 L 134.597656 209.238281 L 134.597656 221.679688 L 128 221.679688 L 128 215.460938 L 121.96875 215.460938 L 121.96875 221.679688 L 115.371094 221.679688 L 115.371094 215.460938 L 109.152344 215.460938 Z M 159.289062 140.628906 L 165.511719 140.628906 L 165.511719 146.851562 L 159.289062 146.851562 Z M 159.289062 165.695312 L 165.511719 165.695312 L 165.511719 171.730469 L 159.289062 171.730469 Z M 159.289062 153.632812 L 165.511719 153.632812 L 165.511719 159.664062 L 159.289062 159.664062 Z M 97.089844 159.664062 L 103.121094 159.664062 L 103.121094 165.695312 L 97.089844 165.695312 Z M 97.089844 146.847656 L 103.121094 146.847656 L 103.121094 153.632812 L 97.089844 153.632812 Z M 97.089844 134.03125 L 103.121094 134.03125 L 103.121094 128 L 109.152344 128 L 109.152344 134.03125 L 103.121094 134.03125 L 103.121094 140.628906 L 97.089844 140.628906 Z M 97.089844 134.03125 "/>
<path style=" stroke:none;fill-rule:evenodd;fill:rgb(61.176471%,14.901961%,52.54902%);fill-opacity:1;" d="M 128 190.765625 L 134.597656 190.765625 L 134.597656 196.796875 L 128 196.796875 L 128 203.207031 L 134.597656 203.207031 L 134.597656 209.238281 L 128 209.238281 L 128 203.207031 L 121.96875 203.207031 L 121.96875 209.238281 L 115.371094 209.238281 L 115.371094 203.207031 L 121.96875 203.207031 L 121.96875 196.796875 L 128 196.796875 Z M 90.492188 177.949219 L 97.089844 177.949219 L 97.089844 184.359375 L 90.492188 184.359375 L 90.492188 177.949219 L 84.082031 177.949219 L 84.082031 171.726562 L 90.492188 171.726562 L 90.492188 165.695312 L 84.082031 165.695312 L 84.082031 159.664062 L 90.492188 159.664062 L 90.492188 153.632812 L 84.082031 153.632812 L 84.082031 146.847656 L 90.492188 146.847656 L 90.492188 140.628906 L 84.082031 140.628906 L 84.082031 134.03125 L 90.492188 134.03125 L 90.492188 128 L 97.089844 128 L 97.089844 122.34375 L 103.121094 122.34375 L 103.121094 115.371094 L 109.152344 115.371094 L 109.152344 109.339844 L 115.371094 109.339844 L 115.371094 115.371094 L 121.96875 115.371094 L 121.96875 109.339844 L 128 109.339844 L 128 115.371094 L 134.597656 115.371094 L 134.597656 109.339844 L 140.628906 109.339844 L 140.628906 115.371094 L 134.597656 115.371094 L 134.597656 122.34375 L 128 122.34375 L 128 128 L 121.96875 128 L 121.96875 122.34375 L 115.371094 122.34375 L 115.371094 128 L 109.152344 128 L 109.152344 122.34375 L 103.121094 122.34375 L 103.121094 128 L 97.089844 128 L 97.089844 134.03125 L 90.492188 134.03125 L 90.492188 140.628906 L 97.089844 140.628906 L 97.089844 146.851562 L 90.492188 146.851562 L 90.492188 153.632812 L 97.089844 153.632812 L 97.089844 159.664062 L 90.492188 159.664062 L 90.492188 165.695312 L 97.089844 165.695312 L 97.089844 171.730469 L 90.492188 171.730469 Z M 128 122.34375 L 128 115.371094 L 121.96875 115.371094 L 121.96875 122.34375 Z M 115.371094 122.34375 L 115.371094 115.371094 L 109.152344 115.371094 L 109.152344 122.34375 Z M 165.507812 134.03125 L 171.539062 134.03125 L 171.539062 140.628906 L 178.136719 140.628906 L 178.136719 146.851562 L 171.539062 146.851562 L 171.539062 153.632812 L 178.136719 153.632812 L 178.136719 159.664062 L 171.539062 159.664062 L 171.539062 165.695312 L 178.136719 165.695312 L 178.136719 171.730469 L 171.539062 171.730469 L 171.539062 177.949219 L 165.507812 177.949219 L 165.507812 171.730469 L 171.539062 171.730469 L 171.539062 165.695312 L 165.507812 165.695312 L 165.507812 159.664062 L 171.539062 159.664062 L 171.539062 153.632812 L 165.507812 153.632812 L 165.507812 146.851562 L 171.539062 146.851562 L 171.539062 140.628906 L 165.507812 140.628906 Z M 165.507812 134.03125 "/>
<path style=" stroke:none;fill-rule:evenodd;fill:rgb(20%,22.352941%,56.862745%);fill-opacity:1;" d="M 165.507812 177.949219 L 171.539062 177.949219 L 171.539062 171.726562 L 165.507812 171.726562 L 165.507812 165.695312 L 171.539062 165.695312 L 171.539062 159.664062 L 165.507812 159.664062 L 165.507812 153.632812 L 171.539062 153.632812 L 171.539062 146.847656 L 165.507812 146.847656 L 165.507812 140.628906 L 171.539062 140.628906 L 171.539062 134.03125 L 178.136719 134.03125 L 178.136719 140.628906 L 171.539062 140.628906 L 171.539062 146.847656 L 178.136719 146.847656 L 178.136719 153.632812 L 171.539062 153.632812 L 171.539062 159.664062 L 178.136719 159.664062 L 178.136719 165.695312 L 171.539062 165.695312 L 171.539062 171.726562 L 178.136719 171.726562 L 178.136719 177.949219 L 171.539062 177.949219 L 171.539062 184.359375 L 165.507812 184.359375 Z M 97.089844 177.949219 L 90.492188 177.949219 L 90.492188 171.726562 L 84.082031 171.726562 L 84.082031 165.695312 L 90.492188 165.695312 L 90.492188 159.664062 L 84.082031 159.664062 L 84.082031 153.632812 L 90.492188 153.632812 L 90.492188 146.847656 L 84.082031 146.847656 L 84.082031 140.628906 L 90.492188 140.628906 L 90.492188 134.03125 L 97.089844 134.03125 L 97.089844 128 L 90.492188 128 L 90.492188 122.34375 L 97.089844 122.34375 L 97.089844 115.371094 L 103.121094 115.371094 L 103.121094 109.339844 L 109.152344 109.339844 L 109.152344 115.371094 L 115.371094 115.371094 L 115.371094 109.339844 L 121.96875 109.339844 L 121.96875 115.371094 L 128 115.371094 L 128 109.339844 L 134.597656 109.339844 L 134.597656 115.371094 L 128 115.371094 L 128 122.34375 L 134.597656 122.34375 L 134.597656 128 L 128 128 L 128 122.34375 L 121.96875 122.34375 L 121.96875 128 L 115.371094 128 L 115.371094 122.34375 L 109.152344 122.34375 L 109.152344 128 L 103.121094 128 L 103.121094 134.03125 L 97.089844 134.03125 L 97.089844 140.628906 L 90.492188 140.628906 L 90.492188 146.851562 L 97.089844 146.851562 L 97.089844 153.632812 L 90.492188 153.632812 L 90.492188 159.664062 L 97.089844 159.664062 L 97.089844 165.695312 L 90.492188 165.695312 L 90.492188 171.730469 L 97.089844 171.730469 Z M 121.96875 115.371094 L 115.371094 115.371094 L 115.371094 122.34375 L 121.96875 122.34375 Z M 109.152344 115.371094 L 103.121094 115.371094 L 103.121094 122.34375 L 109.152344 122.34375 Z M 103.121094 122.34375 L 97.089844 122.34375 L 97.089844 128 L 103.121094 128 Z M 109.152344 203.207031 L 115.371094 203.207031 L 115.371094 196.796875 L 121.96875 196.796875 L 121.96875 190.765625 L 128 190.765625 L 128 196.796875 L 134.597656 196.796875 L 134.597656 203.207031 L 140.628906 203.207031 L 140.628906 209.238281 L 134.597656 209.238281 L 134.597656 203.207031 L 128 203.207031 L 128 209.238281 L 121.96875 209.238281 L 121.96875 203.207031 L 115.371094 203.207031 L 115.371094 209.238281 L 109.152344 209.238281 Z M 128 196.796875 L 121.96875 196.796875 L 121.96875 203.207031 L 128 203.207031 Z M 128 196.796875 "/>
<path style=" stroke:none;fill-rule:evenodd;fill:rgb(20%,20.392157%,54.901961%);fill-opacity:1;" d="M 109.152344 215.457031 L 115.371094 215.457031 L 115.371094 209.234375 L 121.96875 209.234375 L 121.96875 215.457031 L 128 215.457031 L 128 209.234375 L 134.597656 209.234375 L 134.597656 215.457031 L 140.628906 215.457031 L 140.628906 209.234375 L 146.660156 209.234375 L 146.660156 215.457031 L 153.261719 215.457031 L 153.261719 221.679688 L 146.660156 221.679688 L 146.660156 215.457031 L 140.628906 215.457031 L 140.628906 221.679688 L 134.597656 221.679688 L 134.597656 215.457031 L 128 215.457031 L 128 221.679688 L 121.96875 221.679688 L 121.96875 215.457031 L 115.371094 215.457031 L 115.371094 221.679688 L 109.152344 221.679688 Z M 97.089844 165.695312 L 103.121094 165.695312 L 103.121094 171.730469 L 97.089844 171.730469 Z M 128 134.03125 L 134.597656 134.03125 L 134.597656 140.628906 L 128 140.628906 Z M 134.597656 115.371094 L 140.628906 115.371094 L 140.628906 109.339844 L 146.660156 109.339844 L 146.660156 115.371094 L 140.628906 115.371094 L 140.628906 122.34375 L 134.597656 122.34375 Z M 97.089844 140.628906 L 103.121094 140.628906 L 103.121094 146.851562 L 97.089844 146.851562 Z M 97.089844 153.632812 L 103.121094 153.632812 L 103.121094 159.664062 L 97.089844 159.664062 Z M 159.289062 134.03125 L 165.511719 134.03125 L 165.511719 140.628906 L 159.289062 140.628906 Z M 159.289062 171.730469 L 165.511719 171.730469 L 165.511719 177.949219 L 159.289062 177.949219 Z M 159.289062 159.664062 L 165.511719 159.664062 L 165.511719 165.695312 L 159.289062 165.695312 Z M 159.289062 146.847656 L 165.511719 146.847656 L 165.511719 153.632812 L 159.289062 153.632812 Z M 159.289062 146.847656 "/>
</g>
</svg>
